<?xml version="1.0" standalone="no"?>
<!DOCTYPE svg PUBLIC "-//W3C//DTD SVG 1.1//EN" "http://www.w3.org/Graphics/SVG/1.1/DTD/svg11.dtd" >
<svg xmlns="http://www.w3.org/2000/svg" xmlns:xlink="http://www.w3.org/1999/xlink" version="1.1">
<metadata>
Created by FontForge 20200511 at Mon May 24 19:30:11 2021
 By convertio
Copyright (c) Font Awesome
</metadata>
<defs>
<font id="FontAwesome6Duotone-Solid" horiz-adv-x="512" >
  <font-face 
    font-family="Font Awesome 6 Duotone Solid"
    font-weight="900"
    font-stretch="normal"
    units-per-em="512"
    panose-1="2 0 5 3 0 0 0 0 0 0"
    ascent="448"
    descent="-64"
    bbox="-2 -65.3077 640.421 449.125"
    underline-thickness="25"
    underline-position="-49"
    unicode-range="U+0022-10F8FF"
  />
<missing-glyph horiz-adv-x="384" 
d="M336 448h-288q-20 -1 -34 -14q-13 -14 -14 -34v-416q1 -20 14 -34q14 -13 34 -14h288q20 1 34 14q13 14 14 34v416q-1 20 -14 34q-14 13 -34 14v0zM320 0h-256v384h256v-384v0z" />
    <glyph glyph-name="exclamation-primary" unicode="!" horiz-adv-x="128" 
d="M64 96q14 0 23 9v0q9 9 9 22v257q0 14 -9 23t-23 9t-23 -9t-9 -23v-255q0 -14 9 -24q9 -9 23 -9v0z" />
    <glyph glyph-name="ditto-primary" unicode="&#xfe01;" horiz-adv-x="320" 
d="M305 393q-20 23 -49 23v0q-29 0 -49 -23q-19 -24 -14 -55l25 -145q3 -15 13 -24t24 -9t24 9q11 9 14 24l25 145q6 31 -13 55v0z" />
    <glyph glyph-name="hashtag-primary" unicode="#" horiz-adv-x="448" 
d="M416 321h-58l-11 -64h69q14 0 23 9t9 22q0 14 -9 23q-9 10 -23 10v0zM0 96q0 -14 9 -22v0q9 -9 23 -9h58l11 64h-69q-14 0 -23 -10q-9 -9 -9 -23v0zM384 129h-218l-11 -64h229q14 0 23 9t9 22q0 14 -9 23q-9 10 -23 10v0zM64 257h218l11 64h-229q-14 0 -23 -9
q-9 -10 -9 -23q0 -14 9 -23t23 -9v0z" />
    <glyph glyph-name="dollar-sign-primary" unicode="$" horiz-adv-x="320" 
d="M166 1q-19 0 -39 3q-41 7 -78 21l-11 4q-13 4 -19 16q-5 11 -1 24t16 18q11 6 24 2l12 -4v0q34 -13 66 -19q37 -5 67 2q30 8 36 32q5 21 -13 34q-18 12 -74 27l-15 4h-1q-23 6 -54 19q-30 13 -51 39q-20 27 -13 72q10 50 57 73t118 13q25 -4 61 -16q13 -4 19 -16
q5 -11 1 -24t-16 -19q-11 -5 -24 -1q-31 10 -50 13q-37 5 -67 -2q-30 -8 -36 -33q-5 -17 9 -30q14 -12 64 -26l14 -4q32 -8 65 -21q34 -14 55 -41q21 -26 14 -72q-8 -42 -44 -65t-92 -23v0z" />
    <glyph glyph-name="percent-primary" unicode="%" horiz-adv-x="384" 
d="M64 256q27 1 45 19v0q18 18 19 45q-1 27 -19 45t-45 19q-27 -1 -45 -19t-19 -45q1 -27 19 -45t45 -19v0zM320 128q-27 -1 -45 -19v0q-18 -18 -19 -45q1 -27 19 -45t45 -19q27 1 45 19t19 45q-1 27 -19 45t-45 19v0z" />
    <glyph glyph-name="ampersand-primary" unicode="&#xfe01;" horiz-adv-x="384" 
d="M201 208l52 41q34 28 35 73q-1 40 -28 66q-26 27 -66 28h-52q-40 -1 -66 -28q-27 -26 -28 -66q0 -42 29 -74l30 -32l-66 -51q-40 -33 -41 -86q1 -47 33 -78q31 -32 78 -33h70q59 2 93 50l8 11l47 -51q10 -10 23 -10q12 0 22 9t10 22t-9 23l-174 186v0zM142 352h52
q13 0 21 -9q9 -8 9 -21q0 -15 -11 -23l-55 -44l-34 37q-12 13 -12 30q0 13 9 21q8 9 21 9v0zM221 53q-15 -20 -40 -21h-70q-20 1 -33 14t-14 33q1 22 17 36l70 54l86 -92l-16 -24v0z" />
    <glyph glyph-name="apostrophe-primary" unicode="'" horiz-adv-x="192" 
 />
    <glyph glyph-name="bracket-round-primary" unicode="(" horiz-adv-x="192" 
 />
    <glyph glyph-name="bracket-round-right-primary" unicode=")" horiz-adv-x="192" 
 />
    <glyph glyph-name="asterisk-primary" unicode="*" horiz-adv-x="448" 
d="M417 80q-10 -16 -28 -16q-8 0 -16 4l-117 69v-137q0 -14 -9 -23t-22 -9t-23 9t-10 23v137l-118 -69q-8 -4 -16 -4q-18 0 -28 16q-6 12 -3 24q3 13 15 20l117 68l-117 68q-12 7 -15 20q-4 12 2 24q13 18 33 16q6 -1 12 -4l118 -69v137q0 14 9 23t23 9t23 -9t9 -23v-137
l118 69q6 3 12 4q21 2 31 -16q7 -12 3 -24q-3 -13 -15 -20l-117 -68l118 -68q12 -7 15 -20q3 -12 -4 -24v0z" />
    <glyph glyph-name="plus-primary" unicode="+" horiz-adv-x="448" 
 />
    <glyph glyph-name="comma-primary" unicode="," horiz-adv-x="192" 
 />
    <glyph glyph-name="hyphen-primary" unicode="-" horiz-adv-x="320" 
 />
    <glyph glyph-name="period-primary" unicode="." horiz-adv-x="128" 
d="M64 96q-27 -1 -45 -19v0q-18 -18 -19 -45q1 -27 19 -45t45 -19q27 1 45 19t19 45q-1 27 -19 45t-45 19v0z" />
    <glyph glyph-name="slash-forward-primary" unicode="/" horiz-adv-x="320" 
 />
    <glyph glyph-name="0-primary" unicode="0" horiz-adv-x="320" 
 />
    <glyph glyph-name="1-primary" unicode="1" horiz-adv-x="256" 
 />
    <glyph glyph-name="2-primary" unicode="2" horiz-adv-x="320" 
 />
    <glyph glyph-name="3-primary" unicode="3" horiz-adv-x="320" 
 />
    <glyph glyph-name="4-primary" unicode="4" horiz-adv-x="384" 
 />
    <glyph glyph-name="5-primary" unicode="5" horiz-adv-x="320" 
 />
    <glyph glyph-name="6-primary" unicode="6" horiz-adv-x="320" 
 />
    <glyph glyph-name="7-primary" unicode="7" horiz-adv-x="320" 
 />
    <glyph glyph-name="8-primary" unicode="8" horiz-adv-x="320" 
 />
    <glyph glyph-name="9-primary" unicode="9" horiz-adv-x="320" 
 />
    <glyph glyph-name="colon-primary" unicode=":" horiz-adv-x="128" 
d="M64 256q27 1 45 19v0q18 18 19 45q-1 27 -19 45t-45 19q-27 -1 -45 -19t-19 -45q1 -27 19 -45t45 -19v0z" />
    <glyph glyph-name="semicolon-primary" unicode=";" horiz-adv-x="192" 
d="M96 256q27 1 45 19v0q18 18 19 45q-1 27 -19 45t-45 19q-27 -1 -45 -19q-17 -18 -18 -45q0 -27 18 -45t45 -19v0z" />
    <glyph glyph-name="less-than-primary" unicode="&#xfe01;" horiz-adv-x="384" 
 />
    <glyph glyph-name="equals-primary" unicode="=" horiz-adv-x="448" 
 />
    <glyph glyph-name="greater-than-primary" unicode="&#xfe01;" horiz-adv-x="384" 
 />
    <glyph glyph-name="question-primary" unicode="?" horiz-adv-x="320" 
d="M204 416h-108q-41 -1 -68 -28t-28 -68q0 -14 9 -22q9 -9 23 -9t23 9t9 22q0 14 9 23t23 9h108q22 -1 37 -15q14 -15 15 -37q-1 -31 -30 -47l-98 -57q-16 -10 -16 -28v-40q0 -14 9 -23t23 -9t23 9t9 23v22l80 47q30 15 47 42q17 28 17 61q-1 49 -34 82t-82 34v0z" />
    <glyph glyph-name="at-primary" unicode="@" 
d="M384 129q-30 8 -32 39v120q-1 14 -16 16h-32q-12 -1 -15 -12q-22 11 -49 12q-48 -1 -79 -33q-32 -32 -33 -79q1 -48 33 -79q31 -32 78 -33q40 1 70 25q28 -36 75 -41v65v0zM239 144q-20 0 -34 14v0q-13 13 -14 34q1 20 14 34q14 13 34 14q20 -1 34 -14q14 -14 14 -34
q0 -21 -14 -34q-13 -14 -34 -14v0z" />
    <glyph glyph-name="a-primary" unicode="A" horiz-adv-x="384" 
 />
    <glyph glyph-name="b-primary" unicode="B" horiz-adv-x="320" 
 />
    <glyph glyph-name="c-primary" unicode="C" horiz-adv-x="384" 
 />
    <glyph glyph-name="d-primary" unicode="D" horiz-adv-x="384" 
 />
    <glyph glyph-name="e-primary" unicode="E" horiz-adv-x="320" 
 />
    <glyph glyph-name="f-primary" unicode="F" horiz-adv-x="320" 
 />
    <glyph glyph-name="g-primary" unicode="G" horiz-adv-x="448" 
 />
    <glyph glyph-name="h-primary" unicode="H" horiz-adv-x="384" 
 />
    <glyph glyph-name="i-primary" unicode="I" horiz-adv-x="320" 
 />
    <glyph glyph-name="j-primary" unicode="J" horiz-adv-x="320" 
 />
    <glyph glyph-name="k-primary" unicode="K" horiz-adv-x="320" 
 />
    <glyph glyph-name="l-primary" unicode="L" horiz-adv-x="320" 
 />
    <glyph glyph-name="m-primary" unicode="M" horiz-adv-x="448" 
 />
    <glyph glyph-name="n-primary" unicode="N" horiz-adv-x="384" 
 />
    <glyph glyph-name="o-primary" unicode="O" horiz-adv-x="448" 
 />
    <glyph glyph-name="p-primary" unicode="P" horiz-adv-x="320" 
 />
    <glyph glyph-name="q-primary" unicode="Q" horiz-adv-x="448" 
 />
    <glyph glyph-name="r-primary" unicode="R" horiz-adv-x="320" 
 />
    <glyph glyph-name="s-primary" unicode="S" horiz-adv-x="384" 
 />
    <glyph glyph-name="t-primary" unicode="T" horiz-adv-x="384" 
 />
    <glyph glyph-name="u-primary" unicode="U" horiz-adv-x="384" 
 />
    <glyph glyph-name="v-primary" unicode="V" horiz-adv-x="384" 
 />
    <glyph glyph-name="w-primary" unicode="W" horiz-adv-x="576" 
 />
    <glyph glyph-name="x-primary" unicode="X" horiz-adv-x="384" 
 />
    <glyph glyph-name="y-primary" unicode="Y" horiz-adv-x="384" 
 />
    <glyph glyph-name="z-primary" unicode="Z" horiz-adv-x="384" 
 />
    <glyph glyph-name="bracket-square-primary" unicode="[" horiz-adv-x="192" 
 />
    <glyph glyph-name="slash-back-primary" unicode="\" horiz-adv-x="320" 
 />
    <glyph glyph-name="bracket-square-right-primary" unicode="]" horiz-adv-x="192" 
 />
    <glyph glyph-name="accent-grave-primary" unicode="`" horiz-adv-x="192" 
 />
    <glyph glyph-name="bracket-curly-primary" unicode="{" horiz-adv-x="256" 
 />
    <glyph glyph-name="pipe-primary" unicode="|" horiz-adv-x="64" 
 />
    <glyph glyph-name="bracket-curly-right-primary" unicode="}" horiz-adv-x="256" 
 />
    <glyph glyph-name="tilde-primary" unicode="~" horiz-adv-x="448" 
 />
    <glyph glyph-name="cent-sign-primary" unicode="&#xfe01;" horiz-adv-x="320" 
d="M189 0q-76 0 -134 56q-55 59 -55 136t55 136q54 52 124 56t130 -43q10 -9 11 -22t-7 -23q-9 -11 -22 -12t-23 8q-39 30 -85 28q-47 -2 -82 -37q-37 -40 -37 -91t37 -91q35 -35 82 -37q46 -2 85 29q10 8 23 7t22 -12q8 -10 7 -23t-11 -22q-55 -43 -120 -43v0z" />
    <glyph glyph-name="sterling-sign-primary" unicode="&#xfe01;" horiz-adv-x="320" 
d="M288 -32h-256q-20 1 -29 18q-8 19 4 34q43 53 44 121v150q2 53 38 88q36 36 90 37q20 0 40 -6l79 -26q13 -5 19 -16q5 -12 1 -25q-4 -12 -16 -18q-11 -6 -24 -2l-79 26q-10 3 -20 3q-27 -1 -45 -18t-19 -43v-149q0 -58 -25 -109h198q14 0 23 -9q9 -10 9 -23q0 -14 -9 -23
q-9 -10 -23 -10v0z" />
    <glyph glyph-name="yen-sign-primary" unicode="&#xfe01;" horiz-adv-x="320" 
d="M315 366l-123 -184v-182q0 -14 -9 -23t-23 -9t-23 9t-9 23v182l-123 184q-7 12 -4 24q2 13 13 21q12 7 24 4q13 -2 21 -13l101 -152l101 152q8 11 21 13q12 3 24 -4q11 -8 13 -21q3 -12 -4 -24v0z" />
    <glyph glyph-name="section-primary" unicode="&#xfe01;" horiz-adv-x="256" 
d="M254 166q-6 -34 -29 -55q-33 24 -72 35q13 2 24 9t14 22q5 20 -10 31q-15 12 -62 25q-1 1 -8 3q-6 2 -8 2q-7 3 -16 5v1h-1q-9 3 -18 7v0q-19 8 -37 22q-16 14 -25 36q-9 21 -4 52q6 40 39 64q45 31 117 20q21 -4 53 -15q13 -5 18 -17q5 -11 1 -24q-5 -13 -17 -18
q-11 -6 -24 -1q-26 9 -42 12q-46 7 -69 -9q-11 -8 -13 -22q-4 -16 6 -28q11 -11 54 -25l12 -3v0q28 -8 57 -21q30 -13 48 -39q18 -25 12 -69v0z" />
    <glyph glyph-name="copyright-primary" unicode="&#xfe01;" 
d="M199 135q24 -23 56 -23v0v0q33 0 56 23q17 14 34 1q14 -17 0 -34q-37 -37 -90 -38v0v0q-52 1 -90 38q-37 39 -37 90t37 90q38 37 90 38v0v0q53 -1 90 -38q14 -17 0 -33q-17 -14 -34 0q-23 23 -56 23v0q-32 0 -56 -23q-23 -25 -23 -57t23 -57v0z" />
    <glyph glyph-name="angles-left-primary" unicode="&#xfe01;" horiz-adv-x="448" 
d="M192 0q-13 0 -23 9l-160 160q-9 10 -9 23t9 23l160 160q10 9 23 9t23 -9q9 -10 9 -23t-9 -23l-138 -137l138 -137q9 -10 9 -23t-9 -23q-10 -9 -23 -9v0z" />
    <glyph glyph-name="corner-primary" unicode="&#xfe01;" horiz-adv-x="448" 
 />
    <glyph glyph-name="registered-primary" unicode="&#xfe01;" 
d="M272 272h-64v-64h64q14 0 23 9t9 23t-9 23t-23 9v0zM350 98q7 -21 -12 -32q-5 -2 -10 -2q-15 0 -22 14l-38 82h-60v-72q-2 -22 -24 -24q-22 2 -24 24v208q2 22 24 24h88q34 -1 57 -23q22 -23 23 -57q-2 -44 -37 -67l35 -75v0z" />
    <glyph glyph-name="plus-minus-primary" unicode="&#xfe01;" horiz-adv-x="384" 
d="M48 240h112v-111q0 -14 9 -22q9 -9 23 -9t23 9t9 22v111h112q14 0 23 9t9 23t-9 23t-23 9h-112v112q0 14 -9 23t-23 9t-23 -9t-9 -23v-112h-112q-14 0 -23 -9t-9 -23t9 -23t23 -9v0z" />
    <glyph glyph-name="paragraph-primary" unicode="&#xfe01;" horiz-adv-x="448" 
d="M448 385q0 -14 -9 -24v0q-9 -9 -23 -9h-128v-352q0 -14 -9 -23t-22 -9t-23 9t-10 23v96h-25q-65 1 -112 41q-46 40 -54 103q-5 74 41 124t117 52h224q14 0 24 -9q9 -9 9 -22v0z" />
    <glyph glyph-name="angles-right-primary" unicode="&#xfe01;" horiz-adv-x="448" 
d="M256 0q-13 0 -23 9q-9 10 -9 23t9 23l138 137l-138 137q-9 10 -9 23t9 23q10 9 23 9t23 -9l160 -160q9 -10 9 -23t-9 -23l-160 -160q-10 -9 -23 -9v0z" />
    <glyph glyph-name="xmark-primary" unicode="&#xfe01;" horiz-adv-x="320" 
 />
    <glyph glyph-name="empty-set-primary" unicode="&#xfe01;" 
d="M503 439q-10 9 -23 9v0q-13 0 -23 -9l-448 -448q-9 -10 -9 -23t9 -23q10 -9 23 -9t23 9l448 448q9 10 9 23t-9 23v0z" />
    <glyph glyph-name="divide-primary" unicode="&#xfe01;" horiz-adv-x="448" 
d="M224 304q20 1 34 14v0q13 14 14 34q-1 20 -14 34q-14 13 -34 14q-20 -1 -34 -14q-13 -14 -14 -34q1 -20 14 -34q14 -13 34 -14v0zM224 80q-20 -1 -34 -14v0q-13 -14 -14 -34q1 -20 14 -34q14 -13 34 -14q20 1 34 14q13 14 14 34q-1 20 -14 34q-14 13 -34 14v0z" />
    <glyph glyph-name="minus-primary" unicode="&#xfe01;" horiz-adv-x="448" 
 />
    <glyph glyph-name="dash-primary" unicode="&#xfe01;" 
 />
    <glyph glyph-name="horizontal-rule-primary" unicode="&#xfe01;" horiz-adv-x="640" 
 />
    <glyph glyph-name="quote-left-primary" unicode="&#xfe01;" horiz-adv-x="448" 
d="M96 224q-17 0 -32 -6v6q1 27 19 45t45 19q14 0 23 9t9 23t-9 23t-23 9q-54 -1 -90 -38q-37 -36 -38 -90v-96q1 -41 28 -68t68 -28q41 1 68 28t28 68q-1 41 -28 68t-68 28v0z" />
    <glyph glyph-name="quote-right-primary" unicode="&#xfe01;" horiz-adv-x="448" 
d="M448 256q-1 41 -28 68v0q-27 27 -68 28q-41 -1 -68 -28t-28 -68q1 -41 28 -68t68 -28q17 0 32 6v-6q-1 -27 -19 -45t-45 -19q-14 0 -23 -9t-9 -23t9 -23t23 -9q54 1 90 38q37 36 38 90v96v0z" />
    <glyph glyph-name="angle-left-primary" unicode="&#xfe01;" horiz-adv-x="256" 
 />
    <glyph glyph-name="angle-right-primary" unicode="&#xfe01;" horiz-adv-x="256" 
 />
    <glyph glyph-name="lira-sign-primary" unicode="&#xfe01;" horiz-adv-x="320" 
d="M288 -32h-256q-20 1 -29 18q-8 19 4 34q43 53 44 121v150q2 53 38 88q36 36 90 37q20 0 40 -6l79 -26q13 -5 19 -16q5 -12 1 -25q-4 -12 -16 -18q-11 -6 -24 -2l-79 26q-10 3 -20 3q-27 -1 -45 -18t-19 -43v-149q0 -58 -25 -109h198q14 0 23 -9t9 -23t-9 -23
q-9 -10 -23 -10v0z" />
    <glyph glyph-name="rupee-sign-primary" unicode="&#xfe01;" 
d="M202 141q39 17 62 52v0q23 34 24 79q-2 61 -42 102q-41 40 -102 42h-80q-14 0 -23 -9t-9 -23v-384q0 -14 9 -23t23 -9t23 9t9 23v128h42l56 -140q9 -19 30 -20q6 0 12 2q12 6 17 17q5 12 1 25l-52 129v0zM96 352h48q34 -1 57 -23q22 -23 23 -57q-1 -34 -23 -57
q-23 -22 -57 -23h-48v160v0z" />
    <glyph glyph-name="won-sign-primary" unicode="&#xfe01;" 
d="M352 -31v0v0h-1q-23 2 -30 24l-65 259l-65 -260q-7 -22 -30 -24q-23 0 -31 22l-128 384q-4 13 1 24q6 12 19 16t24 -1q12 -6 16 -19l94 -280l69 278q7 23 31 24q24 -1 31 -24l69 -278l94 280q4 13 16 19q11 5 24 1t19 -16q5 -11 1 -24l-128 -384q-8 -20 -30 -21v0z" />
    <glyph glyph-name="shekel-sign-primary" unicode="&#xfe01;" horiz-adv-x="448" 
d="M32 -32q-14 0 -23 9v0q-9 9 -9 23v384q0 14 9 23t23 9h160q54 -1 90 -38q37 -36 38 -90v-160q0 -14 -9 -23t-23 -9t-23 9t-9 23v160q-1 27 -19 45t-45 19h-128v-352q0 -14 -9 -23t-23 -9v0z" />
    <glyph glyph-name="euro-sign-primary" unicode="&#xfe01;" horiz-adv-x="384" 
d="M351 12q3 -14 -4 -24v0q-7 -11 -20 -15q-24 -5 -47 -5q-89 1 -153 66q-42 45 -56 101q-14 57 0 114q14 56 56 101q40 41 92 57q53 16 108 4q13 -4 20 -15q7 -10 4 -24q-3 -13 -14 -20q-11 -6 -24 -4q-39 9 -75 -2q-37 -11 -65 -40q-45 -50 -45 -114t45 -114
q28 -29 65 -40q36 -11 75 -2q13 3 24 -4t14 -20v0z" />
    <glyph glyph-name="hryvnia-sign-primary" unicode="&#xfe01;" horiz-adv-x="384" 
d="M211 -32h-49q-48 1 -81 33q-32 33 -33 81q0 30 15 56q14 25 39 41l148 81q21 14 22 42q-1 21 -15 35t-35 15h-49q-32 -1 -54 -23q-10 -9 -23 -9t-23 9q-9 10 -9 23t9 23q42 40 100 41h49q48 -1 81 -33q32 -33 33 -81q0 -30 -15 -56q-14 -25 -39 -41l-148 -81
q-21 -14 -22 -42q1 -21 15 -35t35 -15h49q32 1 54 23q10 9 23 9t23 -9q9 -10 9 -23t-9 -23q-43 -40 -100 -41v0z" />
    <glyph glyph-name="tenge-sign-primary" unicode="&#xfe01;" horiz-adv-x="384" 
d="M352 352h-320q-14 0 -23 9t-9 23t9 23t23 9h320q14 0 23 -9t9 -23t-9 -23t-23 -9v0z" />
    <glyph glyph-name="ruble-sign-primary" unicode="&#xfe01;" horiz-adv-x="384" 
d="M240 416h-144q-14 0 -23 -9t-9 -23v-192h-32q-14 0 -23 -9t-9 -23t9 -23t23 -9h32v-128q0 -14 9 -23t23 -9t23 9t9 23v128h112q61 2 102 42q40 41 42 102q-2 61 -42 102q-41 40 -102 42v0zM240 192h-112v160h112q34 -1 57 -23q22 -23 23 -57q-1 -34 -23 -57
q-23 -22 -57 -23v0z" />
    <glyph glyph-name="trademark-primary" unicode="&#xfe01;" horiz-adv-x="640" 
d="M224 352h-192q-14 0 -23 -9t-9 -23t9 -23t23 -9h64v-223q0 -14 9 -23t23 -9t23 9t9 23v223h64q14 0 23 9t9 23t-9 23t-23 9v0z" />
    <glyph glyph-name="square-info-primary" unicode="&#xfe01;" horiz-adv-x="448" 
d="M224 256q14 0 23 9v0q9 9 9 23t-9 23t-23 9t-23 -9t-9 -23t9 -23t23 -9v0zM264 112h-16v88q-2 22 -24 24h-32q-22 -2 -24 -24q2 -22 24 -24h8v-64h-16q-22 -2 -24 -24q2 -22 24 -24h80q22 2 24 24q-2 22 -24 24v0z" />
    <glyph glyph-name="arrow-left-primary" unicode="&#xfe01;" horiz-adv-x="448" 
d="M192 0q-13 0 -23 9l-160 160q-9 10 -9 23t9 23l160 160q10 9 23 9t23 -9q9 -10 9 -23t-9 -23l-138 -137l138 -137q9 -10 9 -23t-9 -23q-10 -9 -23 -9v0z" />
    <glyph glyph-name="arrow-up-primary" unicode="&#xfe01;" horiz-adv-x="384" 
d="M352 192q-13 0 -23 9l-137 138l-137 -138q-10 -9 -23 -9t-23 9q-9 10 -9 23t9 23l160 160q10 9 23 9t23 -9l160 -160q9 -10 9 -23t-9 -23q-10 -9 -23 -9v0z" />
    <glyph glyph-name="arrow-right-primary" unicode="&#xfe01;" horiz-adv-x="448" 
d="M256 0q-13 0 -23 9q-9 10 -9 23t9 23l138 137l-138 137q-9 10 -9 23t9 23q10 9 23 9t23 -9l160 -160q9 -10 9 -23t-9 -23l-160 -160q-10 -9 -23 -9v0z" />
    <glyph glyph-name="arrow-down-primary" unicode="&#xfe01;" horiz-adv-x="384" 
d="M192 -32q-13 0 -23 9l-160 160q-9 10 -9 23t9 23q10 9 23 9t23 -9l137 -138l137 138q10 9 23 9t23 -9q9 -10 9 -23t-9 -23l-160 -160q-10 -9 -23 -9v0z" />
    <glyph glyph-name="left-right-primary" unicode="&#xfe01;" 
d="M256 144l-96 1v-57q-1 -15 -15 -22q-14 -6 -26 4l-112 104q-7 8 -7 18t7 18l112 104q12 10 26 4q14 -7 15 -22v-55l96 -1v-96v0z" />
    <glyph glyph-name="up-down-primary" unicode="&#xfe01;" horiz-adv-x="256" 
d="M2 302q-6 15 4 26l104 112q8 8 18 8t18 -8l104 -112q10 -11 4 -26q-7 -13 -22 -14h-56v-96h-96v96h-56q-15 1 -22 14v0z" />
    <glyph glyph-name="square-up-right-primary" unicode="&#xfe01;" horiz-adv-x="448" 
d="M331 124q-1 -10 -10 -15q-10 -3 -18 4l-45 45l-68 -68q-10 -9 -23 -9q-12 0 -22 9l-23 23q-9 10 -9 23q0 12 9 23l68 68l-45 44q-7 8 -4 18q5 9 15 9h158q15 -1 16 -15v-159h1z" />
    <glyph glyph-name="arrow-left-from-line-primary" unicode="&#xfe01;" horiz-adv-x="448" 
d="M183 41q-10 -9 -23 -9v0q-13 0 -23 9l-128 128q-9 10 -9 23t9 23l128 128q10 9 23 9t23 -9q9 -10 9 -23t-9 -23l-74 -73h179q14 0 23 -9t9 -23t-9 -23t-23 -9h-179l74 -73q9 -10 9 -23t-9 -23v0z" />
    <glyph glyph-name="arrow-up-from-line-primary" unicode="&#xfe01;" horiz-adv-x="384" 
d="M41 233q-9 10 -9 23v0q0 13 9 23l128 128q10 9 23 9t23 -9l128 -128q9 -10 9 -23t-9 -23q-10 -9 -23 -9t-23 9l-73 74v-179q0 -14 -9 -23t-23 -9t-23 9t-9 23v179l-73 -74q-10 -9 -23 -9t-23 9v0z" />
    <glyph glyph-name="arrow-right-from-line-primary" unicode="&#xfe01;" horiz-adv-x="448" 
d="M265 343q10 9 23 9v0q13 0 23 -9l128 -128q9 -10 9 -23t-9 -23l-128 -128q-10 -9 -23 -9t-23 9q-9 10 -9 23t9 23l74 73h-179q-14 0 -23 9t-9 23t9 23t23 9h179l-74 73q-9 10 -9 23t9 23v0z" />
    <glyph glyph-name="arrow-down-from-line-primary" unicode="&#xfe01;" horiz-adv-x="384" 
d="M343 151q9 -10 9 -23v0q0 -13 -9 -23l-128 -128q-10 -9 -23 -9t-23 9l-128 128q-9 10 -9 23t9 23q10 9 23 9t23 -9l73 -74v179q0 14 9 23t23 9t23 -9t9 -23v-179l73 74q10 9 23 9t23 -9v0z" />
    <glyph glyph-name="arrow-rotate-left-primary" unicode="&#xfe01;" 
d="M192 224h-144q-14 0 -23 9t-9 23v144q0 14 9 23t23 9t23 -9t9 -23v-112h112q14 0 23 -9t9 -23t-9 -23t-23 -9v0z" />
    <glyph glyph-name="arrow-rotate-right-primary" unicode="&#xfe01;" 
d="M464 224h-144q-14 0 -23 9t-9 23t9 23t23 9h112v112q0 14 9 23t23 9t23 -9t9 -23v-144q0 -14 -9 -23t-23 -9v0z" />
    <glyph glyph-name="arrow-right-arrow-left-primary" unicode="&#xfe01;" 
d="M32 272h371l-58 -57q-9 -10 -9 -23t9 -23q10 -9 23 -9t23 9l112 112q9 10 9 23t-9 23l-112 112q-10 9 -23 9t-23 -9q-9 -10 -9 -23t9 -23l58 -57h-371q-14 0 -23 -9t-9 -23t9 -23t23 -9v0z" />
    <glyph glyph-name="arrow-left-to-line-primary" unicode="&#xfe01;" horiz-adv-x="448" 
d="M311 297l-74 -73h179q14 0 23 -9t9 -23t-9 -23t-23 -9h-179l74 -73q9 -10 9 -23t-9 -23q-10 -9 -23 -9t-23 9l-128 128q-9 10 -9 23t9 23l128 128q10 9 23 9t23 -9q9 -10 9 -23t-9 -23v0z" />
    <glyph glyph-name="arrow-right-to-line-primary" unicode="&#xfe01;" horiz-adv-x="448" 
d="M137 343q10 9 23 9v0q13 0 23 -9l128 -128q9 -10 9 -23t-9 -23l-128 -128q-10 -9 -23 -9t-23 9q-9 10 -9 23t9 23l74 73h-179q-14 0 -23 9t-9 23t9 23t23 9h179l-74 73q-9 10 -9 23t9 23v0z" />
    <glyph glyph-name="sigma-primary" unicode="&#xfe01;" horiz-adv-x="384" 
 />
    <glyph glyph-name="square-root-primary" unicode="&#xfe01;" horiz-adv-x="576" 
 />
    <glyph glyph-name="infinity-primary" unicode="&#xfe01;" horiz-adv-x="640" 
 />
    <glyph glyph-name="wave-sine-primary" unicode="&#xfe01;" horiz-adv-x="640" 
 />
    <glyph glyph-name="intersection-primary" unicode="&#xfe01;" horiz-adv-x="384" 
 />
    <glyph glyph-name="union-primary" unicode="&#xfe01;" horiz-adv-x="384" 
 />
    <glyph glyph-name="angle-up-primary" unicode="&#xfe01;" horiz-adv-x="384" 
 />
    <glyph glyph-name="angle-down-primary" unicode="&#xfe01;" horiz-adv-x="384" 
 />
    <glyph glyph-name="watch-primary" unicode="&#xfe01;" horiz-adv-x="384" 
d="M64 49v-65q1 -20 14 -34q14 -13 34 -14h160q20 1 34 14q13 14 14 34v65q-53 -47 -128 -49q-75 2 -128 49v0zM272 448h-160q-20 -1 -34 -14q-13 -14 -14 -34v-65q53 47 128 49q75 -2 128 -49v65q-1 20 -14 34q-14 13 -34 14v0zM192 296q-22 -2 -24 -24v-72q0 -11 9 -18
l48 -40q7 -6 15 -6q11 0 18 9q13 18 -3 33l-39 33v61q-2 22 -24 24v0z" />
    <glyph glyph-name="hourglass-end-primary" unicode="&#xfe01;" horiz-adv-x="384" 
d="M32 384h320q14 0 23 9t9 23t-9 23t-23 9h-320q-14 0 -23 -9t-9 -23t9 -23t23 -9v0zM352 0h-64v21q0 22 -13 39l-83 111l-83 -111q-13 -17 -13 -39v-21h-64q-14 0 -23 -9t-9 -23t9 -23t23 -9h320q14 0 23 9t9 23t-9 23t-23 9v0z" />
    <glyph glyph-name="keyboard-primary" unicode="&#xfe01;" horiz-adv-x="576" 
d="M128 268v40q-1 11 -12 12h-40q-11 -1 -12 -12v-40q1 -11 12 -12h40q11 1 12 12v0zM224 268v40q-1 11 -12 12h-40q-11 -1 -12 -12v-40q1 -11 12 -12h40q11 1 12 12v0zM320 268v40q-1 11 -12 12h-40q-11 -1 -12 -12v-40q1 -11 12 -12h40q11 1 12 12v0zM416 268v40
q-1 11 -12 12h-40q-11 -1 -12 -12v-40q1 -11 12 -12h40q11 1 12 12v0zM512 268v40q-1 11 -12 12h-40q-11 -1 -12 -12v-40q1 -11 12 -12h40q11 1 12 12v0zM176 172v40q-1 11 -12 12h-40q-11 -1 -12 -12v-40q1 -11 12 -12h40q11 1 12 12v0zM272 172v40q-1 11 -12 12h-40
q-11 -1 -12 -12v-40q1 -11 12 -12h40q11 1 12 12v0zM368 172v40q-1 11 -12 12h-40q-11 -1 -12 -12v-40q1 -11 12 -12h40q11 1 12 12v0zM464 172v40q-1 11 -12 12h-40q-11 -1 -12 -12v-40q1 -11 12 -12h40q11 1 12 12v0zM128 76v40q-1 11 -12 12h-40q-11 -1 -12 -12v-40
q1 -11 12 -12h40q11 1 12 12v0zM512 76v40q-1 11 -12 12h-40q-11 -1 -12 -12v-40q1 -11 12 -12h40q11 1 12 12v0z" />
    <glyph glyph-name="chevron-left-primary" unicode="&#xfe01;" horiz-adv-x="320" 
 />
    <glyph glyph-name="chevron-right-primary" unicode="&#xfe01;" horiz-adv-x="320" 
 />
    <glyph glyph-name="delete-left-primary" unicode="&#xfe01;" horiz-adv-x="576" 
d="M432 145q14 -17 0 -34q-17 -14 -34 0l-46 47l-47 -47q-17 -14 -34 0q-14 17 0 34l47 47l-47 48q-14 17 0 34q17 14 34 0l47 -48l47 47q17 14 34 0q14 -17 0 -34l-47 -47l46 -47v0z" />
    <glyph glyph-name="print-primary" unicode="&#xfe01;" 
d="M448 256h-384q-27 -1 -45 -19t-19 -45v-96q0 -14 9 -23t23 -9h96v32h256v-32h96q14 0 23 9t9 23v96q-1 27 -19 45t-45 19v0zM432 152q-22 2 -24 24q2 22 24 24q22 -2 24 -24q-2 -22 -24 -24v0z" />
    <glyph glyph-name="eject-primary" unicode="&#xfe01;" horiz-adv-x="448" 
d="M48 129h351q32 2 44 29q12 26 -9 51l-175 192q-15 16 -35 16t-35 -16l-176 -193q-21 -25 -9 -51t44 -28v0z" />
    <glyph glyph-name="forward-primary" unicode="&#xfe01;" 
d="M309 7l192 159q11 11 11 25t-11 25l-192 159q-17 12 -34 4q-18 -8 -19 -29v-320q1 -20 19 -27q17 -8 34 4v0z" />
    <glyph glyph-name="backward-primary" unicode="&#xfe01;" 
d="M255 352v-320q-1 -21 -18 -29q-18 -8 -34 4l-192 160q-11 11 -11 25t11 25l192 159q17 13 34 5t18 -29v0z" />
    <glyph glyph-name="forward-fast-primary" unicode="&#xfe01;" 
d="M448 164l-171 -157q-17 -12 -34 -4q-18 8 -19 30v131l-171 -157q-17 -12 -34 -4q-18 8 -19 30v319q1 21 19 29q17 8 34 -4l171 -156v131q1 21 19 29q17 8 34 -4l171 -156v-57v0z" />
    <glyph glyph-name="backward-fast-primary" unicode="&#xfe01;" 
d="M64 220l172 157q16 12 33 4q18 -8 19 -29v-132l172 157q16 12 33 4q18 -8 19 -29v-320q-1 -21 -19 -29q-17 -8 -33 4l-172 156v-131q-1 -21 -19 -29q-17 -8 -33 4l-172 156v57v0z" />
    <glyph glyph-name="alarm-clock-primary" unicode="&#xfe01;" 
d="M280 156v108q-2 22 -24 24q-22 -2 -24 -24v-120q0 -12 10 -19l64 -48q6 -5 13 -5q22 2 24 24q0 12 -9 19l-54 41v0zM0 352q0 -29 15 -51l146 121q-26 25 -66 26q-40 -1 -67 -28t-28 -68v0zM415 448q-38 -1 -65 -26l146 -121q15 22 15 51q-1 41 -28 68t-68 28v0z" />
    <glyph glyph-name="stopwatch-primary" unicode="&#xfe01;" horiz-adv-x="448" 
d="M224 256q-22 -2 -24 -24v-112q2 -22 24 -24q22 2 24 24v112q-2 22 -24 24v0zM426 284q9 12 0 23l-23 23q-11 9 -23 0l-24 -25q25 -21 43 -49v0v1l27 27v0zM272 448h-96q-14 0 -23 -9t-9 -23t9 -23t23 -9h16v-35q16 3 31 3q17 0 31 -3v35h16q14 0 22 9q9 9 9 22t-8 23
t-21 10v0z" />
    <glyph glyph-name="hourglass-primary" unicode="&#xfe01;" horiz-adv-x="384" 
d="M272 320h-161l81 -107l80 107v0zM32 384h320q14 0 23 9t9 23t-9 23t-23 9h-320q-14 0 -23 -9t-9 -23t9 -23t23 -9v0zM352 0h-64v21q0 22 -13 39l-3 4h-161l-3 -4q-12 -17 -12 -39v-21h-64q-14 0 -23 -9t-9 -23t9 -23t23 -9h320q14 0 23 9t9 23t-9 23t-23 9v0z" />
    <glyph glyph-name="pause-primary" unicode="&#xfe01;" horiz-adv-x="320" 
d="M272 385q-20 -1 -34 -14v0q-13 -14 -14 -34v-288q1 -20 14 -34q14 -14 34 -14t34 14q13 14 14 34v288q-1 20 -14 34q-14 13 -34 14v0zM48 385q-20 -1 -34 -14v0q-13 -14 -14 -34v-288q1 -21 14 -35q14 -14 34 -14q20 1 34 14q13 14 14 34v288q-1 20 -14 34q-14 14 -34 15
v0z" />
    <glyph glyph-name="stop-primary" unicode="&#xfe01;" horiz-adv-x="384" 
d="M384 320v-255q-1 -27 -19 -45t-45 -19h-256q-27 1 -45 19t-19 45v255q1 27 19 45t45 19h256q27 -1 45 -19t19 -45v0z" />
    <glyph glyph-name="power-off-primary" unicode="&#xfe01;" 
d="M256 -48q-67 1 -121 33v0q-54 32 -86 86v0q-32 54 -33 121q0 56 24 105t68 84q11 8 24 7q13 -2 21 -12q8 -11 7 -24q-2 -13 -12 -21q-33 -26 -50 -62q-18 -36 -18 -77q2 -75 52 -124q49 -50 124 -52q75 2 124 52q50 49 52 124q0 41 -18 77q-17 36 -50 62q-10 8 -12 21
q-1 13 7 24q8 10 21 12q13 1 24 -7q44 -35 68 -84t24 -105q-1 -67 -33 -121t-86 -86t-121 -33v0z" />
    <glyph glyph-name="moon-primary" unicode="&#xfe01;" 
d="M32 192q1 63 31 113v0q29 51 80 80v0q50 30 113 31q9 0 20 -1q12 -1 21 -3q7 -2 8 -8q1 -7 -5 -11q-42 -24 -65 -65q-23 -40 -24 -88q1 -55 30 -98q29 -42 76 -63t103 -11q7 1 10 -5q4 -6 0 -12q-32 -39 -77 -61t-97 -22q-63 1 -113 31q-51 29 -80 80q-30 50 -31 113v0z
" />
    <glyph glyph-name="circle-h-primary" unicode="&#xfe01;" 
d="M344 320q-22 -2 -24 -24v-80h-128v80q-2 22 -24 24q-22 -2 -24 -24v-208q2 -22 24 -24q22 2 24 24v80h128v-80q2 -22 24 -24q22 2 24 24v208q-2 22 -24 24v0z" />
    <glyph glyph-name="square-primary" unicode="&#xfe01;" horiz-adv-x="448" 
 />
    <glyph glyph-name="rectangle-primary" unicode="&#xfe01;" 
 />
    <glyph glyph-name="triangle-primary" unicode="&#xfe01;" 
 />
    <glyph glyph-name="play-primary" unicode="&#xfe01;" 
d="M176 -32q-21 1 -34 14v0q-14 14 -14 34v352q0 20 14 34q13 13 34 14q13 0 25 -7l288 -176q22 -15 23 -41q-1 -26 -23 -41l-288 -176q-12 -7 -25 -7v0z" />
    <glyph glyph-name="circle-primary" unicode="&#xfe01;" 
 />
    <glyph glyph-name="circle-half-stroke-primary" unicode="&#xfe01;" 
d="M256 -64q-72 1 -129 35v0q-58 34 -92 92v0q-34 57 -35 129q1 72 35 129q34 58 92 92q57 34 129 35v-512v0z" />
    <glyph glyph-name="sun-primary" unicode="&#xfe01;" 
d="M256 289q-41 -1 -67 -28v0q-27 -27 -28 -67q1 -40 27 -68q27 -28 68 -29q41 1 68 28q26 27 27 67q-1 40 -28 68q-26 28 -67 29v0z" />
    <glyph glyph-name="cloud-primary" unicode="&#xfe01;" horiz-adv-x="640" 
 />
    <glyph glyph-name="snowman-primary" unicode="&#xfe01;" 
d="M361 184q7 19 7 40q-1 46 -31 77q15 22 15 51q-2 41 -29 68t-68 28q-41 -1 -68 -28q-26 -27 -27 -67q0 -29 15 -51q-30 -31 -31 -77q0 -21 8 -40q-54 -46 -56 -120q0 -40 18 -73q17 -33 47 -55h190q30 22 47 55q18 33 18 73q-3 73 -55 119v0zM224 353q-14 2 -15 15
q2 13 15 15q13 -2 15 -15q-1 -13 -15 -15v0zM256 81q-14 2 -15 15q1 14 15 17q14 -2 15 -15q-1 -15 -15 -17v0zM256 145q-14 2 -15 15q1 14 15 17q14 -2 15 -15q-1 -15 -15 -17v0zM256 209q-14 2 -15 15q1 14 15 17q14 -2 15 -15q-1 -15 -15 -17v0zM256 296q-1 1 -8 13v0
q-6 11 -7 19q1 15 15 16q14 -1 15 -16q-1 -8 -7 -19q-7 -12 -8 -13v0v0zM287 353q-14 2 -15 15q2 13 15 15q14 -2 15 -15q0 -13 -15 -15v0z" />
    <glyph glyph-name="meteor-primary" unicode="&#xfe01;" 
d="M191 257q-54 -1 -90 -38v0q-37 -36 -38 -90q1 -55 38 -91q36 -36 90 -37q54 1 91 37q36 36 37 91q-1 54 -37 90t-91 38v0zM159 129q-14 0 -23 9v0q-9 9 -9 23q0 13 9 23q9 9 23 9q13 0 23 -9q9 -11 9 -23q-2 -30 -32 -32v0zM207 64q-15 1 -16 16q1 15 16 16q14 -1 15 -16
q0 -15 -15 -16v0z" />
    <glyph glyph-name="phone-rotary-primary" unicode="&#xfe01;" 
d="M476 71l-106 185q-19 31 -55 32h-118q-36 -1 -55 -32l-106 -185q-4 -7 -4 -16v-55q0 -14 9 -23t23 -9h384q14 0 23 9t9 23v55q0 9 -4 16v0zM256 64q-31 1 -51 21v0q-20 20 -21 51q1 31 21 51t51 21q31 -1 51 -21t21 -51q-1 -31 -21 -51t-51 -21v0z" />
    <glyph glyph-name="square-check-primary" unicode="&#xfe01;" horiz-adv-x="448" 
d="M340 236l-128 -128q-9 -8 -20 -8t-20 8l-64 64q-8 9 -8 20t8 20q9 8 20 8t20 -8l44 -44l108 108q9 8 20 8t20 -8q8 -9 8 -20t-8 -20v0z" />
    <glyph glyph-name="mug-hot-primary" unicode="&#xfe01;" 
d="M400 256h-368q-14 0 -23 -9t-9 -23v-192q1 -41 28 -68t68 -28h192q41 1 68 28t28 68h16q48 1 79 33q32 31 33 79q-1 48 -33 79q-31 32 -79 33v0zM400 96h-16v96h16q20 -1 34 -14q13 -14 14 -34q-1 -20 -14 -34q-14 -13 -34 -14v0z" />
    <glyph glyph-name="hand-point-up-primary" unicode="&#xfe01;" horiz-adv-x="448" 
d="M288 288q-14 0 -23 -9v0q-9 -9 -9 -23v-64q0 -14 9 -23t23 -9t23 9t9 23v64q0 14 -9 23t-23 9v0zM192 320q-14 0 -23 -9v0q-9 -9 -9 -23v-80h40q13 0 24 -4v84q0 14 -9 23t-23 9v0zM384 256q-14 0 -23 -9v0q-9 -9 -9 -23v-64q0 -14 9 -23t23 -9t23 9t9 23v64q0 14 -9 23
t-23 9v0z" />
    <glyph glyph-name="skull-crossbones-primary" unicode="&#xfe01;" horiz-adv-x="448" 
d="M439 -5l-142 69l142 69q13 8 7 22l-14 28q-8 13 -21 7l-187 -90l-187 90q-13 6 -21 -7l-14 -29q-6 -13 7 -21l142 -69l-142 -69q-13 -8 -7 -22l14 -28q8 -13 21 -7l187 90l187 -90q13 -6 21 7l14 28q6 14 -7 22v0zM167 272q14 0 23 9v0q9 9 9 23t-9 23t-23 9
q-13 0 -23 -9q-9 -9 -9 -23q1 -14 10 -23t22 -9v0zM280 272q14 0 23 9v0q9 9 9 23t-9 23t-23 9t-23 -9t-9 -23t9 -23t23 -9v0z" />
    <glyph glyph-name="circle-radiation-primary" unicode="&#xfe01;" 
d="M226 239l-41 67q-10 13 -24 4q-47 -38 -56 -99q0 -17 16 -19h79q1 31 26 47v0zM286 145q-14 -9 -30 -9q-17 0 -30 9l-41 -67q-7 -15 7 -23q29 -15 64 -15t64 15q14 8 7 23l-41 67v0zM351 310q-13 9 -24 -4l-41 -67q25 -16 26 -47h79q16 2 16 19q-9 61 -56 99v0z" />
    <glyph glyph-name="biohazard-primary" unicode="&#xfe01;" horiz-adv-x="576" 
d="M576 164q-21 61 -75 93q-26 15 -55 20q10 26 10 56q-1 63 -41 112q-4 5 -10 2q-5 -4 -4 -10q7 -20 7 -38q-1 -52 -35 -87t-85 -36q-51 1 -85 36t-35 87q0 18 7 38q1 6 -4 10q-6 3 -10 -2q-40 -49 -41 -112q1 -30 10 -56q-29 -5 -55 -20q-53 -32 -75 -92q-1 -7 4 -10
q6 -3 10 1q14 17 29 25q45 25 91 13q46 -13 73 -58q24 -45 12 -92q-12 -48 -56 -75q-15 -9 -36 -14q-6 -2 -6 -8t6 -8q62 -11 116 20q27 16 45 40q18 -24 45 -40q54 -31 115 -20q7 2 7 8t-6 8q-21 5 -36 14q-44 27 -56 74q-12 48 12 93q26 45 73 58q46 12 91 -13
q15 -9 29 -25q4 -4 10 -1q5 3 4 9v0zM287 128q-20 0 -34 14v0q-13 13 -14 34q1 20 14 34q14 13 34 14q20 -1 34 -14q14 -14 14 -34t-14 -34q-13 -14 -34 -14v0z" />
    <glyph glyph-name="ankh-primary" unicode="&#xfe01;" horiz-adv-x="320" 
d="M120 -40q2 -22 24 -24h32q22 2 24 24v152h-80v-152v0zM160 448q-54 -1 -91 -39v0q-36 -38 -37 -105q0 -28 10 -57t27 -55h182q17 26 27 55t10 57q-1 67 -37 105q-37 38 -91 39v0zM160 203q-17 18 -32 46v0q-15 28 -16 55q2 62 48 64q46 -2 48 -64q-1 -27 -16 -55t-32 -46
v0z" />
    <glyph glyph-name="star-and-crescent-primary" unicode="&#xfe01;" 
d="M341 -18q-2 0 -4 -1v0h-6q-89 2 -149 62q-59 60 -62 149q3 89 62 149q60 60 149 62h6q2 -1 4 -1q11 1 14 12q2 12 -9 18q-44 16 -90 16q-71 -1 -129 -35t-92 -92t-35 -129q1 -71 35 -129t92 -92t129 -35q46 0 89 16q10 4 11 15q-1 13 -15 15v0z" />
    <glyph glyph-name="khanda-primary" unicode="&#xfe01;" horiz-adv-x="576" 
d="M386 327q-15 26 -41 41l-20 -44q22 -16 26 -41q4 -26 -11 -48q-7 -10 -17 -16l20 -44q41 24 53 67t-10 85v0zM233 175l20 44q-23 15 -28 40t10 48q6 10 16 17l-21 44q-40 -26 -51 -69q-10 -43 13 -85q15 -25 41 -39v0zM448 383q-14 6 -22 -6q-4 -9 0 -17q25 -40 26 -87
q-1 -41 -19 -75q-19 -35 -53 -57l-92 -65l-92 65q-34 22 -53 56q-18 35 -19 76q0 46 26 86q6 14 -5 23q-8 4 -17 0q-56 -32 -81 -87q-24 -56 -9 -120q12 -43 41 -76l53 -61q8 -9 20 -4l79 42l29 -20l-47 -33q-3 1 -4 1q-22 -2 -24 -24q2 -21 24 -23q19 2 23 21l57 39l57 -39
q3 -19 23 -21q22 2 24 24q-2 22 -24 24q-3 0 -5 -1l-47 33l29 20l79 -42q12 -5 20 4l53 61q29 33 41 75q15 64 -10 120t-81 88v0z" />
    <glyph glyph-name="peace-primary" unicode="&#xfe01;" 
d="M256 448q-72 -1 -129 -35v0q-58 -34 -92 -92v0q-34 -57 -35 -129q1 -72 35 -129q34 -58 92 -92q57 -34 129 -35q72 1 129 35q58 34 92 92q34 57 35 129q-1 72 -35 129q-34 58 -92 92q-57 34 -129 35v0zM256 0q-81 2 -136 56v0q-54 55 -56 136q2 81 56 136q55 54 136 56
q81 -2 136 -56q54 -55 56 -136q-2 -81 -56 -136q-55 -54 -136 -56v0z" />
    <glyph glyph-name="yin-yang-primary" unicode="&#xfe01;" 
d="M256 448q-72 -1 -129 -35v0q-58 -34 -92 -92v0q-34 -57 -35 -129q1 -72 35 -129q34 -58 92 -92q57 -34 129 -35q-54 1 -91 37q-36 37 -37 91q1 54 37 91q37 36 91 37t91 37q36 37 37 91q-1 54 -37 91q-37 36 -91 37v0zM256 288q-14 0 -23 9v0q-9 9 -9 23t9 23t23 9t23 -9
t9 -23t-9 -23t-23 -9v0zM256 96q-14 0 -23 -9v0q-9 -9 -9 -23t9 -23t23 -9t23 9t9 23t-9 23t-23 9v0z" />
    <glyph glyph-name="dharmachakra-primary" unicode="&#xfe01;" 
d="M256 288q-41 -1 -68 -28v0q-27 -27 -28 -68q1 -41 28 -68t68 -28q41 1 68 28t28 68q-1 41 -28 68t-68 28v0zM256 160q-14 0 -23 9v0q-9 9 -9 23t9 23t23 9t23 -9t9 -23t-9 -23t-23 -9v0zM256 416q-63 -1 -113 -31v0q-51 -29 -80 -80v0q-30 -50 -31 -113q1 -63 31 -113
q29 -51 80 -80q50 -30 113 -31q63 1 113 31q51 29 80 80q30 50 31 113q-1 63 -31 113q-29 51 -80 80q-50 30 -113 31v0zM256 32q-68 2 -113 47v0q-45 45 -47 113q2 68 47 113t113 47q68 -2 113 -47t47 -113q-2 -68 -47 -113t-113 -47v0z" />
    <glyph glyph-name="face-frown-primary" unicode="&#xfe01;" 
d="M336 272q-14 0 -23 -9v0q-9 -9 -9 -23t9 -23t23 -9t23 9t9 23t-9 23t-23 9v0zM175 272q-14 0 -23 -9v0q-9 -9 -9 -23t9 -23t23 -9t23 9t9 23t-9 23t-23 9v0z" />
    <glyph glyph-name="mercury-primary" unicode="&#xfe01;" horiz-adv-x="384" 
d="M368 225q0 42 -18 77v0q-17 35 -47 60q31 26 48 64q3 8 -2 15q-4 7 -13 8h-54q-8 0 -13 -7q-28 -40 -77 -41q-50 2 -77 41q-5 5 -13 6h-54q-9 0 -13 -7q-5 -7 -2 -16q17 -37 48 -64q-30 -25 -47 -60q-18 -35 -18 -76q1 -66 41 -113t103 -59v-21h-32q-15 -1 -16 -16v-32
q1 -15 16 -16h32v-16q1 -15 16 -16h32q15 1 16 16v16h32q15 1 16 16v32q-1 15 -16 16h-32v19q63 13 103 60t41 114v0zM192 128q-41 1 -68 28v0q-27 27 -28 68q1 41 28 67q27 27 68 28q41 -1 68 -28t28 -67q-1 -41 -28 -68t-68 -28v0z" />
    <glyph glyph-name="venus-primary" unicode="&#xfe01;" horiz-adv-x="384" 
d="M368 272q-2 75 -52 124v0q-49 50 -124 52q-75 -2 -124 -52q-50 -49 -52 -124q1 -66 41 -113t103 -59v-35h-48q-15 -2 -16 -16v-32q1 -15 16 -16h48v-48q1 -15 16 -16h32q15 1 16 16v48h48q15 1 16 16v32q-1 14 -16 16h-48v35q63 12 103 59t41 113v0zM192 176
q-41 1 -68 28v0q-27 27 -28 68q1 41 28 68t68 28q41 -1 68 -28t28 -68q-1 -41 -28 -68t-68 -28v0z" />
    <glyph glyph-name="mars-primary" unicode="&#xfe01;" horiz-adv-x="448" 
d="M431 417h-112q-17 -1 -23 -15q-5 -14 6 -26l29 -30l-57 -56q-46 31 -100 31q-75 0 -131 -59q-45 -53 -44 -121q2 -67 49 -119q56 -54 128 -54q70 0 124 52q46 47 51 109q5 61 -30 115l56 56l30 -29q8 -8 17 -7q21 1 24 24v113q-1 14 -17 16v0zM244 76q-30 -28 -68 -28
q-39 0 -69 28q-28 30 -28 68t28 68q30 28 69 28q38 0 68 -28q28 -30 28 -68t-28 -68v0z" />
    <glyph glyph-name="chess-king-primary" unicode="&#xfe01;" horiz-adv-x="448" 
d="M416 288h-160v48h16q14 0 23 9t9 23q-1 14 -10 23t-22 9h-16v16q0 14 -10 23q-9 9 -23 9q-13 0 -22 -9t-10 -23v-16h-16q-13 0 -23 -9q-9 -9 -9 -23q1 -14 10 -23t22 -9h16v-48h-160q-11 0 -21 -8q-9 -9 -10 -24q0 -5 1 -10l73 -214h300l73 214q1 5 1 10q-1 15 -11 24
q-10 8 -21 8v0z" />
    <glyph glyph-name="chess-queen-primary" unicode="&#xfe01;" 
d="M256 336q24 1 40 16v0q15 16 16 40q-1 24 -16 40q-16 15 -40 16q-24 -1 -40 -16q-16 -16 -17 -40q1 -24 17 -40q16 -15 40 -16v0zM511 251q0 8 -7 13l-28 16q-4 2 -8 2q-10 -1 -16 -9q-5 -6 -13 -11q-8 -6 -23 -6q-22 1 -35 16t-13 35q-3 12 -13 13h-39q-10 -1 -13 -10
q-4 -17 -17 -27q-13 -11 -31 -11q-17 0 -30 11q-13 10 -17 27q-2 9 -12 10h-39q-13 -1 -14 -13q0 -16 -11 -33t-37 -18q-15 0 -23 5q-8 6 -13 12q-6 8 -16 9q-4 0 -8 -2l-29 -16q-6 -5 -6 -13q0 -4 2 -8l102 -211h304l102 211q1 3 1 6v2v0z" />
    <glyph glyph-name="chess-rook-primary" unicode="&#xfe01;" horiz-adv-x="384" 
d="M368 416h-56q-15 -1 -16 -16v-48h-48v48q-1 15 -16 16h-80q-15 -1 -16 -16v-48h-48v48q-1 15 -16 16h-56q-15 -1 -16 -16v-176l64 -32q0 -36 -2 -74q-3 -38 -11 -86h282q-8 48 -11 86q-2 39 -2 74l64 32v176q-1 15 -16 16v0zM224 128h-64v64q0 14 9 23t23 9t23 -9t9 -23
v-64v0z" />
    <glyph glyph-name="chess-bishop-primary" unicode="&#xfe01;" horiz-adv-x="320" 
d="M312 160q0 -38 -15 -58v0q-15 -19 -41 -27v-43h-192v43q-26 8 -41 27q-15 20 -15 58q1 38 17 81q17 44 43 83q26 38 53 62q-23 6 -25 30q0 14 9 23t23 9h64q14 0 23 -9t9 -23q-2 -24 -25 -31q39 -33 71 -92l-108 -108q-2 -2 -2 -6q0 -3 2 -5l12 -12q2 -2 5 -2q4 0 6 2
l100 101q26 -55 27 -103v0z" />
    <glyph glyph-name="chess-knight-primary" unicode="&#xfe01;" horiz-adv-x="384" 
d="M19 175l41 -18q6 -2 13 -2q6 0 12 2l12 5q14 6 19 21l9 30q3 11 13 16l22 11v-50q-1 -29 -27 -43l-57 -29q-20 -10 -32 -29t-12 -43v-14h320v192q-2 81 -56 135q-54 55 -136 57h-148q-11 -1 -12 -12q0 -4 2 -8l14 -28l-9 -9q-7 -7 -7 -17v-137q1 -21 19 -30v0zM52 320
q18 -2 20 -20q-2 -18 -20 -20q-18 2 -20 20q2 18 20 20v0z" />
    <glyph glyph-name="chess-pawn-primary" unicode="&#xfe01;" horiz-adv-x="320" 
d="M105 224h-25q-15 -1 -16 -16v-32q1 -14 16 -15l16 -1v-6q3 -67 -24 -122h176q-27 55 -24 122v6h16q15 2 16 15v32q-1 16 -16 17h-25q22 14 35 37q14 23 14 51q-1 44 -31 74q-29 29 -74 30q-45 -1 -73 -30q-29 -30 -30 -74q0 -28 14 -51q13 -23 35 -37v0z" />
    <glyph glyph-name="spade-primary" unicode="&#xfe01;" 
d="M352 -37q0 -11 -8 -19v0q-8 -8 -19 -8h-139q-11 0 -18 8q-8 8 -8 19q1 20 20 26l24 6q19 6 20 27v154q1 15 16 16h32q15 -1 16 -16v-154q1 -20 20 -26l24 -6q19 -7 20 -27v0z" />
    <glyph glyph-name="club-primary" unicode="&#xfe01;" 
d="M352 -37q0 -11 -8 -19v0q-8 -8 -19 -8h-139q-11 0 -18 8q-8 8 -8 19q1 20 20 26l24 6q19 6 20 27v154q1 15 16 16h32q15 -1 16 -16v-154q1 -20 20 -26l24 -6q19 -7 20 -27v0z" />
    <glyph glyph-name="heart-primary" unicode="&#xfe01;" 
 />
    <glyph glyph-name="diamond-primary" unicode="&#xfe01;" 
 />
    <glyph glyph-name="recycle-primary" unicode="&#xfe01;" 
d="M159 296q-4 14 -19 12l-92 -21q-15 -5 -18 -19q-2 -15 11 -25l103 -64q15 -8 27 1t9 25l-21 91v0zM402 352l-103 -64q-13 -10 -11 -24q3 -15 18 -20l92 -21q14 -2 19 12l21 91q3 17 -9 25q-12 9 -27 1v0zM279 110l-66 -67q-9 -11 0 -22l66 -67q13 -11 26 -5q14 6 15 22
v122q-1 16 -15 22q-13 6 -26 -5v0z" />
    <glyph glyph-name="dice-one-primary" unicode="&#xfe01;" horiz-adv-x="448" 
d="M256 192q0 -14 -9 -23v0q-9 -9 -23 -9t-23 9t-9 23t9 23t23 9t23 -9t9 -23v0z" />
    <glyph glyph-name="dice-two-primary" unicode="&#xfe01;" horiz-adv-x="448" 
d="M128 320q-14 0 -23 -9v0q-9 -9 -9 -23t9 -23t23 -9t23 9t9 23t-9 23t-23 9v0zM320 128q-14 0 -23 -9v0q-9 -9 -9 -23t9 -23t23 -9t23 9t9 23t-9 23t-23 9v0z" />
    <glyph glyph-name="dice-three-primary" unicode="&#xfe01;" horiz-adv-x="448" 
d="M128 320q-14 0 -23 -9v0q-9 -9 -9 -23t9 -23t23 -9t23 9t9 23t-9 23t-23 9v0zM320 128q-14 0 -23 -9v0q-9 -9 -9 -23t9 -23t23 -9t23 9t9 23t-9 23t-23 9v0zM224 224q-14 0 -23 -9v0q-9 -9 -9 -23t9 -23t23 -9t23 9t9 23t-9 23t-23 9v0z" />
    <glyph glyph-name="dice-four-primary" unicode="&#xfe01;" horiz-adv-x="448" 
d="M128 128q-14 0 -23 -9v0q-9 -9 -9 -23t9 -23t23 -9t23 9t9 23t-9 23t-23 9v0zM320 256q14 0 23 9v0q9 9 9 23t-9 23t-23 9t-23 -9t-9 -23t9 -23t23 -9v0zM128 320q-14 0 -23 -9v0q-9 -9 -9 -23t9 -23t23 -9t23 9t9 23t-9 23t-23 9v0zM320 128q-14 0 -23 -9v0
q-9 -9 -9 -23t9 -23t23 -9t23 9t9 23t-9 23t-23 9v0z" />
    <glyph glyph-name="dice-five-primary" unicode="&#xfe01;" horiz-adv-x="448" 
d="M320 256q14 0 23 9v0q9 9 9 23t-9 23t-23 9t-23 -9t-9 -23t9 -23t23 -9v0zM320 128q-14 0 -23 -9v0q-9 -9 -9 -23t9 -23t23 -9t23 9t9 23t-9 23t-23 9v0zM128 128q-14 0 -23 -9v0q-9 -9 -9 -23t9 -23t23 -9t23 9t9 23t-9 23t-23 9v0zM128 320q-14 0 -23 -9v0
q-9 -9 -9 -23t9 -23t23 -9t23 9t9 23t-9 23t-23 9v0zM224 224q-14 0 -23 -9v0q-9 -9 -9 -23t9 -23t23 -9t23 9t9 23t-9 23t-23 9v0z" />
    <glyph glyph-name="dice-six-primary" unicode="&#xfe01;" horiz-adv-x="448" 
d="M128 128q-14 0 -23 -9v0q-9 -9 -9 -23t9 -23t23 -9t23 9t9 23t-9 23t-23 9v0zM320 256q14 0 23 9v0q9 9 9 23t-9 23t-23 9t-23 -9t-9 -23t9 -23t23 -9v0zM128 224q-14 0 -23 -9v0q-9 -9 -9 -23t9 -23t23 -9t23 9t9 23t-9 23t-23 9v0zM320 128q-14 0 -23 -9v0
q-9 -9 -9 -23t9 -23t23 -9t23 9t9 23t-9 23t-23 9v0zM320 224q-14 0 -23 -9v0q-9 -9 -9 -23t9 -23t23 -9t23 9t9 23t-9 23t-23 9v0zM128 320q-14 0 -23 -9v0q-9 -9 -9 -23t9 -23t23 -9t23 9t9 23t-9 23t-23 9v0z" />
    <glyph glyph-name="anchor-primary" unicode="&#xfe01;" horiz-adv-x="576" 
d="M559 96h-35q-13 -69 -64 -114q-52 -44 -125 -46h-95q-73 2 -124 46q-52 45 -65 114h-35q-11 1 -15 10t4 17l63 64q11 10 22 0l64 -64q8 -8 5 -17q-4 -9 -15 -10h-27q11 -42 44 -69q34 -26 79 -27h15v208h63v-208h15q46 1 79 27q33 27 45 69h-28q-11 1 -14 10q-4 9 3 17
l63 64q12 10 23 0l63 -64q10 -8 7 -17t-15 -10v0z" />
    <glyph glyph-name="swords-primary" unicode="&#xfe01;" 
d="M507 -14l-59 59l32 59q4 11 -3 19l-18 18q-11 9 -22 0l-130 -130q-9 -11 0 -22l18 -18q8 -8 19 -3l58 32l59 -59q11 -10 23 0l22 22q11 12 1 23v0zM75 141q-11 9 -22 0l-18 -18q-8 -8 -3 -19l32 -59l-59 -59q-10 -11 0 -23l22 -22q12 -10 23 0l59 59l58 -32q11 -5 19 3
l18 18q9 11 0 22l-129 130v0z" />
    <glyph glyph-name="scale-balanced-primary" unicode="&#xfe01;" horiz-adv-x="640" 
d="M555 293q-15 27 -43 27v0q-28 0 -43 -27l-45 -90q-20 -40 -28 -57t-10 -23q-1 -6 -1 -11q1 -34 37 -57q37 -22 91 -23q54 1 90 23q36 23 37 57v1q0 6 -4 16t-22 46l-59 118v0zM439 128l72 144l72 -144h-144v0zM85 293q-29 -57 -46 -90v0q-20 -40 -28 -57v0
q-8 -17 -10 -23v0q-1 -6 -1 -11q1 -34 37 -57q36 -22 90 -23q54 1 90 23q37 23 38 57v1q1 6 -3 16t-22 45q-18 36 -60 119q-15 27 -42 27q-28 0 -43 -27v0zM56 128l72 144l72 -144h-144v0z" />
    <glyph glyph-name="flower-daffodil-primary" unicode="&#xfe01;" 
d="M368 305q30 22 32 63q-1 34 -23 57q-23 22 -57 23q-41 -2 -64 -32q-23 30 -64 32q-34 -1 -57 -23q-22 -23 -23 -57q2 -41 32 -63q-30 -24 -32 -65q1 -34 23 -57q23 -22 57 -23q41 2 64 32q23 -30 64 -32q34 1 57 23q22 23 23 57q-2 41 -32 65v0zM256 257q-20 0 -34 14v0
q-13 14 -14 34q1 20 14 34q14 13 34 14q20 -1 34 -14q13 -14 14 -34q-1 -20 -14 -34q-14 -14 -34 -14v0z" />
    <glyph glyph-name="gear-primary" unicode="&#xfe01;" 
d="M500 116q-1 9 -9 14l-46 27q3 18 3 35t-3 35l46 27q8 5 8 14q0 8 -11 32q-11 23 -26 44q-15 22 -26 23q-5 0 -9 -2l-46 -27q-27 23 -61 35v54q-1 12 -13 16q-24 5 -51 5t-51 -5q-12 -4 -13 -16v-54q-34 -12 -61 -35l-46 27q-4 2 -9 2q-10 -1 -25 -22q-15 -20 -26 -44
q-12 -23 -12 -33q0 -9 8 -14l46 -27q-3 -17 -3 -35t3 -35l-46 -27q-8 -5 -8 -14q0 -8 11 -32q11 -23 26 -44q15 -22 26 -23q5 0 9 2l46 27q27 -23 61 -35v-54q1 -12 13 -16q25 -5 50 -5q26 0 52 5q12 5 13 16v54q34 12 61 35l46 -27q4 -2 9 -2q10 1 25 22q15 20 26 44
q12 23 13 33v0zM256 112q-34 1 -57 23v0q-22 23 -23 57q1 34 23 57q23 22 57 23q34 -1 57 -23q22 -23 23 -57q-1 -34 -23 -57q-23 -22 -57 -23v0z" />
    <glyph glyph-name="atom-primary" unicode="&#xfe01;" 
d="M256 224q-14 0 -23 -9v0q-9 -9 -10 -23q1 -14 10 -23t23 -9t23 9t9 23t-9 23t-23 9v0z" />
    <glyph glyph-name="triangle-exclamation-primary" unicode="&#xfe01;" 
d="M256 128q22 2 24 24v128q-2 22 -23 24q-10 0 -17 -7q-8 -7 -8 -17v-128q2 -22 24 -24v0zM256 95q-13 0 -22 -9v0q-9 -9 -9 -23q0 -13 9 -22t22 -9t22 9t9 22q0 14 -9 23t-22 9v0z" />
    <glyph glyph-name="bolt-primary" unicode="&#xfe01;" horiz-adv-x="384" 
 />
    <glyph glyph-name="venus-double-primary" unicode="&#xfe01;" horiz-adv-x="640" 
d="M368 272q-2 75 -52 124v0q-49 50 -124 52q-75 -2 -124 -52q-50 -49 -52 -124q1 -66 41 -113t103 -59v-35h-48q-15 -2 -16 -16v-32q1 -15 16 -16h48v-48q1 -15 16 -16h32q15 1 16 16v48h48q15 1 16 16v32q-1 14 -16 16h-48v35q63 12 103 59t41 113v0zM192 176
q-41 1 -68 28v0q-27 27 -28 68q1 41 28 68t68 28q41 -1 68 -28t28 -68q-1 -41 -28 -68t-68 -28v0z" />
    <glyph glyph-name="mars-double-primary" unicode="&#xfe01;" horiz-adv-x="640" 
d="M321 244l56 56l30 -29q12 -11 26 -6q14 6 15 23v113q-1 14 -16 15h-113q-16 -1 -22 -15q-5 -13 5 -26l30 -30l-57 -56q-55 37 -119 30t-112 -57q-45 -54 -44 -121q1 -68 49 -120q54 -53 125 -53t126 52q46 47 51 109q5 61 -30 115v0zM244 76q-30 -28 -69 -28v0
q-38 0 -67 28q-29 30 -29 68t29 68q29 28 68 28q38 0 68 -28q28 -30 28 -68t-28 -68v0z" />
    <glyph glyph-name="venus-mars-primary" unicode="&#xfe01;" horiz-adv-x="640" 
d="M256 64h-48v35q63 13 103 60t41 113q-2 75 -52 124q-49 50 -124 52q-75 -2 -124 -52q-50 -49 -52 -124q1 -66 41 -113t103 -59v-35h-48q-15 -2 -16 -16v-32q1 -15 16 -16h48v-48q1 -15 16 -16h32q15 1 16 16v48h48q15 1 16 16v32q-1 13 -16 15v0zM176 176q-41 1 -68 28v0
q-27 27 -28 68q1 41 28 68t68 28q41 -1 68 -28t28 -68q-1 -41 -28 -68t-68 -28v0z" />
    <glyph glyph-name="mars-and-venus-primary" unicode="&#xfe01;" 
d="M480 448h-112q-17 -1 -23 -15q-5 -13 6 -26l29 -30l-27 -27q-41 33 -97 34q-68 -2 -113 -47t-47 -113q1 -59 37 -102q35 -42 91 -55v-19h-32q-15 -1 -16 -16v-31q1 -15 16 -16h32v-32q1 -15 16 -16h32q15 1 16 16v32h32q15 1 16 16v31q-1 15 -16 16h-32v19q56 12 91 55
q36 43 37 102q-1 43 -21 78l30 30l30 -29q12 -11 26 -6q14 6 15 23v112q-1 15 -16 16v0zM256 144q-34 1 -57 23v0q-22 23 -23 57q1 34 23 57q23 22 57 23q34 -1 57 -23q22 -23 23 -57q-1 -34 -23 -57q-23 -22 -57 -23v0z" />
    <glyph glyph-name="mars-stroke-primary" unicode="&#xfe01;" 
d="M496 448h-112q-17 -1 -23 -15q-5 -13 6 -26l29 -30l-24 -24l-34 34q-11 9 -23 0l-22 -23q-10 -11 0 -22l34 -34l-19 -19q-54 35 -115 30q-62 -5 -109 -51q-52 -54 -52 -124t52 -124q54 -52 124 -52t124 52q46 47 51 109q5 61 -30 115l19 19l34 -34q11 -10 22 0l23 22
q9 12 0 23l-34 34l24 24l30 -29q12 -11 26 -6q14 6 15 23v112q-1 15 -16 16v0zM276 76q-30 -28 -68 -28v0q-38 0 -68 28q-28 30 -28 68t28 68q30 28 68 28t68 -28q28 -30 28 -68t-28 -68v0z" />
    <glyph glyph-name="transgender-primary" unicode="&#xfe01;" 
d="M499 448h-95q-14 -1 -18 -12q-5 -12 4 -22l21 -22l-67 -67q-38 26 -88 27q-50 -1 -88 -27l-16 17l6 6q9 11 0 22l-12 12q-11 9 -22 0l-6 -6l-17 16l21 22q9 10 4 22q-4 11 -18 12h-95q-12 -1 -13 -13v-95q1 -14 12 -18q12 -5 22 4l22 21l16 -17l-6 -6q-9 -11 0 -22
l12 -12q11 -9 22 0l6 6l17 -16q-26 -38 -27 -88q1 -59 37 -102q35 -42 91 -55v-19h-16q-15 -1 -16 -16v-15q1 -15 16 -16l16 -1v-16q1 -15 16 -16h32q15 1 16 16v16h16q15 1 16 16v15q-1 15 -16 16l-16 1v19q56 13 91 55q36 43 37 102q-1 50 -27 88l67 67l22 -21
q10 -9 22 -4q11 4 12 18v95q-2 12 -13 13v0zM256 112q-34 1 -57 23v0q-22 23 -23 57q1 34 23 57q23 22 57 23q34 -1 57 -23q22 -23 23 -57q-1 -34 -23 -57q-23 -22 -57 -23v0z" />
    <glyph glyph-name="mars-stroke-up-primary" unicode="&#xfe01;" horiz-adv-x="384" 
d="M224 285v19h24q7 1 8 7v17q-1 7 -8 7h-24v17h25q12 1 17 11q4 11 -4 20l-61 61q-9 8 -18 0l-61 -61q-8 -9 -4 -20q5 -10 17 -11h25v-15h-24q-7 -1 -8 -7v-15q1 -7 8 -7h24v-19q-65 -14 -105 -64q-41 -50 -39 -119q6 -70 55 -117q48 -47 119 -49q75 -2 126 47
q50 49 52 125q-1 66 -41 113t-103 60v0zM192 17q-41 1 -68 28v0q-27 27 -28 67q1 40 28 67t68 28q41 -1 68 -28t28 -67q-1 -40 -28 -67t-68 -28v0z" />
    <glyph glyph-name="mars-stroke-right-primary" unicode="&#xfe01;" horiz-adv-x="640" 
d="M619 203l-82 78q-13 11 -26 5q-14 -6 -15 -22v-39l-33 -1v48q-1 15 -15 16h-32q-15 -1 -16 -16v-48h-19q-13 63 -60 103t-112 41q-76 -2 -125 -52q-50 -49 -52 -124q2 -75 52 -124q49 -50 124 -52q66 1 113 41t59 103h19v-48q2 -15 16 -16h32q14 1 15 16v49l34 -1v-40
q1 -16 15 -22q13 -6 26 5l82 78q10 11 0 22v0zM208 96q-41 1 -68 28v0q-27 27 -28 68q1 41 28 68t68 28q41 -1 67 -28q27 -27 28 -68q0 -41 -27 -68t-68 -28v0z" />
    <glyph glyph-name="coffin-primary" unicode="&#xfe01;" horiz-adv-x="448" 
d="M407 333l-108 106q-10 9 -23 9h-104q-13 0 -23 -9l-108 -106q-12 -13 -8 -31l87 -342q7 -23 32 -24h144q25 1 32 24l87 342q4 18 -8 31v0z" />
    <glyph glyph-name="neuter-primary" unicode="&#xfe01;" horiz-adv-x="384" 
d="M368 272q-2 75 -52 124v0q-49 50 -124 52q-75 -2 -124 -52q-50 -49 -52 -124q1 -66 41 -113t103 -59v-148q1 -15 16 -16h32q15 1 16 16v147q63 13 103 60t41 113v0zM192 176q-41 1 -68 28v0q-27 27 -28 68q1 41 28 67q27 27 68 28q41 -1 68 -28t28 -67q-1 -41 -28 -68
t-68 -28v0z" />
    <glyph glyph-name="futbol-primary" unicode="&#xfe01;" 
d="M356 402l-14 31q-42 15 -86 15t-86 -15l-13 -31l99 -55l100 55v0zM87 352l-33 -3q-53 -69 -54 -157v0v-8l25 -22l83 78l-21 112v0zM319 112l38 119l-102 73l-100 -73l39 -119h125v0zM512 192q-1 88 -54 157l-32 3l-22 -112l83 -78l25 22q-1 4 0 6v2v0zM52 80l-8 -32
q53 -75 140 -102l29 17l-48 103l-113 14v0zM347 66l-48 -103l29 -17q87 27 140 102l-8 32l-113 -14v0z" />
    <glyph glyph-name="baseball-primary" unicode="&#xfe01;" 
d="M65 225h-3v0q-4 -1 -14 -1q-23 0 -45 6q-2 -16 -3 -32q24 -6 48 -6h4q11 -1 20 2t9 15q0 8 -5 12q-6 4 -11 4v0zM238 319q0 4 -3 10v0q-4 6 -13 6q-12 -1 -20 -18q-5 -12 -17 -28q-11 -15 -36 -33q-11 -7 -19 -11q-17 -6 -16 -19q1 -15 16 -16q3 0 6 2q59 31 81 67t21 40
v0zM250 448q-16 -1 -32 -3q6 -22 6 -45q0 -10 -1 -14v-3q1 -8 6 -12t10 -4q14 2 16 15q1 9 1 18q0 24 -6 48v0zM463 192h-3q-11 0 -21 -2q-9 -3 -9 -15q0 -10 7 -13q6 -3 9 -3h3q4 1 15 1q23 0 45 -6q2 16 3 32q-25 6 -49 6v0zM382 173q-4 0 -7 -1q-59 -31 -81 -68
q-22 -36 -21 -40q0 -4 4 -10q3 -5 12 -6q10 0 15 9q18 37 37 54q20 17 36 25q19 10 21 21q-2 15 -16 16v0zM289 -1q-2 15 -16 16q-14 0 -16 -14q-1 -9 -1 -17q0 -24 6 -48q16 1 32 3q-6 22 -6 45q0 9 1 13v2v0z" />
    <glyph glyph-name="cloud-sun-primary" unicode="&#xfe01;" horiz-adv-x="640" 
d="M639 32q-1 -40 -28 -68v0q-27 -27 -68 -28h-272q-41 1 -68 28t-28 68q1 39 26 65q25 27 63 30v5q-1 2 -1 4q1 48 33 79t79 32q35 0 61 -18q27 -18 41 -47q15 10 34 10q27 -1 45 -19t18 -45v-3t-1 -3q30 -10 48 -34t18 -56v0z" />
    <glyph glyph-name="cloud-rain-primary" unicode="&#xfe01;" 
d="M416 320h-1v0h-1q2 8 2 16q-1 34 -23 57q-23 22 -57 23q-38 -1 -61 -29q-14 28 -40 44q-26 17 -59 17q-48 -1 -79 -33q-32 -31 -33 -79q0 -11 2 -21q-29 -10 -47 -34q-18 -25 -19 -57q1 -41 28 -68t68 -28h320q41 1 68 28t28 68q-1 41 -28 68t-68 28v0z" />
    <glyph glyph-name="truck-primary" unicode="&#xfe01;" horiz-adv-x="640" 
d="M624 32q15 1 16 16v32q-1 15 -16 16h-16v115q0 26 -19 45l-77 77q-19 19 -45 19h-51v48q-1 20 -14 34q-14 13 -34 14h-320q-20 -1 -34 -14q-13 -14 -14 -34v-320q1 -20 14 -34q14 -13 34 -14h18q7 42 37 68q30 27 73 28q43 -1 73 -28q31 -26 37 -68h68q6 42 37 68
q30 27 73 28q43 -1 73 -28q29 -27 37 -68h50v0zM416 192v96h51l77 -77v-19h-128v0z" />
    <glyph glyph-name="shield-cross-primary" unicode="&#xfe01;" 
d="M495 288q-2 -34 -8 -64h-199v-277q-16 -11 -32 -11t-32 11v277h-198q-7 31 -9 64h207v151l14 5q9 4 18 4q10 0 19 -4l13 -5v-151h207v0z" />
    <glyph glyph-name="torii-gate-primary" unicode="&#xfe01;" 
d="M496 256h-480q-15 -1 -16 -16v-32q2 -15 15 -16h480q16 1 17 16v32q-1 15 -16 16v0zM377 416h-241q-72 0 -136 32v-96q0 -14 9 -23t23 -9h448q14 0 23 9t9 23v96q-64 -32 -135 -32v0z" />
    <glyph glyph-name="church-primary" unicode="&#xfe01;" horiz-adv-x="640" 
d="M465 201l-113 68v51h48q15 1 16 16v32q-1 15 -16 16h-48v48q-1 15 -16 16h-32q-15 -1 -16 -16v-48h-48q-15 -1 -16 -16v-32q1 -15 16 -16h48v-51l-112 -68q-15 -9 -16 -27v-238h96v96q1 27 19 45t45 19q27 -1 45 -19t19 -45v-96h96v238q-1 18 -15 27v0z" />
    <glyph glyph-name="mountains-primary" unicode="&#xfe01;" horiz-adv-x="640" 
d="M280 404l223 -350q17 -29 2 -56q-16 -28 -49 -30h-400q-34 2 -49 29t2 57l223 350q9 12 24 12t24 -12q-1 0 0 0v0z" />
    <glyph glyph-name="person-skiing-primary" unicode="&#xfe01;" 
d="M480 224q0 19 -18 29l-52 26l-17 51q-5 15 -21 29q-15 14 -39 15q-11 0 -24 -5l-82 -32l114 -56l11 -29q6 -18 24 -28l58 -29q7 -3 14 -3q13 0 23 9q9 9 9 23v0zM293 232l-106 53q-2 -4 -2 -9q1 -26 19 -45l75 -75l-46 -69l57 -30l49 74q9 13 9 27q-1 19 -15 34l-40 40v0
zM432 352q20 0 34 14v0q14 14 14 34t-14 34q-14 13 -34 14q-20 -1 -34 -14q-13 -14 -14 -34q1 -20 14 -34q14 -14 34 -14v0z" />
    <glyph glyph-name="ice-skate-primary" unicode="&#xfe01;" horiz-adv-x="576" 
d="M512 133v-37q0 -14 -9 -23t-22 -9h-416q-14 0 -23 9t-9 23v208q0 22 13 38q12 17 33 23l177 51v16q1 15 16 16h31q15 -1 16 -16v-80h-48q-15 -1 -16 -16q1 -15 16 -16h48v-32h-48q-15 -1 -16 -16q1 -15 16 -16h48l120 -30q33 -9 53 -34q19 -25 20 -59v0z" />
    <glyph glyph-name="campground-primary" unicode="&#xfe01;" horiz-adv-x="576" 
d="M2 0h572q-2 5 -4 9l-242 321l53 74q7 12 -4 22l-25 19q-13 7 -23 -4l-41 -56l-41 56q-10 11 -22 4l-26 -19q-11 -9 -4 -22l54 -74l-243 -322q-2 -3 -4 -8v0zM288 160l116 -159h-232l116 159v0z" />
    <glyph glyph-name="gas-pump-primary" unicode="&#xfe01;" 
d="M336 0h-320q-15 -1 -16 -16v-32q1 -15 16 -16h320q15 1 16 16v32q-1 15 -16 16v0zM493 341l-81 81q-11 9 -22 0l-12 -12q-9 -11 0 -22l38 -38v-62q0 -22 14 -37q13 -15 34 -18v-161q-2 -22 -24 -24q-22 2 -24 24v32q-1 37 -26 62t-62 26h-7v-48h8q17 0 28 -12
q11 -11 12 -28v-28q0 -29 18 -50q18 -22 46 -26q34 -2 56 19q23 20 24 53v223q-2 27 -20 46v0z" />
    <glyph glyph-name="scissors-primary" unicode="&#xfe01;" 
d="M507 409q-24 23 -56 23v0q-32 0 -57 -23l-253 -253q-14 4 -30 4q-45 0 -79 -33q-33 -34 -33 -79t33 -79q36 -33 79 -33q44 0 79 33q25 26 31 59t-8 65l293 292q11 12 1 24v0zM112 0q-20 1 -34 14v0q-13 14 -14 34q1 20 14 34q14 13 34 14q20 -1 34 -14q13 -14 14 -34
q-1 -20 -14 -34q-14 -13 -34 -14v0z" />
    <glyph glyph-name="plane-engines-primary" unicode="&#xfe01;" horiz-adv-x="576" 
d="M479 256h-368l-42 58q-5 6 -13 6h-40q-17 -2 -16 -20l23 -78q-21 -7 -23 -30q2 -23 23 -30l-23 -78q-1 -18 16 -20h40q8 0 13 6l42 58h368q30 1 62 19t35 45q-3 27 -35 45t-62 19v0zM336 320q15 1 16 16v32q-1 15 -16 16h-43l36 -64h7v0zM336 64h-7l-36 -64h43
q15 1 16 16v32q-1 15 -16 16v0z" />
    <glyph glyph-name="envelope-primary" unicode="&#xfe01;" 
d="M16 303l212 -165q13 -10 28 -10t28 10l212 165q15 13 16 33q-1 20 -14 34q-14 13 -34 14h-416q-20 -1 -34 -14q-13 -14 -14 -34q0 -20 16 -33v0z" />
    <glyph glyph-name="hand-fist-primary" unicode="&#xfe01;" horiz-adv-x="448" 
d="M192 448q-14 0 -23 -9v0q-9 -9 -9 -23v-144h40q13 0 24 -4v148q0 14 -9 23t-23 9v0zM96 416q-14 0 -23 -9v0q-9 -9 -9 -23v-113h2q3 1 6 1h56v112q0 14 -9 23t-23 9v0zM288 416q-14 0 -23 -9v0q-9 -9 -9 -23v-96q0 -14 9 -23t23 -9t23 9t9 23v96q0 14 -9 23t-23 9v0z
M384 352q-14 0 -23 -9v0q-9 -9 -9 -23v-64q0 -14 9 -23t23 -9t23 9t9 23v64q0 14 -9 23t-23 9v0z" />
    <glyph glyph-name="hand-primary" unicode="&#xfe01;" 
d="M304 0q-15 1 -16 16q-1 34 -23 57q-23 22 -57 23q-15 1 -16 16q1 15 16 16h160q15 -1 16 -16q-1 -15 -16 -16h-83q34 -35 35 -80q-1 -15 -16 -16v0z" />
    <glyph glyph-name="hand-peace-primary" unicode="&#xfe01;" 
d="M416 224q-14 0 -23 -9v0q-9 -9 -9 -23v-64q0 -14 9 -23t23 -9t23 9t9 23v64q0 14 -9 23t-23 9v0zM320 256q-14 0 -23 -9v0q-9 -9 -9 -23v-96q0 -14 9 -23t23 -9t23 9t9 23v96q0 14 -9 23t-23 9v0z" />
    <glyph glyph-name="pencil-primary" unicode="&#xfe01;" 
d="M0 -45q-1 -7 4 -13v0q4 -6 12 -6h3l64 13l-70 70l-13 -64v0zM291 355l-243 -242v-33h32v-64h64v-32h31l243 243l-127 128v0z" />
    <glyph glyph-name="pen-nib-primary" unicode="&#xfe01;" 
d="M498 374l-60 60q-15 14 -34 14t-34 -14l-82 -82l127 -127l82 82q15 14 15 33t-14 34v0z" />
    <glyph glyph-name="pen-fancy-primary" unicode="&#xfe01;" 
d="M369 420l-206 -222l99 -99l221 207q31 29 29 61t-26 55q-23 23 -55 26q-33 2 -62 -28v0z" />
    <glyph glyph-name="check-primary" unicode="&#xfe01;" 
d="M480 320q0 -13 -9 -23l-256 -256q-10 -9 -23 -9t-23 9l-128 128q-9 10 -9 23q0 14 10 23q9 9 22 9t23 -9l105 -106l233 234q10 9 23 9t22 -9q10 -9 10 -23v0z" />
    <glyph glyph-name="cross-primary" unicode="&#xfe01;" horiz-adv-x="384" 
d="M383 288v-64q0 -14 -9 -23t-22 -9h-320q-14 0 -23 9t-9 23v64q0 14 9 23t23 9h320q13 0 22 -9t9 -23v0z" />
    <glyph glyph-name="star-of-david-primary" unicode="&#xfe01;" 
d="M110 137l-34 55l-55 -89q-10 -20 0 -36q11 -17 33 -18h225l35 55h-225l21 33v0zM256 374l24 -38h67l-58 93q-9 13 -24 17t-29 -4q-8 -5 -13 -13l-113 -182l34 -55l112 182v0zM491 103l-110 177h-67l108 -175h-41l-34 -56h111q22 1 33 18q10 16 0 36v0z" />
    <glyph glyph-name="sparkles-primary" unicode="&#xfe01;" 
d="M384 192q0 10 -9 15l-112 56l-57 113q-5 8 -14 8t-14 -8l-57 -113l-112 -56q-9 -5 -9 -15q0 -9 9 -14l112 -56l57 -113q4 -8 14 -9q10 1 14 9l57 113l112 56q9 5 9 14v0z" />
    <glyph glyph-name="flower-primary" unicode="&#xfe01;" 
d="M256 112q-34 1 -57 23v0q-22 23 -23 57q1 34 23 57q23 22 57 23q34 -1 57 -23q22 -23 23 -57q-1 -34 -23 -57q-23 -22 -57 -23v0z" />
    <glyph glyph-name="snowflake-primary" unicode="&#xfe01;" 
d="M476 64q-10 -16 -28 -16q-8 0 -16 4l-144 84v-168q0 -14 -9 -23t-23 -9t-23 9t-9 23v168l-144 -84q-8 -4 -16 -4q-18 0 -28 16q-6 12 -3 24t15 20l145 84l-145 84q-12 8 -15 20t3 24q8 12 20 15t24 -3l143 -84v168q0 14 9 23q10 9 23 9q14 0 23 -9t9 -23v-168l144 84
q12 6 24 3q13 -3 20 -15q6 -12 3 -24q-3 -13 -15 -20l-143 -84l144 -84q12 -8 15 -20t-3 -24v0z" />
    <glyph glyph-name="square-xmark-primary" unicode="&#xfe01;" horiz-adv-x="448" 
d="M258 193l47 47q14 17 0 34q-17 14 -34 0l-47 -48l-48 47q-17 14 -34 0q-14 -17 0 -34l47 -47l-46 -47q-14 -17 0 -34q17 -14 34 0l47 47l47 -47q17 -14 34 0q14 17 0 34l-47 48v0z" />
    <glyph glyph-name="square-right-primary" unicode="&#xfe01;" horiz-adv-x="448" 
d="M234 65q-10 5 -10 15v64h-96q-14 0 -23 9t-9 23v32q0 14 9 23t23 9h96v64q0 10 10 15q10 3 17 -4l112 -112q10 -11 0 -22l-112 -112q-7 -7 -17 -4v0z" />
    <glyph glyph-name="turn-up-primary" unicode="&#xfe01;" horiz-adv-x="384" 
d="M210 440q-8 8 -18 8v0q-10 0 -18 -8l-104 -112q-10 -11 -4 -26q7 -13 22 -14h208q15 1 22 14q6 15 -4 26l-104 112v0z" />
    <glyph glyph-name="turn-down-primary" unicode="&#xfe01;" horiz-adv-x="384" 
d="M296 96h-208q-15 -1 -22 -14q-6 -15 4 -26l104 -112q8 -8 18 -8t18 8l104 112q10 11 4 26q-7 13 -22 14v0z" />
    <glyph glyph-name="square-left-primary" unicode="&#xfe01;" horiz-adv-x="448" 
d="M214 319q10 -5 10 -15v-64h96q14 0 23 -9t9 -23v-32q0 -14 -9 -23t-23 -9h-96v-64q0 -10 -10 -15q-10 -3 -17 4l-112 112q-10 11 0 22l112 112q7 7 17 4v0z" />
    <glyph glyph-name="square-up-primary" unicode="&#xfe01;" horiz-adv-x="448" 
d="M351 202q-5 -10 -15 -10h-64v-104q-2 -22 -24 -24h-48q-22 2 -24 24v104h-64q-10 0 -15 10q-3 10 4 17l112 112q11 10 22 0l112 -112q7 -7 4 -17v0z" />
    <glyph glyph-name="square-down-primary" unicode="&#xfe01;" horiz-adv-x="448" 
d="M97 182q5 10 15 10h64v96q0 14 9 23t23 9h32q14 0 23 -9t9 -23v-96h64q10 0 15 -10q3 -10 -4 -17l-112 -112q-11 -10 -22 0l-112 112q-7 7 -4 17v0z" />
    <glyph glyph-name="square-full-primary" unicode="&#xfe01;" 
 />
    <glyph glyph-name="hexagon-primary" unicode="&#xfe01;" 
 />
    <glyph glyph-name="star-primary" unicode="&#xfe01;" horiz-adv-x="576" 
 />
    <glyph glyph-name="right-primary" unicode="&#xfe01;" horiz-adv-x="448" 
d="M448 192q0 -13 -9 -23l-160 -160q-16 -14 -35 -7q-19 9 -20 30v320q1 21 20 30q19 7 35 -7l160 -160q9 -10 9 -23v0z" />
    <glyph glyph-name="caravan-simple-primary" unicode="&#xfe01;" horiz-adv-x="640" 
d="M624 96h-48v160q-2 68 -47 113t-113 47h-352q-27 -1 -45 -19t-19 -45v-256q1 -27 19 -45t45 -19h9q4 48 37 79q33 32 82 33q49 -1 82 -33q33 -31 37 -79h313q15 1 16 16v32q-1 15 -16 16v0zM256 224q0 -14 -9 -23v0q-9 -9 -23 -9h-128q-14 0 -23 9t-9 23v64q0 14 9 23
t23 9h128q14 0 23 -9t9 -23v-64v0zM448 224q0 -14 -9 -23v0q-9 -9 -23 -9h-64q-14 0 -23 9t-9 23v64q0 14 9 23t23 9h64q14 0 23 -9t9 -23v-64v0z" />
    <glyph glyph-name="cat-space-primary" unicode="&#xfe01;" horiz-adv-x="640" 
d="M292 254q-28 -3 -64 -21v0q-37 -19 -68 -63v86q-1 41 -28 68t-68 28q-14 0 -23 -9t-9 -23t9 -23t23 -9t23 -9t9 -23v-256q1 -27 19 -45t45 -19h175q14 1 16 16v16q0 14 -9 23t-23 9h-32l128 96v-144q1 -15 16 -16h32q14 1 16 16v179q-11 -2 -23 -2q-4 -1 -8 -1
q-59 1 -101 36t-55 90v0zM480 336h-64l-64 64v-128q1 -41 28 -68t68 -28q41 1 68 28t28 68v128l-64 -64v0zM408 256q-15 1 -16 16q1 15 16 16q15 -1 16 -16q-1 -14 -16 -16v0zM488 256q-15 1 -16 16q1 15 16 16q15 -1 16 -16q-1 -14 -16 -16v0z" />
    <glyph glyph-name="coffee-pot-primary" unicode="&#xfe01;" 
d="M130 128q-2 -17 -2 -25q0 -21 7 -37q6 -16 23 -34h260q17 18 23 34q7 16 7 37q0 9 -2 25h-316v0zM432 272l48 144h-392q-37 -1 -62 -26t-26 -62v-88q1 -15 16 -16h32q15 1 16 16v72q0 17 12 28q11 12 28 12h13l27 -80h288v0z" />
    <glyph glyph-name="comet-primary" unicode="&#xfe01;" 
d="M315 148l-50 -50l12 -69q1 -10 -6 -15q-8 -5 -16 -1l-63 32l-63 -32q-8 -5 -16 1q-7 5 -6 15l12 69l-50 50q-7 6 -4 15t12 11l70 10l31 64q5 8 13 9q9 -1 14 -9l31 -63l70 -10q9 -2 12 -11q3 -10 -3 -16v0z" />
    <glyph glyph-name="fan-table-primary" unicode="&#xfe01;" horiz-adv-x="448" 
d="M320 0h-192q-22 0 -39 -12q-18 -13 -24 -32q-2 -8 2 -14q5 -6 13 -6h288q8 0 13 6q4 6 2 14q-6 19 -24 32q-17 12 -39 12v0zM120 113q35 -19 71 -9v0q37 9 58 44q17 30 10 64l105 -18q9 -1 15 5q7 5 7 14q0 28 -15 51q-14 23 -40 35q-25 11 -52 8q-27 -4 -49 -22l-37 99
q-2 6 -9 10q-8 5 -18 0q-33 -20 -44 -58q-8 -28 5 -62t55 -51l-68 -82q-6 -8 -3 -16t9 -12v0zM224 256q15 -1 16 -16q-1 -15 -16 -16q-15 1 -16 16q1 15 16 16v0z" />
    <glyph glyph-name="faucet-primary" unicode="&#xfe01;" 
d="M384 336v-29q-2 -19 -19 -19l-141 16l-141 -16q-17 1 -19 16v32q2 15 19 16l141 -16l141 16q17 -1 19 -16v0z" />
    <glyph glyph-name="galaxy-primary" unicode="&#xfe01;" 
d="M446 356q28 -17 49 -43q6 -9 1 -17q-6 -8 -17 -4q-36 14 -74 8q-22 11 -45 16q-52 10 -102 -7q5 36 27 65q40 13 82 9t79 -27v0zM227 10q21 28 27 65q-50 -17 -102 -7q-24 5 -45 16q-38 -6 -74 8q-11 4 -17 -4q-5 -8 1 -17q21 -26 49 -43q37 -23 79 -27t82 9v0zM373 190
q17 -50 7 -102q-5 -24 -16 -45q6 -38 -8 -74q-4 -11 4 -17t17 1q26 21 43 49q23 37 27 79t-9 82q-29 21 -65 27v0zM139 194q-18 50 -8 102q6 23 17 45q-6 38 8 74q4 11 -4 17q-8 5 -17 -1q-26 -21 -43 -49q-23 -37 -27 -79t9 -82q29 -21 65 -27v0z" />
    <glyph glyph-name="garage-primary" unicode="&#xfe01;" horiz-adv-x="640" 
d="M128 -64h384v160h-384v-160v0zM272 32h96q15 -1 16 -16q-1 -15 -16 -16h-96q-15 1 -16 16q1 15 16 16v0zM128 128h384v96h-384v-96v0z" />
    <glyph glyph-name="garage-car-primary" unicode="&#xfe01;" horiz-adv-x="640" 
d="M469 99l-22 65q-7 20 -23 32q-17 12 -38 12h-132q-21 0 -38 -12q-16 -12 -23 -32l-22 -65q-25 -11 -27 -40v-97q2 -24 26 -26h13q24 2 26 26v22h222v-22q2 -24 26 -26h13q24 2 26 26v97q-2 29 -27 40v0zM239 149q3 10 15 11h132q11 -1 15 -11l18 -53h-198l18 53v0z
M216 16q-22 2 -24 24q2 22 24 24q22 -2 24 -24q-2 -22 -24 -24v0zM424 16q-22 2 -24 24q2 22 24 24q22 -2 24 -24q-2 -22 -24 -24v0z" />
    <glyph glyph-name="garage-open-primary" unicode="&#xfe01;" horiz-adv-x="640" 
d="M128 160h384v64h-384v-64v0zM469 99l-10 29h-51l11 -32h-198l11 32h-51l-10 -29q-25 -11 -27 -40v-97q2 -24 26 -26h13q24 2 26 26v22h222v-22q2 -24 26 -26h13q24 2 26 26v97q-2 29 -27 40v0zM216 16q-22 2 -24 24q2 22 24 24q22 -2 24 -24q-2 -22 -24 -24v0zM424 16
q-22 2 -24 24q2 22 24 24q22 -2 24 -24q-2 -22 -24 -24v0z" />
    <glyph glyph-name="heat-primary" unicode="&#xfe01;" horiz-adv-x="448" 
d="M104 192q55 -63 56 -146v-39q-3 -38 -33 -39q-14 0 -23 9q-8 9 -9 22v46q0 59 -39 103q-55 64 -56 148v25q0 13 9 22t23 9t23 -9t9 -22v-25q1 -60 40 -104v0zM392 192q-39 45 -40 104v24q0 14 -9 23t-23 9t-23 -9t-9 -22v-24q1 -84 56 -146q39 -46 40 -105v-46
q0 -14 9 -23t22 -9q14 0 24 9q9 9 9 23v46q-1 83 -56 146v0z" />
    <glyph glyph-name="house-chimney-window-primary" unicode="&#xfe01;" horiz-adv-x="576" 
d="M575 192q-1 -18 -12 -25v0q-11 -6 -20 -6q-11 0 -21 8l-234 204l-235 -205q-9 -8 -21 -7q-8 0 -19 7t-12 24q-1 12 11 24l255 223q9 8 21 8t21 -8l107 -93v54q2 14 15 15h63q15 -1 16 -15v-137l53 -47q14 -12 12 -24v0z" />
    <glyph glyph-name="house-day-primary" unicode="&#xfe01;" horiz-adv-x="640" 
d="M630 151l-208 192q-10 9 -22 9v0v0q-12 0 -22 -9l-208 -192q-10 -10 -10 -22q0 -14 9 -23t22 -9h31v-112q1 -20 14 -34q14 -14 34 -14h255q21 0 34 14q14 14 14 34v112h32q14 0 23 9t9 23q4 12 -7 22v0zM447 81q-1 -15 -16 -16h-64q-15 1 -16 16v64q1 15 16 16h64
q15 -1 16 -16v-64v0z" />
    <glyph glyph-name="house-person-leave-primary" unicode="&#xfe01;" horiz-adv-x="640" 
d="M394 62q-5 -12 -15 -21l-50 -51q-9 -9 -8 -22q0 -12 9 -22q10 -9 22 -9q13 -1 22 8l60 60q9 9 14 21l14 34q-11 12 -19 20q-22 25 -24 26q-1 2 -5 8l-20 -52v0zM622 203l-23 12l-10 29q-11 34 -39 55q-27 20 -63 21q-23 0 -41 -5q-17 -6 -39 -15q-6 -2 -13 -5
q-33 -14 -50 -46l-6 -14q-6 -12 -2 -24q4 -13 16 -19t24 -2q12 5 18 16l7 14q5 11 17 15l26 11l-15 -61q-7 -33 15 -58l60 -66q11 -12 15 -28l18 -73q4 -13 15 -19q11 -7 24 -4q13 4 20 15q6 10 3 24l-22 89q-4 15 -15 27l-45 50l17 69l5 -17q9 -24 32 -37l23 -11
q12 -6 24 -2q13 4 19 16q5 12 1 24t-16 19v0z" />
    <glyph glyph-name="house-night-primary" unicode="&#xfe01;" horiz-adv-x="640" 
d="M630 151l-208 192q-10 9 -22 9v0v0q-12 0 -22 -9l-208 -192q-10 -10 -10 -22q0 -14 9 -23t22 -9h31v-112q1 -20 14 -34q14 -14 34 -14h255q21 0 34 14q14 14 14 34v112h32q14 0 23 9t9 23q4 12 -7 22v0zM447 81q-1 -15 -16 -16h-64q-15 1 -16 16v64q1 15 16 16h64
q15 -1 16 -16v-64v0z" />
    <glyph glyph-name="house-person-return-primary" unicode="&#xfe01;" horiz-adv-x="640" 
d="M532 185l-16 61l27 -11q11 -4 17 -15l6 -14q6 -11 19 -16q12 -4 24 2q12 7 16 19t-2 24l-7 14q-16 32 -49 46q-7 2 -13 5q-22 9 -40 15q-18 5 -41 5q-35 -1 -63 -21q-27 -21 -39 -55l-10 -29l-23 -12q-12 -7 -16 -19t1 -24q6 -12 19 -16q12 -4 24 2l23 11q24 13 32 37
l6 17l17 -69l-46 -50q-11 -11 -15 -27l-22 -89q-3 -13 4 -24q6 -11 20 -15q13 -3 24 4q11 6 14 19l19 74q4 15 15 27l60 66q22 25 15 58v0zM631 -9l-50 50q-9 9 -14 21l-21 52q-2 -4 -3 -5l-7 -8q-6 -7 -37 -41l13 -34q5 -12 14 -21l60 -60q10 -9 22 -8q13 0 23 9q9 10 9 22
q0 13 -9 23v0z" />
    <glyph glyph-name="house-signal-primary" unicode="&#xfe01;" horiz-adv-x="576" 
d="M24 96q-22 -2 -23 -23q2 -21 23 -23q37 -1 62 -26t26 -62q2 -22 23 -23q10 0 17 5q8 6 8 16q-1 58 -40 96q-38 39 -96 40v0zM9 -9q-9 -10 -9 -23v0q0 -13 9 -23q10 -9 23 -9t23 9q9 10 9 23t-9 23q-10 9 -23 9t-23 -9v0zM188 124q-68 68 -164 68q-22 -2 -24 -23
q2 -22 23 -23q76 -1 130 -54q53 -54 54 -130q2 -22 23 -23q24 -1 26 22q-1 94 -68 163v0z" />
    <glyph glyph-name="lamp-desk-primary" unicode="&#xfe01;" 
d="M319 0h-255q-34 -2 -49 -21q-15 -18 -15 -28q1 -13 16 -15h352q15 2 16 16q0 9 -15 27q-16 19 -50 21v0zM512 367q-1 15 -18 18h-148l-45 45q-19 18 -44 18q-27 -1 -45 -18q-19 -18 -19 -46q0 -25 18 -45l45 -45v-148q2 -17 18 -18q6 0 12 5l221 221q5 6 5 13v0z" />
    <glyph glyph-name="lamp-floor-primary" unicode="&#xfe01;" horiz-adv-x="384" 
d="M256 0h-129q-22 0 -39 -12q-17 -13 -24 -32q-2 -8 3 -14t13 -6h224q18 2 15 20q-6 19 -24 32q-17 12 -39 12v0zM381 269l-68 160q-9 18 -30 19h-182q-21 -1 -30 -19l-68 -160q-7 -16 2 -31q10 -14 27 -14h320q17 0 27 14q9 15 2 31v0z" />
    <glyph glyph-name="light-ceiling-primary" unicode="&#xfe01;" 
d="M512 67v-3q-2 -30 -32 -32l-448 1q-30 1 -32 31v3q15 98 86 158q72 61 170 63q98 -2 170 -63q71 -60 86 -158v0z" />
    <glyph glyph-name="light-switch-primary" unicode="&#xfe01;" horiz-adv-x="384" 
d="M320 448h-256q-27 -1 -45 -19t-19 -45v-384q1 -27 19 -45t45 -19h256q27 1 45 19t19 45v384q-1 27 -19 45t-45 19v0zM192 416q15 -1 16 -16q-1 -15 -16 -16q-15 1 -16 16q1 15 16 16v0zM192 -32q-15 1 -16 16q1 15 16 16q15 -1 16 -16q-1 -15 -16 -16v0zM288 81
q-1 -20 -14 -34v0q-14 -14 -34 -14h-96q-20 0 -34 14q-13 14 -14 34v224q1 20 14 33q14 14 34 14h96q20 -1 34 -14q13 -13 14 -33v-224v0z" />
    <glyph glyph-name="light-switch-off-primary" unicode="&#xfe01;" horiz-adv-x="384" 
d="M320 448h-256q-27 -1 -45 -19t-19 -45v-384q1 -27 19 -45t45 -19h256q27 1 45 19t19 45v384q-1 27 -19 45t-45 19v0zM192 416q15 -1 16 -16q-1 -15 -16 -16q-15 1 -16 16q1 15 16 16v0zM192 -32q-15 1 -16 16q1 15 16 16q15 -1 16 -16q-1 -15 -16 -16v0zM288 160v-79
q-1 -20 -14 -34q-14 -14 -34 -14h-96q-20 0 -34 14q-13 14 -14 34v224q1 20 14 33q14 14 34 14h96q20 -1 34 -14q13 -13 14 -33v-145v0z" />
    <glyph glyph-name="light-switch-on-primary" unicode="&#xfe01;" horiz-adv-x="384" 
d="M320 448h-256q-27 -1 -45 -19t-19 -45v-384q1 -27 19 -45t45 -19h256q27 1 45 19t19 45v384q-1 27 -19 45t-45 19v0zM192 416q15 -1 16 -16q-1 -15 -16 -16q-15 1 -16 16q1 15 16 16v0zM192 -32q-15 1 -16 16q1 15 16 16q15 -1 16 -16q-1 -15 -16 -16v0zM288 208v-127
q-1 -20 -14 -34q-14 -14 -34 -14h-96q-20 0 -34 14q-13 14 -14 34v224q1 20 14 34q14 13 34 14h96q20 -1 34 -14q13 -14 14 -34v-97v0z" />
    <glyph glyph-name="microwave-primary" unicode="&#xfe01;" horiz-adv-x="576" 
d="M528 417h-480q-20 -1 -34 -14q-13 -14 -14 -34v-320q1 -21 14 -35q14 -14 34 -14l24 -32h48l24 32h288l24 -32h48l24 32q20 1 34 14q13 14 14 34v320q-1 20 -14 34q-14 14 -34 15v0zM416 96h-320v224h320v-224v0zM496 184q-22 2 -24 24q2 22 24 24q22 -2 24 -24
q-2 -22 -24 -24v0zM496 280q-22 2 -24 24q2 22 24 24q22 -2 24 -23q0 -10 -7 -17q-7 -8 -17 -8v0z" />
    <glyph glyph-name="outlet-primary" unicode="&#xfe01;" horiz-adv-x="448" 
d="M384 417h-320q-27 -1 -45 -19t-19 -44v-320q1 -27 19 -45q18 -19 45 -19h320q27 0 45 19q18 18 19 45v320q-1 26 -19 44t-45 19v0zM333 69q-6 -5 -14 -5h-190q-8 0 -14 5q-49 49 -51 124q2 74 51 122q6 5 14 5h190q8 0 14 -5q49 -49 51 -122q-2 -75 -51 -124v0z" />
    <glyph glyph-name="oven-primary" unicode="&#xfe01;" horiz-adv-x="448" 
d="M0 -32q0 -14 9 -23v0q9 -9 23 -9h384q14 0 23 9t9 23v288h-448v-288v0zM64 192h320v-192h-320v192v0zM336 160h-224q-15 -1 -16 -16q1 -15 16 -16h224q15 1 16 16q-1 15 -16 16v0zM384 448h-320q-27 -1 -45 -19t-19 -45v-96h448v96q-1 27 -19 45t-45 19v0zM80 344
q-22 2 -24 24q2 22 24 24q22 -2 24 -24q-2 -22 -24 -24v0zM176 344q-22 2 -24 24q2 22 24 24q22 -2 24 -24q-2 -22 -24 -24v0zM272 344q-22 2 -24 24q2 22 24 24q22 -2 24 -24q-2 -22 -24 -24v0zM368 344q-22 2 -24 24q2 22 24 24q22 -2 24 -24q-2 -22 -24 -24v0z" />
    <glyph glyph-name="planet-moon-primary" unicode="&#xfe01;" horiz-adv-x="576" 
d="M512 448q-27 -1 -45 -19v0q-18 -18 -19 -45q1 -27 19 -45q18 -17 45 -18q27 1 45 19q18 17 19 44q-1 27 -19 45t-45 19v0zM90 192h24q13 0 22 -9l56 -55v-32q0 -14 9 -23t23 -9v-63q0 -7 5 -12q6 -5 13 -4q5 0 10 1q14 3 21 16l40 80q7 14 7 29v17q0 14 -9 23t-23 9h-64
q-16 0 -27 11q-9 9 -9 21q-1 13 8 22l49 58q16 26 5 57t-30 55q-69 -2 -122 -39q-53 -36 -79 -95q18 -22 39 -39q21 -18 32 -19v0z" />
    <glyph glyph-name="police-box-primary" unicode="&#xfe01;" horiz-adv-x="448" 
d="M360 384h-8v16q-1 15 -16 16h-224q-15 -1 -16 -16v-16h-8q-22 -2 -24 -24v-376h320v376q-2 22 -24 24v0zM128 312q1 7 8 8h24v-32h-32v24v0zM128 272h32v-32h-24q-7 1 -8 8v24v0zM208 136q-1 -7 -8 -8h-64q-7 1 -8 8v64q1 7 8 8h64q7 -1 8 -8v-64v0zM208 248q-1 -7 -8 -8
h-24v32h32v-24v0zM208 288h-32v32h24q7 -1 8 -8v-24v0zM272 240h-24q-7 1 -8 8v24h32v-32v0zM272 288h-32v24q1 7 8 8h24v-32v0zM320 248q-1 -7 -8 -8h-24v32h32v-24v0zM320 288h-32v32h24q7 -1 8 -8v-24v0z" />
    <glyph glyph-name="person-to-portal-primary" unicode="&#xfe01;" 
d="M383 225h-44l-26 53q-21 40 -62 51l-70 20q-44 10 -81 -17l-40 -30q-10 -8 -12 -21q-1 -13 7 -24t21 -12q12 -2 23 6l40 30q13 9 25 7l15 -5l-37 -87q-10 -23 -2 -45q7 -22 28 -35l85 -51l-27 -87q-4 -13 2 -25q6 -11 18 -16v0q14 -3 25 3t16 18q0 3 9 32q9 28 17 52
q5 17 5 18q4 16 -1 30q-6 15 -20 24l-62 37l32 78l20 -41q14 -26 43 -27h53q14 0 23 9t9 22q0 14 -9 23q-9 10 -23 10v0zM114 130l-15 -33h-67q-14 -1 -23 -10t-9 -23t9 -23t23 -9h77q31 1 45 29l8 21l-10 6q-26 15 -38 42v0z" />
    <glyph glyph-name="person-from-portal-primary" unicode="&#xfe01;" 
d="M210 130l-15 -34l-67 1q-14 0 -23 -9q-9 -10 -9 -23q0 -14 9 -23t23 -9h77q31 1 45 29l8 21l-10 6q-27 14 -38 41v0zM480 225h-44l-26 53q-21 40 -62 51l-71 21q-44 10 -81 -17l-39 -30q-11 -9 -13 -22q-1 -13 7 -24t21 -12q13 -2 24 7l39 29q13 9 25 7l15 -5l-37 -87
q-10 -23 -2 -45q7 -22 28 -36l85 -50l-27 -87q-4 -13 2 -25q6 -11 18 -16v0q14 -3 25 3t16 18q0 3 10 33q9 30 17 54q4 14 4 15q4 16 -1 30q-6 15 -20 24l-62 36l32 78l20 -41q14 -26 43 -27h54q14 0 23 9t9 22q0 14 -9 24t-23 10v0z" />
    <glyph glyph-name="radar-primary" unicode="&#xfe01;" 
d="M504 407l-190 -190q6 -12 6 -25q-1 -27 -19 -45t-45 -19q-27 1 -45 19t-19 45q1 27 19 45t45 19q13 0 25 -5l190 190q17 14 34 0q14 -17 -1 -34v0z" />
    <glyph glyph-name="raygun-primary" unicode="&#xfe01;" horiz-adv-x="576" 
d="M569 329q-6 4 -14 2l-75 -25h-64v-64h64l75 -25q8 -3 14 2q7 5 7 13v84q0 8 -7 13v0zM112 384q-48 -1 -79 -33v0q-32 -31 -33 -78q1 -46 30 -76q30 -31 74 -35l-70 -121q-10 -17 -5 -36q6 -20 23 -30l55 -32q17 -9 36 -4t30 22l115 199v213q-22 11 -48 11h-128v0z
M112 249q-22 2 -24 24q2 22 24 24q22 -2 24 -24q-2 -23 -24 -24v0zM208 249q-22 2 -24 24q2 22 24 24q22 -2 24 -24q-2 -23 -24 -24v0z" />
    <glyph glyph-name="refrigerator-primary" unicode="&#xfe01;" horiz-adv-x="384" 
d="M320 80q-1 -15 -16 -16q-15 1 -16 16v176h-288v-288q0 -14 9 -23t23 -9h320q14 0 23 9t9 23v288h-64v-176v0zM320 448h-256q-27 -1 -45 -19t-19 -45v-96h288v81q1 13 16 15q15 -2 16 -15v-81h64v96q-1 27 -19 45t-45 19v0z" />
    <glyph glyph-name="sensor-primary" unicode="&#xfe01;" horiz-adv-x="448" 
d="M80 352q-15 -1 -16 -16v-160q1 -15 16 -16q15 1 16 16v160q-1 15 -16 16v0zM144 352q-15 -1 -16 -16v-160q1 -15 16 -16q15 1 16 16v160q-1 15 -16 16v0zM208 352q-15 -1 -16 -16v-160q1 -15 16 -16q15 1 16 16v160q-1 15 -16 16v0z" />
    <glyph glyph-name="sensor-triangle-exclamation-primary" unicode="&#xfe01;" horiz-adv-x="640" 
d="M79 352q-14 -1 -16 -16v-160q2 -15 15 -16q15 1 17 16v160q-1 15 -16 16v0zM143 352q-14 -1 -15 -16v-160q2 -15 15 -16q14 1 16 16v160q-1 15 -16 16v0zM633 45l-141 244q-16 25 -44 25t-44 -25l-141 -244q-14 -27 0 -51t44 -26h282q30 2 44 26q14 23 0 51v0zM447 16
q-22 2 -24 24q0 10 7 17t17 7q21 -2 23 -24q-1 -22 -23 -24v0zM472 112q-2 -22 -24 -24q-22 2 -24 24v80q2 22 24 24q22 -2 24 -24v-80v0zM207 352q-14 -1 -16 -16v-160q2 -15 15 -16q14 1 16 16v160q1 15 -15 16v0z" />
    <glyph glyph-name="sensor-fire-primary" unicode="&#xfe01;" horiz-adv-x="640" 
d="M80 352q-14 -1 -16 -16v-160q2 -15 16 -16q15 1 16 16v160q-1 15 -16 16v0zM551 297q-21 -20 -40 -43q-32 43 -71 80q-54 -51 -86 -106q-33 -55 -34 -95q2 -70 47 -117q45 -46 113 -48q68 2 113 48q45 47 47 117q-1 30 -25 78t-64 86v0zM540 50q-26 -18 -58 -18
q-42 0 -69 25q-28 25 -29 69q0 21 14 43q13 23 41 55q3 -4 21 -27q17 -22 34 -43q17 -22 19 -24v0l44 50q4 -8 8 -15q15 -30 9 -62t-34 -53v0zM144 352q-14 -1 -16 -16v-160q2 -15 16 -16q15 1 17 16v160q-2 15 -17 16v0zM209 352q-15 -1 -16 -16v-160q1 -15 16 -16
q14 1 16 16v160q-2 15 -16 16v0z" />
    <glyph glyph-name="sensor-on-primary" unicode="&#xfe01;" horiz-adv-x="640" 
d="M208 352q-15 -1 -16 -16v-160q1 -15 16 -16q15 1 16 16v160q-1 15 -16 16v0zM144 352q-15 -1 -16 -16v-160q1 -15 16 -16q15 1 16 16v160q-1 15 -16 16v0zM80 352q-15 -1 -16 -16v-160q1 -15 16 -16q15 1 16 16v160q-1 15 -16 16v0zM616 216h-64q-22 -2 -24 -24
q2 -22 24 -24h64q22 2 24 24q-2 22 -24 24v0zM597 44l-48 32q-19 10 -33 -7q-10 -19 7 -33l48 -32q19 -11 33 7q11 19 -7 33v0zM536 304q7 0 13 4l48 32q12 8 12 22q-2 13 -14 20q-13 6 -24 -2l-48 -32q-14 -10 -10 -27q6 -16 23 -17v0z" />
    <glyph glyph-name="sensor-cloud-primary" unicode="&#xfe01;" horiz-adv-x="640" 
d="M573 127q6 17 0 33v0q-6 17 -21 26q-16 9 -33 5q-17 -3 -29 -18q-12 30 -39 43q-27 12 -58 5q-30 -10 -46 -36q-15 -26 -9 -57h-2q-34 -1 -56 -23q-22 -23 -23 -57q1 -34 23 -57q23 -22 56 -23h223q32 1 54 21q23 21 26 53q2 32 -16 55q-19 24 -50 30v0zM79 353
q-14 -1 -15 -16v-160q2 -15 15 -16q14 1 16 16v160q-1 14 -16 16v0zM143 353q-14 -1 -15 -16v-160q2 -15 15 -16q15 1 16 16v160q-1 14 -16 16v0zM207 353q-14 -1 -15 -16v-160q2 -15 15 -16q15 0 16 15v160q-1 15 -16 17v0z" />
    <glyph glyph-name="siren-primary" unicode="&#xfe01;" horiz-adv-x="448" 
d="M424 96h-400q-22 -2 -24 -24v-79q2 -22 24 -24h400q22 2 24 24v79q-2 22 -24 24v0z" />
    <glyph glyph-name="siren-on-primary" unicode="&#xfe01;" horiz-adv-x="640" 
d="M536 336q7 0 13 4l48 32q12 7 11 21t-13 21q-13 5 -24 -2l-48 -32q-14 -11 -10 -27q6 -16 23 -17v0zM91 340q11 -8 24 -2q12 6 14 20q0 14 -12 22l-48 32q-11 7 -24 2q-12 -7 -13 -21t11 -21l48 -32v0zM112 224q-2 22 -24 24h-64q-22 -2 -24 -24q2 -22 24 -24h64
q22 2 24 24v0zM616 248h-64q-22 -2 -24 -24q2 -22 24 -24h64q22 2 24 24q-2 22 -24 24v0zM520 96h-400q-22 -2 -24 -24v-80q2 -22 24 -24h400q22 2 24 24v80q-2 22 -24 24v0z" />
    <glyph glyph-name="solar-system-primary" unicode="&#xfe01;" 
d="M52 396v0q-16 -18 -16 -40t16 -40q18 -16 40 -16t40 16q16 18 16 40t-16 40q-18 16 -40 16t-40 -16v0zM255 256q-27 -1 -45 -19v0q-18 -18 -18 -45q1 -27 19 -45t45 -18q27 1 45 19q18 17 19 44q-1 27 -19 45t-46 19v0zM392 260q14 15 14 34v0q0 19 -14 34q-15 14 -34 14
t-34 -14q-14 -15 -14 -34t14 -34q15 -14 34 -14t34 14v0v0v0zM460 68q-18 16 -40 16v0q-22 0 -39 -16q-17 -18 -17 -40t16 -40q18 -16 40 -16t40 16v0v0q16 18 16 40t-16 40v0z" />
    <glyph glyph-name="circle-sort-primary" unicode="&#xfe01;" 
d="M165 224h183q12 1 17 11q4 11 -4 20l-92 92q-5 5 -13 6q-8 -1 -13 -6l-92 -92q-8 -9 -3 -20q4 -10 17 -11v0zM348 160h-183q-13 -1 -17 -11q-5 -11 3 -20l92 -92q5 -5 13 -5q8 -1 13 5l92 92q8 9 4 20q-5 10 -17 11v0z" />
    <glyph glyph-name="circle-sort-down-primary" unicode="&#xfe01;" 
d="M165 160h182q13 -1 17 -11q5 -11 -3 -20l-92 -92q-5 -5 -13 -5t-13 5l-92 92q-8 9 -4 20q5 10 18 11v0z" />
    <glyph glyph-name="circle-sort-up-primary" unicode="&#xfe01;" 
d="M348 225h-183q-13 1 -17 11q-5 11 3 20l92 92q5 5 13 5t13 -5l92 -92q8 -10 4 -20q-5 -10 -17 -11v0z" />
    <glyph glyph-name="space-station-moon-primary" unicode="&#xfe01;" 
d="M256 128q-134 1 -255 39q2 -18 6 -35q119 -35 249 -36q130 1 249 35q4 17 6 35q-121 -37 -255 -38v0zM192 208q34 1 57 23v0q22 23 23 57q-1 34 -23 57q-23 22 -57 23q-34 -1 -57 -23q-22 -23 -23 -57q1 -34 23 -57q23 -22 57 -23v0zM192 312q22 -2 24 -24
q-2 -22 -24 -24q-22 2 -24 24q2 22 24 24v0z" />
    <glyph glyph-name="space-station-moon-construction-primary" unicode="&#xfe01;" 
d="M256 128q-134 1 -255 39q2 -18 6 -35q119 -35 249 -36q130 1 249 35q4 17 6 35q-121 -37 -255 -38v0zM192 208q34 1 57 23v0q22 23 23 57q-1 34 -23 57q-23 22 -57 23q-34 -1 -57 -23q-22 -23 -23 -57q1 -34 23 -57q23 -22 57 -23v0zM191 312q23 -2 24 -24
q-1 -22 -24 -24q-22 2 -24 24q0 10 7 17t17 7v0z" />
    <glyph glyph-name="sprinkler-primary" unicode="&#xfe01;" 
d="M398 192l-110 1v160q0 13 -9 22t-23 9t-23 -9t-9 -22v-160l-110 -1q-11 0 -16 -10t2 -19l67 -78l25 -25v-124h128v124l25 25l67 79q7 8 2 18t-16 10v0z" />
    <glyph glyph-name="starfighter-primary" unicode="&#xfe01;" horiz-adv-x="640" 
d="M512 96v-80q-1 -15 -16 -16h-64q-15 1 -16 16v80h-32v96l-30 241q-3 14 -16 15h-36q-13 -1 -16 -14l-30 -242v-96h-32v-80q-1 -15 -16 -16h-64q-15 1 -16 16v80h-80v-77l128 -51v-16q2 -14 15 -16h17q14 1 16 16v16h192v-16q1 -14 16 -16h16q14 1 16 16v16l128 51v77h-80
v0zM352 144q-1 -14 -16 -16h-32q-15 2 -16 16v48q0 14 9 23t23 9t23 -9t9 -23v-48v0z" />
    <glyph glyph-name="starfighter-twin-ion-engine-primary" unicode="&#xfe01;" horiz-adv-x="576" 
d="M288 352q-68 -2 -113 -47v0q-45 -45 -47 -113q2 -68 47 -113t113 -47q68 2 113 47t47 113q-2 68 -47 113t-113 47q-1 0 0 0v0v0zM300 287q26 -4 47 -19l-23 -23q-11 7 -24 10v32v0zM276 287v-32q-13 -3 -24 -10l-23 22q21 17 47 20v0zM213 251l22 -23q-7 -11 -10 -24h-32
q3 26 20 47v0zM193 180h32q3 -13 10 -24l-22 -23q-17 22 -20 47v0zM276 97q-26 4 -47 19l23 23q11 -7 24 -10v-32v0zM256 192q0 14 9 23v0q9 9 23 9t23 -9t9 -23t-9 -23t-23 -9q-14 1 -23 10q-9 8 -9 22v0zM300 97v32q13 3 24 10l23 -23q-22 -15 -47 -19v0zM364 133l-23 23
q7 11 10 24h32q-4 -25 -19 -47v0zM351 204q-3 13 -10 24l23 23q15 -21 19 -47h-32v0zM48 416h-32q-15 -1 -16 -15v-417q1 -14 16 -16h32q14 1 16 16v416q-1 15 -16 16v0v0v0zM560 416h-32q-14 -2 -16 -15v-417q1 -14 16 -16h32q14 1 16 16v416q-1 15 -16 16q-1 0 0 0v0v0z
" />
    <glyph glyph-name="starship-primary" unicode="&#xfe01;" horiz-adv-x="640" 
d="M448 256q-27 -1 -45 -19v0q-18 -18 -19 -45q1 -27 19 -45t45 -19q27 1 45 19t19 45q-1 27 -19 45t-45 19v0zM448 160q-14 0 -23 9v0q-9 9 -9 23t9 23t23 9t23 -9t9 -23t-9 -23t-23 -9v0zM205 237l-64 51h-76l71 -57l-5 -1q-15 -2 -25 -12q-10 -11 -10 -26t10 -26
q10 -10 25 -12l5 -1l-71 -57h76l63 51l25 -2q-5 23 -5 47t5 47l-24 -2v0z" />
    <glyph glyph-name="starship-freighter-primary" unicode="&#xfe01;" horiz-adv-x="576" 
d="M128 97q-2 -15 -15 -15q-14 1 -15 16q1 14 15 15q13 -2 15 -16v0zM112 305q-15 -2 -16 -16q1 -15 16 -16q14 1 15 15v0v0q0 15 -15 17v0v0v0zM80 209q-15 -2 -16 -16q1 -15 16 -16q14 1 15 15v0v0q0 15 -15 17v0v0v0zM480 16q-1 -20 -14 -34v0q-13 -13 -33 -14h-64
q-23 0 -37 18l-104 126h-1h-2q-35 0 -58 23q-23 22 -24 56q-1 35 22 59q22 23 57 24q34 0 57 -23q24 -22 25 -56q0 -11 -2 -21l89 -110h41q20 -1 34 -14q13 -14 14 -34v0zM256 192q0 14 -9 22v0q-9 9 -23 9t-22 -9q-9 -9 -9 -23q0 -13 9 -22t22 -9q14 1 23 10q9 8 9 22v0z
" />
    <glyph glyph-name="sword-laser-primary" unicode="&#xfe01;" 
d="M9 36q-9 -10 -9 -23v0q0 -12 9 -22l46 -46q9 -9 22 -9t23 9l79 80l-91 90l-79 -79v0zM106 121l79 -80l22 23l-79 79l-22 -22v0zM195 211q-6 5 -11 0l-11 -11q-4 -6 0 -11l80 -80q5 -4 11 0l11 12q5 5 0 11l-80 79v0zM140 155l79 -80l22 23l-79 79l-22 -22v0z" />
    <glyph glyph-name="sword-laser-alt-primary" unicode="&#xfe01;" 
d="M94 121l-85 -85q-9 -10 -9 -23t9 -22l108 107l-23 23v0zM128 87l-107 -108l22 -22l108 107l-23 23v0zM309 192h-138q-6 0 -11 -5l-54 -55l90 -91l124 124q8 8 4 17t-15 10v0zM55 -55q9 -9 22 -9v0q13 0 23 9l85 85l-23 23l-107 -108v0z" />
    <glyph glyph-name="swords-laser-primary" unicode="&#xfe01;" horiz-adv-x="640" 
d="M411 256q-8 8 -17 4v0q-9 -4 -10 -15v-137q0 -7 5 -11l55 -56l90 91l-123 124v0zM197 223l-29 -29q-10 10 -23 10t-22 -10q-10 -10 -10 -22q0 -13 10 -23l-114 -113q-9 -10 -9 -23q0 -12 9 -22l46 -46q10 -9 22 -9q13 0 23 9l119 119q5 4 5 11v137q-1 11 -10 15t-17 -4v0
zM169 87q-15 2 -16 16q1 14 16 15q14 -2 16 -15q-2 -14 -16 -16v0zM631 36l-85 85l-23 -23l108 -107q9 9 9 22t-9 23v0zM455 30l85 -85q10 -9 23 -9t22 9l-107 108l-23 -23v0zM489 64l108 -107l22 22l-107 108l-23 -23v0z" />
    <glyph glyph-name="temperature-arrow-down-primary" unicode="&#xfe01;" 
d="M159 125v19q-1 15 -15 17q-14 -1 -15 -16l-1 -20q-17 -6 -25 -21q-9 -15 -6 -32q3 -18 16 -29t31 -11t31 11t16 29q3 17 -6 32t-26 21v0zM499 105q-11 8 -23 7v0q-13 -2 -22 -12l-6 -9v293q0 14 -9 23t-23 9t-23 -9t-9 -23v-293l-8 9q-9 10 -21 12q-13 1 -24 -7
q-10 -9 -12 -21q-1 -13 7 -24l64 -80q11 -12 26 -12t25 12l64 80q8 11 7 24q-2 12 -13 21v0z" />
    <glyph glyph-name="temperature-arrow-up-primary" unicode="&#xfe01;" 
d="M159 125v211q-1 15 -15 16q-15 -1 -16 -16v-211q-17 -6 -25 -21q-9 -15 -6 -32q3 -18 16 -29t31 -11t31 11t16 29q3 17 -6 32t-26 21v0zM504 324l-64 80q-10 11 -25 11t-25 -11l-64 -80q-8 -11 -7 -24q2 -12 12 -21q11 -8 24 -7q12 2 21 12l8 9v-293q0 -14 9 -23t23 -9
t23 9t9 23v293l7 -9q10 -12 25 -12q11 0 20 7q10 9 12 21q1 13 -8 24v0z" />
    <glyph glyph-name="trailer-primary" unicode="&#xfe01;" horiz-adv-x="640" 
d="M624 128h-80v256q0 14 -9 23t-23 9h-480q-14 0 -23 -9t-9 -23v-288q0 -14 9 -23t23 -9h34q6 42 37 68q30 27 73 28q43 -1 73 -28q31 -26 37 -68h338q15 1 16 16v32q-1 15 -16 16v0zM96 204q-17 -8 -32 -20v160q1 7 8 8h16q7 -1 8 -8v-140v0zM192 223h-2v0q-7 1 -14 1
t-14 -1h-2v121q1 7 8 8h16q7 -1 8 -8v-121v0zM288 184q-15 12 -32 20v140q1 7 8 8h16q7 -1 8 -8v-160v0zM384 128h-32v216q1 7 8 8h16q7 -1 8 -8v-216v0zM480 128h-32v216q1 7 8 8h16q7 -1 8 -8v-216v0z" />
    <glyph glyph-name="transporter-primary" unicode="&#xfe01;" 
d="M256 352q20 1 34 14v0q13 14 14 34q-1 20 -14 34q-14 13 -34 14q-20 -1 -34 -14q-13 -14 -14 -34q1 -20 14 -34q14 -13 34 -14v0zM153 171l31 38v-177h64v96h16v-96h64v177l31 -37q9 -11 22 -12t24 7q10 9 11 22t-7 24l-71 84q-19 22 -49 23h-66q-30 -1 -49 -23l-71 -85
q-8 -10 -7 -23t12 -22q10 -8 23 -7t22 11v0zM384 0h-256q-14 0 -23 -9t-9 -23v-32h320v32q0 14 -9 23t-23 9v0z" />
    <glyph glyph-name="transporter-1-primary" unicode="&#xfe01;" 
d="M256 352q20 1 34 14v0q13 14 14 34q-1 20 -14 34q-14 13 -34 14q-20 -1 -34 -14q-13 -14 -14 -34q1 -20 14 -34q14 -13 34 -14v0zM153 171l31 38v-49h144v49l31 -38q9 -10 22 -11t24 7q10 9 11 22t-7 24l-71 84q-19 22 -49 23h-66q-30 -1 -49 -23l-71 -85q-8 -10 -7 -23
t12 -22q10 -8 23 -7t22 11v0zM384 0h-256q-14 0 -23 -9t-9 -23v-32h320v32q0 14 -9 23t-23 9v0z" />
    <glyph glyph-name="transporter-2-primary" unicode="&#xfe01;" 
d="M384 0h-256q-14 0 -23 -9t-9 -23v-32h320v32q0 14 -9 23t-23 9v0zM338 297q-20 22 -49 23h-66q-30 -1 -49 -23l-61 -73h286l-61 73v0zM256 352q20 1 34 14v0q13 14 14 34q-1 20 -14 34q-14 13 -34 14q-20 -1 -34 -14q-13 -14 -14 -34q1 -20 14 -34q14 -13 34 -14v0z" />
    <glyph glyph-name="transporter-3-primary" unicode="&#xfe01;" 
d="M384 0h-256q-14 0 -23 -9t-9 -23v-32h320v32q0 14 -9 23t-23 9v0zM256 352q20 1 34 14v0q13 14 14 34q-1 20 -14 34q-14 13 -34 14q-20 -1 -34 -14q-13 -14 -14 -34q1 -20 14 -34q14 -13 34 -14v0z" />
    <glyph glyph-name="transporter-empty-primary" unicode="&#xfe01;" horiz-adv-x="320" 
d="M288 0h-256q-14 0 -23 -9t-9 -23v-32h320v32q0 14 -9 23t-23 9v0z" />
    <glyph glyph-name="ufo-beam-primary" unicode="&#xfe01;" horiz-adv-x="576" 
d="M432 337q6 -19 6 -40v-5v-3q-70 -32 -151 -33q-81 1 -150 33v3q-1 2 -1 5q1 21 6 40q-65 -15 -103 -40q-39 -26 -40 -57q1 -31 39 -56q39 -26 104 -41q64 -15 144 -15t145 15t103 41q38 25 39 56t-37 57q-38 25 -104 40v0zM120 240q-2 -22 -24 -24q-21 2 -24 24
q2 22 24 24q22 -2 24 -24v0v0v0zM312 192q-2 -22 -24 -24q-21 2 -24 24q2 22 24 24q22 -2 24 -24v0v0v0zM504 240q-2 -22 -24 -24q-21 2 -24 24q2 22 24 24q22 -2 24 -24v0z" />
    <glyph glyph-name="user-alien-primary" unicode="&#xfe01;" horiz-adv-x="448" 
d="M148 272h-24q-11 -1 -12 -12v-8q1 -25 18 -42t42 -18h24q11 1 12 12v8q-1 25 -18 42t-42 18v0zM324 272h-24q-25 -1 -42 -18t-18 -42v-8q1 -11 12 -12h24q25 1 42 18t18 42v8q-1 11 -12 12v0z" />
    <glyph glyph-name="user-robot-primary" unicode="&#xfe01;" horiz-adv-x="448" 
d="M352 96h-256q-41 -1 -68 -28t-28 -68v-32q0 -14 9 -23t23 -9h96v64q0 14 9 23t23 9h128q14 0 23 -9t9 -23v-64h96q14 0 23 9t9 23v32q-1 41 -28 68t-68 28v0zM116 128h216q15 0 25 11q11 10 11 25v175q0 19 -13 32t-32 13h-198q-19 0 -32 -13t-13 -32v-175q0 -15 11 -25
q10 -11 25 -11v0zM304 176h-32v32h32v-32v0zM288 320q14 0 23 -9v0q9 -9 9 -23t-9 -23t-23 -9t-23 9t-9 23t9 23t23 9v0zM208 208h32v-32h-32v32v0zM176 176h-32v32h32v-32v0zM160 320q14 0 23 -9v0q9 -9 9 -23t-9 -23t-23 -9t-23 9t-9 23t9 23t23 9v0z" />
    <glyph glyph-name="user-visor-primary" unicode="&#xfe01;" horiz-adv-x="448" 
d="M112 272h224q14 0 23 9t9 23v64q0 14 -9 23t-23 9h-224q-14 0 -23 -9t-9 -23v-64q0 -14 9 -23t23 -9v0zM128 352h192v-32h-192v32v0zM275 144h-102q-73 -2 -122 -51t-51 -122q0 -15 10 -25t25 -10h378q15 0 25 10t10 25q-2 73 -51 122t-122 51v0zM353 -16h-1q-2 0 -3 2
q-18 24 -20 25q-1 0 -2 -1q-2 0 -10 -5t-27 -20q-1 -1 -4 0q-2 2 -2 4q6 55 36 89q1 2 3 2t3 -2q28 -37 30 -90q0 -3 -3 -4v0z" />
    <glyph glyph-name="vacuum-primary" unicode="&#xfe01;" horiz-adv-x="640" 
d="M368 96q-34 -1 -57 -23v0q-22 -23 -23 -57q1 -34 23 -57q23 -22 57 -23q34 1 57 23q22 23 23 57q-1 34 -23 57q-23 22 -57 23v0zM368 0q-15 1 -16 16q1 15 16 16q15 -1 16 -16q-1 -15 -16 -16v0zM640 320q-1 54 -38 90v0q-36 37 -90 38h-210q-46 -1 -81 -29
q-34 -27 -44 -72l-75 -347h-54q-20 -1 -34 -14q-13 -14 -14 -34q1 -15 16 -16h160q15 1 16 16v32q-1 15 -16 16h-8l71 333q5 23 22 37q18 14 41 14h210q27 -1 45 -19t19 -45q-1 -23 -14 -40q-14 -17 -37 -23q23 -24 36 -56v1v1q35 15 57 46q21 31 22 71v0z" />
    <glyph glyph-name="vacuum-robot-primary" unicode="&#xfe01;" 
d="M437 373q-51 50 -116 66v0q-65 17 -130 0v0q-65 -16 -116 -66q-50 -51 -67 -116q-16 -65 0 -130q17 -65 67 -116q51 -50 116 -67q65 -16 130 0q65 17 116 67q50 51 66 116q17 65 0 130q-16 65 -66 116v0zM203 53q-5 -5 -11 -5t-11 5l-64 64q-10 11 0 22q11 10 22 0
l64 -64q10 -11 0 -22v0zM283 69q-5 -5 -11 -4q-6 0 -11 5l-128 127q-10 11 0 22q11 10 22 0l128 -128q10 -11 0 -22v0zM299 149q-5 -5 -11 -4q-6 0 -11 5l-64 64q-10 11 0 22q11 10 22 0l64 -64q10 -12 0 -23v0zM379 69q-5 -5 -11 -5t-11 5q-10 11 0 22q42 43 43 101
q0 59 -42 102q-42 42 -102 42q-58 -1 -101 -43q-11 -10 -22 0q-10 11 0 22q52 51 123 53q71 0 125 -51q51 -53 51 -125q-2 -71 -53 -123v0z" />
    <glyph glyph-name="window-frame-open-primary" unicode="&#xfe01;" 
d="M480 416q0 14 -9 23v0q-9 9 -23 9h-384q-14 0 -23 -9t-9 -23v-256h448v256v0zM240 224h-144v160h144v-160v0zM416 224h-144v160h144v-160v0zM496 0h-16v128h-64v-128h-320v128h-64v-128h-16q-15 -1 -16 -16v-32q1 -15 16 -16h480q15 1 16 16v32q-1 15 -16 16v0z" />
    <glyph glyph-name="coffin-cross-primary" unicode="&#xfe01;" horiz-adv-x="384" 
d="M375 333l-108 106q-10 9 -23 9h-104q-13 0 -23 -9l-108 -106q-12 -13 -8 -31l87 -342q7 -23 32 -24h144q25 1 32 24l87 342q4 18 -8 31v0zM288 240q-1 -15 -17 -16h-47v-112q-1 -15 -16 -16h-32q-15 1 -16 16v112h-48q-15 1 -16 16v32q1 15 16 16h48v48q1 15 16 16h32
q15 -1 16 -16v-48h48q15 -1 16 -16v-32v0z" />
    <glyph glyph-name="folder-arrow-down-primary" unicode="&#xfe01;" 
d="M159 177q7 7 17 7t17 -7l39 -39v110q2 22 24 24q22 -2 24 -24v-110l39 39q17 14 34 0q14 -17 0 -34l-80 -80q-17 -14 -34 0l-80 80q-14 17 0 34v0z" />
    <glyph glyph-name="folder-arrow-up-primary" unicode="&#xfe01;" 
d="M352 144q-6 -8 -16 -8t-17 7l-39 39v-110q-2 -22 -24 -24q-22 2 -24 24v110l-40 -38q-17 -14 -34 0q-14 17 0 34l80 80q17 14 34 0l80 -80q15 -18 0 -34v0z" />
    <glyph glyph-name="user-unlock-primary" unicode="&#xfe01;" horiz-adv-x="640" 
d="M592 160h-128v80q0 14 9 23t23 9t23 -9t9 -23v-16h48v11q-1 33 -20 57q-20 23 -52 28q-37 2 -62 -21t-26 -59v-80h-16q-20 -1 -34 -14q-13 -14 -14 -34v-128q1 -20 14 -34q14 -13 34 -14h192q20 1 34 14q13 14 14 34v128q-1 20 -14 34q-14 13 -34 14v0zM496 16
q-14 0 -23 9v0q-9 9 -9 23t9 23t23 9t23 -9t9 -23t-9 -23t-23 -9v0z" />
    <glyph glyph-name="bacteria-primary" unicode="&#xfe01;" horiz-adv-x="640" 
d="M616 217l11 4q15 6 12 22q-4 12 -17 12h-5l-11 -4q-13 23 -37 36l3 11q3 16 -12 21q-3 1 -5 1q-13 -1 -17 -13l-3 -11h-1h-2q-25 0 -46 -14l-8 9q-6 5 -13 5t-13 -5q-10 -12 0 -25l9 -9q-9 -14 -12 -31q-1 -8 -4 -16l-9 4q-4 2 -7 2q-11 0 -16 -10q-6 -15 8 -24l9 -4
q-1 0 -1 -1t-1 -2q-3 -4 -7 -9h-1q-5 -6 -12 -12q-4 -4 -10 -7l-2 -2l-1 -1l-4 9q-5 11 -16 11q-4 0 -7 -2q-15 -8 -10 -23l5 -9h-2q-5 -2 -11 -3q-19 -4 -34 -14l-10 9q-5 5 -12 5t-13 -6q-10 -13 1 -25l10 -9q-13 -22 -11 -48l-12 -4q-15 -6 -12 -22q6 -15 22 -12l11 4
q13 -24 37 -36l-3 -11q-3 -16 12 -21q17 -3 22 12l3 11q8 0 17 1q16 3 32 8h1l3 -9q7 -15 23 -11q15 7 11 23l-4 10q23 10 44 23l7 -8q11 -12 25 -4q12 11 3 25l-6 9q19 16 35 35l8 -6q14 -9 25 3q9 14 -4 25l-8 7q13 20 23 44l10 -4q16 -4 23 11q4 16 -11 22l-11 4l2 4
l6 26q1 10 1 19v0zM416 32q-14 0 -23 9v0q-9 9 -9 23t9 23t23 9t23 -9t9 -23t-9 -23t-23 -9v0zM128 257q-14 0 -23 -9v0q-9 -10 -9 -23q0 -14 9 -24q9 -9 23 -9t23 9t9 23t-9 23q-9 10 -23 10v0z" />
    <glyph glyph-name="bacterium-primary" unicode="&#xfe01;" horiz-adv-x="576" 
d="M240 128q0 -20 -14 -34v0q-14 -13 -34 -14q-20 1 -34 14q-13 14 -14 34q1 20 14 34q14 13 34 14q20 -1 34 -14q14 -14 14 -34v0z" />
    <glyph glyph-name="box-tissue-primary" unicode="&#xfe01;" 
d="M0 64v-96q0 -14 9 -23t23 -9h448q14 0 23 9t9 23v96h-512v0zM384 128l64 224h-109q-23 0 -41 13t-26 35t-26 35t-41 13h-141l64 -320h256v0z" />
    <glyph glyph-name="hand-holding-medical-primary" unicode="&#xfe01;" horiz-adv-x="576" 
d="M400 352v-64q-1 -15 -16 -16h-64v-64q-1 -15 -16 -16h-64q-15 1 -16 16v64h-64q-15 1 -16 16v64q1 15 16 16h64v64q1 15 16 16h64q15 -1 16 -16v-64h64q15 -1 16 -16v0z" />
    <glyph glyph-name="hand-sparkles-primary" unicode="&#xfe01;" horiz-adv-x="640" 
d="M156 310l-49 21l-21 49q-2 4 -6 4t-6 -4l-21 -49l-49 -21q-4 -2 -4 -5q0 -4 4 -6l49 -21l21 -49q2 -5 6 -5t6 4l21 49l49 21q4 2 4 6v1q-1 3 -4 5v0zM639 16q0 4 -4 6l-49 21l-21 49q-1 4 -5 4t-6 -4l-21 -49l-49 -21q-4 -2 -4 -6t4 -6l49 -21l21 -49q2 -4 6 -4t6 4
l21 49l49 21q3 2 3 6v0z" />
    <glyph glyph-name="hands-bubbles-primary" unicode="&#xfe01;" horiz-adv-x="576" 
d="M519 112h-159q-7 1 -8 8q1 7 8 8h128q11 0 18 9q7 8 6 20q-6 18 -25 19h-199l47 17q20 8 16 30q-8 20 -30 16l-108 -33q-39 -14 -62 -45q-22 -32 -23 -72v-26q28 -6 46 -27q17 -22 18 -51q0 -16 -6 -30q27 -19 62 -19h208q11 0 18 9q7 8 6 20q-6 18 -25 19h-95q-7 1 -8 8
q1 7 8 8h128q11 0 18 9q7 8 6 20q-6 18 -25 19h-127q-7 1 -8 8q1 7 8 8h160q11 0 18 9q7 8 6 20q-6 18 -25 19v0z" />
    <glyph glyph-name="handshake-simple-slash-primary" unicode="&#xfe01;" horiz-adv-x="640" 
d="M39 443q-7 5 -15 5q-11 0 -19 -9q-12 -19 4 -34l592 -464q19 -12 34 4q12 19 -4 34l-592 464v0z" />
    <glyph glyph-name="handshake-slash-primary" unicode="&#xfe01;" horiz-adv-x="640" 
d="M39 443q-7 5 -15 5q-11 0 -19 -9q-12 -19 4 -34l591 -463q19 -12 34 4q12 19 -4 34l-591 463v0z" />
    <glyph glyph-name="head-side-cough-primary" unicode="&#xfe01;" horiz-adv-x="640" 
d="M608 137q22 2 24 24q-2 22 -24 24q-22 -2 -24 -24q2 -22 24 -24v0zM480 89q-21 -2 -23 -24q2 -22 23 -24q10 0 17 7t7 17q-2 22 -24 24v0zM336 288q-14 0 -23 -9v0q-9 -9 -9 -23t9 -23t23 -9t23 9t9 23t-9 23t-23 9v0zM544 137q-21 -2 -23 -24q2 -22 23 -24q10 0 17 7
t7 17q-2 22 -24 24v0zM544 41q-21 -2 -23 -24q2 -22 23 -24q10 0 17 7t7 17q-2 22 -24 24v0zM608 89q-22 -2 -24 -24q2 -22 24 -24q22 2 24 24q-2 22 -24 24v0zM608 -7q-22 -2 -24 -24q2 -22 24 -24q22 2 24 24q-2 22 -24 24v0z" />
    <glyph glyph-name="head-side-cough-slash-primary" unicode="&#xfe01;" horiz-adv-x="640" 
d="M39 443q-7 5 -15 5q-11 0 -19 -9q-12 -19 4 -34l591 -463q19 -12 34 4q12 19 -4 34l-591 463v0z" />
    <glyph glyph-name="head-side-mask-primary" unicode="&#xfe01;" 
d="M352 224q14 0 22 9v0q9 9 9 23t-9 23t-22 9q-14 0 -23 -9t-9 -23t9 -23t23 -9v0zM336 80h160l16 48h-255v-192h146q21 0 37 12q17 12 24 32v4h-127q-15 1 -16 16q1 15 16 16h139l10 32h-149q-15 1 -16 16q0 15 15 16v0z" />
    <glyph glyph-name="head-side-virus-primary" unicode="&#xfe01;" 
d="M368 241l-12 -1q-22 2 -30 20q-7 18 7 35l9 8q9 12 0 23q-11 9 -23 0l-8 -9q-17 -14 -35 -7q-18 8 -20 30v12q-2 15 -15 16q-15 -1 -17 -16v-12q-2 -22 -20 -30q-18 -7 -35 7l-8 9q-12 9 -23 0q-9 -12 0 -23l9 -8q14 -17 7 -35q-8 -18 -30 -20l-12 1q-15 -2 -16 -17
q1 -15 16 -16h12q22 -2 30 -20q7 -18 -7 -35l-9 -8q-9 -12 0 -23q5 -5 12 -5q6 0 11 5l8 9q17 14 35 7q19 -8 20 -30v-12q1 -15 16 -16q15 1 16 16v12q2 22 20 30q18 7 35 -7l8 -9q5 -5 12 -5q6 0 11 5q9 11 0 23l-9 8q-14 17 -7 35q8 18 30 20h12q15 1 16 16q-1 15 -16 17
v0zM208 241q-14 1 -15 15q1 15 16 16q14 -2 15 -15q-1 -15 -16 -16v0zM272 176q-15 1 -16 16q2 15 15 16q15 -1 17 -16q-1 -15 -16 -16v0z" />
    <glyph glyph-name="house-chimney-user-primary" unicode="&#xfe01;" horiz-adv-x="576" 
d="M351 193q-1 27 -19 45v0q-17 17 -44 18q-27 -1 -45 -19t-19 -44q1 -27 19 -45t44 -19q27 1 45 18q18 18 19 46v0zM319 97h-63q-34 -1 -56 -23q-22 -23 -23 -56q1 -14 15 -15h191q14 1 15 15q0 33 -22 55q-22 23 -57 24v0zM565 216l-54 46v138q-1 14 -15 15h-63
q-14 -1 -15 -15v-53l-107 93q-10 8 -21 8q-13 0 -23 -8l-255 -223q-12 -12 -11 -24q1 -18 12 -25t20 -7q11 0 21 8l234 204l235 -205q9 -8 21 -8q8 0 20 7q11 7 12 25q0 12 -11 24v0z" />
    <glyph glyph-name="house-laptop-primary" unicode="&#xfe01;" horiz-adv-x="640" 
d="M629 0h-37v160q0 14 -8 22q-9 9 -21 9h-230q-12 0 -21 -8q-8 -9 -8 -23v-159l-37 -1q-10 -1 -11 -11v-10q0 -18 13 -30q12 -13 30 -13h298q18 1 30 13t13 30v10q-1 10 -11 11v0zM544 0h-192v144h192v-144v0z" />
    <glyph glyph-name="lungs-virus-primary" unicode="&#xfe01;" horiz-adv-x="640" 
d="M448 145h-12q-22 1 -30 20q-7 18 7 35l9 8q9 11 0 23q-11 9 -23 0l-8 -9q-17 -15 -35 -8q-18 8 -20 30v12q-1 14 -16 15q-15 -1 -16 -15v-12q-2 -22 -20 -30q-18 -7 -35 7l-8 9q-12 9 -23 0q-9 -12 0 -23l9 -8q14 -17 7 -35q-8 -19 -30 -20h-12q-15 -1 -16 -16
q1 -15 16 -16h12q22 -2 30 -20q7 -18 -7 -35l-9 -8q-9 -12 0 -23q5 -5 11 -5q7 0 12 5l8 9q17 14 35 7q18 -8 20 -30v-12q1 -15 16 -16q15 1 16 16v12q2 22 20 30q18 7 35 -7l8 -9q5 -5 12 -5q6 0 11 5q9 11 0 23l-9 8q-14 17 -7 35q8 18 30 20h12q15 1 16 16q-1 15 -16 17
v0zM288 145q-15 1 -16 15q1 15 16 17q15 -2 16 -15q-1 -17 -16 -17v0zM352 81q-15 1 -16 16q1 14 16 15q15 -1 16 -16q-1 -14 -16 -15v0z" />
    <glyph glyph-name="people-arrows-left-right-primary" unicode="&#xfe01;" horiz-adv-x="576" 
d="M444 138l-72 -68q-6 -6 -13 -3q-7 4 -7 11v36h-128v-36q0 -7 -7 -11q-7 -3 -13 2l-72 69q-8 8 0 17l72 68q6 5 13 2t7 -11v-36h128v36q0 8 7 11t13 -2l72 -68q8 -9 0 -17v0z" />
    <glyph glyph-name="plane-slash-primary" unicode="&#xfe01;" horiz-adv-x="640" 
d="M635 -55q-15 -16 -34 -4l-592 464q-16 15 -4 34q8 9 19 9q8 0 15 -5l591 -463q17 -17 5 -35v0z" />
    <glyph glyph-name="pump-medical-primary" unicode="&#xfe01;" horiz-adv-x="384" 
d="M227 155h-40v40q-1 12 -14 13h-26q-13 -1 -14 -13v-40h-40q-12 -1 -13 -14v-26q1 -13 13 -14h40v-40q1 -12 14 -13h26q13 1 14 13v40h40q12 1 13 14v26q-2 13 -13 14v0zM379 354l-43 43q-20 19 -45 19h-67q0 14 -9 23t-23 9h-65q-13 0 -23 -9q-9 -9 -9 -23v-128h128v64
h67l43 -43q11 -10 23 0l22 22q11 12 1 23v0z" />
    <glyph glyph-name="pump-soap-primary" unicode="&#xfe01;" horiz-adv-x="384" 
d="M379 354l-43 43q-20 19 -45 19h-67q0 14 -9 23t-23 9h-65q-13 0 -23 -9q-9 -9 -9 -23v-128h128v64h67l43 -43q11 -10 23 0l22 22q11 12 1 23v0zM152 189q-14 -18 -32 -48v0q-18 -29 -20 -49q0 -26 17 -43q17 -16 42 -17q25 1 42 17q17 17 17 42q-2 20 -20 50
q-18 29 -32 47q-6 8 -14 1v0z" />
    <glyph glyph-name="shield-virus-primary" unicode="&#xfe01;" 
d="M384 225h-12q-15 0 -23 10q-9 9 -9 22q0 12 9 23l9 8q5 5 5 11q-2 14 -16 16q-7 0 -12 -5l-8 -9q-11 -9 -23 -9q-13 0 -22 9q-10 8 -10 23v13q-1 15 -16 16q-15 -1 -16 -16v-12q-1 -15 -10 -23q-9 -9 -22 -9q-12 0 -23 9l-8 8q-5 5 -11 4q-15 -1 -16 -15q-1 -6 4 -11
l9 -8q9 -12 9 -24q0 -13 -9 -22q-8 -10 -23 -10h-12q-15 -1 -16 -16q1 -15 16 -16h12q15 -1 23 -10q9 -9 9 -22q0 -12 -9 -23l-9 -8q-4 -5 -4 -12q1 -13 16 -15q6 0 11 5l8 9q11 9 23 9q13 0 22 -9q10 -8 10 -23v-12q1 -15 16 -16q15 1 16 16v12q0 15 10 23q9 9 22 9
q12 0 23 -9l8 -9q5 -5 12 -5q14 2 16 15q0 7 -5 12l-9 8q-9 11 -9 23q0 13 9 22q8 10 23 10h12q15 1 16 16q-1 15 -16 17v0zM224 225q-14 1 -15 16q1 15 16 16q14 -1 15 -16q-1 -15 -16 -16v0zM288 161q-15 1 -16 15q1 15 16 16q15 -2 16 -15q-1 -15 -16 -16v0z" />
    <glyph glyph-name="sink-primary" unicode="&#xfe01;" 
d="M352 336q1 -15 16 -16h32q15 1 16 16v16q-1 46 -35 74q-33 28 -80 20q-35 -7 -56 -35q-20 -27 -21 -63v-188h64v192q0 14 9 23t23 9t23 -9t9 -23v-16v0zM128 240h-80q-15 -1 -16 -16v-15q1 -16 16 -17h64v-32h48v48q0 14 -9 23t-23 9v0zM464 240h-80q-14 0 -23 -9t-9 -23
v-47l48 -1v32h64q15 2 16 15v15q-1 17 -16 18v0z" />
    <glyph glyph-name="stopwatch-20-primary" unicode="&#xfe01;" horiz-adv-x="448" 
d="M212 196q-1 20 -14 34v0q-14 13 -34 14q-20 -1 -34 -14q-13 -14 -14 -34q1 -18 20 -20q19 2 20 20q1 7 8 7t8 -9q0 -26 -18 -44q-30 -30 -30 -72v-14q2 -18 20 -20h48q18 2 20 20q-2 18 -20 20h-28q3 22 18 38q30 29 30 74v0zM288 244q-22 -1 -37 -15v0q-14 -15 -15 -37
v-96q1 -22 15 -37q15 -14 37 -15q22 1 37 15q14 15 15 37v96q-1 22 -15 37q-15 14 -37 15v0zM300 96q-1 -11 -12 -12q-11 1 -12 12v96q1 11 12 12q11 -1 12 -12v-96v0z" />
    <glyph glyph-name="shop-slash-primary" unicode="&#xfe01;" horiz-adv-x="640" 
d="M635 -55q-15 -16 -34 -4l-592 464q-16 15 -4 34q8 9 19 9q8 0 15 -5l591 -463q17 -17 5 -35v0z" />
    <glyph glyph-name="store-slash-primary" unicode="&#xfe01;" horiz-adv-x="640" 
d="M635 -55q-15 -16 -34 -4l-592 464q-16 15 -4 34q8 9 19 9q8 0 15 -5l591 -463q17 -17 5 -35v0z" />
    <glyph glyph-name="toilet-paper-slash-primary" unicode="&#xfe01;" horiz-adv-x="640" 
d="M24 448q8 0 15 -5l591 -463q16 -15 4 -34q-15 -16 -34 -4l-591 463q-16 15 -4 34q8 9 19 9v0z" />
    <glyph glyph-name="users-slash-primary" unicode="&#xfe01;" horiz-adv-x="640" 
d="M635 -55q-15 -16 -34 -4l-592 464q-16 15 -4 34q8 9 19 9q8 0 15 -5l591 -463q17 -17 5 -35v0z" />
    <glyph glyph-name="virus-primary" unicode="&#xfe01;" horiz-adv-x="576" 
d="M256 176q-20 1 -34 14v0q-13 14 -14 34q1 20 14 34q14 13 34 14q20 -1 34 -14q13 -14 14 -34q-1 -20 -14 -34q-14 -13 -34 -14v0z" />
    <glyph glyph-name="virus-slash-primary" unicode="&#xfe01;" horiz-adv-x="640" 
d="M39 443q-19 12 -34 -4q-12 -19 4 -34l591 -463q19 -12 34 4q12 19 -4 34l-591 463v0z" />
    <glyph glyph-name="viruses-primary" unicode="&#xfe01;" horiz-adv-x="640" 
d="M160 320q-14 0 -23 -9v0q-9 -9 -9 -23t9 -23t23 -9t23 9t9 23t-9 23t-23 9v0zM624 96h-12q-22 2 -30 20q-7 18 7 35l9 8q9 12 0 23q-11 9 -23 0l-8 -9q-17 -14 -35 -7q-18 8 -20 30v12q-1 15 -16 16q-15 -1 -16 -16v-12q-2 -22 -20 -30q-18 -7 -35 7l-8 9q-12 9 -23 0
q-9 -11 0 -23l9 -8q14 -17 7 -35q-8 -18 -30 -20h-12q-15 -1 -16 -16q1 -15 16 -16h12q22 -2 30 -20q7 -18 -7 -35l-9 -8q-9 -12 0 -23q5 -5 11 -5q7 0 12 5l8 9q17 14 35 7q18 -8 20 -30v-12q1 -15 16 -16q15 1 16 16v12q2 22 20 30q18 7 35 -7l8 -9q5 -5 12 -5q6 0 11 5
q9 11 0 23l-9 8q-14 17 -7 35q8 18 30 20h12q15 1 16 16q-1 15 -16 16v0zM480 64q-14 0 -23 9v0q-9 9 -9 23t9 23t23 9t23 -9t9 -23t-9 -23t-23 -9v0z" />
    <glyph glyph-name="vest-primary" unicode="&#xfe01;" horiz-adv-x="448" 
d="M437 208l-53 80v128q0 14 -9 23t-23 9h-32l-96 -288v-224h192q14 0 23 9t9 23v205q0 19 -11 35v0zM387 29q-5 -5 -11 -5t-11 5l-48 48q-10 11 0 22q11 10 22 0l48 -48q10 -11 0 -22v0zM96 448q-14 0 -23 -9v0q-9 -9 -9 -23v-128l-53 -80q-11 -16 -11 -35v-205
q0 -14 9 -23t23 -9h160v229l15 46l-79 237h-32v0zM131 77l-48 -48q-5 -5 -11 -5t-11 5q-10 11 0 22l48 48q11 10 22 0q10 -11 0 -22v0z" />
    <glyph glyph-name="vest-patches-primary" unicode="&#xfe01;" horiz-adv-x="448" 
d="M96 448q-14 0 -23 -9v0q-9 -9 -9 -23v-128l-53 -80q-11 -16 -11 -35v-205q0 -14 9 -23t23 -9h160v229l15 46l-79 237h-32v0zM96 -8q-17 0 -28 12v0q-12 11 -12 28t12 28q11 12 28 12t28 -12q12 -11 12 -28t-12 -28q-11 -12 -28 -12v0zM129 175l-16 -15l16 -16q6 -8 0 -17
q-4 -3 -9 -3t-8 3l-16 16l-15 -16q-4 -3 -9 -3t-8 3q-7 9 0 17l15 16l-15 15q-7 9 0 17q8 8 17 0l15 -15l16 15q8 8 17 0q7 -8 0 -17v0zM437 208l-53 80v128q0 14 -9 23t-23 9h-32l-96 -288v-224h192q14 0 23 9t9 23v205q0 19 -11 35v0zM359 112h-48q-8 1 -7 7v48q1 11 8 18
q8 8 19 7q21 -4 22 -26v-5h5q22 -1 26 -22q1 -11 -7 -19q-7 -7 -18 -8v0z" />
    <glyph glyph-name="airplay-primary" unicode="&#xfe01;" horiz-adv-x="576" 
d="M308 152q-9 8 -20 8t-19 -8l-133 -137q-12 -14 -6 -30q7 -16 26 -17h264q19 1 26 17q6 16 -6 30l-132 137v0z" />
    <glyph glyph-name="alt-primary" unicode="&#xfe01;" horiz-adv-x="640" 
d="M608 320h-145l-246 -308q-10 -12 -25 -12h-160q-14 0 -23 9t-9 23t9 23t23 9h145l246 308q10 12 25 12h160q14 0 23 -9t9 -23t-9 -23t-23 -9v0z" />
    <glyph glyph-name="angle-primary" unicode="&#xfe01;" horiz-adv-x="448" 
d="M416 -32h-384q-18 1 -27 15q-9 15 -2 31l192 384q7 12 19 16t24 -1q12 -7 16 -19t-1 -24l-169 -338h332q14 0 23 -9t9 -23t-9 -23t-23 -9v0z" />
    <glyph glyph-name="angle-90-primary" unicode="&#xfe01;" horiz-adv-x="448" 
d="M416 32h-352v353q0 13 -9 22t-23 9t-23 -9t-9 -22v-385q0 -14 9 -23t23 -9h384q14 0 23 9t9 23t-9 23t-23 9v0z" />
    <glyph glyph-name="apple-core-primary" unicode="&#xfe01;" horiz-adv-x="384" 
d="M288 448v-32q-1 -34 -23 -57q-23 -22 -57 -23h-32v32q1 34 23 57q23 22 57 23h32v0z" />
    <glyph glyph-name="arrow-down-from-dotted-line-primary" unicode="&#xfe01;" horiz-adv-x="448" 
d="M73 151q10 9 23 10q13 0 23 -9l73 -75v180q0 14 9 23t23 9t23 -9t9 -23v-179l73 73q10 10 23 10t23 -10q9 -9 9 -22t-9 -23l-128 -128q-10 -9 -23 -9t-23 9l-128 128q-9 9 -9 22t9 23v0z" />
    <glyph glyph-name="arrow-down-left-primary" unicode="&#xfe01;" horiz-adv-x="320" 
d="M256 32h-224q-14 0 -23 9t-9 23v224q0 14 9 23t23 9t23 -9t9 -23v-192h192q14 0 23 -9t9 -23t-9 -23t-23 -9v0z" />
    <glyph glyph-name="arrow-down-left-and-arrow-up-right-to-center-primary" unicode="&#xfe01;" 
d="M275 228q5 -12 17 -18q6 -2 12 -2h128q14 0 23 9t9 23t-9 23t-23 9h-51l122 121q9 10 9 23t-9 23q-10 9 -23 9t-23 -9l-121 -122v51q0 14 -9 23t-23 9t-23 -9t-9 -23v-127q0 -8 3 -13v0z" />
    <glyph glyph-name="arrow-down-right-primary" unicode="&#xfe01;" horiz-adv-x="320" 
d="M288 32h-224q-14 0 -23 9t-9 23t9 23t23 9h192v192q0 14 9 23t23 9t23 -9t9 -23v-224q0 -14 -9 -23t-23 -9v0z" />
    <glyph glyph-name="arrow-down-to-bracket-primary" unicode="&#xfe01;" horiz-adv-x="448" 
d="M201 105l-128 128q-9 10 -9 23t9 23q10 9 23 9t23 -9l73 -74v211q0 14 9 23t23 9t23 -9t9 -23v-211l73 74q10 9 23 9t23 -9q9 -10 9 -23t-9 -23l-128 -128q-10 -9 -23 -9t-23 9v0z" />
    <glyph glyph-name="arrow-down-to-dotted-line-primary" unicode="&#xfe01;" horiz-adv-x="448" 
d="M73 263q10 9 23 10q13 0 23 -9l73 -75v180q0 14 9 23t23 9t23 -9t9 -23v-180l73 74q10 9 23 9t23 -9q9 -10 9 -23t-9 -23l-128 -128q-10 -9 -23 -9t-23 9l-128 128q-9 10 -9 23t9 23v0z" />
    <glyph glyph-name="arrow-down-to-square-primary" unicode="&#xfe01;" 
d="M146 216q-9 -10 -10 -23v0q-1 -12 8 -23l88 -96q9 -10 23 -10t24 10l87 96q9 11 8 23q0 13 -10 23q-11 9 -24 8q-12 -1 -21 -10l-31 -36v238q0 14 -9 23t-23 9t-23 -9t-9 -23v-238l-32 36q-10 9 -23 10q-12 1 -23 -8v0z" />
    <glyph glyph-name="arrow-trend-down-primary" unicode="&#xfe01;" horiz-adv-x="576" 
d="M544 32h-160q-14 0 -23 9t-9 23t9 23t23 9h128v128q0 14 9 23t23 9t23 -9t9 -23v-160q0 -14 -9 -23t-23 -9v0z" />
    <glyph glyph-name="arrow-trend-up-primary" unicode="&#xfe01;" horiz-adv-x="576" 
d="M544 128q-14 0 -23 9v0q-9 9 -9 23v128h-128q-14 0 -23 9t-9 23t9 23t23 9h160q14 0 23 -9t9 -23v-160q0 -14 -9 -23t-23 -9v0z" />
    <glyph glyph-name="arrow-up-arrow-down-primary" unicode="&#xfe01;" horiz-adv-x="448" 
d="M16 310l88 96q9 10 23 10t24 -10l87 -96q9 -10 8 -23q0 -13 -10 -22t-23 -9q-13 1 -22 11l-31 35v-302q0 -14 -9 -23t-23 -9t-23 9t-9 23v302l-32 -35q-9 -10 -22 -11t-24 9q-9 9 -10 22t8 23v0z" />
    <glyph glyph-name="arrow-up-from-bracket-primary" unicode="&#xfe01;" horiz-adv-x="448" 
d="M247 439l128 -128q9 -10 9 -23t-9 -23q-10 -9 -23 -9t-23 9l-73 74v-211q0 -14 -9 -23t-23 -9t-23 9t-9 23v211l-73 -74q-10 -9 -23 -9t-23 9q-9 10 -9 23t9 23l128 128q10 9 23 9t23 -9v0z" />
    <glyph glyph-name="arrow-up-from-dotted-line-primary" unicode="&#xfe01;" horiz-adv-x="448" 
d="M375 233q-10 -9 -23 -9t-23 9l-73 74v-179q0 -14 -9 -23t-23 -9t-23 9t-9 23v179l-73 -74q-10 -9 -23 -9t-23 9q-9 10 -9 23t9 23l128 128q10 9 23 9t23 -9l128 -128q9 -10 9 -23t-9 -23v0z" />
    <glyph glyph-name="arrow-up-from-square-primary" unicode="&#xfe01;" 
d="M168 288q14 0 24 11l32 35v-206q0 -14 9 -23t23 -9t23 9t9 23v206l32 -35q10 -11 24 -11q14 1 23 10t9 22q0 12 -8 22l-88 96q-10 10 -24 10t-24 -10l-87 -96q-8 -10 -8 -22q-1 -13 8 -22t23 -10v0z" />
    <glyph glyph-name="arrow-up-left-primary" unicode="&#xfe01;" horiz-adv-x="320" 
d="M32 64q-14 0 -23 9v0q-9 9 -9 23v224q0 14 9 23t23 9h224q14 0 23 -9t9 -23t-9 -23t-23 -9h-192v-192q0 -14 -9 -23t-23 -9v0z" />
    <glyph glyph-name="arrow-up-left-from-circle-primary" unicode="&#xfe01;" 
d="M333 112q10 10 10 23v0q0 12 -10 22l-224 227h83q14 0 23 9t9 22q-1 14 -10 24q-8 9 -22 9h-160q-14 0 -23 -9q-9 -10 -9 -22v-161q0 -14 9 -22q9 -9 23 -9t23 9q9 8 9 22v83l224 -227q10 -9 23 -9q12 0 22 9v0z" />
    <glyph glyph-name="arrow-up-right-primary" unicode="&#xfe01;" horiz-adv-x="320" 
d="M288 64q-14 0 -23 9v0q-9 9 -9 23v192h-192q-14 0 -23 9t-9 23t9 23t23 9h224q14 0 23 -9t9 -23v-224q0 -14 -9 -23t-23 -9v0z" />
    <glyph glyph-name="arrow-up-right-and-arrow-down-left-from-center-primary" unicode="&#xfe01;" 
d="M510 428q-6 12 -18 18q-6 2 -12 2h-128q-14 0 -23 -9t-9 -23t9 -23t23 -9h51l-114 -113q-9 -10 -9 -23t9 -23q10 -9 23 -9t23 9l113 114v-51q0 -14 9 -23t23 -9t23 9t9 23v128q0 6 -2 12v0z" />
    <glyph glyph-name="arrow-up-to-dotted-line-primary" unicode="&#xfe01;" horiz-adv-x="448" 
d="M375 121q-10 -9 -23 -9t-23 9l-73 74v-179q0 -14 -9 -23t-23 -9t-23 9t-9 23v179l-73 -74q-10 -9 -23 -9t-23 9q-9 10 -9 23t9 23l128 128q10 9 23 9t23 -9l128 -128q9 -10 9 -23t-9 -23v0z" />
    <glyph glyph-name="arrows-cross-primary" unicode="&#xfe01;" horiz-adv-x="448" 
d="M446 396q-6 12 -18 18q-6 2 -12 2h-128q-14 0 -23 -9t-9 -23t9 -23t23 -9h51l-330 -329q-9 -10 -9 -23t9 -23q10 -9 23 -9t23 9l329 330v-51q0 -14 9 -23t23 -9t23 9t9 23v128q0 6 -2 12v0z" />
    <glyph glyph-name="arrows-from-dotted-line-primary" unicode="&#xfe01;" horiz-adv-x="448" 
d="M160 321q13 0 23 9l9 9v-51q0 -14 9 -23t23 -9t23 9t9 23v51l9 -10q10 -9 23 -8q14 0 23 10q9 9 9 22t-9 23l-64 63q-14 10 -24 9q-8 1 -22 -9l-64 -64q-9 -10 -9 -23t9 -22t23 -9v0zM288 65q-13 0 -23 -9l-9 -11v51q0 14 -9 22q-9 9 -23 9t-23 -9t-9 -22v-51l-9 10
q-10 9 -23 10q-14 -1 -23 -10t-9 -22t9 -23l64 -64q14 -12 23 -10q9 -1 23 9l64 64q9 10 9 24q0 13 -9 22t-23 10v0z" />
    <glyph glyph-name="arrows-from-line-primary" unicode="&#xfe01;" horiz-adv-x="448" 
d="M160 321q13 0 23 9l9 9v-51q0 -14 9 -23t23 -9t23 9t9 23v51l9 -10q10 -9 23 -8q14 0 23 9q9 10 9 23t-9 23l-64 63q-14 10 -24 9q-8 1 -22 -9l-64 -64q-9 -10 -9 -23t9 -22t23 -9v0zM288 65q-13 0 -23 -9l-9 -11v51q0 14 -9 22q-9 9 -23 9t-23 -9t-9 -22v-51l-9 10
q-10 9 -23 10q-14 -1 -23 -10t-9 -22t9 -23l64 -64q14 -12 23 -10q9 -1 23 9l64 64q9 10 9 24q0 13 -9 22t-23 10v0z" />
    <glyph glyph-name="arrows-minimize-primary" unicode="&#xfe01;" 
d="M192 416q-14 0 -23 -9v0q-9 -9 -9 -23v-51l-105 106q-10 9 -23 9t-23 -9q-9 -10 -9 -23t9 -23l106 -105h-51q-14 0 -23 -9t-9 -23t9 -23t23 -9h128q6 0 12 2q12 6 18 18q2 6 2 12v128q0 14 -9 23t-23 9v0zM397 96h51q14 0 23 9t9 23t-9 23t-23 9h-128q-6 0 -12 -2
q-12 -6 -18 -18q-2 -6 -2 -12v-128q0 -14 9 -23t23 -9t23 9t9 23v51l105 -106q10 -9 23 -9t23 9q9 10 9 23t-9 23l-106 105v0z" />
    <glyph glyph-name="arrows-to-dotted-line-primary" unicode="&#xfe01;" horiz-adv-x="448" 
d="M201 265q10 -9 23 -9t23 9l64 64q9 10 9 23t-9 22q-9 10 -23 10q-13 0 -23 -9l-9 -10v51q0 14 -9 23t-23 9t-23 -9t-9 -23v-51l-9 10q-10 9 -23 9q-14 0 -23 -10q-9 -9 -9 -22t9 -23l64 -64v0zM247 119q-10 9 -23 9t-23 -9l-64 -64q-9 -10 -9 -23t9 -22q9 -10 23 -10
q13 0 23 9l9 10v-51q0 -14 9 -23t23 -9t23 9t9 23v51l9 -10q10 -9 23 -9q14 0 23 10q9 9 9 22t-9 23l-64 64v0z" />
    <glyph glyph-name="arrows-to-line-primary" unicode="&#xfe01;" horiz-adv-x="448" 
d="M201 265q10 -9 23 -9t23 9l64 64q9 10 9 23t-9 22q-9 10 -23 10q-13 0 -23 -9l-9 -10v51q0 14 -9 23t-23 9t-23 -9t-9 -23v-51l-9 10q-10 9 -23 9q-14 0 -23 -10q-9 -9 -9 -22t9 -23l64 -64v0zM247 119q-10 9 -23 9t-23 -9l-64 -64q-9 -10 -9 -23t9 -22q9 -10 23 -10
q13 0 23 9l9 10v-51q0 -14 9 -23t23 -9t23 9t9 23v51l9 -10q10 -9 23 -9q14 0 23 10q9 9 9 22t-9 23l-64 64v0z" />
    <glyph glyph-name="audio-description-slash-primary" unicode="&#xfe01;" horiz-adv-x="640" 
d="M631 -21l-592 464q-7 5 -15 5q-11 0 -19 -9q-12 -19 4 -34l591 -463q19 -12 34 4q13 17 -3 33v0z" />
    <glyph glyph-name="austral-sign-primary" unicode="&#xfe01;" horiz-adv-x="448" 
d="M384 -32q-20 1 -30 20l-130 313l-130 -313q-6 -13 -18 -18q-12 -4 -24 0q-13 6 -18 18q-4 12 0 24l160 384q9 19 30 20q21 -1 30 -20l160 -384q4 -12 0 -24q-5 -12 -18 -18q-6 -2 -12 -2v0z" />
    <glyph glyph-name="avocado-primary" unicode="&#xfe01;" 
d="M320 183q-2 -47 -37 -82v0q-35 -35 -83 -37q-40 2 -56 25q-17 24 -16 48q2 47 37 82t82 37q40 -1 57 -25q16 -24 16 -48v0z" />
    <glyph glyph-name="award-simple-primary" unicode="&#xfe01;" horiz-adv-x="384" 
d="M368 272q-1 13 -10 24v0q-7 9 -10 18q-2 10 0 20q2 15 -4 26q-7 10 -20 16q-10 4 -17 10q-7 8 -11 18q-6 13 -16 20q-11 5 -26 4q-10 -2 -20 0q-10 3 -18 10q-12 9 -24 10q-13 -1 -24 -10q-9 -7 -18 -10q-9 -2 -20 0q-15 2 -27 -4q-9 -7 -14 -20q-5 -10 -11 -17
q-8 -7 -18 -11q-13 -6 -20 -16q-5 -11 -4 -26q2 -10 0 -20q-3 -9 -10 -18q-9 -11 -10 -24q1 -13 10 -24q7 -9 10 -18q2 -10 0 -20q-2 -15 4 -26q7 -10 20 -16q10 -4 17 -10q7 -8 11 -18q6 -13 16 -20q11 -5 26 -4q10 2 20 0q9 -3 17 -10q12 -9 25 -10q13 1 24 10q9 7 18 10
q10 2 20 0q15 -2 26 4q10 7 16 20q4 10 10 17q8 7 18 11q13 6 20 16q6 11 4 26q-2 10 0 20q3 10 10 18q9 12 10 24v0zM192 192q-34 1 -57 23v0q-22 23 -23 57q1 34 23 57q23 22 57 23q34 -1 57 -23q22 -23 23 -57q-1 -34 -23 -57q-23 -22 -57 -23v0z" />
    <glyph glyph-name="baht-sign-primary" unicode="&#xfe01;" horiz-adv-x="320" 
d="M267 207q20 28 21 65q-1 47 -33 79q-31 32 -79 33h-144q-14 0 -23 -9t-9 -23v-320q0 -14 9 -23t23 -9h176q48 1 79 33q32 31 33 79q0 30 -15 55q-14 25 -38 40v0zM64 320h112q20 -1 34 -14q13 -14 14 -34q-1 -20 -14 -34q-14 -13 -34 -14h-112v96v0zM208 64h-144v96h144
q20 -1 34 -14q13 -14 14 -34q-1 -20 -14 -34q-14 -13 -34 -14v0z" />
    <glyph glyph-name="bars-filter-primary" unicode="&#xfe01;" horiz-adv-x="448" 
d="M256 64h-65q-13 0 -22 -9t-9 -22t9 -23t22 -10h64q14 0 24 9q9 9 9 23t-9 23t-23 9v0zM416 384h-385q-13 0 -22 -9t-9 -22t9 -23t22 -10h384q14 0 24 9q9 9 9 23t-9 23t-23 9v0z" />
    <glyph glyph-name="bars-sort-primary" unicode="&#xfe01;" horiz-adv-x="448" 
d="M160 64h-129q-13 0 -22 -9t-9 -22t9 -23t22 -10h129q14 0 23 9t9 23t-9 23t-23 9v0zM416 384h-385q-13 0 -22 -9t-9 -22t9 -23t22 -10h384q14 0 24 9q9 9 9 23t-9 23t-23 9v0z" />
    <glyph glyph-name="basket-shopping-simple-primary" unicode="&#xfe01;" horiz-adv-x="576" 
d="M243 445q-20 9 -32 -10l-104 -200q-9 -20 10 -32q6 -3 10 -3q14 0 21 13l104 200q10 20 -9 32v0zM469 235l-104 200q-12 19 -32 10q-19 -12 -10 -32l103 -200q7 -13 21 -13q6 0 11 3q20 12 11 32v0z" />
    <glyph glyph-name="battery-exclamation-primary" unicode="&#xfe01;" horiz-adv-x="576" 
d="M272 128q14 0 23 9v0q9 9 9 23v192q0 14 -9 23t-23 9t-23 -9t-9 -23v-192q0 -14 9 -23t23 -9v0zM272 88q-17 0 -28 -12v0q-12 -11 -12 -28t11 -28q11 -12 29 -12t29 12q11 11 11 27q0 18 -12 29q-11 12 -28 12v0z" />
    <glyph glyph-name="battery-low-primary" unicode="&#xfe01;" horiz-adv-x="576" 
d="M144 256h-48v-128h48v128v0z" />
    <glyph glyph-name="bee-primary" unicode="&#xfe01;" horiz-adv-x="576" 
d="M342 277q7 6 12 14q9 13 12 29q2 8 2 17q-1 31 -20 53l31 32q10 11 0 22q-11 10 -22 0l-35 -35q-16 7 -34 8q-8 0 -16 -2q-9 -2 -18 -6l-35 34q-11 10 -22 0q-10 -11 0 -22l31 -32q-19 -22 -20 -52q0 -8 2 -16q3 -16 12 -29q5 -8 12 -15q-41 -17 -64 -53h236
q-24 36 -64 53v0zM235 -16h107q20 21 41 48h-190q21 -27 42 -48v0zM421 192h-266q-7 -21 -8 -45v-2v-1h282v1v2q-1 24 -8 45v0zM173 64h230q13 23 20 48h-271q7 -25 21 -48v0z" />
    <glyph glyph-name="beer-mug-primary" unicode="&#xfe01;" 
d="M399 382q-4 18 -17 30v0q-12 13 -30 18q-28 6 -49 -7q-22 -12 -41 3q-21 21 -55 22q-32 -1 -53 -22q-19 -15 -41 -3q-21 13 -49 8q-18 -5 -30 -18q-13 -13 -17 -30q-5 -33 13 -55q19 -23 49 -24q20 0 35 11q21 11 39 -5q23 -21 54 -22q32 1 55 22q18 16 38 5
q17 -11 35 -11q32 1 50 23q19 23 14 55v0zM143 224q-14 -1 -16 -16l1 -192q2 -15 15 -16q15 1 17 16v192q-2 15 -17 16v0zM207 224q-14 -1 -16 -16l1 -192q2 -15 15 -16q15 1 17 16v192q-2 15 -17 16v0zM271 224q-15 -1 -16 -16l1 -192q2 -15 15 -16q15 1 17 16v192
q-2 15 -17 16v0z" />
    <glyph glyph-name="bitcoin-sign-primary" unicode="&#xfe01;" horiz-adv-x="320" 
d="M267 207q20 28 21 65q-1 47 -33 79q-31 32 -79 33h-144q-14 0 -23 -9t-9 -23v-320q0 -14 9 -23t23 -9h176q48 1 79 33q32 31 33 79q0 30 -15 55q-14 25 -38 40v0zM64 320h112q20 -1 34 -14q13 -14 14 -34q-1 -20 -14 -34q-14 -13 -34 -14h-112v96v0zM208 64h-144v96h144
q20 -1 34 -14q13 -14 14 -34q-1 -20 -14 -34q-14 -13 -34 -14v0z" />
    <glyph glyph-name="block-quote-primary" unicode="&#xfe01;" 
d="M32 240q-14 0 -23 -9v0q-9 -9 -9 -23v-192q0 -14 9 -23t23 -9t23 9t9 23v192q0 14 -9 23t-23 9v0z" />
    <glyph glyph-name="bolt-auto-primary" unicode="&#xfe01;" horiz-adv-x="576" 
d="M573 -17l-80 160q-10 16 -29 16t-29 -16l-80 -160q-5 -13 -1 -25t16 -18t24 -2t19 16l7 14h88l7 -14q5 -10 17 -16q12 -5 26 2q12 6 16 18t-1 25v0zM448 25l16 32l16 -32h-32v0z" />
    <glyph glyph-name="bolt-lightning-primary" unicode="&#xfe01;" horiz-adv-x="384" 
d="M381 275q-7 13 -21 13h-157l51 127q5 12 -2 22q-8 11 -20 11h-176q-20 -1 -24 -21l-32 -240q-1 -11 6 -19t18 -8h146l-41 -194q-3 -19 14 -27q4 -3 9 -3q12 0 20 10l208 304q7 12 1 25v0z" />
    <glyph glyph-name="bolt-slash-primary" unicode="&#xfe01;" horiz-adv-x="640" 
d="M635 -55q-15 -16 -34 -4l-592 464q-16 15 -4 34q8 9 19 9q8 0 15 -5l591 -463q17 -17 5 -35v0z" />
    <glyph glyph-name="book-arrow-right-primary" unicode="&#xfe01;" horiz-adv-x="640" 
d="M64 27q2 -12 12 -20v0q9 -7 22 -7h318q14 0 23 -9t9 -22q0 -14 -9 -24q-9 -9 -23 -9h-320q-41 1 -68 28t-28 68v320q1 41 28 68t68 28h304q20 -1 34 -14q13 -14 14 -34v-136h-168q-22 -2 -24 -24q2 -22 24 -24h168v-104q-1 -20 -14 -34q-14 -13 -34 -14h-304
q-15 0 -24 -11q-10 -11 -8 -26v0z" />
    <glyph glyph-name="book-arrow-up-primary" unicode="&#xfe01;" horiz-adv-x="448" 
d="M416 0h-152v-64h152q14 0 23 9t9 22q0 14 -9 24q-9 9 -23 9v0zM400 448h-304q-41 -1 -68 -28t-28 -68v-320q1 -41 28 -68t68 -28h120v64h-120q-14 0 -23 9t-9 23t9 23t23 9h120v174l-40 -38q-17 -14 -34 0q-14 17 0 34l80 80q17 14 34 0l80 -80q14 -17 0 -34
q-6 -8 -16 -8t-17 7l-39 39v-174h136q20 1 34 14q13 14 14 34v288q-1 20 -14 34q-14 13 -34 14v0z" />
    <glyph glyph-name="book-bookmark-primary" unicode="&#xfe01;" horiz-adv-x="448" 
d="M64 29q2 -13 11 -21v0q9 -8 22 -8h319q14 0 23 -9t9 -22q0 -14 -9 -24q-9 -9 -23 -9h-320q-41 1 -68 28t-28 68v320q1 41 28 68t68 28h96v-191q1 -10 9 -15q8 -4 16 2l55 44l54 -44q9 -6 17 -2t9 15v191h48q20 -1 34 -14q13 -14 14 -34v-288q-1 -20 -14 -34
q-14 -13 -34 -14h-304q-14 0 -24 -10q-9 -10 -8 -25v0z" />
    <glyph glyph-name="book-circle-arrow-right-primary" unicode="&#xfe01;" horiz-adv-x="640" 
d="M496 224q-61 -2 -102 -42v0q-40 -41 -42 -102q2 -61 42 -102q41 -40 102 -42q61 2 102 42q40 41 42 102q-2 61 -42 102q-41 40 -102 42v0zM571 69l-56 -56q-5 -5 -11 -5t-11 5q-10 11 0 22l28 29h-89q-14 1 -15 16q1 15 15 16h89l-28 29q-10 11 0 22q11 10 22 0l56 -56
q10 -11 0 -22v0z" />
    <glyph glyph-name="book-circle-arrow-up-primary" unicode="&#xfe01;" horiz-adv-x="640" 
d="M496 224q-61 -2 -102 -42v0q-40 -41 -42 -101q2 -62 42 -103q41 -40 102 -42q61 2 102 42q40 41 42 102q-2 61 -42 102q-41 40 -102 42v0zM563 77q-11 -10 -22 0l-29 28v-89q-1 -14 -16 -15q-15 1 -16 15v89l-29 -28q-11 -10 -22 0q-10 11 0 22l56 56q11 10 22 0l56 -56
q5 -5 5 -11t-5 -11v0z" />
    <glyph glyph-name="book-copy-primary" unicode="&#xfe01;" horiz-adv-x="576" 
d="M576 208v192q-1 20 -14 34q-14 13 -34 14h-240q-41 -1 -68 -28t-28 -68v-224q1 -41 28 -68t68 -28h256q14 0 23 9t9 23q-1 18 -16 27v81q15 14 16 36v0zM512 96h-224q-14 0 -23 9t-9 23t9 23t23 9h224v-64v0z" />
    <glyph glyph-name="book-font-primary" unicode="&#xfe01;" horiz-adv-x="448" 
d="M239 332l-37 -76h76l-39 76v0zM96 64h304q20 1 34 14q13 14 14 34v288q-1 20 -14 34q-14 13 -34 14h-304q-41 -1 -68 -28t-28 -68v-320q1 -41 28 -68t68 -28h320q14 0 23 9t9 22q0 14 -9 24q-9 9 -23 9h-319q-12 0 -22 8q-9 8 -11 21q-1 15 8 25q10 10 24 10v0zM130 183
l96 192q5 8 14 8t14 -8l96 -192q6 -14 -7 -21q-3 -2 -7 -2q-9 0 -14 9l-28 55h-108l-28 -55q-7 -13 -21 -7q-13 7 -7 21v0z" />
    <glyph glyph-name="book-open-cover-primary" unicode="&#xfe01;" horiz-adv-x="640" 
d="M313 -63l-288 63q-23 9 -25 32v352q1 16 12 25q12 9 28 6l24 -6v-326q2 -23 25 -31l231 -51l231 51q23 7 25 31v326l24 6q16 3 28 -6q11 -9 12 -25v-351q-2 -24 -25 -31l-288 -63q-7 -4 -14 -2v0z" />
    <glyph glyph-name="book-section-primary" unicode="&#xfe01;" horiz-adv-x="448" 
d="M236 277q-1 0 -5 1v0q-4 1 -5 2q-7 -1 -15 -5q-8 -3 -11 -12q-2 -6 4 -12t33 -13q0 -1 7 -2q7 -2 10 -3q7 1 15 4q8 4 11 12q1 9 -7 15q-9 6 -37 13v0zM96 64h304q20 1 34 14q13 14 14 34v288q-1 20 -14 34q-14 13 -34 14h-304q-41 -1 -68 -28t-28 -68v-320q1 -41 28 -68
t68 -28h320q14 0 23 9t9 22q0 14 -9 24q-9 9 -23 9h-319q-12 0 -22 8q-9 8 -11 21q-1 15 8 25q10 10 24 10v0zM236 205l-8 2v0q-19 3 -41 17q-22 13 -18 45q3 17 17 28q-21 13 -17 44q5 24 28 35q24 12 60 7q12 -2 30 -8q13 -5 10 -20q-5 -13 -20 -10q-15 5 -25 6
q-45 5 -52 -16q-2 -6 4 -12t33 -13l7 -2v0q25 -5 48 -19q23 -13 19 -46q-3 -17 -17 -28q21 -13 17 -44q-10 -42 -67 -43q-10 0 -21 2q-19 3 -38 10v0l-6 2q-13 5 -10 20q6 13 20 10l6 -2v0q17 -6 33 -9q45 -5 52 16q1 9 -7 15q-9 6 -37 13v0z" />
    <glyph glyph-name="bookmark-slash-primary" unicode="&#xfe01;" horiz-adv-x="640" 
d="M640 -39q0 11 -9 19l-592 463q-7 5 -15 5q-22 -2 -24 -24q0 -11 9 -19l591 -463q8 -6 15 -6q24 2 25 25v0z" />
    <glyph glyph-name="bowling-ball-pin-primary" unicode="&#xfe01;" horiz-adv-x="576" 
d="M438 288v-31h84v31h-84v0zM208 352q-88 -2 -147 -61v0q-59 -59 -61 -147q2 -88 61 -147t147 -61q88 2 147 61t61 147q-2 88 -61 147t-147 61v0zM123 203q-25 2 -27 26q2 25 27 27q24 -2 26 -27q-2 -24 -26 -26v0zM197 160q-24 2 -26 27q2 24 26 26q25 -2 27 -26
q-2 -25 -27 -27v0zM197 248q-24 2 -26 27q2 24 26 26q25 -2 27 -26q-2 -25 -27 -27v0z" />
    <glyph glyph-name="box-circle-check-primary" unicode="&#xfe01;" horiz-adv-x="576" 
d="M432 224q-61 -2 -102 -42v0q-40 -41 -42 -102q2 -61 42 -102q41 -40 102 -42q61 2 102 42q40 41 42 102q-2 61 -42 102q-41 40 -102 42v0zM499 107l-74 -75q-5 -4 -12 -4q-6 0 -11 4l-37 38q-10 11 0 22q11 10 22 0l26 -26l64 64q11 9 22 0q10 -12 0 -23v0z" />
    <glyph glyph-name="brackets-round-primary" unicode="&#xfe01;" 
d="M128 -32q-9 0 -18 5q-4 2 -30 27q-27 24 -52 72q-26 48 -28 120q2 72 28 120q25 48 52 72q26 25 30 27q12 7 24 4q13 -2 21 -13q7 -12 4 -24q-2 -13 -13 -21q-3 -1 -23 -19q-20 -19 -39 -56q-19 -36 -20 -90q1 -54 20 -91q20 -36 39 -55q20 -18 23 -20q11 -7 13 -20
q3 -12 -5 -24q-10 -14 -26 -14v0z" />
    <glyph glyph-name="brain-circuit-primary" unicode="&#xfe01;" 
d="M352 120q-26 -1 -37 -24h-43v80h48q20 1 34 14q13 14 14 34v43q23 11 24 37q0 17 -12 28q-11 12 -28 12t-28 -12q-12 -11 -12 -28q1 -26 24 -37v-43q-1 -15 -16 -16h-48v184h-32v-72h-43q-11 23 -37 24q-17 0 -28 -12q-12 -11 -12 -28t12 -28q11 -12 28 -12q26 1 37 24
h43v-80h-48q-20 -1 -34 -14q-13 -14 -14 -34v-43q-23 -11 -24 -37q0 -17 12 -28q11 -12 28 -12t28 12q12 11 12 28q-1 26 -24 37v43q1 15 16 16h48v-184h32v72h43q11 -23 37 -24q17 0 28 12q12 11 12 28t-12 28q-11 12 -28 12v0zM352 320q15 -1 16 -16q-1 -15 -16 -16
q-15 1 -16 16q1 15 16 16v0zM160 288q-15 1 -16 16q1 15 16 16q15 -1 16 -16q-1 -15 -16 -16v0zM160 64q-15 1 -16 16q1 15 16 16q15 -1 16 -16q-1 -15 -16 -16v0zM352 64q-15 1 -16 16q1 15 16 16q15 -1 16 -16q-1 -15 -16 -16v0z" />
    <glyph glyph-name="brake-warning-primary" unicode="&#xfe01;" horiz-adv-x="640" 
d="M319 160q22 2 23 24v112q-2 22 -23 24q-10 0 -17 -7t-7 -17v-112q0 -10 7 -17t17 -7v0zM84 372q-20 10 -33 -7q-51 -79 -51 -173t51 -173q7 -11 20 -11q7 0 13 4q17 13 7 33q-43 67 -43 147t43 147q10 20 -7 33v0zM589 365q-13 17 -33 7q-17 -13 -7 -33q43 -67 43 -147
t-43 -147q-10 -20 7 -33q6 -4 13 -4q13 0 20 11q50 79 51 173q-1 94 -51 173v0zM320 128q-14 0 -23 -9v0q-9 -9 -9 -23t9 -23t23 -9t23 9t9 23t-9 23t-23 9v0z" />
    <glyph glyph-name="briefcase-blank-primary" unicode="&#xfe01;" 
d="M512 304v-288q-1 -20 -14 -34q-14 -13 -34 -14h-416q-20 1 -34 14q-13 14 -14 34v288q1 20 14 34q14 13 34 14h416q20 -1 34 -14q13 -14 14 -34v0z" />
    <glyph glyph-name="brightness-primary" unicode="&#xfe01;" 
d="M352 192q-1 -41 -28 -68v0q-27 -27 -68 -28q-41 1 -68 28t-28 68q1 41 28 68t68 28q41 -1 68 -28t28 -68v0z" />
    <glyph glyph-name="brightness-low-primary" unicode="&#xfe01;" horiz-adv-x="448" 
d="M320 192q-1 -41 -28 -68v0q-27 -27 -68 -28q-41 1 -68 28t-28 68q1 41 28 68t68 28q41 -1 68 -28t28 -68v0z" />
    <glyph glyph-name="browsers-primary" unicode="&#xfe01;" horiz-adv-x="576" 
d="M512 448h-352q-27 -1 -45 -19t-19 -45v-128h480v128q-1 27 -19 45t-45 19v0zM224 332q-1 -11 -12 -12h-40q-11 1 -12 12v40q1 11 12 12h40q11 -1 12 -12v-40v0zM512 332q-1 -11 -12 -12h-232q-11 1 -12 12v40q1 11 12 12h232q11 -1 12 -12v-40v0zM48 16v336
q-20 -1 -34 -14q-13 -14 -14 -34v-304q1 -27 19 -45t45 -19h368q20 1 34 14q13 14 14 34h-400q-14 0 -23 9t-9 23v0z" />
    <glyph glyph-name="buildings-primary" unicode="&#xfe01;" 
d="M464 448h-224q-20 -1 -34 -14q-13 -14 -14 -34v-463l288 -1q14 0 23 9t9 23v432q-1 20 -14 34q-14 13 -34 14v0zM320 144q-1 -15 -16 -16h-32q-15 1 -16 16v32q1 15 16 16h32q15 -1 16 -16v-32v0zM320 240q-1 -15 -16 -16h-32q-15 1 -16 16v32q1 15 16 16h32
q15 -1 16 -16v-32v0zM320 336q-1 -15 -16 -16h-32q-15 1 -16 16v32q1 15 16 16h32q15 -1 16 -16v-32v0zM448 144q-1 -15 -16 -16h-32q-15 1 -16 16v32q1 15 16 16h32q15 -1 16 -16v-32v0zM448 240q-1 -15 -16 -16h-32q-15 1 -16 16v32q1 15 16 16h32q15 -1 16 -16v-32v0z
M448 336q-1 -15 -16 -16h-32q-15 1 -16 16v32q1 15 16 16h32q15 -1 16 -16v-32v0z" />
    <glyph glyph-name="burger-fries-primary" unicode="&#xfe01;" horiz-adv-x="640" 
d="M624 1h-320q-15 -1 -16 -16q1 -20 14 -34q14 -14 34 -14h256q20 0 34 14q13 14 14 34q-1 14 -16 16v0zM320 33h288q14 0 23 9t9 22t-9 22q-9 10 -23 10h-288q-14 0 -23 -9t-9 -23t9 -22q9 -9 23 -9v0zM319 129h290q19 1 28 17q8 16 -3 34q-23 32 -67 54q-45 21 -103 23
q-58 0 -103 -22q-44 -22 -67 -55q-11 -18 -2 -34q8 -16 27 -17v0zM544 209q15 -1 16 -16q-1 -15 -17 -17q-15 1 -16 16q2 15 17 17v0zM464 225q15 -1 16 -16q-1 -15 -17 -17q-15 1 -16 16q2 15 17 17v0zM384 209q15 -1 16 -16q-1 -15 -17 -17q-15 1 -16 16q2 15 17 17v0z
" />
    <glyph glyph-name="burger-glass-primary" unicode="&#xfe01;" horiz-adv-x="640" 
d="M624 1h-320q-15 -1 -16 -16q1 -20 14 -34q14 -14 34 -14h256q20 0 34 14q13 14 14 34q-1 14 -16 16v0zM320 33h288q14 0 23 9t9 22t-9 22q-9 10 -23 10h-288q-14 0 -23 -9t-9 -23t9 -22q9 -9 23 -9v0zM319 129h290q19 1 28 17q8 16 -3 34q-23 32 -67 54q-45 21 -103 23
q-58 0 -103 -22q-44 -22 -67 -55q-11 -18 -2 -34q8 -16 27 -17v0zM544 209q15 -1 16 -16q-1 -15 -16 -16q-15 1 -16 15q1 15 16 17v0zM464 225q15 -1 16 -16q-1 -15 -16 -16q-15 1 -16 15q1 14 16 17v0zM384 209q15 -1 16 -16q-1 -15 -16 -16q-15 1 -16 15q1 15 16 17v0z
" />
    <glyph glyph-name="cable-car-primary" unicode="&#xfe01;" 
d="M415 224h-144v92l-32 -9v-83h-143q-27 -1 -45 -19t-19 -45v-160q1 -27 19 -45t44 -19h319q27 1 45 19t18 45v160q1 27 -17 45q-17 18 -45 19v0zM175 64h-96v96h95v-96h1zM303 64h-96v96h96v-96v0zM431 64h-96v96h96v-96v0zM191 352q14 0 23 9v0q9 9 9 23t-9 23t-23 9
t-23 -9t-9 -23q1 -14 10 -23t22 -9v0zM287 384q14 0 23 9v0q9 9 9 23t-9 23t-23 9t-23 -9t-9 -23q1 -14 10 -23t22 -9v0z" />
    <glyph glyph-name="calendar-arrow-down-primary" unicode="&#xfe01;" horiz-adv-x="448" 
d="M400 384h-48v33q0 13 -9 22t-23 9t-23 -9t-9 -22v-33h-128v33q0 13 -9 22t-23 9t-23 -9t-9 -22v-33h-48q-20 -1 -34 -14q-13 -14 -14 -34v-80h448v80q-1 20 -14 34q-14 13 -34 14v0zM287 121l-39 -39v102q-2 22 -24 24q-22 -2 -24 -24v-102l-39 39q-7 7 -17 7t-17 -7
q-14 -17 0 -34l80 -80q17 -14 34 0l80 80q14 17 0 34q-17 14 -34 0v0z" />
    <glyph glyph-name="calendar-arrow-up-primary" unicode="&#xfe01;" horiz-adv-x="448" 
d="M400 384h-48v33q0 13 -9 22t-23 9t-23 -9t-9 -22v-33h-128v33q0 13 -9 22t-23 9t-23 -9t-9 -22v-33h-48q-20 -1 -34 -14q-13 -14 -14 -34v-80h448v80q-1 20 -14 34q-14 13 -34 14v0zM240 201q-17 14 -34 0l-80 -80q-14 -17 0 -34q17 -14 34 0l40 39v-102q2 -22 24 -24
q22 2 24 24v102l39 -39q7 -7 17 -7t17 7q14 17 0 34l-81 80v0z" />
    <glyph glyph-name="calendar-clock-primary" unicode="&#xfe01;" horiz-adv-x="576" 
d="M448 336q-1 20 -14 34v0q-14 13 -34 14h-48v33q0 13 -9 22t-23 9t-23 -9t-9 -22v-33h-128v33q0 13 -9 22t-23 9t-23 -9t-9 -22v-33h-48q-20 -1 -34 -14q-13 -14 -14 -34v-80h448v80v0zM432 224q-61 -2 -102 -42v0q-40 -41 -42 -102q2 -61 42 -102q41 -40 102 -42
q61 2 102 42q40 41 42 102q-2 61 -42 102q-41 40 -102 42v0zM480 64h-48q-15 1 -16 16v63q1 15 16 16q15 -1 16 -16v-47h32q15 -1 16 -16q-1 -15 -16 -16v0z" />
    <glyph glyph-name="calendar-heart-primary" unicode="&#xfe01;" horiz-adv-x="448" 
d="M400 384h-48v33q0 13 -9 22t-23 9t-23 -9t-9 -22v-33h-128v33q0 13 -9 22t-23 9t-23 -9t-9 -22v-33h-48q-20 -1 -34 -14q-13 -14 -14 -34v-80h448v80q-1 20 -14 34q-14 13 -34 14v0zM232 173l-8 -9l-9 9q-16 17 -39 19q-22 2 -40 -13q-21 -18 -22 -44t17 -45l83 -86
q10 -8 20 0l83 86q18 19 17 45t-22 44q-18 15 -40 13q-23 -2 -40 -19v0z" />
    <glyph glyph-name="calendar-image-primary" unicode="&#xfe01;" horiz-adv-x="448" 
d="M400 384h-48v33q0 13 -9 22t-23 9t-23 -9t-9 -22v-33h-128v33q0 13 -9 22t-23 9t-23 -9t-9 -22v-33h-48q-20 -1 -34 -14q-13 -14 -14 -34v-80h448v80q-1 20 -14 34q-14 13 -34 14v0zM184 73l53 80q5 7 14 7q8 0 13 -7l85 -128q5 -8 1 -17q-5 -8 -14 -8h-224q-10 0 -14 9
q-4 8 1 16l47 64q5 7 13 7t13 -7l12 -16v0z" />
    <glyph glyph-name="calendar-lines-primary" unicode="&#xfe01;" horiz-adv-x="448" 
d="M400 384h-48v33q0 13 -9 22t-23 9t-23 -9t-9 -22v-33h-128v33q0 13 -9 22t-23 9t-23 -9t-9 -22v-33h-48q-20 -1 -34 -14q-13 -14 -14 -34v-80h448v80q-1 20 -14 34q-14 13 -34 14v0zM120 128h208q22 2 24 24q-2 22 -24 24h-208q-22 -2 -24 -24q2 -22 24 -24v0zM120 32
h112q22 2 24 24q-2 22 -24 24h-112q-22 -2 -24 -24q2 -22 24 -24v0z" />
    <glyph glyph-name="calendar-range-primary" unicode="&#xfe01;" horiz-adv-x="448" 
d="M400 384h-48v33q0 13 -9 22t-23 9t-23 -9t-9 -22v-33h-128v33q0 13 -9 22t-23 9t-23 -9t-9 -22v-33h-48q-20 -1 -34 -14q-13 -14 -14 -34v-80h448v80q-1 20 -14 34q-14 13 -34 14v0zM112 128q15 1 16 16v32q-1 15 -16 16h-32q-15 -1 -16 -16v-32q1 -15 16 -16h32v0z
M368 64h-32q-15 -1 -16 -16v-32q1 -15 16 -16h32q15 1 16 16v32q-1 15 -16 16v0zM360 184h-176q-22 -2 -24 -24q2 -22 24 -24h176q22 2 24 24q-2 22 -24 24v0zM264 56h-176q-21 -2 -23 -24q2 -22 23 -24h176q22 2 24 24q-2 22 -24 24v0z" />
    <glyph glyph-name="calendars-primary" unicode="&#xfe01;" 
d="M464 384h-48v31q0 14 -9 23t-23 9q-13 0 -22 -9t-9 -23v-32h-96v33q0 14 -9 23q-10 9 -23 9q-14 0 -22 -9q-9 -9 -9 -23l-2 -32h-48q-20 -1 -34 -14q-13 -14 -14 -34v-80h416v80q-1 20 -14 34q-14 13 -34 14v0zM392 -64h-272q-51 1 -85 35t-35 85v208q2 22 24 24
q22 -2 24 -24v-208q1 -31 21 -51t51 -21h272q22 -2 24 -24q-2 -22 -24 -24v0z" />
    <glyph glyph-name="camera-rotate-primary" unicode="&#xfe01;" 
d="M319 111q-24 -30 -63 -31q-29 0 -51 18l19 20q7 7 4 15q-4 8 -13 9h-77q-9 -1 -10 -10v-77q1 -9 9 -13q8 -3 15 3l19 20q36 -32 85 -33q62 1 101 49q12 19 -4 34q-19 12 -34 -4v0zM360 275l-19 -20q-36 32 -85 33q-62 -1 -101 -49q-12 -19 4 -34q19 -12 34 4q24 30 63 31
q29 0 51 -18l-19 -20q-7 -7 -4 -15q4 -8 13 -9h77q9 1 10 10v77q-1 9 -9 13q-8 3 -15 -3v0z" />
    <glyph glyph-name="camera-slash-primary" unicode="&#xfe01;" horiz-adv-x="640" 
d="M39 443q-7 5 -15 5q-11 0 -19 -9q-12 -19 4 -34l591 -463q19 -12 34 4q12 19 -4 34l-591 463v0z" />
    <glyph glyph-name="camera-viewfinder-primary" unicode="&#xfe01;" 
d="M416 96v160q0 14 -9 23t-23 9h-52l-6 16q-7 15 -23 16h-94q-17 -1 -23 -16l-6 -16h-52q-14 0 -23 -9t-9 -23v-160q0 -14 9 -23t23 -9h256q14 0 23 9t9 23v0zM256 120q-24 1 -40 16v0q-15 16 -16 40q1 24 16 40q16 15 40 16q24 -1 40 -16q15 -16 16 -40q-1 -24 -16 -40
q-16 -15 -40 -16v0z" />
    <glyph glyph-name="cart-minus-primary" unicode="&#xfe01;" horiz-adv-x="576" 
d="M176 32q-20 -1 -33 -14v0q-14 -14 -14 -34t14 -34q13 -13 33 -14q20 1 33 14q14 14 14 34t-14 34q-13 13 -33 14v0zM277 267h119q18 2 20 21q-2 19 -21 21h-118q-19 -2 -21 -21q2 -19 21 -21v0zM488 112h-308l-60 316q-5 19 -24 20h-73q-21 -2 -23 -23q0 -10 7 -17
q7 -8 16 -8h52l61 -317q5 -18 24 -19h328q22 2 24 23q-2 23 -24 25v0zM463 32q-20 -1 -33 -14v0q-14 -14 -14 -34q1 -20 14 -34q13 -13 33 -14q20 1 33 14q14 14 14 34t-13 34q-13 13 -34 14v0z" />
    <glyph glyph-name="cart-shopping-fast-primary" unicode="&#xfe01;" horiz-adv-x="640" 
d="M527 32q-20 -1 -33 -14v0q-14 -14 -14 -34q1 -20 14 -34q13 -13 33 -14q20 1 34 14q14 14 14 34t-14 34q-13 13 -34 14v0zM239 32q-20 -1 -33 -14v0q-14 -14 -14 -34q1 -20 14 -34q13 -13 33 -14q20 1 33 14q14 14 14 34t-13 34q-13 13 -34 14v0zM552 112h-308l-60 316
q-5 19 -24 20h-73q-21 -2 -23 -23q0 -10 7 -17q7 -8 16 -8h52l61 -317q5 -18 24 -19h328q22 2 24 23q-2 23 -24 25v0z" />
    <glyph glyph-name="cart-xmark-primary" unicode="&#xfe01;" horiz-adv-x="576" 
d="M176 32q-20 -1 -33 -14v0q-14 -14 -14 -34t14 -34q13 -13 33 -14q20 1 33 14q14 14 14 34t-14 34q-13 13 -33 14v0zM279 315l28 -27l-28 -27q-12 -15 0 -30q15 -12 30 0l27 28l27 -28q15 -11 30 0q12 15 0 30l-28 27l28 27q12 15 0 30q-15 12 -30 0l-27 -28l-27 28
q-15 12 -30 0q-12 -15 0 -30v0zM488 112h-308l-60 316q-5 19 -24 20h-73q-21 -2 -23 -23q0 -10 7 -17q7 -8 16 -8h52l61 -317q5 -18 24 -19h328q22 2 24 24q-2 22 -24 24v0zM463 32q-20 -1 -33 -14v0q-14 -14 -14 -34q1 -20 14 -34q13 -13 33 -14q20 1 33 14q14 14 14 34
t-13 34q-13 13 -34 14v0z" />
    <glyph glyph-name="castle-primary" unicode="&#xfe01;" horiz-adv-x="640" 
d="M640 272v-304q0 -14 -9 -23t-23 -9h-224v128q-1 27 -19 45t-45 19q-27 -1 -45 -19t-19 -45v-128h-224q-14 0 -23 9t-9 23v304q1 15 16 16h48q15 -1 16 -16v-48h480v48q1 15 16 16h48q15 -1 16 -16v0z" />
    <glyph glyph-name="cedi-sign-primary" unicode="&#xfe01;" horiz-adv-x="320" 
d="M189 0q-76 0 -134 56q-55 59 -55 136t55 135q54 53 124 57q71 4 130 -43q10 -9 11 -22t-7 -23q-9 -11 -22 -12t-23 7q-39 31 -85 29q-47 -3 -82 -37q-37 -40 -37 -91t37 -91q35 -35 82 -37q46 -2 85 29q10 8 23 7t22 -12q8 -10 7 -23t-12 -22q-54 -43 -119 -43v0z" />
    <glyph glyph-name="chart-bullet-primary" unicode="&#xfe01;" 
d="M32 224h128v64h-80q-15 1 -16 16q1 15 16 16h80v64h-128q-14 0 -23 -9t-9 -23v-96q0 -14 9 -23t23 -9v0zM304 96h-48v-32h48q15 1 16 16q-1 15 -16 16v0zM64 80q1 15 16 16h176v64h-224q-14 0 -23 -9t-9 -23v-96q0 -14 9 -23t23 -9h224v64h-176q-15 1 -16 16v0zM368 176
q-15 -1 -16 -16v-160q1 -15 16 -16q15 1 16 16v160q-1 15 -16 16v0zM256 288v-64q1 -15 16 -16q15 1 16 16v64h80q15 1 16 16q-1 15 -16 16h-80v64q-1 15 -16 16q-15 -1 -16 -16v-64h-96v-32h96v0z" />
    <glyph glyph-name="chart-candlestick-primary" unicode="&#xfe01;" 
d="M400 128h16v-48q1 -15 16 -16q15 1 16 16v48h16q15 1 16 16v96q-1 15 -16 16h-16v48q-1 15 -16 16q-15 -1 -16 -16v-48h-16q-15 -1 -16 -16v-96q1 -15 16 -16v0zM272 192h16v-48q1 -15 16 -16q15 1 16 16v48h16q15 1 16 16v128q-1 15 -16 16h-16v48q-1 15 -16 16
q-15 -1 -16 -16v-48h-16q-15 -1 -16 -16v-128q1 -15 16 -16v0zM144 128h16v-48q1 -15 16 -16q15 1 16 16v48h16q15 1 16 16v160q-1 15 -16 16h-16v48q-1 15 -16 16q-15 -1 -16 -16v-48h-16q-15 -1 -16 -16v-160q1 -15 16 -16v0z" />
    <glyph glyph-name="chart-column-primary" unicode="&#xfe01;" 
d="M371 256h-38q-11 -2 -13 -13v-134q2 -11 13 -13h38q11 2 13 13v134q-2 11 -13 13v0zM467 352h-38q-11 -2 -13 -13v-230q2 -11 13 -13h38q11 2 13 13v230q-2 11 -13 13v0zM275 320h-38q-11 -2 -13 -13v-198q2 -11 13 -13h38q11 2 13 13v198q-2 11 -13 13v0zM179 192h-38
q-11 -2 -13 -13v-70q2 -11 13 -13h38q11 2 13 13v70q-2 11 -13 13v0z" />
    <glyph glyph-name="chart-gantt-primary" unicode="&#xfe01;" 
d="M352 147v-38q2 -11 13 -13h102q11 2 13 13v38q-2 11 -13 13h-102q-11 -2 -13 -13v0zM192 243v-38q2 -11 13 -13h166q11 2 13 13v38q-2 11 -13 13h-166q-11 -2 -13 -13v0zM141 288h134q11 2 13 13v38q-2 11 -13 13h-134q-11 -2 -13 -13v-38q2 -11 13 -13v0z" />
    <glyph glyph-name="chart-line-up-primary" unicode="&#xfe01;" 
d="M111 144q-9 10 -9 23v0q0 12 9 22l73 74q10 9 23 9t23 -9l74 -74l62 62l-41 42q-8 8 -4 17t15 10h128q15 -1 16 -16v-128q-1 -10 -10 -15q-9 -4 -17 4l-42 41l-84 -85q-10 -9 -23 -9t-23 9l-73 74l-51 -51q-10 -9 -22 -9q-13 0 -24 9v0z" />
    <glyph glyph-name="chart-pyramid-primary" unicode="&#xfe01;" 
d="M449 128h-386l75 128h236l75 -128v0z" />
    <glyph glyph-name="chart-radar-primary" unicode="&#xfe01;" 
d="M331 166l-41 102q6 9 6 20q0 17 -12 28q-11 12 -28 12t-28 -11q-12 -11 -12 -29q0 -5 2 -9v-2l-58 -77v0v0q-18 0 -29 -11t-11 -29t11 -29t29 -11q15 0 26 10l98 -19q11 -22 36 -23q17 0 28 12q12 11 12 28q-2 30 -29 38v0zM202 176l48 63l31 -79l-79 16v0z" />
    <glyph glyph-name="chart-scatter-3d-primary" unicode="&#xfe01;" 
d="M128 256q14 0 23 9v0q9 9 9 23t-9 23t-23 9t-23 -9t-9 -23t9 -23t23 -9v0zM32 352q14 0 23 9v0q9 9 9 23t-9 23t-23 9t-23 -9t-9 -23t9 -23t23 -9v0zM384 160q14 0 23 9v0q9 9 9 23t-9 23t-23 9t-23 -9t-9 -23t9 -23t23 -9v0zM384 352q14 0 23 9v0q9 9 9 23t-9 23t-23 9
t-23 -9t-9 -23t9 -23t23 -9v0zM256 32q-14 0 -23 -9v0q-9 -9 -9 -23t9 -23t23 -9t23 9t9 23t-9 23t-23 9v0zM480 320q-14 0 -23 -9v0q-9 -9 -9 -23t9 -23t23 -9t23 9t9 23t-9 23t-23 9v0zM64 192q0 14 -9 23v0q-9 9 -23 9t-23 -9t-9 -23t9 -23t23 -9t23 9t9 23v0z" />
    <glyph glyph-name="chart-scatter-bubble-primary" unicode="&#xfe01;" 
d="M352 96q27 1 45 19v0q18 18 19 45q-1 27 -19 45t-45 19q-27 -1 -45 -19t-19 -45q1 -27 19 -45t45 -19v0zM384 256q27 1 45 19v0q18 18 19 45q-1 27 -19 45t-45 19q-27 -1 -45 -19t-19 -45q1 -27 19 -45t45 -19v0zM176 96q20 1 34 14v0q13 14 14 34q-1 20 -14 34
q-14 13 -34 14q-20 -1 -34 -14q-13 -14 -14 -34q1 -20 14 -34q14 -13 34 -14v0zM240 224q20 1 34 14v0q13 14 14 34q-1 20 -14 34q-14 13 -34 14q-20 -1 -34 -14q-13 -14 -14 -34q1 -20 14 -34q14 -13 34 -14v0z" />
    <glyph glyph-name="chart-tree-map-primary" unicode="&#xfe01;" 
d="M192 416h-160q-14 0 -23 -9t-9 -23v-144q0 -14 9 -23t23 -9h160q14 0 23 9t9 23v144q0 14 -9 23t-23 9v0zM480 96h-192q-14 0 -23 -9t-9 -23v-64q0 -14 9 -23t23 -9h192q14 0 23 9t9 23v64q0 14 -9 23t-23 9v0zM480 416h-192q-14 0 -23 -9t-9 -23v-64q0 -14 9 -23t23 -9
h192q14 0 23 9t9 23v64q0 14 -9 23t-23 9v0z" />
    <glyph glyph-name="chart-waterfall-primary" unicode="&#xfe01;" 
d="M333 256h38q11 2 13 13v102q-2 11 -13 13h-38q-11 -2 -13 -13v-102q2 -11 13 -13v0zM237 192h38q11 2 13 13v102q-2 11 -13 13h-38q-11 -2 -13 -13v-102q2 -11 13 -13v0zM429 96h38q11 2 13 13v262q-2 11 -13 13h-38q-11 -2 -13 -13v-262q2 -11 13 -13v0zM141 96h38
q11 2 13 13v102q-2 11 -13 13h-38q-11 -2 -13 -13v-102q2 -11 13 -13v0z" />
    <glyph glyph-name="cherries-primary" unicode="&#xfe01;" horiz-adv-x="640" 
d="M175 208q14 12 41 64v0q27 52 48 156q5 19 24 20q15 -1 51 -34q36 -32 74 -86q37 -54 55 -118l-20 -8q-16 7 -31 11q-21 59 -54 102t-60 66q-29 -116 -62 -163q-22 -5 -49 -16q-9 3 -17 6v0z" />
    <glyph glyph-name="circle-0-primary" unicode="&#xfe01;" 
d="M256 320q-41 -1 -68 -28v0q-27 -27 -28 -68v-64q1 -41 28 -68t68 -28q41 1 68 28t28 68v64q-1 41 -28 68t-68 28v0zM304 160q-1 -20 -14 -34v0q-14 -13 -34 -14q-20 1 -34 14q-13 14 -14 34v64q1 20 14 34q14 13 34 14q20 -1 34 -14q13 -14 14 -34v-64v0z" />
    <glyph glyph-name="circle-1-primary" unicode="&#xfe01;" 
d="M344 88q-2 -22 -24 -24h-128q-22 2 -24 24q2 22 24 24h40v139l-15 -10q-19 -10 -33 8q-10 18 7 32l52 35q12 7 24 1q12 -7 13 -21v-184h40q22 -2 24 -24v0z" />
    <glyph glyph-name="circle-2-primary" unicode="&#xfe01;" 
d="M352 88q-2 -22 -24 -24h-144q-16 1 -22 15q-5 16 6 27l108 98q11 11 12 28q-1 16 -12 28q-13 12 -30 12t-29 -12l-11 -11q-8 -7 -18 -7t-16 8q-14 17 0 33l11 11q27 26 63 26t63 -26q26 -26 27 -62q-1 -37 -27 -63l-63 -57h82q22 -2 24 -24v0z" />
    <glyph glyph-name="circle-3-primary" unicode="&#xfe01;" 
d="M352 148q-1 -36 -25 -59v0q-23 -24 -59 -25h-45q-21 0 -38 12t-24 33q-5 21 15 30q22 5 31 -15q4 -11 16 -12h45q15 0 25 11q11 10 11 25t-11 25q-10 11 -25 11h-52q-16 1 -22 15q-5 15 6 27l50 46h-66q-22 2 -24 24q2 22 24 24h128q16 -1 22 -15q5 -15 -6 -27l-51 -47
q32 -4 53 -27t22 -56v0z" />
    <glyph glyph-name="circle-4-primary" unicode="&#xfe01;" 
d="M352 152q-2 -22 -24 -24h-8v-40q-2 -22 -24 -24q-22 2 -24 24v40h-103q-13 0 -20 11t-2 22l62 144q11 20 32 13q19 -11 12 -32l-46 -110h65v51q2 22 24 24q22 -2 24 -24v-51h8q22 -2 24 -24v0z" />
    <glyph glyph-name="circle-5-primary" unicode="&#xfe01;" 
d="M352 143q-1 -33 -23 -56v0q-23 -22 -57 -23h-49q-21 0 -38 12t-24 33q-5 21 15 30q22 5 31 -15q4 -11 16 -12h50q13 0 22 9t9 22q-2 26 -27 31l-88 10q-10 2 -16 10t-5 18l17 88q5 19 24 20h103q22 -2 24 -24q-2 -22 -24 -24h-83l-9 -43l62 -7q30 -5 50 -26
q19 -22 20 -53v0z" />
    <glyph glyph-name="circle-6-primary" unicode="&#xfe01;" 
d="M282 252l30 26q15 16 2 34q-8 8 -18 8q-9 0 -16 -6l-80 -70q-11 -8 -25 -30q-14 -23 -15 -54q1 -41 28 -68t68 -28q41 1 68 28t28 68q-1 33 -20 58t-50 34v0zM256 112q-20 1 -34 14v0q-13 14 -14 34q0 7 2 14q5 15 17 24q13 10 29 10q20 -1 34 -14q13 -14 14 -34
q-1 -20 -14 -34q-14 -13 -34 -14v0z" />
    <glyph glyph-name="circle-7-primary" unicode="&#xfe01;" 
d="M349 285l-112 -208q-7 -13 -22 -13q-6 0 -11 3q-19 12 -10 32l94 173h-104q-22 2 -24 24q2 22 24 24h144q13 0 21 -12q6 -11 0 -23v0z" />
    <glyph glyph-name="circle-8-primary" unicode="&#xfe01;" 
d="M322 206q14 18 14 42q-1 31 -21 51t-51 21h-16q-31 -1 -51 -21t-21 -51q0 -24 14 -42q-29 -23 -30 -62q1 -34 23 -57q23 -22 57 -23h32q34 1 57 23q22 23 23 57q-1 39 -30 62v0zM248 272h16q22 -2 24 -24q-2 -22 -24 -24h-16q-22 2 -24 24q2 22 24 24v0zM272 112h-32
q-14 0 -23 9t-9 23t9 23t23 9h32q14 0 23 -9t9 -23t-9 -23t-23 -9v0z" />
    <glyph glyph-name="circle-9-primary" unicode="&#xfe01;" 
d="M256 320q-41 -1 -68 -28v0q-27 -27 -28 -68q1 -33 20 -58t50 -34l-30 -26q-15 -16 -2 -34q8 -8 18 -8q9 0 16 6l80 70q11 8 25 30q14 23 15 54q-1 41 -28 68t-68 28v0zM302 210q-5 -15 -17 -24v0q-13 -10 -29 -10q-20 1 -34 14q-13 14 -14 34q1 20 14 34q14 13 34 14
q20 -1 34 -14q13 -14 14 -34q0 -7 -2 -14v0z" />
    <glyph glyph-name="circle-a-primary" unicode="&#xfe01;" 
d="M278 323q-7 13 -22 13v0q-15 0 -22 -13l-96 -208q-7 -21 12 -32q21 -7 32 12l12 26h124l12 -26q7 -14 22 -14q5 0 10 2q19 11 12 32l-96 208v0zM215 168l41 87l40 -87h-81v0z" />
    <glyph glyph-name="circle-ampersand-primary" unicode="&#xfe01;" 
d="M332 133l28 41q10 19 -7 33q-19 11 -33 -6l-22 -32l-30 33l20 16q21 17 22 44q-1 25 -17 41q-17 16 -41 17h-23q-25 -1 -41 -17t-17 -41q0 -25 17 -44l11 -11l-30 -24q-24 -20 -25 -52q1 -29 19 -47q19 -19 48 -20h32q37 1 60 28l19 -20q8 -8 18 -8q9 0 16 6q15 17 2 34
l-26 29v0zM229 272h23q9 -1 10 -10q-1 -4 -4 -7l-22 -18l-12 14q-5 5 -5 11q1 9 10 10v0zM268 125q-9 -13 -25 -13h-32q-17 2 -19 19q0 9 7 14l32 26l39 -43l-2 -3v0z" />
    <glyph glyph-name="circle-arrow-down-left-primary" unicode="&#xfe01;" 
d="M367 257l-122 -121h67q14 0 23 -9t9 -23t-9 -23t-23 -9h-144q-14 0 -23 9t-9 23v144q0 14 9 23t23 9t23 -9t9 -23v-67l121 122q10 9 23 9t23 -9q9 -10 9 -23t-9 -23v0z" />
    <glyph glyph-name="circle-arrow-down-right-primary" unicode="&#xfe01;" 
d="M376 104q0 -14 -9 -23v0q-9 -9 -23 -9h-144q-14 0 -23 9t-9 23t9 23t23 9h67l-122 121q-9 10 -9 23t9 23q10 9 23 9t23 -9l121 -122v67q0 14 9 23t23 9t23 -9t9 -23v-144v0z" />
    <glyph glyph-name="circle-arrow-up-left-primary" unicode="&#xfe01;" 
d="M367 81q-10 -9 -23 -9t-23 9l-121 122v-67q0 -14 -9 -23t-23 -9t-23 9t-9 23v144q0 14 9 23t23 9h144q14 0 23 -9t9 -23t-9 -23t-23 -9h-67l122 -121q9 -10 9 -23t-9 -23v0z" />
    <glyph glyph-name="circle-arrow-up-right-primary" unicode="&#xfe01;" 
d="M376 136q0 -14 -9 -23v0q-9 -9 -23 -9t-23 9t-9 23v67l-121 -122q-10 -9 -23 -9t-23 9q-9 10 -9 23t9 23l122 121h-67q-14 0 -23 9t-9 23t9 23t23 9h144q14 0 23 -9t9 -23v-144v0z" />
    <glyph glyph-name="circle-b-primary" unicode="&#xfe01;" 
d="M338 200q14 19 14 44q-1 32 -22 54q-22 21 -54 22h-92q-22 -2 -24 -24v-208q2 -22 24 -24h108q32 1 54 22q21 22 22 54q-1 38 -30 60v0zM208 272h68q12 0 20 -8t8 -20t-8 -20t-20 -8h-68v56v0zM292 112h-84v56h84q12 0 20 -8t8 -20t-8 -20t-20 -8v0z" />
    <glyph glyph-name="circle-bolt-primary" unicode="&#xfe01;" 
d="M352 209h-71l47 105q4 12 -5 20q-10 6 -20 -1l-153 -129q-8 -7 -6 -17q5 -10 15 -10h71l-47 -106q-4 -11 5 -19q5 -4 10 -4q6 0 11 4l153 128q8 7 5 17q-4 11 -15 12v0z" />
    <glyph glyph-name="circle-book-open-primary" unicode="&#xfe01;" 
d="M375 275q-32 13 -59 13q-29 -2 -44 -8v0v-183q9 7 36 13q27 5 65 -9q9 -4 11 5v156q0 10 -9 13v0zM137 275q-9 -4 -9 -13v-156q2 -8 11 -6q38 15 65 9t36 -13v184q-15 6 -44 8q-28 0 -59 -13v0z" />
    <glyph glyph-name="circle-bookmark-primary" unicode="&#xfe01;" 
d="M352 64l-96 64l-96 -64v224q0 14 9 23t23 9h128q14 0 23 -9t9 -23v-224v0z" />
    <glyph glyph-name="circle-c-primary" unicode="&#xfe01;" 
d="M345 135q14 -16 0 -33q-37 -37 -90 -38v0v0q-60 2 -93 41t-34 87q1 48 34 87t93 41v0v0q53 -1 90 -38q14 -17 0 -34q-17 -13 -34 1q-23 23 -56 23q-37 -1 -58 -26q-21 -24 -21 -54t21 -54q21 -25 58 -26q33 0 56 23q17 14 34 0v0z" />
    <glyph glyph-name="circle-calendar-primary" unicode="&#xfe01;" 
d="M128 91q0 -11 8 -19v0q8 -8 19 -8h202q11 0 19 8t8 19v133h-256v-133v0zM357 320h-37v17q-1 13 -16 15q-15 -2 -16 -15v-17h-64v17q-1 13 -16 15q-15 -2 -16 -15v-17h-37q-11 0 -19 -8t-8 -19v-37h256v37q0 11 -8 19t-19 8v0z" />
    <glyph glyph-name="circle-camera-primary" unicode="&#xfe01;" 
d="M352 288h-36l-6 16q-7 15 -23 16h-62q-17 -1 -23 -16l-6 -16h-36q-14 0 -23 -9t-9 -23v-128q0 -14 9 -23t23 -9h192q14 0 23 9t9 23v128q0 14 -9 23t-23 9v0zM256 144q-20 1 -34 14v0q-13 14 -14 34q1 20 14 34q14 13 34 14q20 -1 34 -14q13 -14 14 -34q-1 -20 -14 -34
q-14 -13 -34 -14v0z" />
    <glyph glyph-name="circle-d-primary" unicode="&#xfe01;" 
d="M254 320h-70q-22 -2 -24 -24v-208q2 -22 24 -24h70q55 1 92 38q37 36 38 90q-1 54 -38 90q-37 37 -92 38v0zM254 112h-46v160h46q35 -1 58 -23q23 -23 24 -57q-1 -34 -24 -57q-23 -22 -58 -23v0z" />
    <glyph glyph-name="circle-dashed-primary" unicode="&#xfe01;" 
d="M1 176q7 -90 63 -153l46 45q-39 46 -45 108h-64v0zM132 338q46 39 108 45v64q-90 -7 -153 -63l45 -46v0zM272 1v-64q90 7 153 63l-45 46q-46 -39 -108 -45v0zM448 361l-46 -45q39 -46 45 -108h64q-7 90 -63 153v0z" />
    <glyph glyph-name="circle-divide-primary" unicode="&#xfe01;" 
d="M352 216h-192q-22 -2 -24 -24q2 -22 24 -24h192q22 2 24 24q-2 22 -24 24v0zM256 256q14 0 23 9v0q9 9 9 23t-9 23t-23 9t-23 -9t-9 -23t9 -23t23 -9v0zM256 128q-14 0 -23 -9v0q-9 -9 -9 -23t9 -23t23 -9t23 9t9 23t-9 23t-23 9v0z" />
    <glyph glyph-name="circle-down-left-primary" unicode="&#xfe01;" 
d="M358 226l-68 -68l45 -45q7 -8 4 -18q-5 -9 -15 -9h-158q-15 1 -16 16v158q1 10 10 15q10 3 18 -4l45 -45l68 68q10 9 22 9q13 0 23 -9l23 -23q8 -10 8 -22q0 -13 -9 -23v0z" />
    <glyph glyph-name="circle-down-right-primary" unicode="&#xfe01;" 
d="M363 101q-2 -14 -16 -16h-159q-10 1 -15 10q-3 10 4 18l45 45l-68 68q-9 10 -9 23q0 12 9 22l23 23q10 9 22 9q13 0 23 -9l68 -68l45 45q8 7 18 4q9 -5 10 -15v-159v0z" />
    <glyph glyph-name="circle-e-primary" unicode="&#xfe01;" 
d="M328 272q22 2 24 24q-2 22 -24 24h-144q-22 -2 -24 -24v-208q2 -22 24 -24h144q22 2 24 24q-2 22 -24 24h-120v56h88q22 2 24 24q-2 22 -24 24h-88v56h120v0z" />
    <glyph glyph-name="circle-ellipsis-primary" unicode="&#xfe01;" 
d="M256 224q-14 0 -23 -9v0q-9 -9 -9 -23t9 -23t23 -9t23 9t9 23t-9 23t-23 9v0zM144 224q-14 0 -23 -9v0q-9 -9 -9 -23t9 -23t23 -9t23 9t9 23t-9 23t-23 9v0zM368 224q-14 0 -23 -9v0q-9 -9 -9 -23t9 -23t23 -9t23 9t9 23t-9 23t-23 9v0z" />
    <glyph glyph-name="circle-ellipsis-vertical-primary" unicode="&#xfe01;" 
d="M288 192q0 14 -9 23v0q-9 9 -23 9t-23 -9t-9 -23t9 -23t23 -9t23 9t9 23v0zM288 304q0 14 -9 23v0q-9 9 -23 9t-23 -9t-9 -23t9 -23t23 -9t23 9t9 23v0zM288 80q0 14 -9 23v0q-9 9 -23 9t-23 -9t-9 -23t9 -23t23 -9t23 9t9 23v0z" />
    <glyph glyph-name="circle-envelope-primary" unicode="&#xfe01;" 
d="M352 288h-192q-14 0 -23 -9t-9 -23v-12l128 -51l128 51v12q0 14 -9 23t-23 9v0zM256 160q-4 0 -6 1l-122 49v-82q0 -14 9 -23t23 -9h192q14 0 23 9t9 23v82l-122 -49q-3 -1 -6 -1v0z" />
    <glyph glyph-name="circle-exclamation-check-primary" unicode="&#xfe01;" horiz-adv-x="576" 
d="M568 282q-17 13 -34 -2l-87 -93l-38 38q-17 14 -34 0q-14 -17 0 -34l56 -56q7 -7 16 -7h1q10 0 17 8l103 112q15 17 0 34v0zM256 144q22 2 24 24v128q-2 22 -24 24q-22 -2 -24 -24v-128q2 -22 24 -24v0zM256 111q-13 0 -22 -9v0q-9 -9 -9 -23q0 -13 9 -22t22 -9t22 9
t9 22q0 14 -9 23t-22 9v0z" />
    <glyph glyph-name="circle-f-primary" unicode="&#xfe01;" 
d="M328 320h-144q-22 -2 -24 -24v-208q2 -22 24 -24q22 2 24 24v72h88q22 2 24 24q-2 22 -24 24h-88v64h120q22 2 24 24q-2 22 -24 24v0z" />
    <glyph glyph-name="circle-g-primary" unicode="&#xfe01;" 
d="M360 208h-80q-22 -2 -24 -24q2 -22 24 -24h50q-6 -13 -17 -25q-24 -22 -57 -22t-57 22q-23 25 -23 57t23 57q24 22 56 23t57 -20q18 -14 34 1q13 18 -2 34q-40 34 -90 33q-51 -2 -88 -38q-38 -39 -38 -90t38 -91q37 -36 90 -37q53 1 91 37q29 31 37 68v4v11q-2 22 -24 24
v0z" />
    <glyph glyph-name="circle-half-primary" unicode="&#xfe01;" 
d="M256 -64q-72 1 -129 35v0q-58 34 -92 92v0q-34 57 -35 129q1 72 35 129q34 58 92 92q57 34 129 35v-512v0z" />
    <glyph glyph-name="circle-i-primary" unicode="&#xfe01;" 
d="M328 272q22 2 24 24q-2 22 -24 24h-144q-22 -2 -24 -24q2 -22 24 -24h48v-160h-48q-22 -2 -24 -24q2 -22 24 -24h144q22 2 24 24q-2 22 -24 24h-48v160h48v0z" />
    <glyph glyph-name="circle-j-primary" unicode="&#xfe01;" 
d="M312 320q-22 -2 -24 -24v-139q-1 -19 -14 -32q-14 -13 -34 -13t-34 13q-13 13 -14 32v11q-2 22 -24 24q-22 -2 -24 -24v-11q1 -39 28 -66q27 -26 68 -27q41 1 68 27q27 27 28 66v139q-2 22 -24 24v0z" />
    <glyph glyph-name="circle-k-primary" unicode="&#xfe01;" 
d="M345 313q-17 14 -34 0l-103 -102v85q-2 22 -24 24q-22 -2 -24 -24v-208q2 -22 24 -24q22 2 24 24v56l31 31l69 -101q8 -10 20 -10q7 0 14 4q17 14 6 34l-72 104q-1 1 -2 1q0 1 -1 1l72 71q14 17 0 34v0z" />
    <glyph glyph-name="circle-l-primary" unicode="&#xfe01;" 
d="M328 112h-120v184q-2 22 -24 24q-22 -2 -24 -24v-208q2 -22 24 -24h144q22 2 24 24q-2 22 -24 24v0z" />
    <glyph glyph-name="circle-m-primary" unicode="&#xfe01;" 
d="M367 319q-16 4 -26 -9l-85 -117l-84 118q-11 12 -27 8q-16 -6 -17 -23v-208q2 -22 24 -24q22 2 24 24v134l61 -84q7 -9 19 -9t19 9l61 84v-134q2 -22 24 -24q22 2 24 24v208q-1 17 -17 23v0z" />
    <glyph glyph-name="circle-microphone-primary" unicode="&#xfe01;" 
d="M368 224q-15 -2 -16 -15v-17q-1 -45 -33 -73t-78 -22q-36 7 -58 34t-22 64v13q-2 15 -16 16q-15 -2 -17 -15v-17q1 -50 32 -85q32 -34 80 -41v-18q1 -15 16 -16q15 1 16 16v18q48 7 79 41q32 35 33 85v17q-1 13 -16 15v0zM256 144q20 1 34 14v0q13 14 14 34v112
q-1 20 -14 34q-14 13 -34 14q-20 -1 -34 -14q-13 -14 -14 -34v-112q1 -20 14 -34q14 -13 34 -14v0z" />
    <glyph glyph-name="circle-microphone-lines-primary" unicode="&#xfe01;" 
d="M258 145q20 0 33 15v0q13 14 13 35v13h-32q-15 1 -16 16q1 15 16 16h32v32h-32q-15 1 -16 16q1 15 16 16h32q-1 21 -15 34q-14 14 -34 14q-21 -1 -34 -15q-13 -15 -14 -35l1 -110q1 -21 15 -34q14 -14 35 -13v0zM368 224q-15 -2 -16 -15v-17q-1 -45 -33 -73t-78 -22
q-36 7 -58 34t-23 64v13q-1 15 -16 16q-15 -2 -16 -15v-17q1 -50 32 -85q32 -34 80 -41v-18q1 -15 16 -16q15 1 16 16v18q48 7 79 41q32 35 33 85v17q-1 13 -16 15v0z" />
    <glyph glyph-name="circle-n-primary" unicode="&#xfe01;" 
d="M328 320q-22 -2 -24 -24v-131l-100 145q-11 13 -27 9q-16 -6 -17 -23v-208q2 -22 24 -24q22 2 24 24v131l100 -145q8 -10 20 -10q4 0 7 1q16 6 17 23v208q-2 22 -24 24v0z" />
    <glyph glyph-name="circle-o-primary" unicode="&#xfe01;" 
d="M256 320q-54 -1 -90 -38v0q-37 -36 -38 -90q1 -54 38 -90q36 -37 90 -38q54 1 90 38q37 36 38 90q-1 54 -38 90q-36 37 -90 38v0zM256 112q-34 1 -57 23v0q-22 23 -23 57q1 34 23 57q23 22 57 23q34 -1 57 -23q22 -23 23 -57q-1 -34 -23 -57q-23 -22 -57 -23v0z" />
    <glyph glyph-name="circle-p-primary" unicode="&#xfe01;" 
d="M280 320h-96q-22 -2 -24 -24v-208q2 -22 24 -24q22 2 24 24v56h72q37 1 62 26t26 62q-1 37 -26 62t-62 26v0zM280 192h-72v80h72q17 0 28 -12q12 -11 12 -28t-12 -28q-11 -12 -28 -12v0z" />
    <glyph glyph-name="circle-phone-primary" unicode="&#xfe01;" 
d="M384 126l-12 -50q-3 -11 -15 -12q-64 1 -116 31q-51 31 -82 82q-30 52 -31 116q1 12 12 15l51 12q12 2 17 -9l24 -55q4 -10 -5 -18l-27 -22q27 -53 80 -80l22 27q8 9 18 5l55 -24q11 -5 9 -18v0z" />
    <glyph glyph-name="circle-phone-flip-primary" unicode="&#xfe01;" 
d="M138 144l54 24q10 4 18 -5l22 -27q53 27 80 80l-27 23q-9 8 -5 18l24 54q5 11 18 9l50 -11q11 -3 12 -15q-1 -64 -31 -116q-31 -51 -82 -82q-52 -30 -116 -31q-12 1 -15 12l-12 50q-2 11 10 17v0z" />
    <glyph glyph-name="circle-phone-hangup-primary" unicode="&#xfe01;" 
d="M374 142l-55 22q-11 5 -10 16l3 34q-56 19 -112 0l3 -34q1 -11 -10 -16l-54 -22q-12 -4 -19 6l-28 44q-6 10 2 19q46 45 104 60t116 0t104 -60q8 -9 2 -19l-27 -44q-8 -9 -19 -6v0z" />
    <glyph glyph-name="circle-q-primary" unicode="&#xfe01;" 
d="M256 320q-54 -1 -90 -38v0q-37 -36 -38 -90q1 -54 38 -90q36 -37 90 -38q41 1 72 22l15 -15q7 -7 17 -7t17 7q14 17 0 34l-15 15q21 31 22 72q-1 54 -38 90q-36 37 -90 38v0zM327 155l-30 30q-17 14 -34 0q-14 -17 0 -34l30 -30q-17 -9 -37 -9q-34 1 -57 23
q-22 23 -23 57q1 34 23 57q23 22 57 23q34 -1 57 -23q22 -23 23 -57q0 -20 -9 -37v0z" />
    <glyph glyph-name="circle-quarter-primary" unicode="&#xfe01;" 
d="M256 192h-256q1 72 35 129q34 58 92 92q57 34 129 35v-256v0z" />
    <glyph glyph-name="circle-r-primary" unicode="&#xfe01;" 
d="M368 240q-1 34 -23 57v0q-23 22 -57 23h-104q-22 -2 -24 -24v-208q2 -22 24 -24q22 2 24 24v72h46l63 -86q7 -10 19 -10q7 0 14 5q17 14 5 33l-44 62q25 7 41 28q16 20 16 48v0zM288 208h-80v64h80q14 0 23 -9t9 -23t-9 -23t-23 -9v0z" />
    <glyph glyph-name="circle-s-primary" unicode="&#xfe01;" 
d="M262 215q-36 10 -46 17v0q-11 8 -7 19q1 9 9 14q6 5 25 7t58 -8q22 -3 30 18q3 22 -18 29q-80 20 -121 -6q-25 -16 -31 -45q-5 -46 25 -65q31 -19 64 -26v0q36 -10 46 -18q11 -7 7 -19q-1 -10 -10 -15q-14 -7 -41 -4t-59 15q-21 6 -31 -13q-6 -22 13 -32q15 -5 39 -12
q24 -6 52 -7q27 -1 51 12q28 15 34 48q5 46 -26 65q-30 19 -63 26v0z" />
    <glyph glyph-name="circle-small-primary" unicode="&#xfe01;" horiz-adv-x="320" 
 />
    <glyph glyph-name="circle-star-primary" unicode="&#xfe01;" 
d="M401 217l-59 -58l14 -82q1 -12 -7 -18q-9 -6 -19 -1l-74 39l-74 -39q-10 -5 -19 1q-8 7 -7 18l14 82l-59 58q-8 8 -5 18t15 12l82 12l37 75q6 10 16 10t16 -10l37 -74l82 -12q12 -3 15 -13q2 -10 -5 -18v0z" />
    <glyph glyph-name="circle-t-primary" unicode="&#xfe01;" 
d="M360 304h-208q-22 -2 -24 -24q2 -22 24 -24h80v-168q2 -22 24 -24q22 2 24 24v168h80q22 2 24 24q-2 22 -24 24v0z" />
    <glyph glyph-name="circle-three-quarters-primary" unicode="&#xfe01;" 
d="M512 192q-1 -72 -35 -129v0q-34 -58 -92 -92v0q-57 -34 -129 -35q-72 1 -129 35q-58 34 -92 92q-34 57 -35 129q1 72 35 129q34 58 92 92q57 34 129 35v-256h256v0z" />
    <glyph glyph-name="circle-trash-primary" unicode="&#xfe01;" 
d="M171 86q3 -20 24 -22h122q21 2 24 22l11 170h-192l11 -170v0zM352 320h-48l-6 12q-2 4 -7 4h-70q-5 0 -7 -4l-6 -12h-48q-15 -1 -16 -16q1 -15 16 -16h192q15 1 16 16q-1 15 -16 16v0z" />
    <glyph glyph-name="circle-u-primary" unicode="&#xfe01;" 
d="M344 304q-22 -2 -24 -24v-123q-1 -26 -19 -43t-45 -18q-27 1 -45 18t-19 43v123q-2 22 -24 24q-22 -2 -24 -24v-123q1 -46 33 -77t79 -32q47 1 79 32t33 77v123q-2 22 -24 24v0z" />
    <glyph glyph-name="circle-up-left-primary" unicode="&#xfe01;" 
d="M358 113l-23 -23q-10 -9 -22 -9q-13 0 -23 9l-68 68l-45 -45q-8 -7 -18 -4q-9 5 -9 15v159q1 14 15 16h158q10 -1 15 -10q3 -10 -4 -18l-45 -45l68 -68q10 -10 10 -23q0 -12 -9 -22v0z" />
    <glyph glyph-name="circle-up-right-primary" unicode="&#xfe01;" 
d="M363 124q-1 -10 -10 -15q-10 -3 -18 4l-45 45l-68 -68q-10 -9 -23 -9q-12 0 -22 9l-23 23q-9 10 -9 22q0 13 9 23l68 68l-45 45q-7 8 -4 18q5 9 15 9h158q15 -1 16 -16v-158h1z" />
    <glyph glyph-name="circle-v-primary" unicode="&#xfe01;" 
d="M371 301q-21 8 -32 -10l-83 -165l-82 165q-12 18 -33 10q-18 -11 -10 -32l104 -208q7 -12 21 -13q15 1 21 13l104 208q8 21 -10 32v0z" />
    <glyph glyph-name="circle-video-primary" unicode="&#xfe01;" 
d="M320 120q-2 -22 -24 -24h-144q-22 2 -24 24v144q2 22 24 24h144q22 -2 24 -24v-144v0zM416 141q0 -8 -7 -12v0q-6 -3 -13 1l-44 30v63l44 31q7 4 13 1q7 -4 7 -12v-102v0z" />
    <glyph glyph-name="circle-w-primary" unicode="&#xfe01;" 
d="M383 303q-21 4 -30 -16l-39 -128l-35 127q-5 17 -23 18q-18 -1 -23 -18l-34 -127l-40 128q-9 20 -30 16q-20 -8 -16 -30l64 -208q6 -16 23 -17q18 1 23 18l33 122l33 -122q5 -17 23 -18v0q17 1 23 17l64 208q3 10 -2 19q-4 8 -14 11v0z" />
    <glyph glyph-name="circle-waveform-lines-primary" unicode="&#xfe01;" 
d="M144 288q-15 -1 -16 -16v-160q1 -15 16 -16q15 1 16 16v160q-1 15 -16 16v0zM272 312q-15 -1 -16 -16v-208q1 -15 16 -16q15 1 16 16v208q-1 15 -16 16v0zM208 248q-15 -1 -16 -16v-80q1 -15 16 -16q15 1 16 16v80q-1 15 -16 16v0zM400 224q-15 -1 -16 -16v-32
q1 -15 16 -16q15 1 16 16v32q-1 15 -16 16v0zM336 264q-15 -1 -16 -16v-112q1 -15 16 -16q15 1 16 16v112q-1 15 -16 16v0z" />
    <glyph glyph-name="circle-x-primary" unicode="&#xfe01;" 
d="M360 314q-19 13 -34 -3l-70 -82l-70 82q-15 16 -33 3q-16 -15 -3 -34l75 -88l-75 -89q-13 -18 3 -33q7 -6 14 -6q11 0 18 8l71 83l70 -83q7 -8 18 -8q8 0 15 6q16 15 3 34l-75 88l75 88q13 19 -2 34v0z" />
    <glyph glyph-name="circle-y-primary" unicode="&#xfe01;" 
d="M342 296l-86 -101l-86 101q-16 15 -34 2q-15 -16 -2 -34l98 -114v-78q2 -22 24 -24q22 2 24 24v78l98 114q13 18 -2 34q-18 13 -34 -2v0z" />
    <glyph glyph-name="circle-z-primary" unicode="&#xfe01;" 
d="M328 112h-98l118 170q7 12 1 25q-7 13 -21 13h-144q-22 -2 -24 -24q2 -22 24 -24h98l-118 -170q-7 -12 -1 -25q7 -12 21 -13h144q22 2 24 24q-2 22 -24 24v0z" />
    <glyph glyph-name="clapperboard-primary" unicode="&#xfe01;" 
d="M498 392l-104 -104h118v64q-1 23 -14 40v0zM64 416q-27 -1 -45 -19v0q-18 -18 -19 -45v-64h6l128 128h-70v0zM202 416l-128 -128h92l128 128h-92v0zM448 416h-86l-128 -128h92l127 127l-1 1h-4v0z" />
    <glyph glyph-name="clapperboard-play-primary" unicode="&#xfe01;" 
d="M202 416l-128 -128h92l128 128h-92v0zM64 416q-27 -1 -45 -19v0q-18 -18 -19 -45v-64h6l128 128h-70v0zM326 288l128 127q-1 1 -2 1h-4h-86l-128 -128h92v0zM498 392l-104 -104h118v64q-1 23 -14 40v0zM224 206q-5 4 -10 1q-6 -4 -6 -10v-138q0 -6 6 -10q2 -1 5 -1t5 2
l107 69q5 3 5 10t-5 9l-107 68v0z" />
    <glyph glyph-name="clipboard-medical-primary" unicode="&#xfe01;" horiz-adv-x="384" 
d="M256 384q-1 27 -19 45v0q-18 18 -45 19q-27 -1 -45 -19t-19 -45q-27 -1 -45 -19t-19 -45v-16q1 -15 16 -16h224q15 1 16 16v16q-1 27 -19 45t-45 19v0zM192 360q-22 2 -24 24q2 22 24 24q22 -2 24 -24q-2 -22 -24 -24v0zM272 160h-48v48q-1 15 -16 16h-32q-15 -1 -16 -16
v-48h-48q-15 -1 -16 -16v-32q1 -15 16 -16h48v-48q1 -15 16 -16h32q15 1 16 16v48h48q15 1 16 16v32q-1 15 -16 16v0z" />
    <glyph glyph-name="clock-desk-primary" unicode="&#xfe01;" horiz-adv-x="448" 
d="M274 141q6 -5 13 -5q12 0 19 10q12 18 -4 33l-54 41v108q-2 22 -24 24q-22 -2 -24 -24v-120q0 -12 10 -19l64 -48v0zM224 0q-63 1 -113 31v0q-51 29 -80 80v0q-30 50 -31 113v-240q1 -20 14 -34q14 -13 34 -14h352q20 1 34 14q13 14 14 34v240q-1 -63 -31 -113
q-29 -51 -80 -80q-50 -30 -113 -31v0z" />
    <glyph glyph-name="closed-captioning-slash-primary" unicode="&#xfe01;" horiz-adv-x="640" 
d="M631 -21l-592 464q-7 5 -15 5q-11 0 -19 -9q-12 -19 4 -34l591 -463q19 -12 34 4q13 17 -3 33v0z" />
    <glyph glyph-name="clothes-hanger-primary" unicode="&#xfe01;" horiz-adv-x="640" 
d="M607 71l-236 158l8 5q25 18 39 45q14 26 14 57q-1 48 -33 79q-31 32 -79 33q-41 -1 -71 -25q-30 -25 -39 -65q-2 -13 5 -24q7 -10 20 -13q14 -3 24 4q11 7 13 21q5 17 18 27q13 11 30 11q20 -1 34 -14q13 -14 14 -34q-1 -31 -26 -49l-310 -216q-31 -23 -32 -61
q1 -32 22 -52q20 -21 52 -22h492q32 1 52 22q21 20 22 52q-1 39 -33 61v0zM566 0h-492q-9 1 -10 10q0 5 4 8l246 171l258 -171q4 -3 4 -8q-1 -9 -10 -10v0z" />
    <glyph glyph-name="cloud-slash-primary" unicode="&#xfe01;" horiz-adv-x="640" 
d="M631 -21l-592 464q-7 5 -15 5q-11 0 -19 -9q-12 -19 4 -34l592 -464q19 -12 34 4q12 19 -4 34v0z" />
    <glyph glyph-name="cloud-word-primary" unicode="&#xfe01;" horiz-adv-x="640" 
d="M128 144q1 15 16 16h128q15 -1 16 -16q-1 -15 -16 -16h-128q-15 1 -16 16v0zM208 64h-32q-15 1 -16 16q1 15 16 16h32q15 -1 16 -16q-1 -15 -16 -16v0zM368 64h-96q-15 1 -16 16q1 15 16 16h96q15 -1 16 -16q-1 -15 -16 -16v0zM464 64h-32q-15 1 -16 16q1 15 16 16h32
q15 -1 16 -16q-1 -15 -16 -16v0zM496 129h-160q-15 1 -16 16q1 15 16 16h160q15 -1 16 -16q-1 -15 -16 -16v0z" />
    <glyph glyph-name="clover-primary" unicode="&#xfe01;" 
 />
    <glyph glyph-name="code-compare-primary" unicode="&#xfe01;" 
d="M80 112q-34 -1 -57 -23v0q-22 -23 -23 -57q1 -34 23 -57q23 -22 57 -23q34 1 57 23q22 23 23 57q-1 34 -23 57q-23 22 -57 23v0zM80 8q-22 2 -24 24q2 22 24 24q22 -2 24 -24q-2 -22 -24 -24v0zM432 432q-34 -1 -57 -23v0q-22 -23 -23 -57q1 -34 23 -57q23 -22 57 -23
q34 1 57 23q22 23 23 57q-1 34 -23 57q-23 22 -57 23v0zM432 328q-22 2 -24 24q2 22 24 24q22 -2 24 -24q-2 -22 -24 -24v0z" />
    <glyph glyph-name="code-fork-primary" unicode="&#xfe01;" horiz-adv-x="448" 
d="M224 96q-34 -1 -57 -23v0q-22 -23 -23 -57q1 -34 23 -57q23 -22 57 -23q34 1 57 23q22 23 23 57q-1 34 -23 57q-23 22 -57 23v0zM224 -8q-22 2 -24 24q2 22 24 24q22 -2 24 -24q-2 -22 -24 -24v0zM80 448q-34 -1 -57 -23v0q-22 -23 -23 -57q1 -34 23 -57q23 -22 57 -23
q34 1 57 23q22 23 23 57q-1 34 -23 57q-23 22 -57 23v0zM80 344q-22 2 -24 24q2 22 24 24q22 -2 24 -24q-2 -22 -24 -24v0zM368 448q-34 -1 -57 -23v0q-22 -23 -23 -57q1 -34 23 -57q23 -22 57 -23q34 1 57 23q22 23 23 57q-1 34 -23 57q-23 22 -57 23v0zM368 344
q-22 2 -24 24q2 22 24 24q22 -2 24 -24q-2 -22 -24 -24v0z" />
    <glyph glyph-name="code-pull-request-primary" unicode="&#xfe01;" 
d="M80 433q-34 -1 -57 -24v0q-22 -22 -23 -56q1 -34 23 -57q23 -23 57 -24q34 1 57 24q22 22 23 57q-1 34 -23 57q-23 22 -57 23v0zM80 329q-22 2 -24 24q2 22 24 24q22 -2 24 -24q-2 -22 -24 -24v0zM80 112q-34 -1 -57 -23v0q-22 -23 -23 -56q1 -34 23 -56q23 -23 57 -24
q34 1 57 23q22 23 23 57q-1 34 -23 56q-23 22 -57 23v0zM80 9q-22 2 -24 24q2 22 24 24q22 -2 24 -24q-2 -22 -24 -24v0zM432 112q-34 -1 -57 -23v0q-22 -23 -23 -56q1 -34 23 -56q23 -23 57 -24q34 1 57 23q22 23 23 57q-1 34 -23 56q-23 22 -57 23v0zM432 9q-22 2 -24 24
q2 22 24 24q22 -2 24 -24q-2 -22 -24 -24v0z" />
    <glyph glyph-name="code-simple-primary" unicode="&#xfe01;" horiz-adv-x="576" 
d="M224 352q0 14 -10 23v0q-9 9 -22 9t-23 -9l-160 -160q-9 -10 -9 -23t9 -23l160 -160q10 -9 23 -9t22 9q10 9 10 23q0 13 -9 23l-138 137l138 137q9 10 9 23v0z" />
    <glyph glyph-name="coffee-bean-primary" unicode="&#xfe01;" horiz-adv-x="448" 
d="M366 357l-20 -33q-49 -78 -133 -120q-88 -47 -140 -131l-5 -9q-11 -16 -29 -16q-18 1 -27 19q-24 63 1 132q25 68 80 124q57 57 127 81q69 25 133 -2q13 -6 17 -19q3 -13 -4 -26v0z" />
    <glyph glyph-name="coffee-beans-primary" unicode="&#xfe01;" 
d="M151 256q-13 1 -18 -12q-6 -20 -7 -57t17 -83q17 -44 18 -81q2 -36 -4 -60q-1 -10 6 -16q8 -5 18 -1q37 20 56 61t19 89q0 57 -27 102q-26 45 -78 58v0zM98 229q1 10 -7 15v0q-8 5 -17 1q-37 -20 -55 -61q-19 -41 -19 -89q0 -56 26 -101q25 -45 77 -58q13 -1 18 12
q7 21 9 59q2 39 -17 88q-27 67 -15 134v0z" />
    <glyph glyph-name="colon-sign-primary" unicode="&#xfe01;" horiz-adv-x="320" 
d="M189 0q-76 0 -134 56q-55 59 -55 136t55 135q54 53 124 57q71 4 130 -43q10 -9 11 -22t-7 -23q-9 -11 -22 -12t-23 7q-39 31 -85 29q-47 -3 -82 -37q-37 -40 -37 -91t37 -91q35 -35 82 -37q46 -2 85 29q10 8 23 7t22 -12q8 -10 7 -23t-12 -22q-54 -43 -119 -43v0z" />
    <glyph glyph-name="command-primary" unicode="&#xfe01;" horiz-adv-x="448" 
d="M352 160h-160v-64h64v-32q1 -41 28 -68t68 -28q41 1 68 28t28 68q-1 41 -28 68t-68 28v0zM352 32q-14 0 -23 9v0q-9 9 -9 23v32h32q14 0 23 -9t9 -23t-9 -23t-23 -9v0zM256 288h-64v32q-1 41 -28 68t-68 28q-41 -1 -68 -28t-28 -68q1 -41 28 -68t68 -28h160v64v0z
M128 288h-32q-14 0 -23 9t-9 23t9 23t23 9t23 -9t9 -23v-32v0z" />
    <glyph glyph-name="comment-arrow-down-primary" unicode="&#xfe01;" 
d="M352 192l-80 -80q-17 -14 -34 0l-80 80q-14 17 0 34q9 6 18 6q10 0 17 -7l39 -39v102q2 22 24 24q22 -2 24 -24v-102l39 39q17 14 34 0q14 -17 -1 -33v0z" />
    <glyph glyph-name="comment-arrow-up-primary" unicode="&#xfe01;" 
d="M352 192q-6 -8 -16 -8t-17 7l-39 39v-102q-2 -22 -24 -24q-22 2 -24 24v102l-40 -38q-17 -14 -34 0q-14 17 0 34l80 80q17 14 34 0l80 -80q15 -18 0 -34v0z" />
    <glyph glyph-name="comment-arrow-up-right-primary" unicode="&#xfe01;" 
d="M312 304h-112q-22 -2 -24 -24q2 -22 24 -24h54l-87 -87q-14 -17 0 -34q17 -14 34 0l87 87v-54q2 -22 24 -24q22 2 24 24v112q-2 22 -24 24v0z" />
    <glyph glyph-name="comment-captions-primary" unicode="&#xfe01;" 
d="M119 176h96q22 2 23 24q-1 22 -23 24h-96q-21 -2 -23 -24q2 -22 23 -24v0zM295 144h-80q-21 -2 -23 -24q2 -22 23 -24h80q22 2 23 24q-1 22 -23 24v0zM135 144h-15q-21 -2 -23 -24q2 -22 22 -24h15q22 2 23 24q0 22 -22 24v0zM392 144h-15q-22 -2 -23 -24q1 -22 22 -24
h15q21 2 23 24q-1 22 -22 24v0zM295 176h96q22 2 23 24q-1 22 -22 24h-96q-22 -2 -23 -24q2 -22 22 -24v0z" />
    <glyph glyph-name="comment-code-primary" unicode="&#xfe01;" 
d="M216 289q-17 14 -34 0l-64 -64q-14 -17 0 -34l64 -64q9 -7 18 -7q10 0 17 7q14 17 0 34l-47 47l47 47q14 17 -1 34v0zM392 225l-64 64q-17 14 -34 0q-14 -17 0 -34l48 -47l-47 -47q-14 -17 0 -34q7 -7 17 -7t17 7l64 64q14 17 -1 34v0z" />
    <glyph glyph-name="comment-image-primary" unicode="&#xfe01;" 
d="M414 137q-4 -9 -14 -9h-288q-10 0 -15 9q-3 10 3 17l56 64q5 6 12 6t12 -6l23 -25l77 104q5 7 13 7t13 -7l107 -144q5 -7 1 -16v0z" />
    <glyph glyph-name="comment-middle-primary" unicode="&#xfe01;" 
 />
    <glyph glyph-name="comment-middle-top-primary" unicode="&#xfe01;" 
 />
    <glyph glyph-name="comment-question-primary" unicode="&#xfe01;" 
d="M249 148q-23 -2 -25 -26q2 -24 25 -26q24 2 26 26q-1 24 -26 26v0zM278 320h-44q-25 -1 -41 -17t-17 -41q2 -18 20 -20q18 2 20 20q2 17 18 18h44q16 -1 18 -18q0 -10 -9 -16l-48 -28q-10 -6 -10 -17v-13q2 -18 20 -20q18 2 20 20v1l39 24q27 17 28 49q-1 25 -17 41
t-41 17v0z" />
    <glyph glyph-name="comment-quote-primary" unicode="&#xfe01;" 
d="M183 305q-24 -1 -39 -17v0q-16 -15 -17 -39q1 -24 17 -40q15 -15 39 -16q4 0 7 1h1v-10q-1 -22 -23 -24t-24 -24q2 -21 23 -23q31 1 51 21q19 20 20 51v63q0 24 -15 40q-16 16 -40 17v0zM327 305q-24 -1 -39 -17v0q-16 -15 -17 -39q1 -24 17 -40q15 -15 39 -16q4 0 7 1h1
v-10q-1 -22 -23 -24t-24 -24q2 -21 23 -23q31 1 51 21t21 51v63q0 24 -16 40t-40 17v0z" />
    <glyph glyph-name="comment-text-primary" unicode="&#xfe01;" 
d="M328 288h-144q-22 -2 -24 -23q0 -10 7 -17q7 -8 17 -8h48v-104q2 -21 23 -23q10 0 17 6q8 7 8 17v104h48q22 2 24 25q-2 22 -24 23v0z" />
    <glyph glyph-name="comments-question-primary" unicode="&#xfe01;" horiz-adv-x="640" 
d="M235 339q15 -1 16 -17q0 -9 -8 -14l-44 -26q-9 -6 -9 -16v-12q2 -17 18 -19q17 2 19 19v1l35 22q25 16 26 45q-1 23 -16 38t-37 16h-40q-23 -1 -38 -16t-16 -38q2 -16 19 -18q16 2 18 18q1 16 17 17h40v0zM209 209q-23 -2 -25 -25q2 -22 25 -24q22 2 24 24q-2 23 -24 25
v0zM600 4q39 46 40 108q-2 75 -56 124q-54 50 -136 52v0h-1v-2q1 -7 1 -14q-2 -75 -53 -130q-52 -55 -133 -73q17 -58 67 -95t119 -38q51 1 93 22q37 -20 91 -22q5 0 7 5q2 4 -1 8v0q-3 2 -14 17q-12 15 -24 38v0z" />
    <glyph glyph-name="comments-question-check-primary" unicode="&#xfe01;" horiz-adv-x="640" 
d="M235 339q15 -1 16 -17q0 -9 -8 -14l-44 -26q-9 -6 -9 -16v-12q2 -17 18 -19q17 2 19 19v1l35 22q25 16 26 45q-1 23 -16 38t-37 16h-40q-23 -1 -38 -16t-16 -38q2 -16 19 -18q16 2 18 18q1 16 17 17h40v0zM209 209q-23 -2 -25 -25q2 -22 25 -24q22 2 24 24q-2 23 -24 25
v0zM600 4q39 46 40 108q-2 75 -56 124q-54 50 -136 52v0h-1v-2q1 -7 1 -14q-2 -75 -53 -130q-52 -55 -133 -73q17 -58 67 -95t119 -38q51 1 93 22q37 -20 91 -22q5 0 7 5q2 4 -1 8v0q-3 2 -14 17q-12 15 -24 38v0zM543 130l-84 -88q-6 -6 -15 -6q-8 0 -14 6l-40 40
q-12 14 0 28q14 12 28 0l26 -25l70 73q13 12 28 0q12 -13 1 -28v0z" />
    <glyph glyph-name="conveyor-belt-empty-primary" unicode="&#xfe01;" horiz-adv-x="640" 
 />
    <glyph glyph-name="crate-empty-primary" unicode="&#xfe01;" 
d="M0 -48q1 -15 16 -16h480q15 1 16 16v112h-512v-112v0zM448 17q15 -1 16 -16q-1 -15 -16 -16q-15 1 -16 16q1 15 16 16v0zM64 17q15 -1 16 -16q-1 -15 -16 -17q-15 1 -16 16q1 15 16 17v0zM496 224h-480q-15 -1 -16 -16v-112h512v112q-1 15 -16 16v0zM64 145q-15 1 -16 15
q1 14 16 16q15 -2 16 -15q-1 -14 -16 -16v0zM448 145q-15 1 -16 16q1 14 16 15q15 -1 16 -16q-1 -14 -16 -15v0z" />
    <glyph glyph-name="cruzeiro-sign-primary" unicode="&#xfe01;" horiz-adv-x="384" 
d="M228 -32q-44 0 -86 16v0q-41 17 -75 49q-33 33 -50 73q-17 41 -17 86t17 86q17 40 50 73q65 61 150 65q84 4 155 -50q10 -9 12 -22q1 -12 -7 -23q-9 -11 -21 -12q-13 -1 -24 7q-51 39 -112 36t-108 -47q-47 -47 -48 -113q1 -66 48 -113q47 -44 108 -47t112 36q11 8 24 7
q12 -1 21 -12q8 -11 7 -23q-2 -13 -12 -22q-66 -50 -144 -50v0z" />
    <glyph glyph-name="delete-right-primary" unicode="&#xfe01;" horiz-adv-x="576" 
d="M190 193l-47 47q-14 17 0 34q17 14 34 0l47 -48l47 47q17 14 34 0q14 -17 0 -34l-47 -46l47 -47q14 -17 0 -34q-17 -14 -34 0l-47 46l-47 -47q-17 -14 -34 0q-14 17 0 34l47 48v0z" />
    <glyph glyph-name="desktop-arrow-down-primary" unicode="&#xfe01;" horiz-adv-x="576" 
d="M424 -16h-72l-16 48h-96l-16 -48h-72q-22 -2 -24 -24q2 -22 24 -24h272q22 2 24 24q-2 22 -24 24v0zM312 384v-94l39 39q17 14 34 0q14 -17 0 -34l-80 -80q-17 -14 -34 0l-80 80q-14 17 0 34q7 7 17 7t17 -7l39 -39v94h-200v-224h448v224h-200v0z" />
    <glyph glyph-name="diagram-lean-canvas-primary" unicode="&#xfe01;" horiz-adv-x="640" 
d="M576 416h-512q-27 -1 -45 -19t-19 -45v-320q1 -27 19 -45t45 -19h512q27 1 45 19t19 45v320q-1 27 -19 45t-45 19v0zM576 352v-224h-64v224h64v0zM400 216h64v-88h-64v88v0zM464 352v-88h-64v88h64v0zM352 352v-224h-64v224h64v0zM176 216h64v-88h-64v88v0zM240 352v-88
h-64v88h64v0zM128 352v-224h-64v224h64v0zM64 32v48h232v-48h-232v0zM344 32v48h232v-48h-232v0z" />
    <glyph glyph-name="diagram-nested-primary" unicode="&#xfe01;" 
d="M176 448h-128q-20 -1 -34 -14q-13 -14 -14 -34v-128q1 -20 14 -34q14 -13 34 -14h128q20 1 34 14q13 14 14 34v128q-1 20 -14 34q-14 13 -34 14v0zM464 160h-128q-20 -1 -34 -14q-13 -14 -14 -34v-128q1 -20 14 -34q14 -13 34 -14h128q20 1 34 14q13 14 14 34v128
q-1 20 -14 34q-14 13 -34 14v0z" />
    <glyph glyph-name="diagram-sankey-primary" unicode="&#xfe01;" horiz-adv-x="640" 
d="M608 384v-64q0 -14 -9 -23t-23 -9h-172l-57 -96h-316q-13 0 -22 -9t-9 -23v64q0 14 9 23t23 9h204l77 129q19 30 55 31h208q14 0 23 -9t9 -23v0z" />
    <glyph glyph-name="diagram-venn-primary" unicode="&#xfe01;" horiz-adv-x="640" 
d="M224 416q-63 -1 -113 -31v0q-51 -29 -80 -80v0q-30 -50 -31 -113q1 -63 31 -113q29 -51 80 -80q50 -30 113 -31q63 1 113 31q51 29 80 80q30 50 31 113q-1 63 -31 113q-29 51 -80 80q-50 30 -113 31v0zM258 176h124q-2 -25 -12 -48h-100q7 -17 19 -32h62q-22 -29 -55 -46
q-33 -18 -72 -18q-68 2 -113 47t-47 113q2 68 47 113t113 47q39 0 72 -18q33 -17 55 -46h-62q-12 -15 -19 -32h101q9 -23 11 -48h-124q-1 -3 -1 -6q-1 -5 -1 -10t1 -10q0 -3 1 -6v0z" />
    <glyph glyph-name="dial-primary" unicode="&#xfe01;" horiz-adv-x="576" 
d="M448 160q-2 -68 -47 -113v0q-45 -45 -113 -47q-68 2 -113 47t-47 113q2 68 47 113t113 47q59 -1 101 -37l-112 -112q-10 -11 0 -22q11 -10 22 0l112 112q36 -42 37 -101v0z" />
    <glyph glyph-name="dial-high-primary" unicode="&#xfe01;" horiz-adv-x="576" 
d="M288 145h159q-5 -55 -46 -97q-49 -47 -113 -47t-113 47q-47 49 -47 112q0 64 47 113q49 47 113 47t113 -47q41 -42 46 -97h-159q-14 -2 -15 -15q0 -15 15 -16v0z" />
    <glyph glyph-name="dial-low-primary" unicode="&#xfe01;" horiz-adv-x="576" 
d="M401 47q-49 -47 -113 -47v0q-64 0 -113 47q-40 43 -45 98h158q14 1 15 15q-1 14 -15 15l-158 1q4 55 45 97q49 47 113 47t113 -47q47 -49 47 -113q0 -63 -47 -113v0z" />
    <glyph glyph-name="dial-max-primary" unicode="&#xfe01;" horiz-adv-x="576" 
d="M277 171q-10 -11 0 -22l112 -112q-42 -36 -101 -37q-68 2 -113 47t-47 113q2 68 47 113t113 47q68 -2 113 -47t47 -113q-1 -59 -37 -101l-112 112q-11 10 -22 0v0z" />
    <glyph glyph-name="dial-med-primary" unicode="&#xfe01;" horiz-adv-x="576" 
d="M448 160q-2 -68 -47 -113v0q-45 -45 -113 -47q-68 2 -113 47t-47 113q1 64 42 107q40 44 102 51v-158q1 -15 16 -16q15 1 16 16v158q62 -7 102 -51q41 -43 42 -107v0z" />
    <glyph glyph-name="dial-med-low-primary" unicode="&#xfe01;" horiz-adv-x="576" 
d="M448 160q-2 -68 -47 -113v0q-45 -45 -113 -47q-68 2 -113 47t-47 113q1 59 37 101l112 -112q11 -10 22 0q10 11 0 22l-112 112q42 36 101 37q68 -2 113 -47t47 -113v0z" />
    <glyph glyph-name="dial-min-primary" unicode="&#xfe01;" horiz-adv-x="576" 
d="M448 161q-2 -68 -47 -113v0q-45 -45 -113 -47q-59 1 -101 37l112 112q10 11 0 22q-11 10 -22 0l-112 -112q-36 41 -37 101q2 68 47 113t113 47q68 -2 113 -47q45 -46 47 -113v0z" />
    <glyph glyph-name="dial-off-primary" unicode="&#xfe01;" horiz-adv-x="576" 
d="M271 159v-158q-55 5 -97 45q-47 49 -47 113t47 113q49 47 113 47t113 -47q47 -49 47 -113t-47 -113q-42 -40 -97 -45v158q-1 14 -15 15q-16 0 -17 -15v0z" />
    <glyph glyph-name="display-primary" unicode="&#xfe01;" horiz-adv-x="576" 
d="M424 -16h-72l-16 48h-96l-16 -48h-72q-22 -2 -24 -24q2 -22 24 -24h272q22 2 24 24q-2 22 -24 24v0zM64 384v-288h448v288h-448v0z" />
    <glyph glyph-name="display-arrow-down-primary" unicode="&#xfe01;" horiz-adv-x="576" 
d="M424 -16h-72l-16 48h-96l-16 -48h-72q-22 -2 -24 -24q2 -22 24 -24h272q22 2 24 24q-2 22 -24 24v0zM312 384v-142l39 39q17 14 34 0q14 -17 0 -34l-80 -80q-17 -14 -34 0l-80 80q-14 17 0 34q7 7 17 7t17 -7l39 -39v142h-200v-288h448v288h-200v0z" />
    <glyph glyph-name="display-code-primary" unicode="&#xfe01;" horiz-adv-x="576" 
d="M64 384v-288h448v288h-448v0zM242 206q12 -14 0 -28q-6 -6 -14 -6t-14 6l-48 48q-12 14 0 28l48 48q14 12 28 0q12 -14 0 -28l-34 -34l34 -34v0zM410 226l-48 -48q-6 -6 -14 -6t-14 6q-12 14 0 28l34 34l-34 34q-12 14 0 28q14 12 28 0l48 -48q11 -14 0 -28v0zM424 -16
h-72l-16 48h-96l-16 -48h-72q-22 -2 -24 -24q2 -22 24 -24h272q22 2 24 24q-2 22 -24 24v0z" />
    <glyph glyph-name="display-medical-primary" unicode="&#xfe01;" horiz-adv-x="576" 
d="M424 -16h-72l-16 48h-96l-16 -48h-72q-22 -2 -24 -24q2 -22 24 -24h272q22 2 24 24q-2 22 -24 24v0zM64 384v-288h448v288h-448v0zM384 224q-1 -14 -16 -15h-48v-48q-1 -16 -16 -17h-32q-15 1 -16 17v48h-48q-15 1 -16 15v33q1 13 16 15h48v48q1 15 16 16h32
q15 -1 16 -16v-48h48q15 -2 16 -15v-33v0z" />
    <glyph glyph-name="dolphin-primary" unicode="&#xfe01;" 
d="M128 300q4 18 23 20q22 -2 24 -24q-2 -22 -24 -24q-19 2 -23 20v8v0z" />
    <glyph glyph-name="dong-sign-primary" unicode="&#xfe01;" horiz-adv-x="448" 
d="M320 416q-14 0 -23 -9v0q-9 -9 -9 -23v-114q-29 17 -64 18q-54 -1 -90 -38q-37 -36 -38 -90q1 -54 38 -90q36 -37 90 -38q37 1 67 19q8 -18 29 -19q14 0 23 9t9 23v320q0 14 -9 23t-23 9v0zM224 96q-27 1 -45 19v0q-18 18 -19 45q1 27 19 45t45 19q27 -1 45 -19t19 -45
q-1 -27 -19 -45t-45 -19v0z" />
    <glyph glyph-name="down-left-primary" unicode="&#xfe01;" horiz-adv-x="384" 
d="M297 71q14 -16 7 -35q-9 -19 -30 -20h-227q-13 0 -23 9q-9 9 -9 23l1 226q1 21 20 30q19 8 35 -7l226 -226v0z" />
    <glyph glyph-name="down-right-primary" unicode="&#xfe01;" horiz-adv-x="384" 
d="M313 297q16 14 35 7q19 -9 20 -30v-226q0 -14 -9 -23t-23 -9h-226q-21 1 -30 20q-7 19 7 35l226 226v0z" />
    <glyph glyph-name="eggplant-primary" unicode="&#xfe01;" 
d="M512 424q0 -10 -7 -17l-14 -14q5 -12 5 -25v-128q-27 1 -45 19t-19 45q-27 1 -45 19t-19 45q-27 1 -45 19t-19 45h128q13 0 25 -5l14 14q7 7 17 7q22 -2 24 -24v0z" />
    <glyph glyph-name="elevator-primary" unicode="&#xfe01;" 
d="M223 361q3 8 -3 15l-65 68q-11 8 -22 0l-65 -68q-6 -7 -3 -15q4 -9 14 -9h130q9 0 14 9v0zM447 439q-5 9 -14 9h-130q-10 0 -14 -9q-3 -8 3 -15l65 -68q11 -8 22 0l65 68q6 7 3 15v0zM192 96h-64q-20 -1 -34 -14q-13 -14 -14 -34v-48h160v48q-1 20 -14 34q-14 13 -34 14
v0zM112 176q1 -20 14 -34v0q14 -13 34 -14q20 1 34 14q13 14 14 34q-1 20 -14 34q-14 13 -34 13t-34 -13q-13 -14 -14 -34v0zM384 96h-64q-20 -1 -34 -14q-13 -14 -14 -34v-48h160v48q-1 20 -14 34q-14 13 -34 14v0zM400 176q-1 20 -14 34v0q-14 13 -34 13t-34 -13
q-13 -14 -14 -34q1 -20 14 -34q14 -13 34 -14q20 1 34 14q13 14 14 34v0z" />
    <glyph glyph-name="engine-primary" unicode="&#xfe01;" horiz-adv-x="640" 
d="M505 236l-70 57q-13 11 -30 11h-277q-20 -1 -34 -14q-13 -14 -14 -34v-144q1 -20 14 -34q14 -13 34 -14h41l50 -50q14 -14 34 -14h211q20 1 34 14q13 14 14 34v177q0 6 -7 11v0zM192 168q-22 2 -24 24q2 22 24 24q22 -2 24 -24q-2 -22 -24 -24v0zM288 168q-22 2 -24 24
q2 22 24 24q22 -2 24 -24q-2 -22 -24 -24v0zM384 168q-22 2 -24 24q2 22 24 24q22 -2 24 -24q-2 -22 -24 -24v0z" />
    <glyph glyph-name="envelope-dot-primary" unicode="&#xfe01;" horiz-adv-x="576" 
d="M512 448q27 -1 45 -19v0q18 -18 19 -45q-1 -27 -19 -45t-45 -19q-27 1 -45 19t-19 45q1 27 19 45t45 19v0z" />
    <glyph glyph-name="envelopes-primary" unicode="&#xfe01;" horiz-adv-x="640" 
d="M396 202q-28 -19 -56 0l-212 165v-40l193 -151q22 -16 47 -16t47 16l193 151v40l-212 -165v0zM488 -32h-336q-51 1 -85 35t-35 85v240q2 22 24 24q22 -2 24 -24v-240q1 -31 21 -51t51 -21h336q22 -2 24 -24q-2 -22 -24 -24v0z" />
    <glyph glyph-name="escalator-primary" unicode="&#xfe01;" horiz-adv-x="640" 
d="M240 320q-27 -1 -45 -19v0q-18 -18 -19 -45v-105l127 111q-3 25 -20 41q-18 16 -43 17v0z" />
    <glyph glyph-name="eye-dropper-full-primary" unicode="&#xfe01;" 
d="M90 75q-2 -2 -2 -6v-45h46q3 0 5 2l127 127l-50 49l-126 -127v0zM484 420q-30 28 -68 28v0q-38 0 -68 -28l-77 -77l-13 13q-17 14 -34 0l-41 -41q-14 -17 0 -34l162 -162q17 -14 34 0l41 41q14 17 0 34l-13 13l77 77q28 30 28 68t-28 68v0z" />
    <glyph glyph-name="eye-dropper-half-primary" unicode="&#xfe01;" 
d="M90 75q-2 -2 -2 -6v-45h46q3 0 5 2l102 102h-98l-53 -53v0zM484 420q-30 28 -68 28v0q-38 0 -68 -28l-77 -77l-13 13q-17 14 -34 0l-41 -41q-14 -17 0 -34l162 -162q17 -14 34 0l41 41q14 17 0 34l-13 13l77 77q28 30 28 68t-28 68v0z" />
    <glyph glyph-name="ferris-wheel-primary" unicode="&#xfe01;" 
d="M512 192q0 -17 -11 -30v0q-10 -13 -26 -17q-9 -42 -32 -76q13 -30 -9 -55q-14 -13 -31 -13l-38 80h1v1q6 5 12 8q28 33 36 78h-82q4 12 4 24q0 13 -4 24h82q-7 40 -30 70l-57 -57q-12 22 -34 34l57 57q-30 23 -70 30v-82q-11 4 -25 4q-11 0 -23 -4v82q-40 -7 -70 -30
l57 -57q-22 -12 -34 -34l-57 57q-23 -30 -30 -70h82v-1q-4 -11 -5 -23q0 -12 4 -24h-81q7 -45 36 -78q6 -3 12 -8v-1h1l-38 -80q-17 0 -31 13q-22 25 -9 55q-23 34 -32 76q-16 4 -26 17q-11 13 -11 30t11 30q10 13 26 17q9 42 32 76q-13 30 9 55q15 14 34 14q11 0 21 -5
q34 23 76 32q4 16 17 26q13 11 30 11t30 -11q13 -10 17 -26q42 -9 76 -32q10 5 21 5q19 0 34 -14q22 -25 9 -55q23 -34 32 -76q16 -4 26 -17q11 -13 11 -30v0z" />
    <glyph glyph-name="file-binary-primary" unicode="&#xfe01;" horiz-adv-x="384" 
d="M256 448v-128h128l-128 128v0zM304 64h-16v128q-1 15 -16 16h-32q-15 -1 -16 -16q1 -15 16 -16h16v-112h-16q-15 -1 -16 -16q1 -15 16 -16h64q15 1 16 16q-1 15 -16 16v0zM144 208h-32q-20 -1 -34 -14q-13 -14 -14 -34v-80q1 -20 14 -34q14 -13 34 -14h32q20 1 34 14
q13 14 14 34v80q-1 20 -14 34q-14 13 -34 14v0zM160 80q-1 -15 -16 -16h-32q-15 1 -16 16v80q1 15 16 16h32q15 -1 16 -16v-80v0z" />
    <glyph glyph-name="file-heart-primary" unicode="&#xfe01;" horiz-adv-x="384" 
d="M256 448v-128h128l-128 128v0zM200 189l-8 -9l-9 9q-16 17 -39 19q-22 2 -40 -13q-21 -18 -22 -44q-1 -25 17 -45l83 -86q10 -8 20 0l83 86q18 20 17 45q-1 26 -22 44q-18 15 -40 13q-23 -2 -40 -19v0z" />
    <glyph glyph-name="file-plus-minus-primary" unicode="&#xfe01;" horiz-adv-x="384" 
d="M256 448v-128h128l-128 128v0zM256 48h-128q-15 -1 -16 -16q1 -15 16 -16h128q15 1 16 16q-1 15 -16 16v0zM256 192h-48v48q-1 15 -16 16q-15 -1 -16 -16v-48h-48q-15 -1 -16 -16q1 -15 16 -16h48v-48q1 -15 16 -16q15 1 16 16v48h48q15 1 16 16q-1 15 -16 16v0z" />
    <glyph glyph-name="files-primary" unicode="&#xfe01;" horiz-adv-x="448" 
d="M352 448v-96h96l-96 96v0zM328 -64h-208q-51 1 -85 35t-35 85v272q2 22 24 24q22 -2 24 -24v-272q1 -31 21 -51t51 -21h208q22 -2 24 -24q-2 -22 -24 -24v0z" />
    <glyph glyph-name="film-slash-primary" unicode="&#xfe01;" horiz-adv-x="640" 
d="M631 -21l-592 464q-19 12 -34 -4q-12 -19 4 -34l592 -464q7 -5 14 -5q11 0 19 9q13 19 -3 34v0z" />
    <glyph glyph-name="films-primary" unicode="&#xfe01;" horiz-adv-x="576" 
d="M272 112h128q15 1 16 16v80q-1 15 -16 16h-128q-15 -1 -16 -16v-80q1 -15 16 -16v0zM272 256h128q15 1 16 16v80q-1 15 -16 16h-128q-15 -1 -16 -16v-80q1 -15 16 -16v0zM456 -32h-336q-51 1 -85 35t-35 85v240q2 22 24 24q22 -2 24 -24v-240q1 -31 21 -51t51 -21h336
q22 -2 24 -24q-2 -22 -24 -24v0z" />
    <glyph glyph-name="filter-circle-xmark-primary" unicode="&#xfe01;" horiz-adv-x="576" 
d="M432 224q-61 -2 -102 -42v0q-40 -41 -42 -102q2 -61 42 -102q41 -40 102 -42q61 2 102 42q40 41 42 102q-2 61 -42 102q-41 40 -102 42v0zM489 46q9 -11 0 -23q-12 -9 -23 0l-34 34l-34 -34q-11 -9 -23 0q-9 12 0 23l34 34l-34 34q-9 11 0 23q12 9 23 0l34 -34l34 34
q11 9 23 0q9 -12 -1 -23l-33 -34l34 -34v0z" />
    <glyph glyph-name="filter-list-primary" unicode="&#xfe01;" 
d="M347 348l-123 -145v-185q-1 -11 -10 -16t-18 1l-59 42q-9 6 -9 15v143l-123 145q-8 12 -3 23q6 12 20 13h307q15 -1 21 -13q5 -11 -3 -23v0z" />
    <glyph glyph-name="filter-slash-primary" unicode="&#xfe01;" horiz-adv-x="640" 
d="M631 -21l-592 464q-7 5 -15 5q-11 0 -19 -9q-12 -19 4 -34l591 -463q19 -12 34 4q13 17 -3 33v0z" />
    <glyph glyph-name="filters-primary" unicode="&#xfe01;" horiz-adv-x="640" 
d="M611 416h-390q-19 -1 -26 -16t4 -30l153 -185v-105q0 -12 10 -20l80 -56q13 -7 25 -1t13 21v161l154 185q10 15 3 30t-26 16v0z" />
    <glyph glyph-name="fire-hydrant-primary" unicode="&#xfe01;" horiz-adv-x="384" 
d="M336 -16h-16v288h-256v-288h-16q-15 -1 -16 -16v-16q1 -15 16 -16h288q15 1 16 16v16q-1 15 -16 16v0zM192 64q-27 1 -45 19v0q-18 18 -19 45q1 27 19 45t45 19q27 -1 45 -19t19 -45q-1 -27 -19 -45t-45 -19v0z" />
    <glyph glyph-name="floppy-disk-circle-arrow-right-primary" unicode="&#xfe01;" horiz-adv-x="576" 
d="M432 224q-61 -2 -102 -42v0q-40 -41 -42 -102q2 -61 42 -102q41 -40 102 -42q61 2 101 42q41 41 42 102q-1 61 -42 102q-40 40 -101 42v0zM507 69l-56 -56q-4 -5 -12 -5q-7 0 -11 5q-10 11 0 22l29 29h-89q-14 1 -15 16q2 15 15 16h89l-28 29q-10 11 0 22q11 10 22 0
l56 -56q10 -11 0 -22v0z" />
    <glyph glyph-name="floppy-disk-circle-xmark-primary" unicode="&#xfe01;" horiz-adv-x="576" 
d="M432 224q-61 -2 -102 -42v0q-40 -41 -42 -102q2 -61 42 -102q41 -40 102 -42q61 2 102 42q40 41 42 102q-2 61 -42 102q-41 40 -102 42v0zM489 46q9 -11 0 -23q-12 -9 -23 0l-34 34l-34 -34q-11 -9 -23 0q-9 12 0 23l34 34l-34 34q-9 11 0 23q12 9 23 0l34 -34l34 34
q11 9 23 0q9 -12 -1 -23l-33 -34l34 -34v0z" />
    <glyph glyph-name="floppy-disk-pen-primary" unicode="&#xfe01;" horiz-adv-x="576" 
d="M566 192l-22 21q-11 11 -25 11t-26 -11l-38 -38l72 -72l39 38q10 12 10 26t-10 25v0zM307 27q-3 -3 -5 -9l-14 -71q0 -11 11 -11l71 14q6 2 9 5l126 126l-72 72l-126 -126v0z" />
    <glyph glyph-name="floppy-disks-primary" unicode="&#xfe01;" 
d="M288 96q27 1 45 19v0q18 18 19 45q-1 27 -19 45t-45 19q-27 -1 -45 -19t-19 -45q1 -27 19 -45t45 -19v0zM392 -64h-272q-51 1 -85 35t-35 85v272q2 22 24 24q22 -2 24 -24v-272q1 -31 21 -51t51 -21h272q22 -2 24 -24q-2 -22 -24 -24v0z" />
    <glyph glyph-name="florin-sign-primary" unicode="&#xfe01;" horiz-adv-x="384" 
d="M69 -32h-37q-14 0 -23 9t-9 23t9 23t23 9h37q25 1 33 20l120 303q11 28 36 44q26 17 57 17h37q14 0 23 -9t9 -23t-9 -23t-23 -9h-37q-25 -1 -33 -20l-120 -303q-11 -28 -36 -44q-26 -17 -57 -17v0z" />
    <glyph glyph-name="folder-blank-primary" unicode="&#xfe01;" 
 />
    <glyph glyph-name="folder-bookmark-primary" unicode="&#xfe01;" 
d="M448 113q-1 -10 -9 -15v0q-8 -4 -16 2l-55 43l-54 -44q-9 -5 -17 -1t-9 15v239h160v-239v0z" />
    <glyph glyph-name="folder-gear-primary" unicode="&#xfe01;" 
d="M373 129l-23 13q2 10 2 18t-2 17l23 14q6 3 4 9q-4 12 -10 24q-7 11 -16 21q-4 4 -10 1l-23 -13q-13 11 -30 17v27q0 6 -6 8q-13 3 -26 3t-26 -3q-6 -2 -6 -8v-27q-17 -6 -30 -17l-23 13q-6 3 -10 -1q-9 -9 -16 -21q-6 -12 -10 -24q-2 -6 4 -9l23 -14q-2 -8 -2 -17t2 -17
l-23 -14q-5 -3 -4 -9q4 -12 10 -24q7 -11 16 -21q4 -4 10 -1l23 13q13 -11 30 -17v-27q0 -6 6 -8q13 -3 26 -3t26 3q6 2 6 8v27q17 6 30 17l23 -13q6 -3 10 1q9 9 16 21q6 12 10 24q2 6 -4 9v0zM256 120q-17 0 -28 12v0q-12 11 -12 28t12 28q11 12 28 12t28 -12
q12 -11 12 -28t-12 -28q-11 -12 -28 -12v0z" />
    <glyph glyph-name="folder-grid-primary" unicode="&#xfe01;" 
d="M160 208h-64q-15 -1 -16 -16v-64q1 -15 16 -16h64q15 1 16 16v64q-1 15 -16 16v0zM288 208h-64q-15 -1 -16 -16v-64q1 -15 16 -16h64q15 1 16 16v64q-1 15 -16 16v0zM416 208h-64q-15 -1 -16 -16v-64q1 -15 16 -16h64q15 1 16 16v64q-1 15 -16 16v0z" />
    <glyph glyph-name="folder-heart-primary" unicode="&#xfe01;" 
d="M349 154l-83 -86q-10 -8 -20 0l-83 86q-18 20 -17 45q1 26 22 44q18 15 40 13q23 -2 39 -19l9 -9l8 9q17 17 40 19q22 2 40 -13q21 -18 22 -44q1 -25 -17 -45v0z" />
    <glyph glyph-name="folder-image-primary" unicode="&#xfe01;" 
d="M414 40q-5 -8 -14 -8h-288q-10 0 -14 9q-4 8 1 16l70 96q5 7 12 7q8 0 13 -7l22 -30l63 94q5 7 14 7t14 -7l106 -160q5 -8 1 -17v0z" />
    <glyph glyph-name="folder-magnifying-glass-primary" unicode="&#xfe01;" horiz-adv-x="576" 
d="M411 71l-51 50q16 24 16 55q-1 44 -30 74q-30 29 -74 30q-44 -1 -74 -30q-29 -30 -30 -74q1 -44 30 -74q30 -29 74 -30q30 1 53 15l52 -50q12 -10 23 0l11 11q10 11 0 23v0zM272 120q-24 1 -40 16v0q-15 16 -16 40q1 24 16 40q16 15 40 16q24 -1 40 -16q15 -16 16 -40
q-1 -24 -16 -40q-16 -15 -40 -16v0z" />
    <glyph glyph-name="folder-medical-primary" unicode="&#xfe01;" 
d="M352 142q-1 -13 -14 -14l-50 1v-50q-1 -14 -14 -15h-36q-13 1 -14 14v51l-50 -1q-13 1 -14 14v36q1 13 14 14h50v50q1 13 14 14h36q13 -1 14 -14v-50h50q13 -1 14 -14v-36v0z" />
    <glyph glyph-name="folder-music-primary" unicode="&#xfe01;" 
d="M352 96q-1 -14 -14 -23v0q-14 -9 -34 -9t-34 9q-13 9 -14 23q1 14 14 23q14 9 34 9q8 0 16 -2v76l-96 -37v-101q-1 -14 -14 -23q-14 -9 -34 -9t-34 9q-13 9 -14 23q1 14 14 23q14 9 34 9q8 0 16 -2v115q1 11 11 15l128 47q8 2 15 -2q6 -5 6 -13v-160v0z" />
    <glyph glyph-name="folder-user-primary" unicode="&#xfe01;" 
d="M256 128q27 1 45 19v0q18 18 19 45q-1 27 -19 45t-45 19q-27 -1 -45 -19t-19 -45q1 -27 19 -45t45 -19v0zM320 96h-128q-20 -1 -34 -14q-13 -14 -14 -34q1 -15 16 -16h192q15 1 16 16q-1 20 -14 34q-14 13 -34 14v0z" />
    <glyph glyph-name="franc-sign-primary" unicode="&#xfe01;" horiz-adv-x="320" 
d="M320 384q0 -14 -9 -23v0q-9 -9 -23 -9h-176v-96h144q14 0 23 -9t9 -23t-9 -23t-23 -9h-144v-192q0 -14 -9 -23t-23 -9t-23 9t-9 23v384q0 14 9 23t23 9h208q14 0 23 -9t9 -23v0z" />
    <glyph glyph-name="gif-primary" unicode="&#xfe01;" horiz-adv-x="576" 
d="M240 204h-57q-18 -2 -20 -20q2 -18 20 -20h37v-14q-16 -11 -37 -9q-22 1 -36 14q-15 16 -15 37t15 37q16 15 36 15q21 0 37 -15q14 -12 28 0q12 14 0 28q-28 26 -65 26q-36 0 -64 -26q-27 -27 -27 -65t27 -65q27 -26 68 -27q40 1 67 27q6 6 6 14v43q-2 19 -20 20v0z
M304 284q-18 -2 -20 -20v-144q2 -18 20 -20q18 2 20 20v144q-2 19 -20 20v0zM464 244q18 2 20 20q-2 18 -20 20h-88q-18 -2 -20 -20v-144q2 -18 20 -20q18 2 20 20v52h52q18 2 20 20q-2 18 -20 20h-52v32h68v0z" />
    <glyph glyph-name="glass-empty-primary" unicode="&#xfe01;" horiz-adv-x="384" 
 />
    <glyph glyph-name="glass-half-primary" unicode="&#xfe01;" horiz-adv-x="384" 
d="M304 192l-14 -192h-196l-14 192h224v0z" />
    <glyph glyph-name="grate-primary" unicode="&#xfe01;" horiz-adv-x="448" 
d="M384 416h-320q-27 -1 -45 -19t-19 -45v-320q1 -27 19 -45t45 -19h320q27 1 45 19t19 45v320q-1 27 -19 45t-45 19v0zM384 32h-320v320h320v-320v0z" />
    <glyph glyph-name="grate-droplet-primary" unicode="&#xfe01;" horiz-adv-x="576" 
d="M483 242q-5 14 -19 14v0q-13 0 -19 -14q-10 -34 -25 -59t-29 -45q-17 -22 -28 -43t-11 -48q1 -47 33 -78q31 -32 79 -33q48 1 79 33q32 31 33 78q0 27 -11 48t-27 43q-15 20 -30 44q-14 25 -25 60v0z" />
    <glyph glyph-name="grid-primary" unicode="&#xfe01;" horiz-adv-x="448" 
d="M96 416h-64q-14 0 -23 -9t-9 -23v-64q0 -14 9 -23t23 -9h64q14 0 23 9t9 23v64q0 14 -9 23t-23 9v0zM416 416h-64q-14 0 -23 -9t-9 -23v-64q0 -14 9 -23t23 -9h64q14 0 23 9t9 23v64q0 14 -9 23t-23 9v0zM96 96h-64q-14 0 -23 -9t-9 -23v-64q0 -14 9 -23t23 -9h64
q14 0 23 9t9 23v64q0 14 -9 23t-23 9v0zM416 96h-64q-14 0 -23 -9t-9 -23v-64q0 -14 9 -23t23 -9h64q14 0 23 9t9 23v64q0 14 -9 23t-23 9v0zM256 256h-64q-14 0 -23 -9t-9 -23v-64q0 -14 9 -23t23 -9h64q14 0 23 9t9 23v64q0 14 -9 23t-23 9v0z" />
    <glyph glyph-name="grid-2-primary" unicode="&#xfe01;" horiz-adv-x="448" 
d="M144 416h-96q-20 -1 -34 -14q-13 -14 -14 -34v-96q1 -20 14 -34q14 -13 34 -14h96q20 1 34 14q13 14 14 34v96q-1 20 -14 34q-14 13 -34 14v0zM400 160h-96q-20 -1 -34 -14q-13 -14 -14 -34v-96q1 -20 14 -34q14 -13 34 -14h96q20 1 34 14q13 14 14 34v96q-1 20 -14 34
q-14 13 -34 14v0z" />
    <glyph glyph-name="grid-2-plus-primary" unicode="&#xfe01;" 
d="M472 88h-64v64q-2 22 -24 24q-22 -2 -24 -24v-64h-64q-22 -2 -24 -24q2 -22 24 -24h64v-64q2 -22 24 -24q22 2 24 24v64h64q22 2 24 24q-2 22 -24 24v0z" />
    <glyph glyph-name="grid-4-primary" unicode="&#xfe01;" 
d="M80 448h-64q-15 -1 -16 -16v-64q1 -15 16 -16h64q15 1 16 16v64q-1 15 -16 16v0zM80 171h-64q-15 -2 -16 -16v-64q1 -15 16 -16h64q15 1 16 16v64q-1 14 -16 16v0zM496 32h-64q-15 -1 -16 -16v-64q1 -15 16 -16h64q15 1 16 16v64q-1 15 -16 16v0zM496 309h-64
q-15 -1 -16 -16v-64q1 -14 16 -16h64q15 2 16 16v64q-1 15 -16 16v0zM357 171h-64q-14 -2 -16 -16v-64q2 -15 16 -16h64q15 1 16 16v64q-1 14 -16 16v0zM357 448h-64q-14 -1 -16 -16v-64q2 -15 16 -16h64q15 1 16 16v64q-1 15 -16 16v0zM219 309h-64q-15 -1 -16 -16v-64
q1 -14 16 -16h64q14 2 16 16v64q-2 15 -16 16v0zM219 32h-64q-15 -1 -16 -16v-64q1 -15 16 -16h64q14 1 16 16v64q-2 15 -16 16v0z" />
    <glyph glyph-name="grid-5-primary" unicode="&#xfe01;" 
d="M280 448h-48q-7 -1 -8 -8v-48q1 -7 8 -8h48q7 1 8 8v48q-1 7 -8 8v0zM56 448h-48q-7 -1 -8 -8v-48q1 -7 8 -8h48q7 1 8 8v48q-1 7 -8 8v0zM504 448h-48q-7 -1 -8 -8v-48q1 -7 8 -8h48q7 1 8 8v48q-1 7 -8 8v0zM56 0h-48q-7 -1 -8 -8v-48q1 -7 8 -8h48q7 1 8 8v48
q-1 7 -8 8v0zM280 0h-48q-7 -1 -8 -8v-48q1 -7 8 -8h48q7 1 8 8v48q-1 7 -8 8v0zM504 0h-48q-7 -1 -8 -8v-48q1 -7 8 -8h48q7 1 8 8v48q-1 7 -8 8v0zM168 112h-48q-7 -1 -8 -8v-48q1 -7 8 -8h48q7 1 8 8v48q-1 7 -8 8v0zM392 112h-48q-7 -1 -8 -8v-48q1 -7 8 -8h48q7 1 8 8
v48q-1 7 -8 8v0zM280 224h-48q-7 -1 -8 -8v-48q1 -7 8 -8h48q7 1 8 8v48q-1 7 -8 8v0zM504 224h-48q-7 -1 -8 -8v-48q1 -7 8 -8h48q7 1 8 8v48q-1 7 -8 8v0zM56 224h-48q-7 -1 -8 -8v-48q1 -7 8 -8h48q7 1 8 8v48q-1 7 -8 8v0zM392 336h-48q-7 -1 -8 -8v-48q1 -7 8 -8h48
q7 1 8 8v48q-1 7 -8 8v0zM168 336h-48q-7 -1 -8 -8v-48q1 -7 8 -8h48q7 1 8 8v48q-1 7 -8 8v0z" />
    <glyph glyph-name="guarani-sign-primary" unicode="&#xfe01;" horiz-adv-x="384" 
d="M368 125q-1 -48 -36 -81q-57 -44 -124 -44q-41 0 -79 17q-37 17 -67 50q-46 56 -46 125t46 125q55 60 130 67q75 6 139 -43q10 -9 11 -22q2 -12 -7 -23q-9 -10 -21 -12q-13 -1 -24 7q-42 33 -93 29q-50 -5 -86 -45q-31 -37 -31 -83t31 -83q36 -40 86 -45q51 -4 93 29
q13 12 14 32v35h-80v64h112q13 0 22 -9t10 -23v-67v0z" />
    <glyph glyph-name="gun-primary" unicode="&#xfe01;" horiz-adv-x="576" 
d="M544 384h-16v8q-2 22 -24 24q-22 -2 -24 -24v-8h-437q-18 0 -30 -13q-13 -12 -13 -30v-90q0 -18 13 -30q12 -13 30 -13q17 -1 26 -13t5 -28l-41 -158q-4 -16 5 -28q10 -12 26 -13h104q23 1 31 23l57 217h179q13 0 22 9l23 23h64q14 0 23 9t9 23v80q0 14 -9 23t-23 9v0z
M480 288h-416v32h416v-32v0z" />
    <glyph glyph-name="gun-slash-primary" unicode="&#xfe01;" horiz-adv-x="640" 
d="M635 -55q-15 -16 -34 -4l-592 464q-16 15 -4 34q8 9 19 9q8 0 15 -5l591 -463q17 -17 5 -35v0z" />
    <glyph glyph-name="gun-squirt-primary" unicode="&#xfe01;" horiz-adv-x="576" 
d="M496 384h-368v8q-2 22 -24 24q-22 -2 -24 -24v-10q-35 -6 -57 -32t-23 -62q1 -36 23 -62t57 -32l-47 -185q-4 -16 5 -28q10 -12 26 -13h104q23 1 31 23l54 201h243q20 1 34 14q13 14 14 34v96q-1 20 -14 34q-14 13 -34 14v0zM448 256h-352q-14 0 -23 9t-9 23t9 23t23 9
h352q14 0 23 -9t9 -23t-9 -23t-23 -9v0z" />
    <glyph glyph-name="hand-back-point-down-primary" unicode="&#xfe01;" horiz-adv-x="448" 
 />
    <glyph glyph-name="hand-back-point-left-primary" unicode="&#xfe01;" 
 />
    <glyph glyph-name="hand-back-point-ribbon-primary" unicode="&#xfe01;" horiz-adv-x="448" 
d="M33 314q5 -10 14 -10h145q15 1 16 16v64q-1 15 -16 16h-145q-10 0 -15 -10q-3 -10 5 -17l20 -21l-20 -21q-7 -7 -4 -17v0z" />
    <glyph glyph-name="hand-back-point-right-primary" unicode="&#xfe01;" 
 />
    <glyph glyph-name="hand-back-point-up-primary" unicode="&#xfe01;" horiz-adv-x="448" 
 />
    <glyph glyph-name="hand-fingers-crossed-primary" unicode="&#xfe01;" 
d="M416 224q-14 0 -22 -9v0q-9 -9 -9 -22v-63q0 -14 9 -22q9 -9 22 -9t22 8q10 8 10 21v65q0 13 -9 22t-23 9v0zM320 256q-14 0 -22 -9v0q-9 -9 -9 -22v-95q0 -14 9 -23t22 -9t22 9q10 9 10 23v94q0 14 -9 23t-23 9v0z" />
    <glyph glyph-name="hand-holding-skull-primary" unicode="&#xfe01;" horiz-adv-x="576" 
d="M432 321q-2 54 -42 90v0q-41 36 -102 37q-61 -1 -102 -37t-43 -90q1 -35 19 -64q19 -28 50 -45l-5 -26q0 -23 17 -26h126q9 0 14 8q4 7 3 17l-6 26q33 17 52 45q19 29 19 65v0zM231 272q-13 0 -23 9v0q-9 9 -9 23t9 23q10 9 23 9q14 0 23 -9t9 -23t-9 -23t-23 -9v0z
M344 272q-14 0 -23 9v0q-9 9 -9 23t9 23t23 9t23 -9t9 -23t-9 -23t-23 -9v0z" />
    <glyph glyph-name="hand-love-primary" unicode="&#xfe01;" 
d="M352 224q-14 0 -23 -9v0q-9 -9 -9 -23v-64q0 -14 9 -23t23 -9t23 9t9 23v64q0 14 -9 23t-23 9v0zM256 256q-14 0 -23 -9v0q-9 -9 -9 -23v-96q0 -14 9 -23t23 -9t23 9t9 23v96q0 14 -9 23t-23 9v0z" />
    <glyph glyph-name="hand-point-ribbon-primary" unicode="&#xfe01;" horiz-adv-x="448" 
d="M144 336v64q-1 15 -16 16h-112q-10 0 -15 -10q-3 -10 4 -17l20 -21l-20 -21q-7 -7 -4 -17q5 -10 15 -10h112q15 1 16 16v0z" />
    <glyph glyph-name="hand-wave-primary" unicode="&#xfe01;" 
d="M304 448q-15 -1 -16 -16q1 -15 16 -16q20 -1 34 -14q13 -14 14 -34q1 -15 16 -16q15 1 16 16q-1 34 -23 57q-23 22 -57 23v0zM80 32q-20 1 -34 14v0q-13 14 -14 34q-1 15 -16 16q-15 -1 -16 -16q1 -34 23 -57q23 -22 57 -23q15 1 16 16q-1 15 -16 16v0z" />
    <glyph glyph-name="hands-clapping-primary" unicode="&#xfe01;" 
d="M320 448q-15 -1 -16 -16v-64q1 -15 16 -16q15 1 16 16v64q-1 15 -16 16v0zM383 352q9 0 14 7l32 48q3 4 3 9q-2 15 -16 16q-8 0 -13 -7l-33 -48q-3 -4 -3 -9q2 -15 16 -16v0zM237 425q-5 7 -14 7q-14 -1 -16 -16q0 -5 3 -9l32 -48q7 -7 15 -7q14 1 16 16q0 5 -3 9l-33 48
v0zM480 288q-14 0 -23 -9v0q-9 -9 -9 -23v-76l-32 32v-122q-1 -46 -17 -78t-34 -50q-19 -18 -27 -24q11 -2 22 -2q66 2 108 46q43 44 44 108v166q0 14 -9 23t-23 9v0z" />
    <glyph glyph-name="hand-horns-primary" unicode="&#xfe01;" horiz-adv-x="448" 
d="M288 256q-14 0 -23 -9v0q-9 -9 -9 -23v-64q0 -14 9 -23t23 -9t23 9t9 23v64q0 14 -9 23t-23 9v0zM192 288q-14 0 -23 -9v0q-9 -9 -9 -23v-56q43 -2 64 -40v96q0 14 -9 23t-23 9v0z" />
    <glyph glyph-name="head-side-heart-primary" unicode="&#xfe01;" 
d="M330 250l-83 -86q-9 -8 -19 0l-83 86q-18 20 -17 45q1 26 21 44q19 15 41 13t39 -19l9 -9l8 9q17 17 39 19q23 2 41 -13q20 -18 21 -44q1 -25 -17 -45v0z" />
    <glyph glyph-name="heart-half-primary" unicode="&#xfe01;" 
d="M256 -31q-13 0 -23 10l-193 198q-42 46 -40 106q2 59 49 102q43 35 95 31q53 -5 92 -44l20 -20v-383v0z" />
    <glyph glyph-name="heart-half-stroke-primary" unicode="&#xfe01;" 
d="M255 -31q-13 0 -23 10l-192 198q-42 46 -40 106q2 59 49 102q43 35 95 31q53 -5 92 -44l20 -20l-1 -383v0z" />
    <glyph glyph-name="hexagon-divide-primary" unicode="&#xfe01;" 
d="M256 256q14 0 23 9v0q9 9 9 23t-9 23t-23 9t-23 -9t-9 -23t9 -23t23 -9v0zM256 128q-14 0 -23 -9v0q-9 -9 -9 -23t9 -23t23 -9t23 9t9 23t-9 23t-23 9v0zM351 216h-192q-9 0 -17 -7q-7 -7 -7 -17q2 -22 24 -24h192q22 2 23 24q0 22 -23 24v0z" />
    <glyph glyph-name="high-definition-primary" unicode="&#xfe01;" horiz-adv-x="576" 
d="M248 288q-22 -2 -24 -24v-48h-64v48q-2 22 -24 24q-22 -2 -24 -24v-144q2 -22 24 -24q22 2 24 24v48h64v-48q2 -22 24 -24q22 2 24 24v144q-2 22 -24 24v0zM384 288h-56q-22 -2 -24 -24v-144q2 -22 24 -24h56q41 1 68 28t28 68q-1 41 -28 68t-68 28v0zM384 144h-32v96h32
q20 -1 34 -14q13 -14 14 -34q-1 -20 -14 -34q-14 -13 -34 -14v0z" />
    <glyph glyph-name="highlighter-line-primary" unicode="&#xfe01;" horiz-adv-x="576" 
d="M528 369l-63 63q-16 15 -37 16t-38 -14l-224 -191l174 -173l190 224q15 17 14 38t-16 37v0zM71 38l-65 -65q-9 -11 -4 -24q5 -12 20 -13h72q7 0 12 5l32 32l-67 65v0z" />
    <glyph glyph-name="house-user-primary" unicode="&#xfe01;" horiz-adv-x="576" 
d="M351 192q-1 27 -19 45v0q-17 17 -44 18q-27 -1 -45 -18q-19 -18 -20 -45q1 -27 19 -45q19 -18 45 -19q27 1 45 19t19 45v0zM319 96h-64q-34 -1 -56 -23q-22 -23 -23 -56q2 -14 15 -15h191q14 1 15 15q1 33 -21 56q-22 22 -57 23v0zM565 216l-255 223q-9 8 -21 8
q-13 1 -22 -7l-255 -223q-12 -12 -11 -24q1 -18 12 -25t19 -6q12 0 21 8l235 203l235 -205q9 -8 21 -8q8 0 20 7q11 7 12 25q0 12 -11 24v0z" />
    <glyph glyph-name="house-building-primary" unicode="&#xfe01;" horiz-adv-x="640" 
d="M367 205l-151 138q-11 9 -24 9t-23 -9l-152 -138q-17 -15 -17 -38v-196q0 -15 10 -25t25 -10h314q15 0 25 10t10 25v196q-1 23 -17 38v0zM240 80q-1 -15 -16 -16h-64q-15 1 -16 16v64q1 15 16 16h64q15 -1 16 -16v-64v0z" />
    <glyph glyph-name="house-chimney-heart-primary" unicode="&#xfe01;" horiz-adv-x="576" 
d="M340 193q-25 0 -44 -19l-8 -9l-9 8q-19 19 -43 19q-27 -1 -42 -19t-16 -41q0 -24 17 -42l83 -86q5 -4 10 -4t10 4l83 86q17 18 17 42q-1 23 -16 42q-15 18 -42 19v0zM565 216l-53 47v137q-2 14 -15 15h-63q-14 -1 -15 -15v-53l-107 93q-10 8 -21 8q-12 0 -21 -8
l-259 -224q-12 -12 -11 -23q1 -18 12 -25t19 -7q12 0 21 8l236 204l235 -205q9 -8 21 -8q8 0 20 7q11 7 12 24q0 13 -11 25v0z" />
    <glyph glyph-name="house-tree-primary" unicode="&#xfe01;" horiz-adv-x="640" 
d="M216 343q-11 9 -24 9v0q-13 0 -23 -9l-152 -138q-17 -15 -17 -38v-196q0 -15 10 -25t25 -10h314q15 0 25 10t10 25v196q0 23 -17 38l-151 138v0zM240 80q-1 -15 -16 -16h-64q-15 1 -16 16v64q1 15 16 16h64q15 -1 16 -16v-64v0z" />
    <glyph glyph-name="house-turret-primary" unicode="&#xfe01;" horiz-adv-x="640" 
d="M623 205l-151 138q-11 9 -24 9t-23 -9l-152 -138q-17 -15 -17 -38v-196q0 -15 10 -25t25 -10h314q15 0 25 10t10 25v196q-1 23 -17 38v0zM496 80q-1 -15 -16 -16h-64q-15 1 -16 16v64q1 15 16 16h64q15 -1 16 -16v-64v0z" />
    <glyph glyph-name="image-landscape-primary" unicode="&#xfe01;" horiz-adv-x="576" 
d="M446 72q-5 -8 -14 -8h-288q-10 0 -14 9q-4 8 1 16l70 96q5 7 12 7q8 0 13 -7l22 -30l63 94q5 7 14 7t14 -7l106 -160q5 -8 1 -17v0z" />
    <glyph glyph-name="image-polaroid-user-primary" unicode="&#xfe01;" horiz-adv-x="448" 
d="M224 192q27 1 45 19v0q18 18 19 45q-1 27 -19 45t-45 19q-27 -1 -45 -19t-19 -45q1 -27 19 -45t45 -19v0zM384 96h-48q-1 27 -19 45t-44 19h-98q-26 -1 -44 -19t-19 -44l-48 -1v256h320v-256v0z" />
    <glyph glyph-name="image-slash-primary" unicode="&#xfe01;" horiz-adv-x="640" 
d="M631 -21l-592 464q-19 12 -34 -4q-12 -19 4 -34l592 -464q7 -5 14 -5q11 0 19 9q13 19 -3 34v0z" />
    <glyph glyph-name="image-user-primary" unicode="&#xfe01;" 
d="M256 192q27 1 45 19v0q18 18 19 45q-1 27 -19 45t-45 19q-27 -1 -45 -19t-19 -45q1 -27 19 -45t45 -19v0zM288 160h-64q-34 -1 -57 -23q-22 -23 -23 -57q1 -15 16 -16h192q15 1 16 16q-1 34 -23 57q-23 22 -57 23v0z" />
    <glyph glyph-name="images-user-primary" unicode="&#xfe01;" horiz-adv-x="576" 
d="M240 128h192q15 1 16 16q-1 20 -14 34q-14 13 -34 14h-128q-20 -1 -34 -14q-13 -14 -14 -34q1 -15 16 -16v0zM336 224q27 1 45 19v0q18 18 19 45q-1 27 -19 45t-45 19q-27 -1 -45 -19t-19 -45q1 -27 19 -45t45 -19v0zM456 -32h-336q-51 1 -85 35t-35 85v240q2 22 24 24
q22 -2 24 -24v-240q1 -31 21 -51t51 -21h336q22 -2 24 -24q-2 -22 -24 -24v0z" />
    <glyph glyph-name="inbox-full-primary" unicode="&#xfe01;" 
d="M447 392q-7 23 -31 24h-320q-24 -1 -31 -24l-61 -249q-4 -15 -4 -31v-96q1 -20 14 -34q14 -13 34 -14h416q20 1 34 14q13 14 14 34v96q0 16 -4 31l-61 249v0zM352 96h-192l-32 64h-55l48 192h270l48 -192h-55l-32 -64v0z" />
    <glyph glyph-name="inboxes-primary" unicode="&#xfe01;" 
d="M508 267l-62 161q-9 19 -30 20h-320q-21 -1 -30 -20l-62 -161q-4 -11 -4 -23v-67q1 -20 14 -34q14 -14 34 -14h416q20 0 34 14q13 14 14 34v67q0 12 -4 23v0zM384 288l-32 -64h-192l-32 64h-49l39 96h276l39 -96h-49v0z" />
    <glyph glyph-name="indian-rupee-sign-primary" unicode="&#xfe01;" horiz-adv-x="320" 
d="M320 384q0 -14 -9 -23v0q-9 -9 -23 -9h-56q23 -35 24 -80q-1 -56 -36 -96q-35 -39 -90 -47l145 -103q10 -8 12 -21q3 -12 -5 -24q-11 -13 -27 -13q-10 0 -18 6l-224 160q-17 15 -11 36q8 21 30 22h80q34 1 57 23q22 23 23 57q-1 34 -23 57q-23 22 -57 23h-80q-14 0 -23 9
t-9 23t9 23t23 9h256q14 0 23 -9t9 -23v0z" />
    <glyph glyph-name="input-numeric-primary" unicode="&#xfe01;" horiz-adv-x="640" 
d="M120 96h80q22 2 24 24q-2 22 -24 24h-16v128q-1 15 -16 16h-37q-13 0 -20 -11q-7 -13 -1 -25q7 -11 21 -12h5v-96h-16q-22 -2 -24 -24q2 -22 24 -24v0zM253 211q20 -9 32 10l5 9q5 10 13 10q15 -3 16 -11q5 -6 -3 -19l-69 -74q-11 -11 -6 -26q8 -13 23 -14h88q22 2 24 24
q-2 22 -24 24h-32l31 33q28 32 12 71q-18 38 -60 40q-36 -1 -55 -36l-5 -9q-9 -20 10 -32v0z" />
    <glyph glyph-name="input-pipe-primary" unicode="&#xfe01;" horiz-adv-x="640" 
d="M128 96q22 2 24 24v144q-2 22 -24 24q-22 -2 -24 -24v-144q2 -22 24 -24v0z" />
    <glyph glyph-name="input-text-primary" unicode="&#xfe01;" horiz-adv-x="640" 
d="M109 100q21 -8 32 10l6 11h90l6 -11q7 -13 21 -13q6 0 11 3q18 11 10 32l-71 144q-7 12 -21 12t-22 -12l-71 -144q-10 -21 9 -32v0zM192 211l21 -42h-42l21 42v0zM344 96h68q25 1 42 18t18 42q-1 29 -22 46q6 13 6 26q-1 25 -18 42t-42 18h-52q-22 -2 -24 -24v-144
q2 -22 24 -24v0zM368 240h28q11 -1 12 -12q-1 -11 -12 -12h-28v24v0zM368 168h44q11 -1 12 -12q-1 -11 -12 -12h-44v24v0z" />
    <glyph glyph-name="keyboard-brightness-primary" unicode="&#xfe01;" horiz-adv-x="640" 
d="M448 64q0 -14 -9 -23v0q-9 -9 -23 -9h-192q-14 0 -23 9t-9 23t9 23t23 9h192q14 0 23 -9t9 -23v0z" />
    <glyph glyph-name="keyboard-brightness-low-primary" unicode="&#xfe01;" 
d="M384 64q0 -14 -9 -23v0q-9 -9 -23 -9h-192q-14 0 -23 9t-9 23t9 23t23 9h192q14 0 23 -9t9 -23v0z" />
    <glyph glyph-name="keyboard-down-primary" unicode="&#xfe01;" horiz-adv-x="576" 
d="M268 320h40q11 1 12 12v40q-1 11 -12 12h-40q-11 -1 -12 -12v-40q1 -11 12 -12v0zM172 320h40q11 1 12 12v40q-1 11 -12 12h-40q-11 -1 -12 -12v-40q1 -11 12 -12v0zM116 288h-40q-11 -1 -12 -12v-40q1 -11 12 -12h40q11 1 12 12v40q-1 11 -12 12v0zM116 384h-40
q-11 -1 -12 -12v-40q1 -11 12 -12h40q11 1 12 12v40q-1 11 -12 12v0zM500 384h-40q-11 -1 -12 -12v-40q1 -11 12 -12h40q11 1 12 12v40q-1 11 -12 12v0zM500 288h-40q-11 -1 -12 -12v-40q1 -11 12 -12h40q11 1 12 12v40q-1 11 -12 12v0zM404 384h-40q-11 -1 -12 -12v-40
q1 -11 12 -12h40q11 1 12 12v40q-1 11 -12 12v0zM392 96h-208q-15 -1 -22 -14q-6 -15 4 -26l104 -112q8 -8 18 -8t18 8l104 112q10 11 4 26q-7 13 -22 14v0z" />
    <glyph glyph-name="keyboard-left-primary" unicode="&#xfe01;" horiz-adv-x="640" 
d="M371 224h-40q-11 -1 -12 -12v-40q1 -11 12 -12h40q11 1 12 12v40q0 11 -12 12v0zM275 320h-40q-11 -1 -12 -12v-40q1 -11 12 -12h39q11 1 12 12v40q1 11 -11 12v0zM275 128h-40q-11 -1 -12 -12v-40q1 -11 12 -12h39q11 1 12 12v40q1 11 -11 12v0zM371 320h-40
q-11 -1 -12 -12v-40q1 -11 12 -12h40q11 1 12 12v40q0 11 -12 12v0zM275 224h-40q-11 -1 -12 -12v-40q1 -11 12 -12h39q11 1 12 12v40q1 11 -11 12v0zM563 320h-40q-11 -1 -12 -12v-40q1 -11 12 -12h40q11 1 12 12v40q0 11 -12 12v0zM467 224h-40q-11 -1 -12 -12v-40
q1 -11 12 -12h40q11 1 12 12v40q0 11 -12 12v0zM563 128h-40q-11 -1 -12 -12v-40q1 -11 12 -12h40q11 1 12 12v40q0 11 -12 12v0zM563 224h-40q-11 -1 -12 -12v-40q1 -11 12 -12h40q11 1 12 12v40q0 11 -12 12v0zM467 320h-40q-11 -1 -12 -12v-40q1 -11 12 -12h40
q11 1 12 12v40q0 11 -12 12v0zM117 293q-12 4 -21 -4l-90 -83q-6 -6 -6 -13q0 -8 6 -14l90 -84q9 -8 20 -4q11 6 12 18v166q-1 12 -11 18v0z" />
    <glyph glyph-name="kip-sign-primary" unicode="&#xfe01;" horiz-adv-x="384" 
d="M341 24q10 -9 11 -22v0q1 -12 -8 -23q-11 -11 -25 -11q-11 0 -21 8l-171 146v-122q0 -14 -9 -23t-22 -9t-22 9q-10 9 -10 23v384q0 14 9 23t23 9t22 -9q9 -9 9 -23v-123l171 147q11 9 24 8q12 -1 21 -11q9 -11 8 -24q-1 -12 -11 -21l-195 -168l196 -168v0z" />
    <glyph glyph-name="lamp-street-primary" unicode="&#xfe01;" 
d="M512 59q1 -11 -6 -19v0q-7 -8 -18 -8h-336q-11 0 -18 8t-6 19q10 63 54 107q43 43 106 54l64 1q63 -12 106 -55q43 -44 54 -107v0z" />
    <glyph glyph-name="laptop-arrow-down-primary" unicode="&#xfe01;" horiz-adv-x="640" 
d="M512 352v-256h-384v256h168v-126l-40 39q-6 7 -16 7t-17 -7q-14 -17 0 -34l80 -80q17 -14 34 0l80 80q14 17 0 34q-17 14 -34 0l-39 -39v126h168v0z" />
    <glyph glyph-name="laptop-slash-primary" unicode="&#xfe01;" horiz-adv-x="640" 
d="M615 -64q-8 0 -15 5l-591 464q-16 15 -4 34q15 16 34 4l591 -463q16 -15 4 -34q-6 -10 -19 -10v0z" />
    <glyph glyph-name="lari-sign-primary" unicode="&#xfe01;" horiz-adv-x="384" 
d="M384 0q0 -14 -9 -23v0q-9 -9 -23 -9h-170h-1h-1h-4v0h-1h-143q-14 0 -23 9t-9 23t9 23t23 9h17q-47 53 -49 127q2 82 58 136q55 55 138 57q65 -1 115 -36t71 -95q4 -13 -1 -24q-6 -12 -19 -17q-12 -4 -24 2q-11 5 -16 18q-15 40 -48 64q-34 23 -78 24q-56 -2 -93 -38
q-38 -36 -39 -91q1 -50 33 -85t82 -42h173q14 0 23 -9t9 -23v0z" />
    <glyph glyph-name="lasso-sparkles-primary" unicode="&#xfe01;" horiz-adv-x="576" 
d="M572 22l-49 21l-21 49q-3 4 -6 4q-4 0 -6 -4l-21 -49l-49 -21q-4 -2 -4 -6t4 -6l49 -21l21 -49q2 -4 6 -4t6 4l21 49l49 21q4 2 4 7q0 3 -4 5v0zM412 374l-49 21l-21 49q-2 4 -6 4t-6 -4l-21 -49l-49 -21q-4 -2 -4 -6t4 -6l49 -21l21 -49q2 -4 6 -4t6 4l21 49l49 21
q4 2 4 6v1q-1 3 -4 5v0z" />
    <glyph glyph-name="lightbulb-exclamation-on-primary" unicode="&#xfe01;" horiz-adv-x="640" 
d="M107 161l-55 -32q-12 -7 -13 -21q1 -14 12 -21q13 -7 25 0l55 32q17 13 9 33q-13 18 -33 9v0zM112 256q-2 22 -24 24h-64q-22 -2 -24 -24q2 -22 24 -24h64q22 2 24 24v0zM131 393l-55 32q-12 7 -25 0q-11 -7 -12 -21q1 -14 13 -21l55 -32q12 -7 24 0t13 21q-1 14 -13 21
v0zM616 280h-64q-22 -2 -24 -24q2 -22 24 -24h64q22 2 24 24q-2 22 -24 24v0zM588 129l-55 32q-12 6 -24 0q-12 -7 -12 -21t12 -21l55 -32q20 -9 33 9q9 20 -9 33v0zM521 348q6 0 12 3l55 32q18 13 9 33q-13 18 -33 9l-55 -32q-15 -10 -11 -27q5 -17 23 -18v0zM320 224
q22 2 24 24v112q-2 22 -24 24q-22 -2 -24 -24v-112q2 -22 24 -24v0zM320 128q14 0 23 9v0q9 9 9 23t-9 23t-23 9t-23 -9t-9 -23t9 -23t23 -9v0zM240 33v-38q0 -10 6 -18l17 -26q10 -14 26 -15h62q16 1 26 14l18 26q5 8 5 18v70h-160v-31v0z" />
    </font>
</defs>
</svg>
