<?xml version="1.0" standalone="no"?>
<!DOCTYPE svg PUBLIC "-//W3C//DTD SVG 1.1//EN" "http://www.w3.org/Graphics/SVG/1.1/DTD/svg11.dtd" >
<svg xmlns="http://www.w3.org/2000/svg" xmlns:xlink="http://www.w3.org/1999/xlink" version="1.1">
<metadata>
Created by FontForge 20200306 at Mon May 24 19:30:09 2021
 By convertio
Copyright (c) Font Awesome
</metadata>
<defs>
<font id="FontAwesome6Pro-Thin" horiz-adv-x="512" >
  <font-face 
    font-family="Font Awesome 6 Pro Thin"
    font-weight="100"
    font-stretch="normal"
    units-per-em="512"
    panose-1="2 0 5 3 0 0 0 0 0 0"
    ascent="448"
    descent="-64"
    x-height="414"
    bbox="-1.4 -72 641 449.25"
    underline-thickness="25"
    underline-position="-49"
    unicode-range="U+0022-1FAC1"
  />
<missing-glyph horiz-adv-x="384" 
d="M352 448h-320q-14 0 -23 -9t-9 -23v-448q0 -14 9 -23t23 -9h320q14 0 23 9t9 23v448q0 14 -9 23t-23 9v0zM368 416v-448v-1v-1l-166 226l166 226v-1v-1v0zM352 432q3 0 5 -1l-165 -226l-165 226q2 1 5 1h320v0zM16 -34v1v0v1v448v1v1l166 -226l-166 -226v0zM32 -48
q-3 0 -5 1l165 225l165 -225q-2 -1 -5 -1h-320v0z" />
    <glyph glyph-name=".notdef" horiz-adv-x="384" 
d="M352 448h-320q-14 0 -23 -9t-9 -23v-448q0 -14 9 -23t23 -9h320q14 0 23 9t9 23v448q0 14 -9 23t-23 9v0zM368 416v-448v-1v-1l-166 226l166 226v-1v-1v0zM352 432q3 0 5 -1l-165 -226l-165 226q2 1 5 1h320v0zM16 -34v1v0v1v448v1v1l166 -226l-166 -226v0zM32 -48
q-3 0 -5 1l165 225l165 -225q-2 -1 -5 -1h-320v0z" />
    <glyph glyph-name="exclamation" unicode="&#xf12a;" horiz-adv-x="128" 
d="M64 64q7 1 8 8v336q-1 7 -8 8q-7 -1 -8 -8v-336q1 -7 8 -8v0zM64 16q-15 -1 -16 -16q1 -15 16 -16q15 1 16 16q-1 15 -16 16v0z" />
    <glyph glyph-name="exclamation" unicode="&#x2757;" horiz-adv-x="128" 
d="M64 64q7 1 8 8v336q-1 7 -8 8q-7 -1 -8 -8v-336q1 -7 8 -8v0zM64 16q-15 -1 -16 -16q1 -15 16 -16q15 1 16 16q-1 15 -16 16v0z" />
    <glyph glyph-name="exclamation" unicode="&#x2755;" horiz-adv-x="128" 
d="M64 64q7 1 8 8v336q-1 7 -8 8q-7 -1 -8 -8v-336q1 -7 8 -8v0zM64 16q-15 -1 -16 -16q1 -15 16 -16q15 1 16 16q-1 15 -16 16v0z" />
    <glyph glyph-name="exclamation" unicode="!" horiz-adv-x="128" 
d="M64 64q7 1 8 8v336q-1 7 -8 8q-7 -1 -8 -8v-336q1 -7 8 -8v0zM64 16q-15 -1 -16 -16q1 -15 16 -16q15 1 16 16q-1 15 -16 16v0z" />
    <glyph glyph-name="ditto" unicode="&#x22;" horiz-adv-x="320" 
d="M305 393q-19 23 -50 23q-30 0 -49 -23q-19 -24 -14 -55l25 -145q4 -15 14 -24q11 -9 24 -9q14 0 24 9q11 9 14 24l25 145q6 31 -13 55v0zM303 341l-25 -145q-5 -19 -23 -20q-18 1 -22 20l-24 145q-4 24 10 42q14 17 36 17t37 -17q15 -18 11 -42v0zM64 416q-29 0 -49 -23
q-19 -24 -14 -55l25 -145q3 -15 13 -24q11 -9 25 -9t25 9q10 9 13 24l25 145q5 31 -14 55q-20 23 -49 23v0zM111 341l-25 -145q-5 -19 -23 -20q-18 1 -22 20l-24 145q-4 24 10 42q14 17 36 17t37 -17q15 -18 11 -42v0z" />
    <glyph glyph-name="hashtag" unicode="&#xf292;" horiz-adv-x="448" 
d="M440 296h-109l21 110q1 8 -7 10q-7 1 -9 -7l-21 -113h-152l21 110q1 8 -6 10q-8 1 -10 -7l-21 -113h-107q-7 -1 -8 -8q1 -7 8 -8h104l-32 -176h-104q-7 -1 -8 -8q1 -7 8 -8h101l-21 -110q-1 -8 7 -10v0h1q6 0 8 7l21 113h152l-21 -110q-1 -8 7 -10v0h1q6 0 8 7l21 113
h115q7 1 8 8q-1 7 -8 8h-112l32 175h112q7 1 8 8q-1 9 -8 9v0zM280 104h-152l32 176h152l-32 -176v0z" />
    <glyph glyph-name="hashtag" unicode="#" horiz-adv-x="448" 
d="M440 296h-109l21 110q1 8 -7 10q-7 1 -9 -7l-21 -113h-152l21 110q1 8 -6 10q-8 1 -10 -7l-21 -113h-107q-7 -1 -8 -8q1 -7 8 -8h104l-32 -176h-104q-7 -1 -8 -8q1 -7 8 -8h101l-21 -110q-1 -8 7 -10v0h1q6 0 8 7l21 113h152l-21 -110q-1 -8 7 -10v0h1q6 0 8 7l21 113
h115q7 1 8 8q-1 7 -8 8h-112l32 175h112q7 1 8 8q-1 9 -8 9v0zM280 104h-152l32 176h152l-32 -176v0z" />
    <glyph glyph-name="dollar-sign" unicode="&#x1f4b2;" horiz-adv-x="320" 
d="M302 79q-8 -38 -43 -58v0q-35 -21 -90 -21v0h-1v-56q-1 -7 -8 -8q-7 1 -8 8v57q-3 0 -7 1q-11 0 -21 1q-45 8 -88 24h-1l-13 4q-7 3 -6 10q3 7 10 5l14 -4q43 -15 86 -23q67 -9 110 8q42 17 50 55q8 48 -32 69q-39 21 -96 33v0l-18 6q-29 7 -59 19q-31 12 -50 35t-12 62
q7 37 42 57q35 21 91 21v56q1 7 8 8q7 -1 8 -8v-57q13 0 28 -2q27 -4 68 -17q7 -3 6 -10q-3 -7 -9 -5q-41 12 -67 16q-67 9 -109 -8q-43 -17 -51 -55q-7 -44 25 -65q33 -20 85 -33l18 -4v0q37 -9 72 -22t55 -36t13 -63v0z" />
    <glyph glyph-name="dollar-sign" unicode="$" horiz-adv-x="320" 
d="M302 79q-8 -38 -43 -58v0q-35 -21 -90 -21v0h-1v-56q-1 -7 -8 -8q-7 1 -8 8v57q-3 0 -7 1q-11 0 -21 1q-45 8 -88 24h-1l-13 4q-7 3 -6 10q3 7 10 5l14 -4q43 -15 86 -23q67 -9 110 8q42 17 50 55q8 48 -32 69q-39 21 -96 33v0l-18 6q-29 7 -59 19q-31 12 -50 35t-12 62
q7 37 42 57q35 21 91 21v56q1 7 8 8q7 -1 8 -8v-57q13 0 28 -2q27 -4 68 -17q7 -3 6 -10q-3 -7 -9 -5q-41 12 -67 16q-67 9 -109 -8q-43 -17 -51 -55q-7 -44 25 -65q33 -20 85 -33l18 -4v0q37 -9 72 -22t55 -36t13 -63v0z" />
    <glyph glyph-name="percent" unicode="&#xf541;" horiz-adv-x="384" 
d="M382 382q-6 4 -12 0l-368 -368q-4 -6 0 -12q3 -2 6 -2t6 2l368 368q4 6 0 12v0zM64 256q27 1 45 19v0q18 18 19 45q-1 27 -19 45t-45 19q-27 -1 -45 -19t-19 -45q1 -27 19 -45t45 -19v0zM64 368q20 -1 34 -14v0q13 -14 14 -34q-1 -20 -14 -34q-14 -13 -34 -14
q-20 1 -34 14q-13 14 -14 34q1 20 14 34q14 13 34 14v0zM320 128q-27 -1 -45 -19v0q-18 -18 -19 -45q1 -27 19 -45t45 -19q27 1 45 19t19 45q-1 27 -19 45t-45 19v0zM320 16q-20 1 -34 14v0q-13 14 -14 34q1 20 14 34q14 13 34 14q20 -1 34 -14q13 -14 14 -34
q-1 -20 -14 -34q-14 -13 -34 -14v0z" />
    <glyph glyph-name="percent" unicode="&#xf295;" horiz-adv-x="384" 
d="M382 382q-6 4 -12 0l-368 -368q-4 -6 0 -12q3 -2 6 -2t6 2l368 368q4 6 0 12v0zM64 256q27 1 45 19v0q18 18 19 45q-1 27 -19 45t-45 19q-27 -1 -45 -19t-19 -45q1 -27 19 -45t45 -19v0zM64 368q20 -1 34 -14v0q13 -14 14 -34q-1 -20 -14 -34q-14 -13 -34 -14
q-20 1 -34 14q-13 14 -14 34q1 20 14 34q14 13 34 14v0zM320 128q-27 -1 -45 -19v0q-18 -18 -19 -45q1 -27 19 -45t45 -19q27 1 45 19t19 45q-1 27 -19 45t-45 19v0zM320 16q-20 1 -34 14v0q-13 14 -14 34q1 20 14 34q14 13 34 14q20 -1 34 -14q13 -14 14 -34
q-1 -20 -14 -34q-14 -13 -34 -14v0z" />
    <glyph glyph-name="percent" unicode="%" horiz-adv-x="384" 
d="M382 382q-6 4 -12 0l-368 -368q-4 -6 0 -12q3 -2 6 -2t6 2l368 368q4 6 0 12v0zM64 256q27 1 45 19v0q18 18 19 45q-1 27 -19 45t-45 19q-27 -1 -45 -19t-19 -45q1 -27 19 -45t45 -19v0zM64 368q20 -1 34 -14v0q13 -14 14 -34q-1 -20 -14 -34q-14 -13 -34 -14
q-20 1 -34 14q-13 14 -14 34q1 20 14 34q14 13 34 14v0zM320 128q-27 -1 -45 -19v0q-18 -18 -19 -45q1 -27 19 -45t45 -19q27 1 45 19t19 45q-1 27 -19 45t-45 19v0zM320 16q-20 1 -34 14v0q-13 14 -14 34q1 20 14 34q14 13 34 14q20 -1 34 -14q13 -14 14 -34
q-1 -20 -14 -34q-14 -13 -34 -14v0z" />
    <glyph glyph-name="ampersand" unicode="&#x26;" horiz-adv-x="384" 
d="M382 -19l-79 84l80 114q3 7 -2 12q-7 3 -12 -2l-77 -112l-134 140l76 60q29 24 30 61q-1 33 -24 55q-22 22 -56 23h-48q-34 -1 -57 -23t-24 -55q1 -36 26 -63l53 -57l-97 -78q-36 -29 -37 -75q1 -41 29 -69q28 -27 71 -28h69q31 0 58 14t45 39l21 30l77 -81q3 -2 5 -2
q3 0 6 2q6 6 1 11v0zM93 285q-21 23 -22 53q1 26 19 44q19 17 46 18h48q27 -1 45 -18q18 -18 19 -44q-1 -29 -24 -48l-77 -62l-54 57v0zM259 30q-33 -45 -90 -46h-69q-36 1 -59 24q-24 23 -25 57q1 38 31 63l99 79l136 -144l-23 -33v0z" />
    <glyph glyph-name="apostrophe" unicode="'" horiz-adv-x="192" 
d="M192 336q-1 34 -23 57v0q-23 22 -57 23q-34 -1 -57 -23q-22 -23 -23 -57q1 -34 23 -57q23 -22 57 -23q41 2 64 32v-24q-1 -37 -26 -62t-62 -26h-16q-7 -1 -8 -8q1 -7 8 -8h16q44 1 73 31q30 29 31 73v64v1q-1 0 -1 1t1 2v4v0zM112 272q-27 1 -45 19v0q-18 18 -19 45
q1 27 19 45t45 19q27 -1 45 -19t19 -45q-1 -27 -19 -45t-45 -19v0z" />
    <glyph glyph-name="bracket-round" unicode="(" horiz-adv-x="192" 
d="M141 -10q5 -4 1 -11q-2 -3 -6 -3q-2 0 -5 2q-3 1 -27 25t-47 71t-25 118q2 71 25 118t47 71t27 26q7 3 11 -2q4 -7 -1 -11v0q-3 -1 -25 -24q-23 -23 -44 -67q-22 -45 -24 -111q2 -66 23 -110q22 -44 44 -67q23 -23 26 -24v-1v0z" />
    <glyph glyph-name="bracket-round-right" unicode=")" horiz-adv-x="192" 
d="M143 193q-2 66 -23 110v0q-22 45 -44 67v0q-23 23 -26 24v0v0q-4 4 0 11q4 5 11 2q3 -2 27 -26t47 -71t25 -118q-2 -71 -25 -118t-47 -71t-27 -25q-2 -2 -5 -2q-4 0 -6 3q-4 7 1 11v1q4 1 26 24t43 67q21 45 23 111v0z" />
    <glyph glyph-name="asterisk" unicode="&#xf069;" horiz-adv-x="448" 
d="M412 91q6 -4 3 -11q-2 -4 -7 -4q-2 0 -4 1l-172 101v-202q-1 -7 -8 -8q-7 1 -8 8v202l-172 -101q-2 -1 -4 -1q-4 0 -7 4q-3 7 3 11l172 101l-172 101q-6 4 -3 11q4 6 11 3l172 -101v202q1 7 8 8q7 -1 8 -8v-202l172 101q7 3 10 -3q3 -7 -3 -11l-171 -101l172 -101v0z" />
    <glyph glyph-name="asterisk" unicode="&#x2731;" horiz-adv-x="448" 
d="M412 91q6 -4 3 -11q-2 -4 -7 -4q-2 0 -4 1l-172 101v-202q-1 -7 -8 -8q-7 1 -8 8v202l-172 -101q-2 -1 -4 -1q-4 0 -7 4q-3 7 3 11l172 101l-172 101q-6 4 -3 11q4 6 11 3l172 -101v202q1 7 8 8q7 -1 8 -8v-202l172 101q7 3 10 -3q3 -7 -3 -11l-171 -101l172 -101v0z" />
    <glyph glyph-name="asterisk" unicode="*" horiz-adv-x="448" 
d="M412 91q6 -4 3 -11q-2 -4 -7 -4q-2 0 -4 1l-172 101v-202q-1 -7 -8 -8q-7 1 -8 8v202l-172 -101q-2 -1 -4 -1q-4 0 -7 4q-3 7 3 11l172 101l-172 101q-6 4 -3 11q4 6 11 3l172 -101v202q1 7 8 8q7 -1 8 -8v-202l172 101q7 3 10 -3q3 -7 -3 -11l-171 -101l172 -101v0z" />
    <glyph glyph-name="plus" unicode="&#x2795;" horiz-adv-x="448" 
d="M432 192q-1 -7 -8 -8h-192v-192q-1 -7 -8 -8q-7 1 -8 8v192h-192q-7 1 -8 8q1 7 8 8h192v192q1 7 8 8q7 -1 8 -8v-192h192q7 -1 8 -8v0z" />
    <glyph glyph-name="plus" unicode="+" horiz-adv-x="448" 
d="M432 192q-1 -7 -8 -8h-192v-192q-1 -7 -8 -8q-7 1 -8 8v192h-192q-7 1 -8 8q1 7 8 8h192v192q1 7 8 8q7 -1 8 -8v-192h192q7 -1 8 -8v0z" />
    <glyph glyph-name="comma" unicode="," horiz-adv-x="192" 
d="M97 144q15 0 27 -8v0q12 -8 17 -21q7 -19 -3 -38l-68 -115q-6 -10 -17 -10q-4 0 -8 1q-14 7 -13 23l23 132q4 20 22 31q9 5 20 5v0zM97 161v0q-15 0 -28 -8q-25 -14 -30 -42l-22 -132q-3 -28 23 -40q6 -3 12 -2h1q20 0 31 18l68 115q13 25 4 52q-7 17 -23 28t-36 11v0z
" />
    <glyph glyph-name="hyphen" unicode="-" horiz-adv-x="320" 
d="M8 184h304q7 1 8 8q-1 7 -8 8h-304q-7 -1 -8 -8q1 -7 8 -8v0z" />
    <glyph glyph-name="period" unicode="." horiz-adv-x="128" 
d="M64 80q20 -1 34 -14v0q13 -14 14 -34q-1 -20 -14 -34q-14 -13 -34 -14q-20 1 -34 14q-13 14 -14 34q1 20 14 34q14 13 34 14v0zM64 96q-27 -1 -45 -19v0q-18 -18 -19 -45q1 -27 19 -45t45 -19q27 1 45 19t19 45q-1 27 -19 45t-45 19v0z" />
    <glyph glyph-name="slash-forward" unicode="/" horiz-adv-x="320" 
d="M319 436l-304 -496q-3 -4 -7 -4q-2 0 -4 1q-6 5 -3 11l304 495q5 6 11 3t3 -10v0z" />
    <glyph glyph-name="0" unicode="0" horiz-adv-x="320" 
d="M160 416q-68 -2 -113 -47v0q-45 -45 -47 -113v-127q2 -68 47 -113t113 -47q68 2 113 47t47 113v127q-2 68 -47 113t-113 47v0zM304 128q-2 -61 -42 -102v0q-41 -40 -102 -42q-61 2 -102 42q-40 41 -42 102v128q2 61 42 102q41 40 102 42q61 -2 102 -42q40 -41 42 -102
v-128v0z" />
    <glyph glyph-name="1" unicode="1" horiz-adv-x="256" 
d="M256 -24q-1 -7 -8 -8h-240q-7 1 -8 8q1 7 8 8h112v410l-84 -49q-7 -3 -11 3q-3 7 3 11l96 56q4 2 8 0t4 -7v-424h112q7 -1 8 -8v0z" />
    <glyph glyph-name="2" unicode="2" horiz-adv-x="320" 
d="M320 -24q0 -7 -9 -8h-303q-5 0 -7 5t2 9l226 202q39 35 43 83t-29 88q-34 40 -87 45q-52 3 -92 -31l-34 -29q-6 -4 -12 1q-4 6 1 11l34 30q46 38 105 34q59 -6 97 -50q37 -46 33 -100t-48 -94l-211 -188h282q9 -1 9 -8v0z" />
    <glyph glyph-name="3" unicode="3" horiz-adv-x="320" 
d="M320 92q-1 -52 -36 -88v0q-36 -35 -88 -36h-108q-30 0 -54 17t-34 46q-1 7 5 10q8 2 11 -5q8 -24 27 -38q20 -14 45 -14h108q46 1 76 32q31 30 32 76q-1 46 -32 77q-30 30 -76 32h-124q-5 0 -7 5t2 8l201 186h-260q-7 1 -7 8t7 8h279q5 0 8 -5q1 -5 -2 -9l-201 -185h104
q52 -2 88 -37q35 -35 36 -88v0z" />
    <glyph glyph-name="4" unicode="4" horiz-adv-x="384" 
d="M383 105q-1 -7 -8 -8h-55v-119q-1 -8 -8 -8t-8 8v120h-296q-4 0 -7 4q-2 3 0 7l144 304q4 7 10 4q7 -4 4 -11l-138 -292h283v199q1 7 8 8q7 -1 8 -8v-200h56q7 -1 7 -8v0z" />
    <glyph glyph-name="5" unicode="5" horiz-adv-x="320" 
d="M320 92q-1 -52 -36 -88v0q-36 -35 -88 -36h-106q-31 0 -55 18q-24 17 -35 46q-1 8 5 10q8 2 11 -5q8 -24 28 -38q20 -15 46 -15h105q46 1 76 32q31 30 32 76q-1 46 -32 77q-30 30 -76 32h-187q-4 0 -6 3q-3 3 -2 6l47 200q3 6 9 6h223q7 -1 7 -8t-6 -8h-218l-44 -183h178
q52 -2 88 -37q35 -35 36 -88v0z" />
    <glyph glyph-name="6" unicode="6" horiz-adv-x="320" 
d="M0 128q2 -68 47 -113v0q45 -45 113 -47q68 2 113 47t47 113q-2 68 -47 113t-113 47q-32 0 -59 -12l121 126q4 6 0 12q-4 2 -6 2q-3 0 -6 -2q-36 -38 -65 -68q-58 -58 -89 -93q-32 -36 -44 -64q-13 -27 -12 -61v0zM304 128q-2 -61 -42 -102v0q-41 -40 -102 -42
q-61 2 -102 42q-40 41 -42 102q2 61 42 102q41 40 102 42q61 -2 102 -42q40 -41 42 -102v0z" />
    <glyph glyph-name="7" unicode="7" horiz-adv-x="320" 
d="M319 404l-272 -432q-3 -4 -7 -4q-2 0 -4 1q-6 5 -3 11l265 420h-290q-7 1 -8 8q1 7 8 8h304q5 0 7 -4t0 -8v0z" />
    <glyph glyph-name="8" unicode="8" horiz-adv-x="320" 
d="M231 196q29 15 47 42v0q18 27 18 62q-1 49 -34 82t-82 34h-40q-49 -1 -82 -34t-34 -82q0 -35 18 -62t47 -42q-39 -10 -64 -40q-24 -30 -25 -72q1 -49 34 -82t82 -34h88q49 1 82 34t34 82q-1 42 -25 72q-25 30 -64 40v0zM40 300q1 42 29 71v0q29 28 71 29h40q42 -1 71 -29
q28 -29 29 -71q-1 -42 -29 -71q-29 -28 -71 -29h-40q-42 1 -71 29q-28 29 -29 71v0zM204 -16h-88q-42 1 -71 29q-28 29 -29 71q1 42 29 71q29 28 71 29h88q42 -1 71 -29q28 -29 29 -71q-1 -42 -29 -71q-29 -28 -71 -29v0z" />
    <glyph glyph-name="9" unicode="9" horiz-adv-x="320" 
d="M320 256q-2 68 -47 113v0q-45 45 -113 47q-68 -2 -113 -47t-47 -113q2 -68 47 -113t113 -47q32 0 59 12l-121 -127q-4 -5 0 -11q2 -2 6 -2q3 0 6 2q39 41 69 72q56 56 87 91q30 35 42 62q13 27 12 61v0zM16 256q2 61 42 102v0q41 40 102 42q61 -2 102 -42q40 -41 42 -102
q-2 -61 -42 -102q-41 -40 -102 -42q-61 2 -102 42q-40 41 -42 102v0z" />
    <glyph glyph-name="colon" unicode=":" horiz-adv-x="128" 
d="M64 128q-27 -1 -45 -19v0q-18 -18 -19 -45q1 -27 19 -45t45 -19q27 1 45 19t19 45q-1 27 -19 45t-45 19v0zM64 16q-20 1 -34 14v0q-13 14 -14 34q1 20 14 34q14 13 34 14q20 -1 34 -14q13 -14 14 -34q-1 -20 -14 -34q-14 -13 -34 -14v0zM64 256q27 1 45 19v0q18 18 19 45
q-1 27 -19 45t-45 19q-27 -1 -45 -19t-19 -45q1 -27 19 -45t45 -19v0zM64 368q20 -1 34 -14v0q13 -14 14 -34q-1 -20 -14 -34q-14 -13 -34 -14q-20 1 -34 14q-13 14 -14 34q1 20 14 34q14 13 34 14v0z" />
    <glyph glyph-name="semicolon" unicode=";" horiz-adv-x="192" 
d="M96 256q27 1 45 19v0q18 18 19 45q-1 27 -19 45t-45 19q-27 -1 -45 -19q-17 -18 -18 -45q0 -27 18 -45t45 -19v0zM96 368q20 -1 34 -14v0q13 -14 14 -34q-1 -20 -14 -34q-14 -13 -34 -14q-20 1 -34 14q-13 14 -14 34q1 20 14 34q14 13 34 14v0zM97 161q-15 0 -28 -8
q-25 -14 -30 -42l-22 -132q-3 -28 23 -40q6 -3 12 -2h1q20 0 31 18l68 115q13 25 4 52q-7 17 -23 28t-36 11v0zM138 77l-68 -115q-6 -10 -17 -10q-4 0 -8 1q-14 7 -13 23l23 132q4 20 22 31q9 5 20 5q15 0 27 -8t17 -21q7 -19 -3 -38v0z" />
    <glyph glyph-name="less-than" unicode="&#xf536;" horiz-adv-x="384" 
d="M356 39q6 -4 3 -11q-3 -5 -11 -3l-320 159q-4 3 -4 9q0 5 4 7l320 159q7 3 11 -3q3 -7 -3 -11l-306 -152l306 -154v0z" />
    <glyph glyph-name="less-than" unicode="&#x3c;" horiz-adv-x="384" 
d="M356 39q6 -4 3 -11q-3 -5 -11 -3l-320 159q-4 3 -4 9q0 5 4 7l320 159q7 3 11 -3q3 -7 -3 -11l-306 -152l306 -154v0z" />
    <glyph glyph-name="equals" unicode="&#xf52c;" horiz-adv-x="448" 
d="M8 280h432q7 1 8 8q-1 7 -8 8h-432q-7 -1 -8 -8q1 -7 8 -8v0zM440 104h-432q-7 -1 -8 -8q1 -7 8 -8h432q7 1 8 8q-1 7 -8 8v0z" />
    <glyph glyph-name="equals" unicode="=" horiz-adv-x="448" 
d="M8 280h432q7 1 8 8q-1 7 -8 8h-432q-7 -1 -8 -8q1 -7 8 -8v0zM440 104h-432q-7 -1 -8 -8q1 -7 8 -8h432q7 1 8 8q-1 7 -8 8v0z" />
    <glyph glyph-name="greater-than" unicode="&#xf531;" horiz-adv-x="384" 
d="M356 199l-320 160q-7 3 -11 -3q-3 -7 3 -11l306 -153l-306 -153q-6 -4 -3 -10q2 -5 7 -5q2 0 4 1l320 160q4 2 4 7t-4 7v0z" />
    <glyph glyph-name="greater-than" unicode="&#x3e;" horiz-adv-x="384" 
d="M356 199l-320 160q-7 3 -11 -3q-3 -7 3 -11l306 -153l-306 -153q-6 -4 -3 -10q2 -5 7 -5q2 0 4 1l320 160q4 2 4 7t-4 7v0z" />
    <glyph glyph-name="question" unicode="&#xf128;" horiz-adv-x="320" 
d="M144 16q-15 -1 -16 -16q1 -15 16 -16q15 1 16 16q-1 15 -16 16v0zM211 416h-102q-46 -1 -77 -32q-31 -32 -32 -79v-9q1 -7 8 -8q7 1 8 8v9q1 41 27 67q26 27 66 28h102q40 -1 66 -28q26 -26 27 -67q0 -26 -13 -47q-13 -22 -35 -35l-95 -61q-24 -14 -25 -43v-47q1 -7 8 -8
q7 1 8 8v47q1 19 17 29l95 61q26 15 41 40q15 26 15 56q-1 47 -32 79q-31 31 -77 32v0z" />
    <glyph glyph-name="question" unicode="&#x2754;" horiz-adv-x="320" 
d="M144 16q-15 -1 -16 -16q1 -15 16 -16q15 1 16 16q-1 15 -16 16v0zM211 416h-102q-46 -1 -77 -32q-31 -32 -32 -79v-9q1 -7 8 -8q7 1 8 8v9q1 41 27 67q26 27 66 28h102q40 -1 66 -28q26 -26 27 -67q0 -26 -13 -47q-13 -22 -35 -35l-95 -61q-24 -14 -25 -43v-47q1 -7 8 -8
q7 1 8 8v47q1 19 17 29l95 61q26 15 41 40q15 26 15 56q-1 47 -32 79q-31 31 -77 32v0z" />
    <glyph glyph-name="question" unicode="&#x2753;" horiz-adv-x="320" 
d="M144 16q-15 -1 -16 -16q1 -15 16 -16q15 1 16 16q-1 15 -16 16v0zM211 416h-102q-46 -1 -77 -32q-31 -32 -32 -79v-9q1 -7 8 -8q7 1 8 8v9q1 41 27 67q26 27 66 28h102q40 -1 66 -28q26 -26 27 -67q0 -26 -13 -47q-13 -22 -35 -35l-95 -61q-24 -14 -25 -43v-47q1 -7 8 -8
q7 1 8 8v47q1 19 17 29l95 61q26 15 41 40q15 26 15 56q-1 47 -32 79q-31 31 -77 32v0z" />
    <glyph glyph-name="question" unicode="?" horiz-adv-x="320" 
d="M144 16q-15 -1 -16 -16q1 -15 16 -16q15 1 16 16q-1 15 -16 16v0zM211 416h-102q-46 -1 -77 -32q-31 -32 -32 -79v-9q1 -7 8 -8q7 1 8 8v9q1 41 27 67q26 27 66 28h102q40 -1 66 -28q26 -26 27 -67q0 -26 -13 -47q-13 -22 -35 -35l-95 -61q-24 -14 -25 -43v-47q1 -7 8 -8
q7 1 8 8v47q1 19 17 29l95 61q26 15 41 40q15 26 15 56q-1 47 -32 79q-31 31 -77 32v0z" />
    <glyph glyph-name="at" unicode="&#x1fa80;" 
d="M263 432q-101 2 -174 -68q-72 -71 -73 -172q1 -67 33 -121t86 -86t121 -33q7 1 8 7q-1 7 -8 8q-62 1 -113 31q-50 31 -80 81q-30 51 -31 113q1 94 68 161q33 32 75 48t88 15q60 -3 109 -34q49 -32 78 -84t30 -116v-10q-1 -29 -20 -48q-19 -18 -48 -19q-29 1 -48 19
q-19 19 -20 48v116q-1 7 -8 7q-7 -1 -8 -7v-41q-14 22 -37 35q-23 14 -51 14q-44 -1 -74 -30q-29 -30 -30 -73q1 -44 30 -73q30 -29 74 -30q31 0 55 16t38 41q8 -25 30 -41q21 -16 49 -16q36 1 59 24q24 24 25 59v9q-1 68 -32 124q-31 55 -83 89q-53 34 -118 37v0zM240 104
q-37 1 -62 26v0q-25 24 -26 61q1 37 26 62q25 24 62 25q37 -1 62 -25q25 -25 26 -62q-1 -37 -26 -61q-25 -25 -62 -26v0z" />
    <glyph glyph-name="at" unicode="&#xf1fa;" 
d="M263 432q-101 2 -174 -68q-72 -71 -73 -172q1 -67 33 -121t86 -86t121 -33q7 1 8 7q-1 7 -8 8q-62 1 -113 31q-50 31 -80 81q-30 51 -31 113q1 94 68 161q33 32 75 48t88 15q60 -3 109 -34q49 -32 78 -84t30 -116v-10q-1 -29 -20 -48q-19 -18 -48 -19q-29 1 -48 19
q-19 19 -20 48v116q-1 7 -8 7q-7 -1 -8 -7v-41q-14 22 -37 35q-23 14 -51 14q-44 -1 -74 -30q-29 -30 -30 -73q1 -44 30 -73q30 -29 74 -30q31 0 55 16t38 41q8 -25 30 -41q21 -16 49 -16q36 1 59 24q24 24 25 59v9q-1 68 -32 124q-31 55 -83 89q-53 34 -118 37v0zM240 104
q-37 1 -62 26v0q-25 24 -26 61q1 37 26 62q25 24 62 25q37 -1 62 -25q25 -25 26 -62q-1 -37 -26 -61q-25 -25 -62 -26v0z" />
    <glyph glyph-name="at" unicode="@" 
d="M263 432q-101 2 -174 -68q-72 -71 -73 -172q1 -67 33 -121t86 -86t121 -33q7 1 8 7q-1 7 -8 8q-62 1 -113 31q-50 31 -80 81q-30 51 -31 113q1 94 68 161q33 32 75 48t88 15q60 -3 109 -34q49 -32 78 -84t30 -116v-10q-1 -29 -20 -48q-19 -18 -48 -19q-29 1 -48 19
q-19 19 -20 48v116q-1 7 -8 7q-7 -1 -8 -7v-41q-14 22 -37 35q-23 14 -51 14q-44 -1 -74 -30q-29 -30 -30 -73q1 -44 30 -73q30 -29 74 -30q31 0 55 16t38 41q8 -25 30 -41q21 -16 49 -16q36 1 59 24q24 24 25 59v9q-1 68 -32 124q-31 55 -83 89q-53 34 -118 37v0zM240 104
q-37 1 -62 26v0q-25 24 -26 61q1 37 26 62q25 24 62 25q37 -1 62 -25q25 -25 26 -62q-1 -37 -26 -61q-25 -25 -62 -26v0z" />
    <glyph glyph-name="a" unicode="a" horiz-adv-x="384" 
d="M383 -21l-184 433q-2 4 -7 4t-7 -4l-184 -433q-3 -7 4 -10t10 4l46 107h262l46 -107q2 -5 6 -5q2 0 3 1q8 3 5 10v0zM68 96l124 292l124 -292h-248v0z" />
    <glyph glyph-name="a" unicode="A" horiz-adv-x="384" 
d="M383 -21l-184 433q-2 4 -7 4t-7 -4l-184 -433q-3 -7 4 -10t10 4l46 107h262l46 -107q2 -5 6 -5q2 0 3 1q8 3 5 10v0zM68 96l124 292l124 -292h-248v0z" />
    <glyph glyph-name="b" unicode="b" horiz-adv-x="320" 
d="M236 202q31 13 49 40v0q19 27 19 62q-1 48 -33 79q-31 32 -79 33h-184q-7 -1 -8 -8v-432q1 -7 8 -8h192q51 1 85 35t35 85q-1 41 -24 71t-60 43v0zM16 400h176q41 -1 68 -28t28 -68q-1 -41 -28 -68t-68 -28h-176v192v0zM200 -16h-184v208h184q44 -1 74 -30q29 -30 30 -74
q-1 -44 -31 -74q-29 -29 -73 -30v0z" />
    <glyph glyph-name="b" unicode="B" horiz-adv-x="320" 
d="M236 202q31 13 49 40v0q19 27 19 62q-1 48 -33 79q-31 32 -79 33h-184q-7 -1 -8 -8v-432q1 -7 8 -8h192q51 1 85 35t35 85q-1 41 -24 71t-60 43v0zM16 400h176q41 -1 68 -28t28 -68q-1 -41 -28 -68t-68 -28h-176v192v0zM200 -16h-184v208h184q44 -1 74 -30q29 -30 30 -74
q-1 -44 -31 -74q-29 -29 -73 -30v0z" />
    <glyph glyph-name="c" unicode="c" horiz-adv-x="384" 
d="M224 -32q-64 1 -114 31v0q-50 30 -80 80v0q-29 51 -30 112q1 62 30 113q30 51 80 81t114 31q51 -1 86 -17q36 -17 55 -34t19 -20q-1 -8 -8 -8q-3 0 -13 9q-15 14 -49 33t-90 21q-90 -2 -148 -61t-60 -147q2 -88 60 -146q58 -59 148 -61q56 2 90 21q35 19 50 33q9 9 12 9
q7 -1 8 -8q0 -4 -19 -21t-54 -34q-36 -16 -87 -17v0z" />
    <glyph glyph-name="c" unicode="C" horiz-adv-x="384" 
d="M224 -32q-64 1 -114 31v0q-50 30 -80 80v0q-29 51 -30 112q1 62 30 113q30 51 80 81t114 31q51 -1 86 -17q36 -17 55 -34t19 -20q-1 -8 -8 -8q-3 0 -13 9q-15 14 -49 33t-90 21q-90 -2 -148 -61t-60 -147q2 -88 60 -146q58 -59 148 -61q56 2 90 21q35 19 50 33q9 9 12 9
q7 -1 8 -8q0 -4 -19 -21t-54 -34q-36 -16 -87 -17v0z" />
    <glyph glyph-name="d" unicode="d" horiz-adv-x="384" 
d="M160 -32h-152q-7 1 -8 8v432q1 7 8 8h152q62 -1 113 -31q50 -29 80 -80q30 -50 31 -112q-1 -62 -31 -113t-80 -81q-51 -30 -113 -31v0zM16 -16h144q88 2 147 61t61 147q-2 88 -61 147t-147 61h-144v-416v0z" />
    <glyph glyph-name="d" unicode="D" horiz-adv-x="384" 
d="M160 -32h-152q-7 1 -8 8v432q1 7 8 8h152q62 -1 113 -31q50 -29 80 -80q30 -50 31 -112q-1 -62 -31 -113t-80 -81q-51 -30 -113 -31v0zM16 -16h144q88 2 147 61t61 147q-2 88 -61 147t-147 61h-144v-416v0z" />
    <glyph glyph-name="e" unicode="e" horiz-adv-x="320" 
d="M320 -24q-1 -7 -8 -8h-304q-7 1 -8 8v432q1 7 8 8h304q7 -1 8 -8q-1 -7 -8 -8h-296v-200h232q7 -1 8 -8q-1 -7 -8 -8h-232v-200h296q7 -1 8 -8v0z" />
    <glyph glyph-name="e" unicode="E" horiz-adv-x="320" 
d="M320 -24q-1 -7 -8 -8h-304q-7 1 -8 8v432q1 7 8 8h304q7 -1 8 -8q-1 -7 -8 -8h-296v-200h232q7 -1 8 -8q-1 -7 -8 -8h-232v-200h296q7 -1 8 -8v0z" />
    <glyph glyph-name="f" unicode="f" horiz-adv-x="320" 
d="M320 408q-1 -7 -8 -8h-296v-209h232q7 0 8 -8q-1 -7 -8 -8h-232v-199q-1 -7 -8 -8q-7 1 -8 8v432q1 7 8 8h304q7 -1 8 -8v0z" />
    <glyph glyph-name="f" unicode="F" horiz-adv-x="320" 
d="M320 408q-1 -7 -8 -8h-296v-209h232q7 0 8 -8q-1 -7 -8 -8h-232v-199q-1 -7 -8 -8q-7 1 -8 8v432q1 7 8 8h304q7 -1 8 -8v0z" />
    <glyph glyph-name="g" unicode="g" horiz-adv-x="448" 
d="M224 -32q-61 1 -111 30v0q-51 28 -81 79v0q-31 50 -32 115q1 65 32 116q31 50 81 79q51 28 110 29q51 -1 87 -17q36 -17 55 -34t19 -20q-1 -8 -8 -8q-3 0 -13 9q-15 14 -49 33t-91 21q-86 -2 -145 -59q-60 -57 -62 -148q3 -92 63 -149q60 -56 144 -58q61 1 107 30
q47 29 74 72q27 44 27 88v1h-200q-7 1 -8 8q1 7 8 8h208q9 -3 9 -10q-1 -70 -37 -118q-35 -48 -87 -72q-51 -25 -100 -25v0z" />
    <glyph glyph-name="g" unicode="G" horiz-adv-x="448" 
d="M224 -32q-61 1 -111 30v0q-51 28 -81 79v0q-31 50 -32 115q1 65 32 116q31 50 81 79q51 28 110 29q51 -1 87 -17q36 -17 55 -34t19 -20q-1 -8 -8 -8q-3 0 -13 9q-15 14 -49 33t-91 21q-86 -2 -145 -59q-60 -57 -62 -148q3 -92 63 -149q60 -56 144 -58q61 1 107 30
q47 29 74 72q27 44 27 88v1h-200q-7 1 -8 8q1 7 8 8h208q9 -3 9 -10q-1 -70 -37 -118q-35 -48 -87 -72q-51 -25 -100 -25v0z" />
    <glyph glyph-name="h" unicode="h" horiz-adv-x="384" 
d="M384 408v-432q-1 -7 -8 -8q-7 1 -8 8v233h-352v-233q-1 -7 -8 -8q-7 1 -8 8v432q1 7 8 8q7 -1 8 -8v-183h352v183q1 7 8 8q7 -1 8 -8v0z" />
    <glyph glyph-name="h" unicode="H" horiz-adv-x="384" 
d="M384 408v-432q-1 -7 -8 -8q-7 1 -8 8v233h-352v-233q-1 -7 -8 -8q-7 1 -8 8v432q1 7 8 8q7 -1 8 -8v-183h352v183q1 7 8 8q7 -1 8 -8v0z" />
    <glyph glyph-name="i" unicode="i" horiz-adv-x="320" 
d="M320 -24q-1 -7 -8 -8h-304q-7 1 -8 8q1 7 8 8h144v416h-144q-7 1 -8 8q1 7 8 8h304q7 -1 8 -8q-1 -7 -8 -8h-144v-416h144q7 -1 8 -8v0z" />
    <glyph glyph-name="i" unicode="I" horiz-adv-x="320" 
d="M320 -24q-1 -7 -8 -8h-304q-7 1 -8 8q1 7 8 8h144v416h-144q-7 1 -8 8q1 7 8 8h304q7 -1 8 -8q-1 -7 -8 -8h-144v-416h144q7 -1 8 -8v0z" />
    <glyph glyph-name="j" unicode="j" horiz-adv-x="320" 
d="M160 -32q-68 2 -113 47v0q-45 45 -47 113v56q1 7 8 8q7 -1 8 -8v-56q2 -61 42 -102q41 -40 102 -42q61 2 102 42q40 41 42 102v280q1 7 8 8q7 -1 8 -8v-280q-2 -68 -47 -113t-113 -47v0z" />
    <glyph glyph-name="j" unicode="J" horiz-adv-x="320" 
d="M160 -32q-68 2 -113 47v0q-45 45 -47 113v56q1 7 8 8q7 -1 8 -8v-56q2 -61 42 -102q41 -40 102 -42q61 2 102 42q40 41 42 102v280q1 7 8 8q7 -1 8 -8v-280q-2 -68 -47 -113t-113 -47v0z" />
    <glyph glyph-name="k" unicode="k" horiz-adv-x="320" 
d="M318 -19q4 -6 -1 -11q-2 -2 -6 -2t-6 3l-181 244l-108 -105v-134q-1 -7 -7 -8q-9 1 -9 8v432q1 7 7 8q7 -1 7 -8v-276l291 282q5 4 11 0q5 -6 0 -12l-180 -176l182 -245v0z" />
    <glyph glyph-name="k" unicode="K" horiz-adv-x="320" 
d="M318 -19q4 -6 -1 -11q-2 -2 -6 -2t-6 3l-181 244l-108 -105v-134q-1 -7 -7 -8q-9 1 -9 8v432q1 7 7 8q7 -1 7 -8v-276l291 282q5 4 11 0q5 -6 0 -12l-180 -176l182 -245v0z" />
    <glyph glyph-name="l" unicode="l" horiz-adv-x="320" 
d="M312 -32h-272q-7 1 -8 8v432q1 7 8 8q7 -1 8 -8v-424h264q7 -1 8 -8q-1 -7 -8 -8v0z" />
    <glyph glyph-name="l" unicode="L" horiz-adv-x="320" 
d="M312 -32h-272q-7 1 -8 8v432q1 7 8 8q7 -1 8 -8v-424h264q7 -1 8 -8q-1 -7 -8 -8v0z" />
    <glyph glyph-name="m" unicode="m" horiz-adv-x="448" 
d="M440 -32q-7 1 -8 7v407l-201 -291q-7 -6 -14 0l-201 291v-406q-1 -7 -8 -7t-8 7v432q0 6 6 8q5 1 9 -3l209 -303l209 303q4 4 9 3q6 -2 6 -8v-431q-1 -9 -8 -9v0z" />
    <glyph glyph-name="m" unicode="M" horiz-adv-x="448" 
d="M440 -32q-7 1 -8 7v407l-201 -291q-7 -6 -14 0l-201 291v-406q-1 -7 -8 -7t-8 7v432q0 6 6 8q5 1 9 -3l209 -303l209 303q4 4 9 3q6 -2 6 -8v-431q-1 -9 -8 -9v0z" />
    <glyph glyph-name="n" unicode="n" horiz-adv-x="384" 
d="M376 -32q-4 0 -6 3l-354 415v-410q-1 -7 -8 -8q-7 1 -8 8v432q0 5 5 7t9 -2l354 -415v410q1 7 8 8q7 -1 8 -8v-432q0 -5 -5 -8h-3v0z" />
    <glyph glyph-name="n" unicode="N" horiz-adv-x="384" 
d="M376 -32q-4 0 -6 3l-354 415v-410q-1 -7 -8 -8q-7 1 -8 8v432q0 5 5 7t9 -2l354 -415v410q1 7 8 8q7 -1 8 -8v-432q0 -5 -5 -8h-3v0z" />
    <glyph glyph-name="o" unicode="o" horiz-adv-x="448" 
d="M224 -32q-62 1 -113 31v0q-50 30 -80 80v0q-30 51 -31 113q1 62 31 113q30 50 80 80q51 30 113 31q62 -1 113 -31q50 -30 80 -80q30 -51 31 -113q-1 -62 -31 -113q-30 -50 -80 -80q-51 -30 -113 -31v0zM224 400q-88 -2 -147 -61v0q-59 -59 -61 -147q2 -88 61 -147
t147 -61q88 2 147 61t61 147q-2 88 -61 147t-147 61v0z" />
    <glyph glyph-name="o" unicode="O" horiz-adv-x="448" 
d="M224 -32q-62 1 -113 31v0q-50 30 -80 80v0q-30 51 -31 113q1 62 31 113q30 50 80 80q51 30 113 31q62 -1 113 -31q50 -30 80 -80q30 -51 31 -113q-1 -62 -31 -113q-30 -50 -80 -80q-51 -30 -113 -31v0zM224 400q-88 -2 -147 -61v0q-59 -59 -61 -147q2 -88 61 -147
t147 -61q88 2 147 61t61 147q-2 88 -61 147t-147 61v0z" />
    <glyph glyph-name="p" unicode="p" horiz-adv-x="320" 
d="M8 -32q-7 1 -8 8v432q1 7 8 8h176q58 -1 96 -40q39 -38 40 -96q-1 -58 -40 -96q-38 -39 -96 -40h-168v-168q-1 -7 -8 -8v0zM16 160h168q51 1 85 35t35 85q-1 51 -35 85t-85 35h-168v-240v0z" />
    <glyph glyph-name="p" unicode="P" horiz-adv-x="320" 
d="M8 -32q-7 1 -8 8v432q1 7 8 8h176q58 -1 96 -40q39 -38 40 -96q-1 -58 -40 -96q-38 -39 -96 -40h-168v-168q-1 -7 -8 -8v0zM16 160h168q51 1 85 35t35 85q-1 51 -35 85t-85 35h-168v-240v0z" />
    <glyph glyph-name="q" unicode="q" horiz-adv-x="448" 
d="M377 29q33 31 52 73v0q19 41 19 90q-1 62 -31 113q-29 50 -80 80q-50 30 -112 31q-62 -1 -112 -31q-51 -30 -81 -80q-30 -51 -30 -113t30 -113q30 -50 81 -80q50 -30 112 -31q82 2 141 50l69 -79q1 -3 5 -3q6 -1 8 8q0 3 -2 5l-69 80v0zM224 -16q-88 2 -147 61v0
q-59 59 -61 147q2 88 61 147t147 61q88 -2 147 -61t61 -147q0 -45 -18 -84q-17 -38 -47 -67l-129 148q-2 3 -6 3q-6 1 -8 -8q0 -3 2 -5l129 -149q-55 -45 -131 -46v0z" />
    <glyph glyph-name="q" unicode="Q" horiz-adv-x="448" 
d="M377 29q33 31 52 73v0q19 41 19 90q-1 62 -31 113q-29 50 -80 80q-50 30 -112 31q-62 -1 -112 -31q-51 -30 -81 -80q-30 -51 -30 -113t30 -113q30 -50 81 -80q50 -30 112 -31q82 2 141 50l69 -79q1 -3 5 -3q6 -1 8 8q0 3 -2 5l-69 80v0zM224 -16q-88 2 -147 61v0
q-59 59 -61 147q2 88 61 147t147 61q88 -2 147 -61t61 -147q0 -45 -18 -84q-17 -38 -47 -67l-129 148q-2 3 -6 3q-6 1 -8 -8q0 -3 2 -5l129 -149q-55 -45 -131 -46v0z" />
    <glyph glyph-name="r" unicode="r" horiz-adv-x="320" 
d="M201 160q51 5 84 41v0q34 35 35 87q-2 54 -38 90q-36 37 -90 38h-185q-6 -1 -7 -8v-432q1 -7 7 -8q6 1 7 8v183h169v0q0 -2 1 -3l119 -184q6 -4 8 -4t4 1q6 5 3 11l-117 180v0zM15 400h176q47 -1 79 -33t33 -79q-1 -48 -33 -80q-32 -31 -79 -33h-176v225v0z" />
    <glyph glyph-name="r" unicode="R" horiz-adv-x="320" 
d="M201 160q51 5 84 41v0q34 35 35 87q-2 54 -38 90q-36 37 -90 38h-185q-6 -1 -7 -8v-432q1 -7 7 -8q6 1 7 8v183h169v0q0 -2 1 -3l119 -184q6 -4 8 -4t4 1q6 5 3 11l-117 180v0zM15 400h176q47 -1 79 -33t33 -79q-1 -48 -33 -80q-32 -31 -79 -33h-176v225v0z" />
    <glyph glyph-name="s" unicode="s" horiz-adv-x="384" 
d="M212 -32q-77 0 -175 37q-6 4 -4 11q3 7 10 4q63 -25 133 -34q69 -9 116 15q35 19 42 60q7 39 -13 62q-19 24 -54 37q-35 14 -77 24v0q-44 11 -82 26t-60 42q-21 27 -14 73q8 42 45 67q70 45 224 6q6 -2 5 -9q-2 -7 -9 -6q-146 36 -211 -5q-19 -13 -28 -28q-8 -15 -10 -27
q-7 -40 13 -63q19 -23 54 -36q35 -14 77 -24v0q44 -11 82 -26q38 -16 60 -42q21 -27 14 -74q-9 -48 -50 -71q-34 -19 -88 -19v0z" />
    <glyph glyph-name="s" unicode="S" horiz-adv-x="384" 
d="M212 -32q-77 0 -175 37q-6 4 -4 11q3 7 10 4q63 -25 133 -34q69 -9 116 15q35 19 42 60q7 39 -13 62q-19 24 -54 37q-35 14 -77 24v0q-44 11 -82 26t-60 42q-21 27 -14 73q8 42 45 67q70 45 224 6q6 -2 5 -9q-2 -7 -9 -6q-146 36 -211 -5q-19 -13 -28 -28q-8 -15 -10 -27
q-7 -40 13 -63q19 -23 54 -36q35 -14 77 -24v0q44 -11 82 -26q38 -16 60 -42q21 -27 14 -74q-9 -48 -50 -71q-34 -19 -88 -19v0z" />
    <glyph glyph-name="t" unicode="t" horiz-adv-x="384" 
d="M384 408q-1 -7 -8 -8h-176v-424q-1 -7 -8 -8q-7 1 -8 8v424h-176q-7 1 -8 8q1 7 8 8h368q7 -1 8 -8v0z" />
    <glyph glyph-name="t" unicode="T" horiz-adv-x="384" 
d="M384 408q-1 -7 -8 -8h-176v-424q-1 -7 -8 -8q-7 1 -8 8v424h-176q-7 1 -8 8q1 7 8 8h368q7 -1 8 -8v0z" />
    <glyph glyph-name="u" unicode="u" horiz-adv-x="384" 
d="M192 -32q-81 2 -136 56v0q-54 55 -56 136v248q1 7 8 8q7 -1 8 -8v-248q2 -75 52 -124q49 -50 124 -52q75 2 124 52q50 49 52 124v248q1 7 8 8q7 -1 8 -8v-248q-2 -81 -56 -136q-55 -54 -136 -56v0z" />
    <glyph glyph-name="u" unicode="U" horiz-adv-x="384" 
d="M192 -32q-81 2 -136 56v0q-54 55 -56 136v248q1 7 8 8q7 -1 8 -8v-248q2 -75 52 -124q49 -50 124 -52q75 2 124 52q50 49 52 124v248q1 7 8 8q7 -1 8 -8v-248q-2 -81 -56 -136q-55 -54 -136 -56v0z" />
    <glyph glyph-name="v" unicode="v" horiz-adv-x="384" 
d="M192 -32q-5 0 -7 5l-184 432q-3 7 4 10t10 -4l177 -415l177 415q3 7 10 4t4 -10l-183 -432q-3 -5 -8 -5v0z" />
    <glyph glyph-name="v" unicode="V" horiz-adv-x="384" 
d="M192 -32q-5 0 -7 5l-184 432q-3 7 4 10t10 -4l177 -415l177 415q3 7 10 4t4 -10l-183 -432q-3 -5 -8 -5v0z" />
    <glyph glyph-name="w" unicode="w" horiz-adv-x="576" 
d="M416 -32v0v0q-1 0 0 0q-6 0 -8 6l-120 406l-120 -406q-2 -6 -8 -6q-5 0 -8 5l-152 432q-1 7 5 11q7 1 11 -5l143 -409l121 408q2 5 8 5t8 -5l120 -408l144 409q3 6 10 5q6 -3 5 -11l-151 -431q-3 -6 -8 -6v0z" />
    <glyph glyph-name="w" unicode="W" horiz-adv-x="576" 
d="M416 -32v0v0q-1 0 0 0q-6 0 -8 6l-120 406l-120 -406q-2 -6 -8 -6q-5 0 -8 5l-152 432q-1 7 5 11q7 1 11 -5l143 -409l121 408q2 5 8 5t8 -5l120 -408l144 409q3 6 10 5q6 -3 5 -11l-151 -431q-3 -6 -8 -6v0z" />
    <glyph glyph-name="x" unicode="x" horiz-adv-x="384" 
d="M382 -19q4 -6 -1 -11q-2 -2 -5 -2q-4 0 -6 3l-178 209l-178 -209q-2 -3 -6 -3q-3 0 -5 2q-5 5 -1 11l180 211l-180 211q-4 6 1 11q6 4 11 -1l178 -209l178 209q5 5 11 1q5 -5 1 -11l-180 -211l180 -211v0z" />
    <glyph glyph-name="x" unicode="X" horiz-adv-x="384" 
d="M382 -19q4 -6 -1 -11q-2 -2 -5 -2q-4 0 -6 3l-178 209l-178 -209q-2 -3 -6 -3q-3 0 -5 2q-5 5 -1 11l180 211l-180 211q-4 6 1 11q6 4 11 -1l178 -209l178 209q5 5 11 1q5 -5 1 -11l-180 -211l180 -211v0z" />
    <glyph glyph-name="y" unicode="y" horiz-adv-x="384" 
d="M382 403l-182 -246v-181q-1 -7 -8 -8q-7 1 -8 8v181l-182 246q-4 7 1 11q7 4 11 -1l178 -240l178 240q5 5 11 1q5 -4 1 -11v0z" />
    <glyph glyph-name="y" unicode="Y" horiz-adv-x="384" 
d="M382 403l-182 -246v-181q-1 -7 -8 -8q-7 1 -8 8v181l-182 246q-4 7 1 11q7 4 11 -1l178 -240l178 240q5 5 11 1q5 -4 1 -11v0z" />
    <glyph glyph-name="z" unicode="z" horiz-adv-x="384" 
d="M376 -32h-368q-5 0 -7 5q-2 4 1 8l357 419h-351q-7 1 -8 8q1 7 8 8h368q5 0 7 -5q2 -4 -1 -8l-357 -419h351q7 -1 8 -8q-1 -7 -8 -8v0z" />
    <glyph glyph-name="z" unicode="Z" horiz-adv-x="384" 
d="M376 -32h-368q-5 0 -7 5q-2 4 1 8l357 419h-351q-7 1 -8 8q1 7 8 8h368q5 0 7 -5q2 -4 -1 -8l-357 -419h351q7 -1 8 -8q-1 -7 -8 -8v0z" />
    <glyph glyph-name="bracket-square" unicode="[" horiz-adv-x="192" 
d="M40 400h80q7 1 8 8q-1 7 -8 8h-80q-17 0 -28 -12q-12 -11 -12 -28v-368q0 -17 12 -28q11 -12 28 -12h80q7 1 8 8q-1 7 -8 8h-80q-22 2 -24 24v368q2 22 24 24v0z" />
    <glyph glyph-name="slash-back" unicode="\" horiz-adv-x="320" 
d="M316 -63q-2 -1 -4 -1q-4 0 -7 4l-304 496q-3 6 3 11q6 3 11 -3l304 -496q3 -6 -3 -11v0z" />
    <glyph glyph-name="bracket-square-right" unicode="]" horiz-adv-x="192" 
d="M176 376v-368q-2 -22 -24 -24h-80q-7 -1 -8 -8q1 -7 8 -8h80q17 0 28 12q12 11 12 28v368q0 17 -12 28q-11 12 -28 12h-80q-7 -1 -8 -8q1 -7 8 -8h80q22 -2 24 -24v0z" />
    <glyph glyph-name="accent-grave" unicode="`" horiz-adv-x="192" 
d="M95 432q11 0 20 -5q18 -11 22 -31l23 -132q1 -16 -13 -23q-4 -1 -7 -1q-12 0 -18 10l-68 115q-10 19 -3 38q5 13 17 21t27 8v0zM95 448q-20 0 -36 -11v0q-16 -10 -22 -28q-11 -27 3 -52l68 -115q11 -18 32 -18q6 0 12 2q26 12 23 40l-22 132q-5 28 -30 42q-13 8 -28 8v0
v0z" />
    <glyph glyph-name="bracket-curly" unicode="{" horiz-adv-x="256" 
d="M80 295v49q1 24 16 40q16 15 40 16h48q7 1 8 8q-1 7 -8 8h-48q-31 -1 -51 -21t-21 -51v-48q0 -32 -16 -57q-16 -26 -44 -40q-4 -2 -4 -7t4 -7q28 -14 44 -40q16 -25 16 -57v-48q1 -31 21 -51t51 -21h48q7 1 8 8q-1 7 -8 8h-48q-24 1 -40 16q-15 16 -16 40v48q0 33 -15 60
t-41 44q26 17 41 44t15 59v0z" />
    <glyph glyph-name="pipe" unicode="|" horiz-adv-x="64" 
d="M40 440v-496q-1 -7 -8 -8q-7 1 -8 8v496q1 7 8 8q7 -1 8 -8v0z" />
    <glyph glyph-name="bracket-curly-right" unicode="}" horiz-adv-x="256" 
d="M232 192q-26 -17 -41 -44v0q-15 -27 -15 -60v-48q-1 -24 -16 -40q-16 -15 -40 -16h-48q-7 -1 -8 -8q1 -7 8 -8h48q31 1 51 21t21 51v48q0 32 16 57q16 26 44 40q4 2 4 7t-4 7q-28 14 -44 40q-16 25 -16 56v49q-1 31 -21 51t-51 21h-48q-7 -1 -8 -8q1 -7 8 -8h48
q24 -1 40 -16q15 -16 16 -40v-48q0 -33 15 -60t41 -44v0z" />
    <glyph glyph-name="tilde" unicode="&#xf69f;" horiz-adv-x="448" 
d="M448 288v-84q-1 -46 -32 -76q-30 -31 -76 -32q-58 1 -91 45l-65 92q-29 38 -76 39q-39 -1 -65 -27t-27 -65v-84q-1 -7 -8 -8q-7 1 -8 8v84q1 46 32 76q30 31 76 32q55 -1 89 -45l65 -92q29 -38 76 -39q40 1 67 27q26 26 27 65v84q1 7 8 8q7 -1 8 -8v0z" />
    <glyph glyph-name="tilde" unicode="~" horiz-adv-x="448" 
d="M448 288v-84q-1 -46 -32 -76q-30 -31 -76 -32q-58 1 -91 45l-65 92q-29 38 -76 39q-39 -1 -65 -27t-27 -65v-84q-1 -7 -8 -8q-7 1 -8 8v84q1 46 32 76q30 31 76 32q55 -1 89 -45l65 -92q29 -38 76 -39q40 1 67 27q26 26 27 65v84q1 7 8 8q7 -1 8 -8v0z" />
    <glyph glyph-name="cent-sign" unicode="&#xa2;" horiz-adv-x="320" 
d="M318 54q4 -6 -1 -11q-53 -41 -117 -43v-56q-1 -7 -8 -8q-7 1 -8 8v57q-72 3 -127 55q-56 57 -57 136q1 79 57 136q55 52 127 56v56q1 7 8 8q7 -1 8 -8v-57q64 -1 117 -42q5 -5 1 -11q-5 -6 -11 -2q-56 43 -122 40t-117 -52q-51 -51 -52 -124q1 -73 52 -124
q51 -49 117 -52q67 -3 122 40q6 4 11 -2v0z" />
    <glyph glyph-name="sterling-sign" unicode="&#xf154;" horiz-adv-x="320" 
d="M320 -24q-1 -7 -8 -8h-304q-5 0 -7 5q-2 4 1 8q38 42 58 94q20 51 20 108v9h-72q-7 1 -8 8q1 7 8 8h72v110q1 42 29 69q27 28 69 29q15 0 30 -5l83 -27q6 -3 5 -11q-3 -6 -11 -5l-82 28q-12 4 -25 4q-35 -1 -58 -24t-24 -58v-110h152q7 -1 8 -8q-1 -7 -8 -8h-152v-9
q-1 -112 -71 -199h287q7 -1 8 -8v0z" />
    <glyph glyph-name="sterling-sign" unicode="&#xa3;" horiz-adv-x="320" 
d="M320 -24q-1 -7 -8 -8h-304q-5 0 -7 5q-2 4 1 8q38 42 58 94q20 51 20 108v9h-72q-7 1 -8 8q1 7 8 8h72v110q1 42 29 69q27 28 69 29q15 0 30 -5l83 -27q6 -3 5 -11q-3 -6 -11 -5l-82 28q-12 4 -25 4q-35 -1 -58 -24t-24 -58v-110h152q7 -1 8 -8q-1 -7 -8 -8h-152v-9
q-1 -112 -71 -199h287q7 -1 8 -8v0z" />
    <glyph glyph-name="yen-sign" unicode="&#xf157;" horiz-adv-x="320" 
d="M319 403l-144 -203h121q7 -1 8 -8q-1 -7 -8 -8h-128v-80h128q7 -1 8 -8q-1 -7 -8 -8h-128v-112q-1 -7 -8 -8q-7 1 -8 8v111h-128q-7 1 -8 8q1 7 8 8h128v80h-128q-7 1 -8 8q1 7 8 8h121l-144 204q-3 7 2 12q7 3 12 -2l145 -207l146 207q4 5 11 2q5 -5 2 -12v0z" />
    <glyph glyph-name="yen-sign" unicode="&#xa5;" horiz-adv-x="320" 
d="M319 403l-144 -203h121q7 -1 8 -8q-1 -7 -8 -8h-128v-80h128q7 -1 8 -8q-1 -7 -8 -8h-128v-112q-1 -7 -8 -8q-7 1 -8 8v111h-128q-7 1 -8 8q1 7 8 8h128v80h-128q-7 1 -8 8q1 7 8 8h121l-144 204q-3 7 2 12q7 3 12 -2l145 -207l146 207q4 5 11 2q5 -5 2 -12v0z" />
    <glyph glyph-name="section" unicode="&#xa7;" horiz-adv-x="256" 
d="M188 103q56 16 66 65q6 37 -11 58q-18 22 -49 33q-31 12 -64 21v0l-16 4q-53 13 -78 33q-25 19 -19 55q8 35 45 50t95 7q23 -3 59 -15q7 -1 10 6q1 7 -6 10q-36 12 -60 15q-66 9 -108 -10q-42 -18 -50 -60q-6 -40 14 -61q21 -22 52 -33q-56 -16 -66 -64q-6 -37 11 -58
t44 -33q27 -11 53 -17v0l16 -4q50 -12 84 -31q35 -19 29 -63q-8 -34 -45 -49t-95 -7q-39 7 -76 21l-12 4q-7 1 -10 -5q-1 -8 5 -10l12 -4l1 -1q39 -14 78 -21q21 -3 40 -3q49 0 80 19t38 54q5 38 -14 60q-20 22 -53 34v0zM114 124q-53 14 -78 33v0q-25 20 -19 56
q11 50 82 58q4 -1 15 -4q10 -3 12 -3v0q50 -11 84 -30q35 -19 29 -63q-12 -50 -82 -58q-9 2 -25 6q-16 5 -18 5v0v0z" />
    <glyph glyph-name="copyright" unicode="&#xf1f9;" 
d="M316 282q7 -3 11 3q3 7 -3 11q-36 20 -76 15q-39 -5 -69 -34q-34 -35 -35 -85q1 -50 35 -85q37 -34 85 -35q31 0 60 16q6 4 3 11q-4 6 -11 3q-31 -18 -66 -13q-34 4 -60 29q-30 31 -30 74t30 74q26 25 60 29q35 5 66 -13v0zM256 448q-72 -1 -129 -35v0q-58 -34 -92 -92v0
q-34 -57 -35 -129q1 -72 35 -129q34 -58 92 -92q57 -34 129 -35q72 1 129 35q58 34 92 92q34 57 35 129q-1 72 -35 129q-34 58 -92 92q-57 34 -129 35v0zM256 -48q-67 1 -121 33v0q-54 32 -86 86v0q-32 54 -33 121q1 67 33 121t86 86t121 33q67 -1 121 -33t86 -86t33 -121
q-1 -67 -33 -121t-86 -86t-121 -33v0z" />
    <glyph glyph-name="copyright" unicode="&#xa9;" 
d="M316 282q7 -3 11 3q3 7 -3 11q-36 20 -76 15q-39 -5 -69 -34q-34 -35 -35 -85q1 -50 35 -85q37 -34 85 -35q31 0 60 16q6 4 3 11q-4 6 -11 3q-31 -18 -66 -13q-34 4 -60 29q-30 31 -30 74t30 74q26 25 60 29q35 5 66 -13v0zM256 448q-72 -1 -129 -35v0q-58 -34 -92 -92v0
q-34 -57 -35 -129q1 -72 35 -129q34 -58 92 -92q57 -34 129 -35q72 1 129 35q58 34 92 92q34 57 35 129q-1 72 -35 129q-34 58 -92 92q-57 34 -129 35v0zM256 -48q-67 1 -121 33v0q-54 32 -86 86v0q-32 54 -33 121q1 67 33 121t86 86t121 33q67 -1 121 -33t86 -86t33 -121
q-1 -67 -33 -121t-86 -86t-121 -33v0z" />
    <glyph glyph-name="angles-left" unicode="&#xf100;" horiz-adv-x="448" 
d="M190 45l-139 148l139 145q4 6 0 12q-6 4 -12 0l-144 -153q-2 -1 -2 -4t2 -6l144 -152q6 -4 12 0q4 5 0 10v0zM226 197q-2 -2 -2 -5t2 -6l144 -152q6 -4 12 0q4 6 0 11l-139 147l139 146q4 6 0 12q-6 4 -12 0l-144 -153v0z" />
    <glyph glyph-name="angles-left" unicode="&#xab;" horiz-adv-x="448" 
d="M190 45l-139 148l139 145q4 6 0 12q-6 4 -12 0l-144 -153q-2 -1 -2 -4t2 -6l144 -152q6 -4 12 0q4 5 0 10v0zM226 197q-2 -2 -2 -5t2 -6l144 -152q6 -4 12 0q4 6 0 11l-139 147l139 146q4 6 0 12q-6 4 -12 0l-144 -153v0z" />
    <glyph glyph-name="corner" unicode="&#xac;" horiz-adv-x="448" 
d="M440 64q-7 1 -8 8v168h-424q-7 1 -8 8q1 7 8 8h432q7 -1 8 -8v-176q-1 -7 -8 -8v0z" />
    <glyph glyph-name="registered" unicode="&#xf25d;" 
d="M360 240q-1 34 -23 57v0q-23 22 -57 23h-96q-22 -2 -24 -24v-224q1 -7 8 -8q7 1 8 8v88h104h2h1l62 -92q4 -6 11 -3q6 5 3 11l-58 87q26 8 42 28q16 21 17 49v0zM280 176h-104v120q1 7 8 8h96q27 -1 45 -19t19 -45q-1 -27 -19 -45t-45 -19v0zM256 448q-72 -1 -129 -35v0
q-58 -34 -92 -92v0q-34 -57 -35 -129q1 -72 35 -129q34 -58 92 -92q57 -34 129 -35q72 1 129 35q58 34 92 92q34 57 35 129q-1 72 -35 129q-34 58 -92 92q-57 34 -129 35v0zM256 -48q-67 1 -121 33v0q-54 32 -86 86v0q-32 54 -33 121q1 67 33 121t86 86t121 33
q67 -1 121 -33t86 -86t33 -121q-1 -67 -33 -121t-86 -86t-121 -33v0z" />
    <glyph glyph-name="registered" unicode="&#xae;" 
d="M360 240q-1 34 -23 57v0q-23 22 -57 23h-96q-22 -2 -24 -24v-224q1 -7 8 -8q7 1 8 8v88h104h2h1l62 -92q4 -6 11 -3q6 5 3 11l-58 87q26 8 42 28q16 21 17 49v0zM280 176h-104v120q1 7 8 8h96q27 -1 45 -19t19 -45q-1 -27 -19 -45t-45 -19v0zM256 448q-72 -1 -129 -35v0
q-58 -34 -92 -92v0q-34 -57 -35 -129q1 -72 35 -129q34 -58 92 -92q57 -34 129 -35q72 1 129 35q58 34 92 92q34 57 35 129q-1 72 -35 129q-34 58 -92 92q-57 34 -129 35v0zM256 -48q-67 1 -121 33v0q-54 32 -86 86v0q-32 54 -33 121q1 67 33 121t86 86t121 33
q67 -1 121 -33t86 -86t33 -121q-1 -67 -33 -121t-86 -86t-121 -33v0z" />
    <glyph glyph-name="plus-minus" unicode="&#xb1;" horiz-adv-x="384" 
d="M16 248h168v-168q1 -7 8 -8q7 1 8 8v168h168q7 1 8 8q-1 7 -8 8h-168v168q-1 7 -8 8q-7 -1 -8 -8v-168h-168q-7 -1 -8 -8q1 -7 8 -8v0zM368 -16h-352q-7 -1 -8 -8q1 -7 8 -8h352q7 1 8 8q-1 7 -8 8v0z" />
    <glyph glyph-name="paragraph" unicode="&#xf1dd;" horiz-adv-x="448" 
d="M440 416h-264q-61 -2 -102 -42q-40 -41 -42 -102q2 -61 42 -102q41 -40 102 -42h72v-152q1 -7 8 -8q7 1 8 8v424h80v-424q1 -7 8 -8q7 1 8 8v424h80q7 1 8 8q-1 7 -8 8v0zM248 144h-72q-54 1 -90 38q-37 36 -38 90q1 54 38 90q36 37 90 38h72v-256v0z" />
    <glyph glyph-name="paragraph" unicode="&#xb6;" horiz-adv-x="448" 
d="M440 416h-264q-61 -2 -102 -42q-40 -41 -42 -102q2 -61 42 -102q41 -40 102 -42h72v-152q1 -7 8 -8q7 1 8 8v424h80v-424q1 -7 8 -8q7 1 8 8v424h80q7 1 8 8q-1 7 -8 8v0zM248 144h-72q-54 1 -90 38q-37 36 -38 90q1 54 38 90q36 37 90 38h72v-256v0z" />
    <glyph glyph-name="angles-right" unicode="&#xf101;" horiz-adv-x="448" 
d="M258 338l139 -146l-139 -147q-4 -5 0 -11q6 -4 12 0l144 152q2 2 2 5q0 2 -2 6l-144 153q-6 4 -12 0q-4 -6 0 -12v0zM222 186q1 3 1 5v0v1q0 2 -2 6l-143 152q-6 4 -12 0q-4 -6 0 -12l139 -146l-139 -147q-4 -5 0 -11q6 -4 12 0l144 152v0z" />
    <glyph glyph-name="angles-right" unicode="&#xbb;" horiz-adv-x="448" 
d="M258 338l139 -146l-139 -147q-4 -5 0 -11q6 -4 12 0l144 152q2 2 2 5q0 2 -2 6l-144 153q-6 4 -12 0q-4 -6 0 -12v0zM222 186q1 3 1 5v0v1q0 2 -2 6l-143 152q-6 4 -12 0q-4 -6 0 -12l139 -146l-139 -147q-4 -5 0 -11q6 -4 12 0l144 152v0z" />
    <glyph glyph-name="xmark" unicode="&#x1f5d9;" horiz-adv-x="320" 
d="M318 46q4 -6 0 -12q-6 -4 -12 0l-146 147l-146 -147q-6 -4 -12 0q-4 6 0 12l147 146l-147 146q-4 6 0 12q6 4 12 0l146 -147l146 147q6 4 12 0q4 -6 0 -12l-147 -146l147 -146v0z" />
    <glyph glyph-name="xmark" unicode="&#xf00d;" horiz-adv-x="320" 
d="M318 46q4 -6 0 -12q-6 -4 -12 0l-146 147l-146 -147q-6 -4 -12 0q-4 6 0 12l147 146l-147 146q-4 6 0 12q6 4 12 0l146 -147l146 147q6 4 12 0q4 -6 0 -12l-147 -146l147 -146v0z" />
    <glyph glyph-name="xmark" unicode="&#x274c;" horiz-adv-x="320" 
d="M318 46q4 -6 0 -12q-6 -4 -12 0l-146 147l-146 -147q-6 -4 -12 0q-4 6 0 12l147 146l-147 146q-4 6 0 12q6 4 12 0l146 -147l146 147q6 4 12 0q4 -6 0 -12l-147 -146l147 -146v0z" />
    <glyph glyph-name="xmark" unicode="&#x2716;" horiz-adv-x="320" 
d="M318 46q4 -6 0 -12q-6 -4 -12 0l-146 147l-146 -147q-6 -4 -12 0q-4 6 0 12l147 146l-147 146q-4 6 0 12q6 4 12 0l146 -147l146 147q6 4 12 0q4 -6 0 -12l-147 -146l147 -146v0z" />
    <glyph glyph-name="xmark" unicode="&#x2715;" horiz-adv-x="320" 
d="M318 46q4 -6 0 -12q-6 -4 -12 0l-146 147l-146 -147q-6 -4 -12 0q-4 6 0 12l147 146l-147 146q-4 6 0 12q6 4 12 0l146 -147l146 147q6 4 12 0q4 -6 0 -12l-147 -146l147 -146v0z" />
    <glyph glyph-name="xmark" unicode="&#xd7;" horiz-adv-x="320" 
d="M318 46q4 -6 0 -12q-6 -4 -12 0l-146 147l-146 -147q-6 -4 -12 0q-4 6 0 12l147 146l-147 146q-4 6 0 12q6 4 12 0l146 -147l146 147q6 4 12 0q4 -6 0 -12l-147 -146l147 -146v0z" />
    <glyph glyph-name="empty-set" unicode="&#xf656;" 
d="M486 422q-6 4 -12 0l-77 -78q-57 54 -141 56q-88 -2 -147 -61t-61 -147q2 -84 56 -141l-78 -77q-4 -6 0 -12q3 -2 6 -2t6 2l77 78q57 -54 141 -56q88 2 147 61t61 147q-2 84 -56 141l78 77q4 6 0 12v0zM64 192q2 81 56 136v0q55 54 136 56q77 -2 130 -51l-271 -271
q-49 53 -51 130v0zM448 192q-2 -81 -56 -136v0q-55 -54 -136 -56q-77 2 -130 51l271 271q49 -53 51 -130v0z" />
    <glyph glyph-name="empty-set" unicode="&#x2205;" 
d="M486 422q-6 4 -12 0l-77 -78q-57 54 -141 56q-88 -2 -147 -61t-61 -147q2 -84 56 -141l-78 -77q-4 -6 0 -12q3 -2 6 -2t6 2l77 78q57 -54 141 -56q88 2 147 61t61 147q-2 84 -56 141l78 77q4 6 0 12v0zM64 192q2 81 56 136v0q55 54 136 56q77 -2 130 -51l-271 -271
q-49 53 -51 130v0zM448 192q-2 -81 -56 -136v0q-55 -54 -136 -56q-77 2 -130 51l271 271q49 -53 51 -130v0z" />
    <glyph glyph-name="empty-set" unicode="&#xd8;" 
d="M486 422q-6 4 -12 0l-77 -78q-57 54 -141 56q-88 -2 -147 -61t-61 -147q2 -84 56 -141l-78 -77q-4 -6 0 -12q3 -2 6 -2t6 2l77 78q57 -54 141 -56q88 2 147 61t61 147q-2 84 -56 141l78 77q4 6 0 12v0zM64 192q2 81 56 136v0q55 54 136 56q77 -2 130 -51l-271 -271
q-49 53 -51 130v0zM448 192q-2 -81 -56 -136v0q-55 -54 -136 -56q-77 2 -130 51l271 271q49 -53 51 -130v0z" />
    <glyph glyph-name="divide" unicode="&#xf529;" horiz-adv-x="448" 
d="M224 256q27 1 45 19v0q18 18 19 45q-1 27 -19 45t-45 19q-27 -1 -45 -19t-19 -45q1 -27 19 -45t45 -19v0zM224 368q20 -1 34 -14v0q13 -14 14 -34q-1 -20 -14 -34q-14 -13 -34 -14q-20 1 -34 14q-13 14 -14 34q1 20 14 34q14 13 34 14v0zM440 200h-432q-7 -1 -8 -8
q1 -7 8 -8h432q7 1 8 8q-1 7 -8 8v0zM224 128q-27 -1 -45 -19v0q-18 -18 -19 -45q1 -27 19 -45t45 -19q27 1 45 19t19 45q-1 27 -19 45t-45 19v0zM224 16q-20 1 -34 14v0q-13 14 -14 34q1 20 14 34q14 13 34 14q20 -1 34 -14q13 -14 14 -34q-1 -20 -14 -34q-14 -13 -34 -14
v0z" />
    <glyph glyph-name="divide" unicode="&#x2797;" horiz-adv-x="448" 
d="M224 256q27 1 45 19v0q18 18 19 45q-1 27 -19 45t-45 19q-27 -1 -45 -19t-19 -45q1 -27 19 -45t45 -19v0zM224 368q20 -1 34 -14v0q13 -14 14 -34q-1 -20 -14 -34q-14 -13 -34 -14q-20 1 -34 14q-13 14 -14 34q1 20 14 34q14 13 34 14v0zM440 200h-432q-7 -1 -8 -8
q1 -7 8 -8h432q7 1 8 8q-1 7 -8 8v0zM224 128q-27 -1 -45 -19v0q-18 -18 -19 -45q1 -27 19 -45t45 -19q27 1 45 19t19 45q-1 27 -19 45t-45 19v0zM224 16q-20 1 -34 14v0q-13 14 -14 34q1 20 14 34q14 13 34 14q20 -1 34 -14q13 -14 14 -34q-1 -20 -14 -34q-14 -13 -34 -14
v0z" />
    <glyph glyph-name="divide" unicode="&#xf7;" horiz-adv-x="448" 
d="M224 256q27 1 45 19v0q18 18 19 45q-1 27 -19 45t-45 19q-27 -1 -45 -19t-19 -45q1 -27 19 -45t45 -19v0zM224 368q20 -1 34 -14v0q13 -14 14 -34q-1 -20 -14 -34q-14 -13 -34 -14q-20 1 -34 14q-13 14 -14 34q1 20 14 34q14 13 34 14v0zM440 200h-432q-7 -1 -8 -8
q1 -7 8 -8h432q7 1 8 8q-1 7 -8 8v0zM224 128q-27 -1 -45 -19v0q-18 -18 -19 -45q1 -27 19 -45t45 -19q27 1 45 19t19 45q-1 27 -19 45t-45 19v0zM224 16q-20 1 -34 14v0q-13 14 -14 34q1 20 14 34q14 13 34 14q20 -1 34 -14q13 -14 14 -34q-1 -20 -14 -34q-14 -13 -34 -14
v0z" />
    <glyph glyph-name="minus" unicode="&#xf068;" horiz-adv-x="448" 
d="M24 184h400q7 1 8 8q-1 7 -8 8h-400q-7 -1 -8 -8q1 -7 8 -8v0z" />
    <glyph glyph-name="minus" unicode="&#x2796;" horiz-adv-x="448" 
d="M24 184h400q7 1 8 8q-1 7 -8 8h-400q-7 -1 -8 -8q1 -7 8 -8v0z" />
    <glyph glyph-name="minus" unicode="&#x2212;" horiz-adv-x="448" 
d="M24 184h400q7 1 8 8q-1 7 -8 8h-400q-7 -1 -8 -8q1 -7 8 -8v0z" />
    <glyph glyph-name="minus" unicode="&#x2013;" horiz-adv-x="448" 
d="M24 184h400q7 1 8 8q-1 7 -8 8h-400q-7 -1 -8 -8q1 -7 8 -8v0z" />
    <glyph glyph-name="dash" unicode="&#x2014;" 
d="M512 192q-1 -7 -8 -8h-496q-7 1 -8 8q1 7 8 8h496q7 -1 8 -8v0z" />
    <glyph glyph-name="horizontal-rule" unicode="&#xf86c;" horiz-adv-x="640" 
d="M640 193q-1 -7 -8 -8h-624q-7 1 -8 8q1 7 8 8h624q7 -1 8 -8v0z" />
    <glyph glyph-name="horizontal-rule" unicode="&#x2015;" horiz-adv-x="640" 
d="M640 193q-1 -7 -8 -8h-624q-7 1 -8 8q1 7 8 8h624q7 -1 8 -8v0z" />
    <glyph glyph-name="quote-left" unicode="&#xf10d;" horiz-adv-x="448" 
d="M352 224q-52 -2 -80 -43v51q1 44 30 74q30 29 74 30q7 1 8 8q-1 7 -8 8q-51 -1 -85 -35t-35 -85v-104q1 -41 28 -68t68 -28q41 1 68 28t28 68q-1 41 -28 68t-68 28v0zM352 48q-34 1 -57 23v0q-22 23 -23 57q1 34 23 57q23 22 57 23q34 -1 57 -23q22 -23 23 -57
q-1 -34 -23 -57q-23 -22 -57 -23v0zM96 224q-52 -2 -80 -43v51q1 44 30 74q30 29 74 30q7 1 8 8q-1 7 -8 8q-51 -1 -85 -35t-35 -85v-104q1 -41 28 -68t68 -28q41 1 68 28t28 68q-1 41 -28 68t-68 28v0zM96 48q-34 1 -57 23v0q-22 23 -23 57q1 34 23 57q23 22 57 23
q34 -1 57 -23q22 -23 23 -57q-1 -34 -23 -57q-23 -22 -57 -23v0z" />
    <glyph glyph-name="quote-left" unicode="&#x201c;" horiz-adv-x="448" 
d="M352 224q-52 -2 -80 -43v51q1 44 30 74q30 29 74 30q7 1 8 8q-1 7 -8 8q-51 -1 -85 -35t-35 -85v-104q1 -41 28 -68t68 -28q41 1 68 28t28 68q-1 41 -28 68t-68 28v0zM352 48q-34 1 -57 23v0q-22 23 -23 57q1 34 23 57q23 22 57 23q34 -1 57 -23q22 -23 23 -57
q-1 -34 -23 -57q-23 -22 -57 -23v0zM96 224q-52 -2 -80 -43v51q1 44 30 74q30 29 74 30q7 1 8 8q-1 7 -8 8q-51 -1 -85 -35t-35 -85v-104q1 -41 28 -68t68 -28q41 1 68 28t28 68q-1 41 -28 68t-68 28v0zM96 48q-34 1 -57 23v0q-22 23 -23 57q1 34 23 57q23 22 57 23
q34 -1 57 -23q22 -23 23 -57q-1 -34 -23 -57q-23 -22 -57 -23v0z" />
    <glyph glyph-name="quote-right" unicode="&#xf10e;" horiz-adv-x="448" 
d="M96 352q-41 -1 -68 -28v0q-27 -27 -28 -68q1 -41 28 -68t68 -28q52 2 80 43v-51q-1 -44 -30 -74q-30 -29 -74 -30q-7 -1 -8 -8q1 -7 8 -8q51 1 85 35t35 85v104q-1 41 -28 68t-68 28v0zM96 176q-34 1 -57 23v0q-22 23 -23 57q1 34 23 57q23 22 57 23q34 -1 57 -23
q22 -23 23 -57q-1 -34 -23 -57q-23 -22 -57 -23v0zM352 352q-41 -1 -68 -28v0q-27 -27 -28 -68q1 -41 28 -68t68 -28q52 2 80 43v-51q-1 -44 -30 -74q-30 -29 -74 -30q-7 -1 -8 -8q1 -7 8 -8q51 1 85 35t35 85v104q-1 41 -28 68t-68 28v0zM352 176q-34 1 -57 23v0
q-22 23 -23 57q1 34 23 57q23 22 57 23q34 -1 57 -23q22 -23 23 -57q-1 -34 -23 -57q-23 -22 -57 -23v0z" />
    <glyph glyph-name="quote-right" unicode="&#x201d;" horiz-adv-x="448" 
d="M96 352q-41 -1 -68 -28v0q-27 -27 -28 -68q1 -41 28 -68t68 -28q52 2 80 43v-51q-1 -44 -30 -74q-30 -29 -74 -30q-7 -1 -8 -8q1 -7 8 -8q51 1 85 35t35 85v104q-1 41 -28 68t-68 28v0zM96 176q-34 1 -57 23v0q-22 23 -23 57q1 34 23 57q23 22 57 23q34 -1 57 -23
q22 -23 23 -57q-1 -34 -23 -57q-23 -22 -57 -23v0zM352 352q-41 -1 -68 -28v0q-27 -27 -28 -68q1 -41 28 -68t68 -28q52 2 80 43v-51q-1 -44 -30 -74q-30 -29 -74 -30q-7 -1 -8 -8q1 -7 8 -8q51 1 85 35t35 85v104q-1 41 -28 68t-68 28v0zM352 176q-34 1 -57 23v0
q-22 23 -23 57q1 34 23 57q23 22 57 23q34 -1 57 -23q22 -23 23 -57q-1 -34 -23 -57q-23 -22 -57 -23v0z" />
    <glyph glyph-name="angle-left" unicode="&#xf104;" horiz-adv-x="256" 
d="M32 193q0 2 2 5l144 152q6 4 12 0q4 -6 0 -12l-139 -145l139 -147q4 -5 0 -11q-6 -4 -12 0l-144 151q-2 4 -2 7v0z" />
    <glyph glyph-name="angle-left" unicode="&#x2039;" horiz-adv-x="256" 
d="M32 193q0 2 2 5l144 152q6 4 12 0q4 -6 0 -12l-139 -145l139 -147q4 -5 0 -11q-6 -4 -12 0l-144 151q-2 4 -2 7v0z" />
    <glyph glyph-name="angle-right" unicode="&#xf105;" horiz-adv-x="256" 
d="M224 192q0 -2 -2 -6l-144 -151q-6 -4 -12 0q-4 6 0 11l139 147l-139 145q-4 6 0 12q6 4 12 0l144 -152q2 -3 2 -6v0z" />
    <glyph glyph-name="angle-right" unicode="&#x203a;" horiz-adv-x="256" 
d="M224 192q0 -2 -2 -6l-144 -151q-6 -4 -12 0q-4 6 0 11l139 147l-139 145q-4 6 0 12q6 4 12 0l144 -152q2 -3 2 -6v0z" />
    <glyph glyph-name="lira-sign" unicode="&#xf195;" horiz-adv-x="320" 
d="M320 -24q-1 -7 -8 -8h-304q-5 0 -7 5q-2 4 1 8q57 64 73 147h-67q-7 1 -8 8q1 7 8 8h69q3 19 3 39v41h-72q-7 1 -8 8q1 7 8 8h72v78q1 42 29 69q27 28 69 29q15 0 30 -5l83 -27q6 -3 5 -11q-3 -6 -10 -5l-83 28q-12 4 -25 4q-35 -1 -58 -24t-24 -58v-78h152q7 -1 8 -8
q-1 -7 -8 -8h-152v-41q0 -20 -3 -39h155q7 -1 8 -8q-1 -7 -8 -8h-157q-14 -80 -66 -144h287q7 -1 8 -8v0z" />
    <glyph glyph-name="lira-sign" unicode="&#x20a4;" horiz-adv-x="320" 
d="M320 -24q-1 -7 -8 -8h-304q-5 0 -7 5q-2 4 1 8q57 64 73 147h-67q-7 1 -8 8q1 7 8 8h69q3 19 3 39v41h-72q-7 1 -8 8q1 7 8 8h72v78q1 42 29 69q27 28 69 29q15 0 30 -5l83 -27q6 -3 5 -11q-3 -6 -10 -5l-83 28q-12 4 -25 4q-35 -1 -58 -24t-24 -58v-78h152q7 -1 8 -8
q-1 -7 -8 -8h-152v-41q0 -20 -3 -39h155q7 -1 8 -8q-1 -7 -8 -8h-157q-14 -80 -66 -144h287q7 -1 8 -8v0z" />
    <glyph glyph-name="rupee-sign" unicode="&#xf156;" 
d="M151 416h-79q-17 0 -28 -12q-12 -11 -12 -28v-400q1 -7 8 -8q7 1 8 8v168h103q3 0 6 1h4l54 -171q4 -6 9 -6h2q7 3 6 10l-54 169q48 10 78 46t31 87q-1 58 -40 96q-38 39 -96 40v0zM152 160h-104v216q2 22 24 24h80q51 -1 85 -35t35 -85q-1 -51 -35 -85t-85 -35v0z
M394 120l-10 3q-31 9 -49 24t-14 46q3 22 20 34q26 18 70 11q15 -3 38 -12q6 -2 10 5q2 7 -4 10q-25 10 -41 13q-51 8 -82 -14q-22 -16 -27 -44q-4 -44 21 -63q26 -18 53 -25v0l10 -4q34 -9 56 -24t18 -49q-3 -22 -20 -34q-26 -18 -70 -11q-25 6 -49 17h-1l-8 3q-7 2 -10 -4
q-3 -7 4 -11l8 -3v0q26 -12 53 -18q14 -2 27 -2q33 0 55 16t27 44q5 45 -22 63q-27 19 -62 29h-1v0z" />
    <glyph glyph-name="rupee-sign" unicode="&#x20a8;" 
d="M151 416h-79q-17 0 -28 -12q-12 -11 -12 -28v-400q1 -7 8 -8q7 1 8 8v168h103q3 0 6 1h4l54 -171q4 -6 9 -6h2q7 3 6 10l-54 169q48 10 78 46t31 87q-1 58 -40 96q-38 39 -96 40v0zM152 160h-104v216q2 22 24 24h80q51 -1 85 -35t35 -85q-1 -51 -35 -85t-85 -35v0z
M394 120l-10 3q-31 9 -49 24t-14 46q3 22 20 34q26 18 70 11q15 -3 38 -12q6 -2 10 5q2 7 -4 10q-25 10 -41 13q-51 8 -82 -14q-22 -16 -27 -44q-4 -44 21 -63q26 -18 53 -25v0l10 -4q34 -9 56 -24t18 -49q-3 -22 -20 -34q-26 -18 -70 -11q-25 6 -49 17h-1l-8 3q-7 2 -10 -4
q-3 -7 4 -11l8 -3v0q26 -12 53 -18q14 -2 27 -2q33 0 55 16t27 44q5 45 -22 63q-27 19 -62 29h-1v0z" />
    <glyph glyph-name="won-sign" unicode="&#xf159;" 
d="M504 168h-78l62 237q1 7 -6 10q-7 1 -10 -6l-62 -241h-84l-62 241q-2 5 -8 5t-8 -5l-62 -241h-83l-63 242q-3 7 -10 6q-7 -3 -6 -10l62 -237h-78q-7 -1 -8 -8q1 -7 8 -8h82l46 -177q2 -6 8 -6t8 6l46 177h116l46 -177q2 -5 8 -5t8 5l46 177h82q7 1 8 8q-1 7 -8 7v0z
M144 8l-37 144h74l-37 -144v0zM202 168l54 208l54 -208h-108v0zM368 8l-37 144h74l-37 -144v0z" />
    <glyph glyph-name="won-sign" unicode="&#x20a9;" 
d="M504 168h-78l62 237q1 7 -6 10q-7 1 -10 -6l-62 -241h-84l-62 241q-2 5 -8 5t-8 -5l-62 -241h-83l-63 242q-3 7 -10 6q-7 -3 -6 -10l62 -237h-78q-7 -1 -8 -8q1 -7 8 -8h82l46 -177q2 -6 8 -6t8 6l46 177h116l46 -177q2 -5 8 -5t8 5l46 177h82q7 1 8 8q-1 7 -8 7v0z
M144 8l-37 144h74l-37 -144v0zM202 168l54 208l54 -208h-108v0zM368 8l-37 144h74l-37 -144v0z" />
    <glyph glyph-name="shekel-sign" unicode="&#xf20b;" horiz-adv-x="448" 
d="M280 312v-208q1 -7 8 -8q7 1 8 8v208q-1 44 -31 74q-29 29 -73 30h-120q-17 0 -28 -12q-12 -11 -12 -28v-400q1 -7 8 -8q7 1 8 8v400q2 22 24 24h120q37 -1 62 -26t26 -62v0zM408 416q-7 -1 -8 -8v-336q-1 -37 -26 -62t-62 -26h-120q-22 2 -24 24v272q-1 7 -8 8
q-7 -1 -8 -8v-272q0 -17 12 -28q11 -12 28 -12h120q44 1 74 30q29 30 30 74v336q-1 7 -8 8v0z" />
    <glyph glyph-name="shekel-sign" unicode="&#x20aa;" horiz-adv-x="448" 
d="M280 312v-208q1 -7 8 -8q7 1 8 8v208q-1 44 -31 74q-29 29 -73 30h-120q-17 0 -28 -12q-12 -11 -12 -28v-400q1 -7 8 -8q7 1 8 8v400q2 22 24 24h120q37 -1 62 -26t26 -62v0zM408 416q-7 -1 -8 -8v-336q-1 -37 -26 -62t-62 -26h-120q-22 2 -24 24v272q-1 7 -8 8
q-7 -1 -8 -8v-272q0 -17 12 -28q11 -12 28 -12h120q44 1 74 30q29 30 30 74v336q-1 7 -8 8v0z" />
    <glyph glyph-name="euro-sign" unicode="&#xf153;" horiz-adv-x="384" 
d="M336 -17q1 -7 -6 -10q-26 -5 -51 -5q-46 0 -88 17t-75 49q-42 40 -58 94l-34 1q-7 1 -7 8q1 7 7 8h29q-5 22 -6 47q0 25 6 48h-29q-7 1 -7 8t7 8h33q17 54 59 94q43 41 99 57t115 4q7 -3 6 -10q-2 -7 -10 -6q-55 11 -107 -3q-51 -15 -92 -53q-37 -36 -52 -83h229
q7 -1 7 -8q-1 -7 -8 -8h-233q-6 -23 -6 -48t6 -48h234q7 -1 8 -8q-1 -7 -7 -8h-230q15 -47 52 -83q40 -38 92 -53q52 -14 107 -3q8 2 10 -6v0z" />
    <glyph glyph-name="euro-sign" unicode="&#x20ac;" horiz-adv-x="384" 
d="M336 -17q1 -7 -6 -10q-26 -5 -51 -5q-46 0 -88 17t-75 49q-42 40 -58 94l-34 1q-7 1 -7 8q1 7 7 8h29q-5 22 -6 47q0 25 6 48h-29q-7 1 -7 8t7 8h33q17 54 59 94q43 41 99 57t115 4q7 -3 6 -10q-2 -7 -10 -6q-55 11 -107 -3q-51 -15 -92 -53q-37 -36 -52 -83h229
q7 -1 7 -8q-1 -7 -8 -8h-233q-6 -23 -6 -48t6 -48h234q7 -1 8 -8q-1 -7 -7 -8h-230q15 -47 52 -83q40 -38 92 -53q52 -14 107 -3q8 2 10 -6v0z" />
    <glyph glyph-name="hryvnia-sign" unicode="&#xf6f2;" horiz-adv-x="384" 
d="M384 152q-1 -7 -8 -8h-254l-14 -8q-43 -24 -44 -70q1 -35 27 -58t66 -24h49q56 1 96 36q6 4 11 -1q4 -6 -1 -11q-45 -39 -106 -40h-49q-46 1 -77 29t-32 69q1 48 42 78h-82q-7 1 -8 8q1 7 8 8h110l144 80h-254q-7 1 -8 8q1 7 8 8h280q31 24 32 62q-1 35 -27 58t-66 24
h-50q-56 -1 -96 -36q-6 -4 -11 1q-3 6 2 11q44 39 105 40h49q47 -1 78 -29t32 -69q-1 -35 -24 -62h64q7 -1 8 -8q-1 -7 -8 -8h-82l-10 -6l-133 -74h225q7 -1 8 -8v0z" />
    <glyph glyph-name="hryvnia-sign" unicode="&#x20b4;" horiz-adv-x="384" 
d="M384 152q-1 -7 -8 -8h-254l-14 -8q-43 -24 -44 -70q1 -35 27 -58t66 -24h49q56 1 96 36q6 4 11 -1q4 -6 -1 -11q-45 -39 -106 -40h-49q-46 1 -77 29t-32 69q1 48 42 78h-82q-7 1 -8 8q1 7 8 8h110l144 80h-254q-7 1 -8 8q1 7 8 8h280q31 24 32 62q-1 35 -27 58t-66 24
h-50q-56 -1 -96 -36q-6 -4 -11 1q-3 6 2 11q44 39 105 40h49q47 -1 78 -29t32 -69q-1 -35 -24 -62h64q7 -1 8 -8q-1 -7 -8 -8h-82l-10 -6l-133 -74h225q7 -1 8 -8v0z" />
    <glyph glyph-name="tenge-sign" unicode="&#xf7d7;" horiz-adv-x="384" 
d="M8 400h368q7 1 8 8q-1 7 -8 8h-368q-7 -1 -8 -8q1 -7 8 -8v0zM376 288h-368q-7 -1 -8 -8q1 -7 8 -8h176v-296q1 -7 8 -8q7 1 8 8v296h176q7 1 8 8q-1 7 -8 8v0z" />
    <glyph glyph-name="tenge-sign" unicode="&#x20b8;" horiz-adv-x="384" 
d="M8 400h368q7 1 8 8q-1 7 -8 8h-368q-7 -1 -8 -8q1 -7 8 -8v0zM376 288h-368q-7 -1 -8 -8q1 -7 8 -8h176v-296q1 -7 8 -8q7 1 8 8v296h176q7 1 8 8q-1 7 -8 8v0z" />
    <glyph glyph-name="ruble-sign" unicode="&#xf158;" horiz-adv-x="384" 
d="M328 72h-248v72h152q58 1 96 40q39 38 40 96q-2 58 -40 96q-39 39 -96 40h-128q-17 0 -28 -12q-12 -11 -12 -28v-216h-56q-7 -1 -8 -8q1 -7 8 -8h56v-72h-56q-7 -1 -8 -8q1 -7 8 -8h56v-80q1 -7 8 -8q7 1 8 8v80h248q7 1 8 8q-1 7 -8 8v0zM80 376q2 22 24 24h128
q51 -1 85 -35t35 -85q-1 -51 -35 -85t-85 -35h-152v216v0z" />
    <glyph glyph-name="ruble-sign" unicode="&#x20bd;" horiz-adv-x="384" 
d="M328 72h-248v72h152q58 1 96 40q39 38 40 96q-2 58 -40 96q-39 39 -96 40h-128q-17 0 -28 -12q-12 -11 -12 -28v-216h-56q-7 -1 -8 -8q1 -7 8 -8h56v-72h-56q-7 -1 -8 -8q1 -7 8 -8h56v-80q1 -7 8 -8q7 1 8 8v80h248q7 1 8 8q-1 7 -8 8v0zM80 376q2 22 24 24h128
q51 -1 85 -35t35 -85q-1 -51 -35 -85t-85 -35h-152v216v0z" />
    <glyph glyph-name="trademark" unicode="&#xf25c;" horiz-adv-x="640" 
d="M248 352h-240q-7 -1 -8 -8q1 -7 8 -8h112v-296q1 -7 8 -8q7 1 8 8v296h112q7 1 8 8q-1 7 -8 8v0zM635 352q-6 1 -9 -3l-162 -207l-162 207q-3 4 -9 3q-5 -3 -5 -8v-304q1 -7 8 -8q7 1 8 8v281l154 -198q6 -6 12 0l154 198v-281q1 -7 8 -8q7 1 8 8v304q0 5 -5 8v0z" />
    <glyph glyph-name="trademark" unicode="&#x2122;" horiz-adv-x="640" 
d="M248 352h-240q-7 -1 -8 -8q1 -7 8 -8h112v-296q1 -7 8 -8q7 1 8 8v296h112q7 1 8 8q-1 7 -8 8v0zM635 352q-6 1 -9 -3l-162 -207l-162 207q-3 4 -9 3q-5 -3 -5 -8v-304q1 -7 8 -8q7 1 8 8v281l154 -198q6 -6 12 0l154 198v-281q1 -7 8 -8q7 1 8 8v304q0 5 -5 8v0z" />
    <glyph glyph-name="square-info" unicode="&#xf30f;" horiz-adv-x="448" 
d="M224 272q15 1 16 16q-1 15 -16 16q-15 -1 -16 -16q1 -15 16 -16v0zM256 96h-24v135v0v0q-1 9 -8 9h-32q-7 -1 -8 -8q1 -7 8 -8h24v-128h-24q-7 -1 -8 -8q1 -7 8 -8h64q7 1 8 8q-1 7 -8 8v0zM384 416h-320q-27 -1 -45 -19t-19 -45v-320q1 -27 19 -45t45 -19h320
q27 1 45 19t19 45v320q-1 27 -19 45t-45 19v0zM432 32q-1 -20 -14 -34v0q-14 -13 -34 -14h-320q-20 1 -34 14q-13 14 -14 34v320q1 20 14 34q14 13 34 14h320q20 -1 34 -14q13 -14 14 -34v-320v0z" />
    <glyph glyph-name="square-info" unicode="&#x2139;" horiz-adv-x="448" 
d="M224 272q15 1 16 16q-1 15 -16 16q-15 -1 -16 -16q1 -15 16 -16v0zM256 96h-24v135v0v0q-1 9 -8 9h-32q-7 -1 -8 -8q1 -7 8 -8h24v-128h-24q-7 -1 -8 -8q1 -7 8 -8h64q7 1 8 8q-1 7 -8 8v0zM384 416h-320q-27 -1 -45 -19t-19 -45v-320q1 -27 19 -45t45 -19h320
q27 1 45 19t19 45v320q-1 27 -19 45t-45 19v0zM432 32q-1 -20 -14 -34v0q-14 -13 -34 -14h-320q-20 1 -34 14q-13 14 -14 34v320q1 20 14 34q14 13 34 14h320q20 -1 34 -14q13 -14 14 -34v-320v0z" />
    <glyph glyph-name="arrow-left" unicode="&#xf060;" horiz-adv-x="448" 
d="M173 16l-171 170q-4 6 0 12l171 170q6 5 11 0q5 -6 0 -11l-157 -156h413q7 -1 8 -8q-1 -7 -8 -8h-413l157 -157q5 -6 0 -11q-6 -6 -11 -1v0z" />
    <glyph glyph-name="arrow-left" unicode="&#x2190;" horiz-adv-x="448" 
d="M173 16l-171 170q-4 6 0 12l171 170q6 5 11 0q5 -6 0 -11l-157 -156h413q7 -1 8 -8q-1 -7 -8 -8h-413l157 -157q5 -6 0 -11q-6 -6 -11 -1v0z" />
    <glyph glyph-name="arrow-up" unicode="&#xf062;" horiz-adv-x="384" 
d="M16 243l170 171q6 4 12 0l170 -171q5 -6 0 -11t-11 0l-157 157v-413q-1 -7 -8 -8q-8 0 -9 9v412l-156 -157q-5 -5 -11 0q-5 6 0 11v0z" />
    <glyph glyph-name="arrow-up" unicode="&#x2191;" horiz-adv-x="384" 
d="M16 243l170 171q6 4 12 0l170 -171q5 -6 0 -11t-11 0l-157 157v-413q-1 -7 -8 -8q-8 0 -9 9v412l-156 -157q-5 -5 -11 0q-5 6 0 11v0z" />
    <glyph glyph-name="arrow-right" unicode="&#xf061;" horiz-adv-x="448" 
d="M275 368l171 -170q4 -6 0 -12l-171 -170q-6 -5 -11 0t0 11l157 157h-413q-7 1 -8 8q1 7 8 8h413l-157 157q-5 6 0 11t11 0v0z" />
    <glyph glyph-name="arrow-right" unicode="&#x2192;" horiz-adv-x="448" 
d="M275 368l171 -170q4 -6 0 -12l-171 -170q-6 -5 -11 0t0 11l157 157h-413q-7 1 -8 8q1 7 8 8h413l-157 157q-5 6 0 11t11 0v0z" />
    <glyph glyph-name="arrow-down" unicode="&#xf063;" horiz-adv-x="384" 
d="M368 141l-170 -171q-6 -4 -12 0l-170 171q-5 6 0 11q6 5 11 0l157 -157v413q1 7 8 8q7 -1 8 -8v-413l157 157q6 5 11 0t0 -11v0z" />
    <glyph glyph-name="arrow-down" unicode="&#x2193;" horiz-adv-x="384" 
d="M368 141l-170 -171q-6 -4 -12 0l-170 171q-5 6 0 11q6 5 11 0l157 -157v413q1 7 8 8q7 -1 8 -8v-413l157 157q6 5 11 0t0 -11v0z" />
    <glyph glyph-name="left-right" unicode="&#xf337;" 
d="M509 198l-144 120q-4 3 -8 1q-5 -2 -5 -6v-112h-192v112q0 4 -5 6q-4 2 -8 -1l-144 -120q-3 -3 -3 -5q0 -3 3 -6l144 -120q2 -3 5 -3q2 0 3 1q5 2 5 7v113h192v-112q0 -5 5 -7q1 -1 3 -1q3 0 5 2l144 120q3 1 3 6q0 4 -2 5h-1v0zM144 89l-123 104l123 102v-206v0zM368 89
v206l124 -103l-124 -103v0z" />
    <glyph glyph-name="left-right" unicode="&#x2194;" 
d="M509 198l-144 120q-4 3 -8 1q-5 -2 -5 -6v-112h-192v112q0 4 -5 6q-4 2 -8 -1l-144 -120q-3 -3 -3 -5q0 -3 3 -6l144 -120q2 -3 5 -3q2 0 3 1q5 2 5 7v113h192v-112q0 -5 5 -7q1 -1 3 -1q3 0 5 2l144 120q3 1 3 6q0 4 -2 5h-1v0zM144 89l-123 104l123 102v-206v0zM368 89
v206l124 -103l-124 -103v0z" />
    <glyph glyph-name="up-down" unicode="&#xf338;" horiz-adv-x="256" 
d="M122 445l-120 -144q-3 -4 -1 -8q2 -5 7 -5h112v-192h-112q-5 0 -7 -5q-2 -4 1 -8l120 -144q2 -3 6 -3t6 3l120 144q2 2 2 5q0 2 -1 3q-2 5 -7 5h-112v192h112q5 0 7 5q1 1 1 3q0 3 -2 5l-120 144q-2 3 -7 3q-4 0 -5 -2v-1v0zM231 81l-103 -124l-103 124h206v0zM231 305
h-206l103 123l103 -123v0z" />
    <glyph glyph-name="up-down" unicode="&#x2b0d;" horiz-adv-x="256" 
d="M122 445l-120 -144q-3 -4 -1 -8q2 -5 7 -5h112v-192h-112q-5 0 -7 -5q-2 -4 1 -8l120 -144q2 -3 6 -3t6 3l120 144q2 2 2 5q0 2 -1 3q-2 5 -7 5h-112v192h112q5 0 7 5q1 1 1 3q0 3 -2 5l-120 144q-2 3 -7 3q-4 0 -5 -2v-1v0zM231 81l-103 -124l-103 124h206v0zM231 305
h-206l103 123l103 -123v0z" />
    <glyph glyph-name="up-down" unicode="&#x2195;" horiz-adv-x="256" 
d="M122 445l-120 -144q-3 -4 -1 -8q2 -5 7 -5h112v-192h-112q-5 0 -7 -5q-2 -4 1 -8l120 -144q2 -3 6 -3t6 3l120 144q2 2 2 5q0 2 -1 3q-2 5 -7 5h-112v192h112q5 0 7 5q1 1 1 3q0 3 -2 5l-120 144q-2 3 -7 3q-4 0 -5 -2v-1v0zM231 81l-103 -124l-103 124h206v0zM231 305
h-206l103 123l103 -123v0z" />
    <glyph glyph-name="square-up-right" unicode="&#xf360;" horiz-adv-x="448" 
d="M122 159q-14 -17 0 -34l34 -34q17 -14 34 0l73 73l32 -31q12 -12 26 -6q14 5 15 22v131q0 10 -7 17t-17 7h-131q-17 -1 -22 -15q-6 -13 5 -26l32 -32l-74 -72v0zM133 147l85 84l-43 43q-4 6 -1 9q0 4 7 5h131q4 -1 6 -2q1 -2 1 -6v-131q-1 -7 -5 -7q-3 -3 -9 1l-42 43
l-85 -85q-6 -4 -12 0l-33 34q-4 6 0 12v0zM0 352v-320q1 -27 19 -45t45 -19h320q27 1 45 19t19 45v320q-1 27 -19 45t-45 19h-320q-27 -1 -45 -19t-19 -45v0zM16 352q1 20 14 34v0q14 13 34 14h320q20 -1 34 -14q13 -14 14 -34v-320q-1 -20 -14 -34q-14 -13 -34 -14h-320
q-20 1 -34 14q-13 14 -14 34v320v0z" />
    <glyph glyph-name="square-up-right" unicode="&#x2197;" horiz-adv-x="448" 
d="M122 159q-14 -17 0 -34l34 -34q17 -14 34 0l73 73l32 -31q12 -12 26 -6q14 5 15 22v131q0 10 -7 17t-17 7h-131q-17 -1 -22 -15q-6 -13 5 -26l32 -32l-74 -72v0zM133 147l85 84l-43 43q-4 6 -1 9q0 4 7 5h131q4 -1 6 -2q1 -2 1 -6v-131q-1 -7 -5 -7q-3 -3 -9 1l-42 43
l-85 -85q-6 -4 -12 0l-33 34q-4 6 0 12v0zM0 352v-320q1 -27 19 -45t45 -19h320q27 1 45 19t19 45v320q-1 27 -19 45t-45 19h-320q-27 -1 -45 -19t-19 -45v0zM16 352q1 20 14 34v0q14 13 34 14h320q20 -1 34 -14q13 -14 14 -34v-320q-1 -20 -14 -34q-14 -13 -34 -14h-320
q-20 1 -34 14q-13 14 -14 34v320v0z" />
    <glyph glyph-name="arrow-left-from-line" unicode="&#xf344;" horiz-adv-x="448" 
d="M2 198q-4 -6 0 -12l152 -152q3 -2 6 -2t6 2q4 6 0 12l-139 138h317q7 1 8 8q-1 7 -8 8h-317l139 138q4 6 0 12q-6 4 -12 0l-152 -152v0zM432 376v-368q1 -7 8 -8q7 1 8 8v368q-1 7 -8 8q-7 -1 -8 -8v0z" />
    <glyph glyph-name="arrow-left-from-line" unicode="&#x21a4;" horiz-adv-x="448" 
d="M2 198q-4 -6 0 -12l152 -152q3 -2 6 -2t6 2q4 6 0 12l-139 138h317q7 1 8 8q-1 7 -8 8h-317l139 138q4 6 0 12q-6 4 -12 0l-152 -152v0zM432 376v-368q1 -7 8 -8q7 1 8 8v368q-1 7 -8 8q-7 -1 -8 -8v0z" />
    <glyph glyph-name="arrow-up-from-line" unicode="&#xf342;" horiz-adv-x="384" 
d="M198 414q-6 4 -12 0l-152 -152q-2 -3 -2 -6t2 -6q6 -4 12 0l138 139v-317q1 -7 8 -8q7 1 8 8v317l138 -139q6 -4 12 0q4 6 0 12l-152 152v0zM376 -16h-368q-7 -1 -8 -8q1 -7 8 -8h368q7 1 8 8q-1 7 -8 8v0z" />
    <glyph glyph-name="arrow-up-from-line" unicode="&#x21a5;" horiz-adv-x="384" 
d="M198 414q-6 4 -12 0l-152 -152q-2 -3 -2 -6t2 -6q6 -4 12 0l138 139v-317q1 -7 8 -8q7 1 8 8v317l138 -139q6 -4 12 0q4 6 0 12l-152 152v0zM376 -16h-368q-7 -1 -8 -8q1 -7 8 -8h368q7 1 8 8q-1 7 -8 8v0z" />
    <glyph glyph-name="arrow-right-from-line" unicode="&#xf343;" horiz-adv-x="448" 
d="M446 186q4 6 0 12l-152 152q-3 2 -6 2t-6 -2q-4 -6 0 -12l139 -138h-317q-7 -1 -8 -8q1 -7 8 -8h317l-139 -138q-4 -6 0 -12q6 -4 12 0l152 152v0zM16 8v368q-1 7 -8 8q-7 -1 -8 -8v-368q1 -7 8 -8q7 1 8 8v0z" />
    <glyph glyph-name="arrow-right-from-line" unicode="&#x21a6;" horiz-adv-x="448" 
d="M446 186q4 6 0 12l-152 152q-3 2 -6 2t-6 -2q-4 -6 0 -12l139 -138h-317q-7 -1 -8 -8q1 -7 8 -8h317l-139 -138q-4 -6 0 -12q6 -4 12 0l152 152v0zM16 8v368q-1 7 -8 8q-7 -1 -8 -8v-368q1 -7 8 -8q7 1 8 8v0z" />
    <glyph glyph-name="arrow-down-from-line" unicode="&#xf345;" horiz-adv-x="384" 
d="M186 -30q6 -4 12 0l152 152q2 3 2 6t-2 6q-6 4 -12 0l-138 -139v317q-1 7 -8 8q-7 -1 -8 -8v-317l-138 139q-6 4 -12 0q-4 -6 0 -12l152 -152v0zM8 400h368q7 1 8 8q-1 7 -8 8h-368q-7 -1 -8 -8q1 -7 8 -8v0z" />
    <glyph glyph-name="arrow-down-from-line" unicode="&#x21a7;" horiz-adv-x="384" 
d="M186 -30q6 -4 12 0l152 152q2 3 2 6t-2 6q-6 4 -12 0l-138 -139v317q-1 7 -8 8q-7 -1 -8 -8v-317l-138 139q-6 4 -12 0q-4 -6 0 -12l152 -152v0zM8 400h368q7 1 8 8q-1 7 -8 8h-368q-7 -1 -8 -8q1 -7 8 -8v0z" />
    <glyph glyph-name="arrow-rotate-left" unicode="&#xf0e2;" 
d="M256 424q-73 -1 -131 -41v0q-57 -40 -84 -107l-20 100q-3 7 -10 7q-7 -3 -6 -10l25 -125q2 -6 8 -7h1l126 25q7 3 6 10q-2 7 -9 6l-110 -22q23 67 78 107t126 41q60 -1 109 -30q49 -28 77 -77q29 -49 30 -109q-1 -60 -30 -109q-28 -49 -77 -77q-49 -29 -109 -30
q-68 0 -123 39q-7 3 -12 -2q-3 -7 2 -11q60 -42 133 -42q65 1 117 32t83 83t32 117q-1 65 -32 117t-83 83t-117 32v0z" />
    <glyph glyph-name="arrow-rotate-left" unicode="&#x21ba;" 
d="M256 424q-73 -1 -131 -41v0q-57 -40 -84 -107l-20 100q-3 7 -10 7q-7 -3 -6 -10l25 -125q2 -6 8 -7h1l126 25q7 3 6 10q-2 7 -9 6l-110 -22q23 67 78 107t126 41q60 -1 109 -30q49 -28 77 -77q29 -49 30 -109q-1 -60 -30 -109q-28 -49 -77 -77q-49 -29 -109 -30
q-68 0 -123 39q-7 3 -12 -2q-3 -7 2 -11q60 -42 133 -42q65 1 117 32t83 83t32 117q-1 65 -32 117t-83 83t-117 32v0z" />
    <glyph glyph-name="arrow-rotate-right" unicode="&#xf01e;" 
d="M24 192q1 -65 32 -117v0q31 -52 83 -83v0q52 -31 117 -32q73 0 133 42q5 4 2 11q-5 5 -12 2q-55 -39 -123 -39q-60 1 -109 30q-49 28 -77 77q-29 49 -30 109q1 60 30 109q28 49 77 77q49 29 109 30q71 -1 126 -41t79 -107l-111 22q-7 1 -9 -6q-1 -7 6 -10l126 -25h1
q6 1 8 7l25 125q1 7 -6 10q-7 0 -10 -7l-20 -100q-27 67 -84 107q-58 40 -131 41q-65 -1 -117 -32t-83 -83t-32 -117v0z" />
    <glyph glyph-name="arrow-rotate-right" unicode="&#x21bb;" 
d="M24 192q1 -65 32 -117v0q31 -52 83 -83v0q52 -31 117 -32q73 0 133 42q5 4 2 11q-5 5 -12 2q-55 -39 -123 -39q-60 1 -109 30q-49 28 -77 77q-29 49 -30 109q1 60 30 109q28 49 77 77q49 29 109 30q71 -1 126 -41t79 -107l-111 22q-7 1 -9 -6q-1 -7 6 -10l126 -25h1
q6 1 8 7l25 125q1 7 -6 10q-7 0 -10 -7l-20 -100q-27 67 -84 107q-58 40 -131 41q-65 -1 -117 -32t-83 -83t-32 -117v0z" />
    <glyph glyph-name="arrow-right-arrow-left" unicode="&#xf0ec;" 
d="M504 72h-474l127 106q5 5 1 11q-5 5 -11 1l-144 -119q-3 -4 -3 -7q0 -4 3 -6l144 -119q2 -3 5 -3q4 0 6 3q4 6 -1 11l-127 106h474q7 1 8 7q-1 9 -8 9v0zM8 312h474l-127 -106q-5 -5 -1 -11q2 -3 6 -3q3 0 5 2l144 119q3 4 3 7q0 4 -3 6l-144 119q-6 4 -11 -1
q-4 -6 1 -11l127 -106h-474q-7 -1 -8 -7q1 -7 8 -8v0z" />
    <glyph glyph-name="arrow-right-arrow-left" unicode="&#x21c4;" 
d="M504 72h-474l127 106q5 5 1 11q-5 5 -11 1l-144 -119q-3 -4 -3 -7q0 -4 3 -6l144 -119q2 -3 5 -3q4 0 6 3q4 6 -1 11l-127 106h474q7 1 8 7q-1 9 -8 9v0zM8 312h474l-127 -106q-5 -5 -1 -11q2 -3 6 -3q3 0 5 2l144 119q3 4 3 7q0 4 -3 6l-144 119q-6 4 -11 -1
q-4 -6 1 -11l127 -106h-474q-7 -1 -8 -7q1 -7 8 -8v0z" />
    <glyph glyph-name="arrow-left-to-line" unicode="&#xf33e;" horiz-adv-x="448" 
d="M98 198q-4 -6 0 -12l152 -152q3 -2 6 -2t6 2q4 6 0 12l-139 138h317q7 1 8 8q-1 7 -8 8h-317l139 138q4 6 0 12q-6 4 -12 0l-152 -152v0zM0 376v-368q1 -7 8 -8q7 1 8 8v368q-1 7 -8 8q-7 -1 -8 -8v0z" />
    <glyph glyph-name="arrow-left-to-line" unicode="&#x21e4;" horiz-adv-x="448" 
d="M98 198q-4 -6 0 -12l152 -152q3 -2 6 -2t6 2q4 6 0 12l-139 138h317q7 1 8 8q-1 7 -8 8h-317l139 138q4 6 0 12q-6 4 -12 0l-152 -152v0zM0 376v-368q1 -7 8 -8q7 1 8 8v368q-1 7 -8 8q-7 -1 -8 -8v0z" />
    <glyph glyph-name="arrow-right-to-line" unicode="&#xf340;" horiz-adv-x="448" 
d="M350 186q4 6 0 12l-152 152q-3 2 -6 2t-6 -2q-4 -6 0 -12l139 -138h-317q-7 -1 -8 -8q1 -7 8 -8h317l-139 -138q-4 -6 0 -12q6 -4 12 0l152 152v0zM448 8v368q-1 7 -8 8q-7 -1 -8 -8v-368q1 -7 8 -8q7 1 8 8v0z" />
    <glyph glyph-name="arrow-right-to-line" unicode="&#x21e5;" horiz-adv-x="448" 
d="M350 186q4 6 0 12l-152 152q-3 2 -6 2t-6 -2q-4 -6 0 -12l139 -138h-317q-7 -1 -8 -8q1 -7 8 -8h317l-139 -138q-4 -6 0 -12q6 -4 12 0l152 152v0zM448 8v368q-1 7 -8 8q-7 -1 -8 -8v-368q1 -7 8 -8q7 1 8 8v0z" />
    <glyph glyph-name="sigma" unicode="&#xf68b;" horiz-adv-x="384" 
d="M352 312v72h-327l173 -187q4 -5 0 -10l-173 -187h327v72q1 7 8 8q7 -1 8 -8v-80q-1 -7 -8 -8h-352q-5 0 -7 5q-2 4 1 8l180 195l-180 195q-3 4 -1 8q2 5 7 5h352q7 -1 8 -8v-80q-1 -7 -8 -8q-7 1 -8 8v0z" />
    <glyph glyph-name="sigma" unicode="&#x2211;" horiz-adv-x="384" 
d="M352 312v72h-327l173 -187q4 -5 0 -10l-173 -187h327v72q1 7 8 8q7 -1 8 -8v-80q-1 -7 -8 -8h-352q-5 0 -7 5q-2 4 1 8l180 195l-180 195q-3 4 -1 8q2 5 7 5h352q7 -1 8 -8v-80q-1 -7 -8 -8q-7 1 -8 8v0z" />
    <glyph glyph-name="square-root" unicode="&#xf697;" horiz-adv-x="576" 
d="M576 408q-1 -7 -8 -8h-170q-18 0 -33 -11q-14 -10 -20 -27l-129 -389q-2 -4 -7 -5h-1q-5 0 -7 5l-96 203q-15 31 -50 32h-47q-7 1 -8 8q1 7 8 8h47q21 0 39 -11q17 -11 27 -31l86 -185l123 370q8 22 26 35q18 14 42 14h170q7 -1 8 -8v0z" />
    <glyph glyph-name="square-root" unicode="&#x221a;" horiz-adv-x="576" 
d="M576 408q-1 -7 -8 -8h-170q-18 0 -33 -11q-14 -10 -20 -27l-129 -389q-2 -4 -7 -5h-1q-5 0 -7 5l-96 203q-15 31 -50 32h-47q-7 1 -8 8q1 7 8 8h47q21 0 39 -11q17 -11 27 -31l86 -185l123 370q8 22 26 35q18 14 42 14h170q7 -1 8 -8v0z" />
    <glyph glyph-name="infinity" unicode="&#xf534;" horiz-adv-x="640" 
d="M482 329q-35 -1 -67 -22v0q-31 -21 -56 -49v0q-24 -28 -39 -51q-25 40 -68 79q-42 40 -94 43q-57 -2 -95 -40t-39 -96q1 -58 39 -96q38 -39 95 -40q35 1 67 22q31 21 56 49q24 28 39 50q25 -40 68 -79q42 -39 94 -42q57 1 95 40q38 38 39 96q-1 58 -39 96t-95 40v0z
M158 73q-50 1 -83 35v0q-34 34 -35 85q1 51 35 85q33 34 83 35q33 -1 63 -22q30 -22 53 -50q23 -27 37 -48q-14 -21 -37 -49t-53 -49t-63 -22v0zM482 73q-33 1 -63 22v0q-30 22 -53 49v0q-23 28 -36 49q13 21 36 48q23 28 53 50q30 21 63 22q50 -1 83 -35q34 -34 35 -85
q-1 -51 -35 -85q-33 -34 -83 -35v0z" />
    <glyph glyph-name="infinity" unicode="&#x267e;" horiz-adv-x="640" 
d="M482 329q-35 -1 -67 -22v0q-31 -21 -56 -49v0q-24 -28 -39 -51q-25 40 -68 79q-42 40 -94 43q-57 -2 -95 -40t-39 -96q1 -58 39 -96q38 -39 95 -40q35 1 67 22q31 21 56 49q24 28 39 50q25 -40 68 -79q42 -39 94 -42q57 1 95 40q38 38 39 96q-1 58 -39 96t-95 40v0z
M158 73q-50 1 -83 35v0q-34 34 -35 85q1 51 35 85q33 34 83 35q33 -1 63 -22q30 -22 53 -50q23 -27 37 -48q-14 -21 -37 -49t-53 -49t-63 -22v0zM482 73q-33 1 -63 22v0q-30 22 -53 49v0q-23 28 -36 49q13 21 36 48q23 28 53 50q30 21 63 22q50 -1 83 -35q34 -34 35 -85
q-1 -51 -35 -85q-33 -34 -83 -35v0z" />
    <glyph glyph-name="infinity" unicode="&#x221e;" horiz-adv-x="640" 
d="M482 329q-35 -1 -67 -22v0q-31 -21 -56 -49v0q-24 -28 -39 -51q-25 40 -68 79q-42 40 -94 43q-57 -2 -95 -40t-39 -96q1 -58 39 -96q38 -39 95 -40q35 1 67 22q31 21 56 49q24 28 39 50q25 -40 68 -79q42 -39 94 -42q57 1 95 40q38 38 39 96q-1 58 -39 96t-95 40v0z
M158 73q-50 1 -83 35v0q-34 34 -35 85q1 51 35 85q33 34 83 35q33 -1 63 -22q30 -22 53 -50q23 -27 37 -48q-14 -21 -37 -49t-53 -49t-63 -22v0zM482 73q-33 1 -63 22v0q-30 22 -53 49v0q-23 28 -36 49q13 21 36 48q23 28 53 50q30 21 63 22q50 -1 83 -35q34 -34 35 -85
q-1 -51 -35 -85q-33 -34 -83 -35v0z" />
    <glyph glyph-name="wave-sine" unicode="&#xf899;" horiz-adv-x="640" 
d="M616 176q-3 -12 -21 -56v0q-18 -44 -51 -84v0q-33 -41 -81 -44q-40 1 -68 31q-28 29 -47 74q-20 45 -36 92v0q-15 45 -33 88q-18 42 -43 70t-59 29q-34 -1 -62 -31q-27 -29 -46 -69q-20 -39 -29 -73q-3 -7 -10 -5t-6 10q3 12 21 56t51 84q33 41 81 44q40 -1 68 -31
q28 -29 47 -74q20 -45 36 -92v0v-1q15 -44 33 -87q18 -42 43 -70t59 -29q34 1 62 31q27 29 46 69q20 39 29 73q3 7 10 5t6 -10v0z" />
    <glyph glyph-name="wave-sine" unicode="&#x223f;" horiz-adv-x="640" 
d="M616 176q-3 -12 -21 -56v0q-18 -44 -51 -84v0q-33 -41 -81 -44q-40 1 -68 31q-28 29 -47 74q-20 45 -36 92v0q-15 45 -33 88q-18 42 -43 70t-59 29q-34 -1 -62 -31q-27 -29 -46 -69q-20 -39 -29 -73q-3 -7 -10 -5t-6 10q3 12 21 56t51 84q33 41 81 44q40 -1 68 -31
q28 -29 47 -74q20 -45 36 -92v0v-1q15 -44 33 -87q18 -42 43 -70t59 -29q34 1 62 31q27 29 46 69q20 39 29 73q3 7 10 5t6 -10v0z" />
    <glyph glyph-name="intersection" unicode="&#xf668;" horiz-adv-x="384" 
d="M384 224v-248q-1 -7 -8 -8q-7 1 -8 8v248q-2 75 -52 124q-49 50 -124 52q-75 -2 -124 -51q-50 -50 -52 -125v-248q-1 -7 -8 -8q-7 1 -8 8v248q2 81 56 136q55 54 136 56q81 -2 136 -56q54 -55 56 -136v0z" />
    <glyph glyph-name="intersection" unicode="&#x22c2;" horiz-adv-x="384" 
d="M384 224v-248q-1 -7 -8 -8q-7 1 -8 8v248q-2 75 -52 124q-49 50 -124 52q-75 -2 -124 -51q-50 -50 -52 -125v-248q-1 -7 -8 -8q-7 1 -8 8v248q2 81 56 136q55 54 136 56q81 -2 136 -56q54 -55 56 -136v0z" />
    <glyph glyph-name="union" unicode="&#xf6a2;" horiz-adv-x="384" 
d="M352 408v-280q-2 -68 -47 -113t-113 -47q-68 2 -113 47t-47 113v280q1 7 8 8q7 -1 8 -8v-280q2 -61 42 -102q41 -40 102 -42q61 2 102 42q40 41 42 102v280q1 7 8 8q7 -1 8 -8v0z" />
    <glyph glyph-name="union" unicode="&#x22c3;" horiz-adv-x="384" 
d="M352 408v-280q-2 -68 -47 -113t-113 -47q-68 2 -113 47t-47 113v280q1 7 8 8q7 -1 8 -8v-280q2 -61 42 -102q41 -40 102 -42q61 2 102 42q40 41 42 102v280q1 7 8 8q7 -1 8 -8v0z" />
    <glyph glyph-name="angle-up" unicode="&#xf106;" horiz-adv-x="384" 
d="M192 288q2 0 6 -2l151 -144q4 -6 0 -12q-6 -4 -11 0l-146 139l-146 -139q-6 -4 -12 0q-4 6 0 12l152 144q3 2 6 2v0z" />
    <glyph glyph-name="angle-up" unicode="&#x2303;" horiz-adv-x="384" 
d="M192 288q2 0 6 -2l151 -144q4 -6 0 -12q-6 -4 -11 0l-146 139l-146 -139q-6 -4 -12 0q-4 6 0 12l152 144q3 2 6 2v0z" />
    <glyph glyph-name="angle-down" unicode="&#xf107;" horiz-adv-x="384" 
d="M191 96q-2 0 -5 2l-152 144q-4 6 0 12q6 4 12 0l146 -139l147 139q5 4 11 0q4 -6 0 -12l-152 -144q-4 -2 -7 -2v0z" />
    <glyph glyph-name="angle-down" unicode="&#x2304;" horiz-adv-x="384" 
d="M191 96q-2 0 -5 2l-152 144q-4 6 0 12q6 4 12 0l146 -139l147 139q5 4 11 0q4 -6 0 -12l-152 -144q-4 -2 -7 -2v0z" />
    <glyph glyph-name="watch" unicode="&#xf2e1;" horiz-adv-x="384" 
d="M192 384q-82 -2 -136 -56v0q-54 -54 -56 -136q2 -82 56 -136t136 -56q82 2 136 56t56 136q-2 82 -56 136t-136 56v0zM192 16q-75 2 -124 52v0q-50 49 -52 124q2 75 52 124q49 50 124 52q75 -2 124 -52q50 -49 52 -124q-2 -75 -52 -124q-49 -50 -124 -52v0zM200 196v92
q-1 7 -8 8q-7 -1 -8 -8v-96q0 -4 3 -6l64 -48q2 -2 5 -2q4 0 6 3q4 6 -1 11l-61 46v0zM72 368q7 1 8 8v32q2 22 24 24h176q22 -2 24 -24v-32q1 -7 8 -8q7 1 8 8v32q0 17 -12 28q-11 12 -28 12h-176q-17 0 -28 -12q-12 -11 -12 -28v-32q1 -7 8 -8v0zM312 16q-7 -1 -8 -8v-32
q-2 -22 -24 -24h-176q-22 2 -24 24v32q-1 7 -8 8q-7 -1 -8 -8v-32q0 -17 12 -28q11 -12 28 -12h176q17 0 28 12q12 11 12 28v32q-1 7 -8 8v0z" />
    <glyph glyph-name="watch" unicode="&#x231a;" horiz-adv-x="384" 
d="M192 384q-82 -2 -136 -56v0q-54 -54 -56 -136q2 -82 56 -136t136 -56q82 2 136 56t56 136q-2 82 -56 136t-136 56v0zM192 16q-75 2 -124 52v0q-50 49 -52 124q2 75 52 124q49 50 124 52q75 -2 124 -52q50 -49 52 -124q-2 -75 -52 -124q-49 -50 -124 -52v0zM200 196v92
q-1 7 -8 8q-7 -1 -8 -8v-96q0 -4 3 -6l64 -48q2 -2 5 -2q4 0 6 3q4 6 -1 11l-61 46v0zM72 368q7 1 8 8v32q2 22 24 24h176q22 -2 24 -24v-32q1 -7 8 -8q7 1 8 8v32q0 17 -12 28q-11 12 -28 12h-176q-17 0 -28 -12q-12 -11 -12 -28v-32q1 -7 8 -8v0zM312 16q-7 -1 -8 -8v-32
q-2 -22 -24 -24h-176q-22 2 -24 24v32q-1 7 -8 8q-7 -1 -8 -8v-32q0 -17 12 -28q11 -12 28 -12h176q17 0 28 12q12 11 12 28v32q-1 7 -8 8v0z" />
    <glyph glyph-name="hourglass-end" unicode="&#xf253;" horiz-adv-x="384" 
d="M376 -48h-368q-7 -1 -8 -8q1 -7 8 -8h368q7 1 8 8q-1 7 -8 8v0zM32 13v-21q1 -7 8 -8q7 1 8 8v21q0 44 27 78l75 96q4 5 0 10l-75 96q-27 34 -27 78v21q-1 7 -8 8q-7 -1 -8 -8v-21q0 -49 30 -88l72 -91l-72 -91q-30 -38 -30 -88v0zM352 371v21q-1 7 -8 8q-7 -1 -8 -8v-21
q0 -44 -27 -78l-75 -96q-4 -5 0 -10l75 -96q27 -34 27 -78v-21q1 -7 8 -8q7 1 8 8v21q0 50 -30 88l-72 91l72 91q29 39 30 88v0zM8 432h368q7 1 8 8q-1 7 -8 8h-368q-7 -1 -8 -8q1 -7 8 -8v0zM192 171q-4 0 -6 -3l-84 -112q-14 -19 -14 -43v-21q1 -7 8 -8h192q7 1 8 8v21
q0 24 -14 44l-84 110q-2 4 -6 4v0zM280 13v-13h-176v13q0 19 11 34l77 102l77 -102q11 -15 11 -34v0z" />
    <glyph glyph-name="hourglass-end" unicode="&#x231b;" horiz-adv-x="384" 
d="M376 -48h-368q-7 -1 -8 -8q1 -7 8 -8h368q7 1 8 8q-1 7 -8 8v0zM32 13v-21q1 -7 8 -8q7 1 8 8v21q0 44 27 78l75 96q4 5 0 10l-75 96q-27 34 -27 78v21q-1 7 -8 8q-7 -1 -8 -8v-21q0 -49 30 -88l72 -91l-72 -91q-30 -38 -30 -88v0zM352 371v21q-1 7 -8 8q-7 -1 -8 -8v-21
q0 -44 -27 -78l-75 -96q-4 -5 0 -10l75 -96q27 -34 27 -78v-21q1 -7 8 -8q7 1 8 8v21q0 50 -30 88l-72 91l72 91q29 39 30 88v0zM8 432h368q7 1 8 8q-1 7 -8 8h-368q-7 -1 -8 -8q1 -7 8 -8v0zM192 171q-4 0 -6 -3l-84 -112q-14 -19 -14 -43v-21q1 -7 8 -8h192q7 1 8 8v21
q0 24 -14 44l-84 110q-2 4 -6 4v0zM280 13v-13h-176v13q0 19 11 34l77 102l77 -102q11 -15 11 -34v0z" />
    <glyph glyph-name="keyboard" unicode="&#xf11c;" horiz-adv-x="576" 
d="M392 320h-16q-22 -2 -24 -24v-16q2 -22 24 -24h16q22 2 24 24v16q-2 22 -24 24v0zM400 280q-1 -7 -8 -8h-16q-7 1 -8 8v16q1 7 8 8h16q7 -1 8 -8v-16v0zM488 320h-16q-22 -2 -24 -24v-16q2 -22 24 -24h16q22 2 24 24v16q-2 22 -24 24v0zM496 280q-1 -7 -8 -8h-16
q-7 1 -8 8v16q1 7 8 8h16q7 -1 8 -8v-16v0zM184 256h16q22 2 24 24v16q-2 22 -24 24h-16q-22 -2 -24 -24v-16q2 -22 24 -24v0zM176 296q1 7 8 8h16q7 -1 8 -8v-16q-1 -7 -8 -8h-16q-7 1 -8 8v16v0zM280 160h16q22 2 24 24v16q-2 22 -24 24h-16q-22 -2 -24 -24v-16
q2 -22 24 -24v0zM272 200q1 7 8 8h16q7 -1 8 -8v-16q-1 -7 -8 -8h-16q-7 1 -8 8v16v0zM392 224h-16q-22 -2 -24 -24v-16q2 -22 24 -24h16q22 2 24 24v16q-2 22 -24 24v0zM400 184q-1 -7 -8 -8h-16q-7 1 -8 8v16q1 7 8 8h16q7 -1 8 -8v-16v0zM280 256h16q22 2 24 24v16
q-2 22 -24 24h-16q-22 -2 -24 -24v-16q2 -22 24 -24v0zM272 296q1 7 8 8h16q7 -1 8 -8v-16q-1 -7 -8 -8h-16q-7 1 -8 8v16v0zM512 384h-448q-27 -1 -45 -19t-19 -45v-256q1 -27 19 -45t45 -19h448q27 1 45 19t19 45v256q-1 27 -19 45t-45 19v0zM560 64q-1 -20 -14 -34v0
q-14 -13 -34 -14h-448q-20 1 -34 14q-13 14 -14 34v256q1 20 14 34q14 13 34 14h448q20 -1 34 -14q13 -14 14 -34v-256v0zM392 128h-208q-22 -2 -24 -24v-16q2 -22 24 -24h208q22 2 24 24v16q-2 22 -24 24v0zM400 88q-1 -7 -8 -8h-208q-7 1 -8 8v16q1 7 8 8h208q7 -1 8 -8
v-16v0zM104 224h-16q-22 -2 -24 -24v-16q2 -22 24 -24h16q22 2 24 24v16q-2 22 -24 24v0zM112 184q-1 -7 -8 -8h-16q-7 1 -8 8v16q1 7 8 8h16q7 -1 8 -8v-16v0zM488 224h-16q-22 -2 -24 -24v-16q2 -22 24 -24h16q22 2 24 24v16q-2 22 -24 24v0zM496 184q-1 -7 -8 -8h-16
q-7 1 -8 8v16q1 7 8 8h16q7 -1 8 -8v-16v0zM184 160h16q22 2 24 24v16q-2 22 -24 24h-16q-22 -2 -24 -24v-16q2 -22 24 -24v0zM176 200q1 7 8 8h16q7 -1 8 -8v-16q-1 -7 -8 -8h-16q-7 1 -8 8v16v0zM488 128h-16q-22 -2 -24 -24v-16q2 -22 24 -24h16q22 2 24 24v16
q-2 22 -24 24v0zM496 88q-1 -7 -8 -8h-16q-7 1 -8 8v16q1 7 8 8h16q7 -1 8 -8v-16v0zM104 128h-16q-22 -2 -24 -24v-16q2 -22 24 -24h16q22 2 24 24v16q-2 22 -24 24v0zM112 88q-1 -7 -8 -8h-16q-7 1 -8 8v16q1 7 8 8h16q7 -1 8 -8v-16v0zM104 320h-16q-22 -2 -24 -24v-16
q2 -22 24 -24h16q22 2 24 24v16q-2 22 -24 24v0zM112 280q-1 -7 -8 -8h-16q-7 1 -8 8v16q1 7 8 8h16q7 -1 8 -8v-16v0z" />
    <glyph glyph-name="keyboard" unicode="&#x2328;" horiz-adv-x="576" 
d="M392 320h-16q-22 -2 -24 -24v-16q2 -22 24 -24h16q22 2 24 24v16q-2 22 -24 24v0zM400 280q-1 -7 -8 -8h-16q-7 1 -8 8v16q1 7 8 8h16q7 -1 8 -8v-16v0zM488 320h-16q-22 -2 -24 -24v-16q2 -22 24 -24h16q22 2 24 24v16q-2 22 -24 24v0zM496 280q-1 -7 -8 -8h-16
q-7 1 -8 8v16q1 7 8 8h16q7 -1 8 -8v-16v0zM184 256h16q22 2 24 24v16q-2 22 -24 24h-16q-22 -2 -24 -24v-16q2 -22 24 -24v0zM176 296q1 7 8 8h16q7 -1 8 -8v-16q-1 -7 -8 -8h-16q-7 1 -8 8v16v0zM280 160h16q22 2 24 24v16q-2 22 -24 24h-16q-22 -2 -24 -24v-16
q2 -22 24 -24v0zM272 200q1 7 8 8h16q7 -1 8 -8v-16q-1 -7 -8 -8h-16q-7 1 -8 8v16v0zM392 224h-16q-22 -2 -24 -24v-16q2 -22 24 -24h16q22 2 24 24v16q-2 22 -24 24v0zM400 184q-1 -7 -8 -8h-16q-7 1 -8 8v16q1 7 8 8h16q7 -1 8 -8v-16v0zM280 256h16q22 2 24 24v16
q-2 22 -24 24h-16q-22 -2 -24 -24v-16q2 -22 24 -24v0zM272 296q1 7 8 8h16q7 -1 8 -8v-16q-1 -7 -8 -8h-16q-7 1 -8 8v16v0zM512 384h-448q-27 -1 -45 -19t-19 -45v-256q1 -27 19 -45t45 -19h448q27 1 45 19t19 45v256q-1 27 -19 45t-45 19v0zM560 64q-1 -20 -14 -34v0
q-14 -13 -34 -14h-448q-20 1 -34 14q-13 14 -14 34v256q1 20 14 34q14 13 34 14h448q20 -1 34 -14q13 -14 14 -34v-256v0zM392 128h-208q-22 -2 -24 -24v-16q2 -22 24 -24h208q22 2 24 24v16q-2 22 -24 24v0zM400 88q-1 -7 -8 -8h-208q-7 1 -8 8v16q1 7 8 8h208q7 -1 8 -8
v-16v0zM104 224h-16q-22 -2 -24 -24v-16q2 -22 24 -24h16q22 2 24 24v16q-2 22 -24 24v0zM112 184q-1 -7 -8 -8h-16q-7 1 -8 8v16q1 7 8 8h16q7 -1 8 -8v-16v0zM488 224h-16q-22 -2 -24 -24v-16q2 -22 24 -24h16q22 2 24 24v16q-2 22 -24 24v0zM496 184q-1 -7 -8 -8h-16
q-7 1 -8 8v16q1 7 8 8h16q7 -1 8 -8v-16v0zM184 160h16q22 2 24 24v16q-2 22 -24 24h-16q-22 -2 -24 -24v-16q2 -22 24 -24v0zM176 200q1 7 8 8h16q7 -1 8 -8v-16q-1 -7 -8 -8h-16q-7 1 -8 8v16v0zM488 128h-16q-22 -2 -24 -24v-16q2 -22 24 -24h16q22 2 24 24v16
q-2 22 -24 24v0zM496 88q-1 -7 -8 -8h-16q-7 1 -8 8v16q1 7 8 8h16q7 -1 8 -8v-16v0zM104 128h-16q-22 -2 -24 -24v-16q2 -22 24 -24h16q22 2 24 24v16q-2 22 -24 24v0zM112 88q-1 -7 -8 -8h-16q-7 1 -8 8v16q1 7 8 8h16q7 -1 8 -8v-16v0zM104 320h-16q-22 -2 -24 -24v-16
q2 -22 24 -24h16q22 2 24 24v16q-2 22 -24 24v0zM112 280q-1 -7 -8 -8h-16q-7 1 -8 8v16q1 7 8 8h16q7 -1 8 -8v-16v0z" />
    <glyph glyph-name="chevron-left" unicode="&#xf053;" horiz-adv-x="320" 
d="M254 413q2 -2 2 -5t-3 -6l-233 -210l233 -210q5 -5 1 -11q-5 -5 -11 -1l-240 216q-6 6 0 12l240 216q5 4 11 -1v0z" />
    <glyph glyph-name="chevron-left" unicode="&#x2329;" horiz-adv-x="320" 
d="M254 413q2 -2 2 -5t-3 -6l-233 -210l233 -210q5 -5 1 -11q-5 -5 -11 -1l-240 216q-6 6 0 12l240 216q5 4 11 -1v0z" />
    <glyph glyph-name="chevron-right" unicode="&#xf054;" horiz-adv-x="320" 
d="M66 -29q-2 2 -2 5t3 6l233 210l-233 210q-5 5 -1 11q5 5 11 1l240 -216q6 -6 0 -12l-240 -216q-6 -4 -11 1v0z" />
    <glyph glyph-name="chevron-right" unicode="&#x232a;" horiz-adv-x="320" 
d="M66 -29q-2 2 -2 5t3 6l233 210l-233 210q-5 5 -1 11q5 5 11 1l240 -216q6 -6 0 -12l-240 -216q-6 -4 -11 1v0z" />
    <glyph glyph-name="delete-left" unicode="&#xf55a;" horiz-adv-x="576" 
d="M512 384h-307q-26 0 -45 -19l-151 -150q-9 -10 -9 -23t9 -23l151 -150q19 -19 45 -19h307q27 1 45 19t19 45v256q-1 27 -19 45t-45 19v0zM560 64q-1 -20 -14 -34v0q-14 -13 -34 -14h-307q-19 0 -34 14l-150 151q-5 4 -5 11t5 11l150 151q14 14 34 14h307q20 -1 34 -14
q13 -14 14 -34v-256v0zM430 270q-6 4 -12 0l-66 -67l-66 67q-6 4 -12 0q-4 -6 0 -12l67 -66l-67 -66q-4 -6 0 -12q6 -4 12 0l66 67l66 -67q6 -4 12 0q4 6 0 12l-67 66l67 66q4 6 0 12v0z" />
    <glyph glyph-name="delete-left" unicode="&#x232b;" horiz-adv-x="576" 
d="M512 384h-307q-26 0 -45 -19l-151 -150q-9 -10 -9 -23t9 -23l151 -150q19 -19 45 -19h307q27 1 45 19t19 45v256q-1 27 -19 45t-45 19v0zM560 64q-1 -20 -14 -34v0q-14 -13 -34 -14h-307q-19 0 -34 14l-150 151q-5 4 -5 11t5 11l150 151q14 14 34 14h307q20 -1 34 -14
q13 -14 14 -34v-256v0zM430 270q-6 4 -12 0l-66 -67l-66 67q-6 4 -12 0q-4 -6 0 -12l67 -66l-67 -66q-4 -6 0 -12q6 -4 12 0l66 67l66 -67q6 -4 12 0q4 6 0 12l-67 66l67 66q4 6 0 12v0z" />
    <glyph glyph-name="print" unicode="&#x1f5b6;" 
d="M88 288q7 1 8 8v112q2 22 24 24h227q10 0 17 -7l45 -45q7 -7 7 -17v-67q1 -7 8 -8q7 1 8 8v67q0 16 -12 28l-45 45q-12 12 -28 12h-227q-17 0 -28 -12q-12 -11 -12 -28v-112q1 -7 8 -8v0zM448 256h-384q-27 -1 -45 -19t-19 -45v-96q0 -14 9 -23t23 -9h48v-104
q2 -22 24 -24h304q22 2 24 24v104h48q14 0 23 9t9 23v96q-1 27 -19 45t-45 19v0zM416 -40q-1 -7 -8 -8h-304q-7 1 -8 8v144q1 7 8 8h304q7 -1 8 -8v-144v0zM496 96q-1 -15 -16 -16h-48v24q-2 22 -24 24h-304q-22 -2 -24 -24v-24h-48q-15 1 -16 16v96q1 20 14 34q14 13 34 14
h384q20 -1 34 -14q13 -14 14 -34v-96v0zM432 192q-15 -1 -16 -16q1 -15 16 -16q15 1 16 16q-1 15 -16 16v0z" />
    <glyph glyph-name="print" unicode="&#x1f5a8;" 
d="M88 288q7 1 8 8v112q2 22 24 24h227q10 0 17 -7l45 -45q7 -7 7 -17v-67q1 -7 8 -8q7 1 8 8v67q0 16 -12 28l-45 45q-12 12 -28 12h-227q-17 0 -28 -12q-12 -11 -12 -28v-112q1 -7 8 -8v0zM448 256h-384q-27 -1 -45 -19t-19 -45v-96q0 -14 9 -23t23 -9h48v-104
q2 -22 24 -24h304q22 2 24 24v104h48q14 0 23 9t9 23v96q-1 27 -19 45t-45 19v0zM416 -40q-1 -7 -8 -8h-304q-7 1 -8 8v144q1 7 8 8h304q7 -1 8 -8v-144v0zM496 96q-1 -15 -16 -16h-48v24q-2 22 -24 24h-304q-22 -2 -24 -24v-24h-48q-15 1 -16 16v96q1 20 14 34q14 13 34 14
h384q20 -1 34 -14q13 -14 14 -34v-96v0zM432 192q-15 -1 -16 -16q1 -15 16 -16q15 1 16 16q-1 15 -16 16v0z" />
    <glyph glyph-name="print" unicode="&#xf02f;" 
d="M88 288q7 1 8 8v112q2 22 24 24h227q10 0 17 -7l45 -45q7 -7 7 -17v-67q1 -7 8 -8q7 1 8 8v67q0 16 -12 28l-45 45q-12 12 -28 12h-227q-17 0 -28 -12q-12 -11 -12 -28v-112q1 -7 8 -8v0zM448 256h-384q-27 -1 -45 -19t-19 -45v-96q0 -14 9 -23t23 -9h48v-104
q2 -22 24 -24h304q22 2 24 24v104h48q14 0 23 9t9 23v96q-1 27 -19 45t-45 19v0zM416 -40q-1 -7 -8 -8h-304q-7 1 -8 8v144q1 7 8 8h304q7 -1 8 -8v-144v0zM496 96q-1 -15 -16 -16h-48v24q-2 22 -24 24h-304q-22 -2 -24 -24v-24h-48q-15 1 -16 16v96q1 20 14 34q14 13 34 14
h384q20 -1 34 -14q13 -14 14 -34v-96v0zM432 192q-15 -1 -16 -16q1 -15 16 -16q15 1 16 16q-1 15 -16 16v0z" />
    <glyph glyph-name="print" unicode="&#x2399;" 
d="M88 288q7 1 8 8v112q2 22 24 24h227q10 0 17 -7l45 -45q7 -7 7 -17v-67q1 -7 8 -8q7 1 8 8v67q0 16 -12 28l-45 45q-12 12 -28 12h-227q-17 0 -28 -12q-12 -11 -12 -28v-112q1 -7 8 -8v0zM448 256h-384q-27 -1 -45 -19t-19 -45v-96q0 -14 9 -23t23 -9h48v-104
q2 -22 24 -24h304q22 2 24 24v104h48q14 0 23 9t9 23v96q-1 27 -19 45t-45 19v0zM416 -40q-1 -7 -8 -8h-304q-7 1 -8 8v144q1 7 8 8h304q7 -1 8 -8v-144v0zM496 96q-1 -15 -16 -16h-48v24q-2 22 -24 24h-304q-22 -2 -24 -24v-24h-48q-15 1 -16 16v96q1 20 14 34q14 13 34 14
h384q20 -1 34 -14q13 -14 14 -34v-96v0zM432 192q-15 -1 -16 -16q1 -15 16 -16q15 1 16 16q-1 15 -16 16v0z" />
    <glyph glyph-name="eject" unicode="&#xf052;" horiz-adv-x="448" 
d="M439 17h-431q-7 -1 -8 -8q1 -9 8 -9h432q7 1 8 8q-1 8 -9 9v0zM34 95h380q22 1 31 19q8 18 -4 33l-190 225q-11 12 -27 12t-27 -12l-190 -225q-12 -15 -4 -33q9 -18 31 -19v0zM20 137l190 225q5 6 14 7q8 -1 14 -7l190 -225q6 -7 3 -16q-4 -8 -17 -10h-380q-13 2 -17 10
q-3 8 3 16v0z" />
    <glyph glyph-name="eject" unicode="&#x23cf;" horiz-adv-x="448" 
d="M439 17h-431q-7 -1 -8 -8q1 -9 8 -9h432q7 1 8 8q-1 8 -9 9v0zM34 95h380q22 1 31 19q8 18 -4 33l-190 225q-11 12 -27 12t-27 -12l-190 -225q-12 -15 -4 -33q9 -18 31 -19v0zM20 137l190 225q5 6 14 7q8 -1 14 -7l190 -225q6 -7 3 -16q-4 -8 -17 -10h-380q-13 2 -17 10
q-3 8 3 16v0z" />
    <glyph glyph-name="forward" unicode="&#xf04e;" 
d="M32 368q6 0 10 -4l153 -127q10 -5 13 6q0 4 -3 6l-152 128q-10 7 -21 7q-13 0 -22 -9q-10 -8 -10 -23v-320q0 -15 10 -23q9 -9 22 -9q11 0 21 7l152 128q2 3 2 6q-3 11 -13 6l-153 -127q-3 -4 -9 -4q-14 0 -16 16v320q2 16 16 16v0zM501 217l-192 159q-10 8 -21 8
q-13 0 -22 -9q-10 -8 -10 -23v-320q0 -15 10 -23q9 -9 22 -9q11 0 20 7l192 160q12 10 12 25q0 14 -11 25v0zM490 180l-192 -159q-4 -5 -10 -5q-14 0 -16 16v320q2 16 16 16q6 0 10 -4l191 -160q6 -4 6 -12t-5 -12v0z" />
    <glyph glyph-name="forward" unicode="&#x23e9;" 
d="M32 368q6 0 10 -4l153 -127q10 -5 13 6q0 4 -3 6l-152 128q-10 7 -21 7q-13 0 -22 -9q-10 -8 -10 -23v-320q0 -15 10 -23q9 -9 22 -9q11 0 21 7l152 128q2 3 2 6q-3 11 -13 6l-153 -127q-3 -4 -9 -4q-14 0 -16 16v320q2 16 16 16v0zM501 217l-192 159q-10 8 -21 8
q-13 0 -22 -9q-10 -8 -10 -23v-320q0 -15 10 -23q9 -9 22 -9q11 0 20 7l192 160q12 10 12 25q0 14 -11 25v0zM490 180l-192 -159q-4 -5 -10 -5q-14 0 -16 16v320q2 16 16 16q6 0 10 -4l191 -160q6 -4 6 -12t-5 -12v0z" />
    <glyph glyph-name="backward" unicode="&#xf04a;" 
d="M224 384q-11 0 -20 -7l-193 -160q-11 -11 -11 -25t11 -25l192 -159q10 -8 21 -8q13 0 22 9q10 8 10 23v320q-1 15 -10 23q-9 9 -22 9v0zM239 33q-2 -17 -15 -17q-6 0 -10 4l-191 160q-7 4 -7 12t6 12l192 160q4 4 10 4q14 0 16 -16v-319h-1zM480 384q-11 0 -20 -7
l-153 -128q-3 -2 -3 -6q3 -11 13 -6l153 127q4 4 10 4q14 0 16 -16v-320q-2 -15 -16 -16q-6 0 -10 4l-153 127q-10 5 -13 -6q0 -4 3 -6l153 -128q9 -7 20 -7q13 1 22 9q10 9 10 24v319q0 15 -10 23q-9 9 -22 9v0z" />
    <glyph glyph-name="backward" unicode="&#x23ea;" 
d="M224 384q-11 0 -20 -7l-193 -160q-11 -11 -11 -25t11 -25l192 -159q10 -8 21 -8q13 0 22 9q10 8 10 23v320q-1 15 -10 23q-9 9 -22 9v0zM239 33q-2 -17 -15 -17q-6 0 -10 4l-191 160q-7 4 -7 12t6 12l192 160q4 4 10 4q14 0 16 -16v-319h-1zM480 384q-11 0 -20 -7
l-153 -128q-3 -2 -3 -6q3 -11 13 -6l153 127q4 4 10 4q14 0 16 -16v-320q-2 -15 -16 -16q-6 0 -10 4l-153 127q-10 5 -13 -6q0 -4 3 -6l153 -128q9 -7 20 -7q13 1 22 9q10 9 10 24v319q0 15 -10 23q-9 9 -22 9v0z" />
    <glyph glyph-name="forward-fast" unicode="&#xf050;" 
d="M504 384q-7 -1 -8 -7v-367q1 -10 8 -10q7 1 8 8v368q-1 7 -8 8v0zM270 375q-18 15 -40 5t-23 -35v-306q1 -25 22 -35q9 -4 17 -4q14 0 24 8l180 153q14 12 14 30t-14 30l-180 154v0zM440 174l-180 -153q-10 -8 -23 -3q-13 6 -13 21v306q0 15 13 21q5 2 9 2q8 0 14 -5
l180 -154q8 -6 8 -17q-1 -11 -8 -18v0zM29 366q12 5 23 -3l119 -101q6 -4 11 1q4 6 -1 11l-119 101q-18 15 -40 5q-21 -10 -22 -35v-306q1 -25 22 -35q8 -4 16 -4q14 0 24 8l119 101q5 5 1 11q-5 6 -11 1l-119 -101q-11 -8 -23 -3q-13 8 -13 22v306q0 15 13 21v0z" />
    <glyph glyph-name="forward-fast" unicode="&#x23ed;" 
d="M504 384q-7 -1 -8 -7v-367q1 -10 8 -10q7 1 8 8v368q-1 7 -8 8v0zM270 375q-18 15 -40 5t-23 -35v-306q1 -25 22 -35q9 -4 17 -4q14 0 24 8l180 153q14 12 14 30t-14 30l-180 154v0zM440 174l-180 -153q-10 -8 -23 -3q-13 6 -13 21v306q0 15 13 21q5 2 9 2q8 0 14 -5
l180 -154q8 -6 8 -17q-1 -11 -8 -18v0zM29 366q12 5 23 -3l119 -101q6 -4 11 1q4 6 -1 11l-119 101q-18 15 -40 5q-21 -10 -22 -35v-306q1 -25 22 -35q8 -4 16 -4q14 0 24 8l119 101q5 5 1 11q-5 6 -11 1l-119 -101q-11 -8 -23 -3q-13 8 -13 22v306q0 15 13 21v0z" />
    <glyph glyph-name="backward-fast" unicode="&#xf049;" 
d="M8 1q7 1 8 7v369q-1 6 -8 7q-7 -1 -8 -7v-368q1 -8 8 -8v0zM242 10q18 -15 40 -6q21 11 22 36v306q-1 24 -22 35q-8 3 -16 3q-14 0 -24 -8l-180 -154q-14 -12 -14 -30t14 -30l180 -152v0zM72 209l180 154q10 8 23 3q13 -6 13 -21v-306q0 -15 -13 -21q-5 -2 -9 -2
q-8 0 -14 5l-180 154q-8 6 -8 18q0 9 8 16v0zM483 18q-12 -5 -23 3l-119 101q-6 5 -11 -1q-4 -6 1 -11l119 -101q18 -15 40 -5q21 10 22 35v306q-1 25 -22 35q-8 4 -16 4q-14 0 -24 -8l-119 -101q-5 -5 -1 -11q5 -6 11 -1l119 101q10 8 23 3q13 -8 13 -22v-306
q0 -15 -13 -21v0z" />
    <glyph glyph-name="backward-fast" unicode="&#x23ee;" 
d="M8 1q7 1 8 7v369q-1 6 -8 7q-7 -1 -8 -7v-368q1 -8 8 -8v0zM242 10q18 -15 40 -6q21 11 22 36v306q-1 24 -22 35q-8 3 -16 3q-14 0 -24 -8l-180 -154q-14 -12 -14 -30t14 -30l180 -152v0zM72 209l180 154q10 8 23 3q13 -6 13 -21v-306q0 -15 -13 -21q-5 -2 -9 -2
q-8 0 -14 5l-180 154q-8 6 -8 18q0 9 8 16v0zM483 18q-12 -5 -23 3l-119 101q-6 5 -11 -1q-4 -6 1 -11l119 -101q18 -15 40 -5q21 10 22 35v306q-1 25 -22 35q-8 4 -16 4q-14 0 -24 -8l-119 -101q-5 -5 -1 -11q5 -6 11 -1l119 101q10 8 23 3q13 -8 13 -22v-306
q0 -15 -13 -21v0z" />
    <glyph glyph-name="alarm-clock" unicode="&#xf34e;" 
d="M264 163v125q-1 7 -8 8q-7 -1 -8 -8v-131l82 -83q2 -2 6 -2q7 1 8 8q0 3 -2 6l-78 77v0zM256 384q-63 -1 -113 -31v0q-51 -29 -80 -80v0q-30 -50 -31 -113q2 -90 60 -153l-58 -57q-4 -6 0 -12q3 -2 6 -2t6 2l58 58q61 -58 152 -60q91 2 153 60l57 -58q2 -2 6 -2t6 2
q4 6 0 12l-58 58q58 62 60 152q-1 63 -31 113q-30 51 -80 80q-50 30 -113 31v0zM256 -48q-88 2 -147 61v0q-59 59 -61 147q2 88 61 147t147 61q88 -2 147 -61t61 -147q-2 -88 -61 -147t-147 -61v0zM36 293q-20 24 -20 55q1 36 25 59q23 24 59 25q31 0 55 -20q6 -5 11 1
q4 6 -1 11q-28 24 -65 24q-42 -1 -71 -29q-28 -29 -29 -71q0 -37 24 -65q3 -3 6 -3t5 2q6 5 1 11v0zM412 448q-37 0 -65 -24q-5 -5 -1 -11q5 -6 11 -1q24 20 55 20q36 -1 59 -25q24 -23 25 -59q0 -31 -20 -55q-5 -6 1 -11q2 -2 5 -2t6 3q24 28 24 65q-1 42 -29 71
q-29 28 -71 29v0z" />
    <glyph glyph-name="alarm-clock" unicode="&#x23f0;" 
d="M264 163v125q-1 7 -8 8q-7 -1 -8 -8v-131l82 -83q2 -2 6 -2q7 1 8 8q0 3 -2 6l-78 77v0zM256 384q-63 -1 -113 -31v0q-51 -29 -80 -80v0q-30 -50 -31 -113q2 -90 60 -153l-58 -57q-4 -6 0 -12q3 -2 6 -2t6 2l58 58q61 -58 152 -60q91 2 153 60l57 -58q2 -2 6 -2t6 2
q4 6 0 12l-58 58q58 62 60 152q-1 63 -31 113q-30 51 -80 80q-50 30 -113 31v0zM256 -48q-88 2 -147 61v0q-59 59 -61 147q2 88 61 147t147 61q88 -2 147 -61t61 -147q-2 -88 -61 -147t-147 -61v0zM36 293q-20 24 -20 55q1 36 25 59q23 24 59 25q31 0 55 -20q6 -5 11 1
q4 6 -1 11q-28 24 -65 24q-42 -1 -71 -29q-28 -29 -29 -71q0 -37 24 -65q3 -3 6 -3t5 2q6 5 1 11v0zM412 448q-37 0 -65 -24q-5 -5 -1 -11q5 -6 11 -1q24 20 55 20q36 -1 59 -25q24 -23 25 -59q0 -31 -20 -55q-5 -6 1 -11q2 -2 5 -2t6 3q24 28 24 65q-1 42 -29 71
q-29 28 -71 29v0z" />
    <glyph glyph-name="stopwatch" unicode="&#xf2f2;" horiz-adv-x="448" 
d="M384 277l38 37q4 6 0 12q-6 4 -12 0l-37 -37q-56 57 -141 63v80h56q7 1 8 8q-1 7 -8 8h-128q-7 -1 -8 -8q1 -7 8 -8h56v-80q-85 -6 -142 -64q-56 -58 -58 -144q2 -88 61 -147t147 -61q88 2 147 61t61 147q-2 77 -48 133v0zM224 -48q-81 2 -136 56v0q-54 55 -56 136
q2 81 56 136q55 54 136 56q81 -2 136 -56q54 -55 56 -136q-2 -81 -56 -136q-55 -54 -136 -56v0zM224 264q-7 -1 -8 -8v-128q1 -7 8 -8q7 1 8 8v128q-1 7 -8 8v0z" />
    <glyph glyph-name="stopwatch" unicode="&#x23f1;" horiz-adv-x="448" 
d="M384 277l38 37q4 6 0 12q-6 4 -12 0l-37 -37q-56 57 -141 63v80h56q7 1 8 8q-1 7 -8 8h-128q-7 -1 -8 -8q1 -7 8 -8h56v-80q-85 -6 -142 -64q-56 -58 -58 -144q2 -88 61 -147t147 -61q88 2 147 61t61 147q-2 77 -48 133v0zM224 -48q-81 2 -136 56v0q-54 55 -56 136
q2 81 56 136q55 54 136 56q81 -2 136 -56q54 -55 56 -136q-2 -81 -56 -136q-55 -54 -136 -56v0zM224 264q-7 -1 -8 -8v-128q1 -7 8 -8q7 1 8 8v128q-1 7 -8 8v0z" />
    <glyph glyph-name="hourglass" unicode="&#xf254;" horiz-adv-x="384" 
d="M32 13v-21q1 -7 8 -8q7 1 8 8v21q0 44 27 78l75 96q4 5 0 10l-75 96q-27 34 -27 78v21q-1 7 -8 8q-7 -1 -8 -8v-21q0 -50 30 -88l72 -91l-72 -91q-30 -39 -30 -88v0zM352 371v21q-1 7 -8 8q-7 -1 -8 -8v-21q0 -44 -27 -78l-75 -96q-4 -5 0 -10l75 -96q27 -34 27 -78v-21
q1 -7 8 -8q7 1 8 8v21q0 49 -30 88l-72 91l72 91q29 38 30 88v0zM8 432h368q7 1 8 8q-1 7 -8 8h-368q-7 -1 -8 -8q1 -7 8 -8v0zM376 -48h-368q-7 -1 -8 -8q1 -7 8 -8h368q7 1 8 8q-1 7 -8 8v0zM192 213q4 0 6 3l74 99q3 4 1 9q-2 4 -8 4h-148q-5 0 -7 -4q-1 -5 2 -9l74 -98
q2 -4 6 -4v0zM249 312l-57 -77l-59 77h116v0zM96 -16h192q7 1 8 8v21q0 24 -14 44l-10 12q-2 3 -7 3h-148q-4 0 -6 -3l-9 -13q-14 -19 -14 -43v-21q1 -7 8 -8v0zM104 13q0 19 11 34l6 9h139l7 -9q13 -15 13 -34v-13h-176v13v0z" />
    <glyph glyph-name="hourglass" unicode="&#xf250;" horiz-adv-x="384" 
d="M32 13v-21q1 -7 8 -8q7 1 8 8v21q0 44 27 78l75 96q4 5 0 10l-75 96q-27 34 -27 78v21q-1 7 -8 8q-7 -1 -8 -8v-21q0 -50 30 -88l72 -91l-72 -91q-30 -39 -30 -88v0zM352 371v21q-1 7 -8 8q-7 -1 -8 -8v-21q0 -44 -27 -78l-75 -96q-4 -5 0 -10l75 -96q27 -34 27 -78v-21
q1 -7 8 -8q7 1 8 8v21q0 49 -30 88l-72 91l72 91q29 38 30 88v0zM8 432h368q7 1 8 8q-1 7 -8 8h-368q-7 -1 -8 -8q1 -7 8 -8v0zM376 -48h-368q-7 -1 -8 -8q1 -7 8 -8h368q7 1 8 8q-1 7 -8 8v0zM192 213q4 0 6 3l74 99q3 4 1 9q-2 4 -8 4h-148q-5 0 -7 -4q-1 -5 2 -9l74 -98
q2 -4 6 -4v0zM249 312l-57 -77l-59 77h116v0zM96 -16h192q7 1 8 8v21q0 24 -14 44l-10 12q-2 3 -7 3h-148q-4 0 -6 -3l-9 -13q-14 -19 -14 -43v-21q1 -7 8 -8v0zM104 13q0 19 11 34l6 9h139l7 -9q13 -15 13 -34v-13h-176v13v0z" />
    <glyph glyph-name="hourglass" unicode="&#x23f3;" horiz-adv-x="384" 
d="M32 13v-21q1 -7 8 -8q7 1 8 8v21q0 44 27 78l75 96q4 5 0 10l-75 96q-27 34 -27 78v21q-1 7 -8 8q-7 -1 -8 -8v-21q0 -50 30 -88l72 -91l-72 -91q-30 -39 -30 -88v0zM352 371v21q-1 7 -8 8q-7 -1 -8 -8v-21q0 -44 -27 -78l-75 -96q-4 -5 0 -10l75 -96q27 -34 27 -78v-21
q1 -7 8 -8q7 1 8 8v21q0 49 -30 88l-72 91l72 91q29 38 30 88v0zM8 432h368q7 1 8 8q-1 7 -8 8h-368q-7 -1 -8 -8q1 -7 8 -8v0zM376 -48h-368q-7 -1 -8 -8q1 -7 8 -8h368q7 1 8 8q-1 7 -8 8v0zM192 213q4 0 6 3l74 99q3 4 1 9q-2 4 -8 4h-148q-5 0 -7 -4q-1 -5 2 -9l74 -98
q2 -4 6 -4v0zM249 312l-57 -77l-59 77h116v0zM96 -16h192q7 1 8 8v21q0 24 -14 44l-10 12q-2 3 -7 3h-148q-4 0 -6 -3l-9 -13q-14 -19 -14 -43v-21q1 -7 8 -8v0zM104 13q0 19 11 34l6 9h139l7 -9q13 -15 13 -34v-13h-176v13v0z" />
    <glyph glyph-name="pause" unicode="&#xf04c;" horiz-adv-x="320" 
d="M64 384q-7 -1 -8 -8v-368q1 -7 8 -8q7 1 8 8v368q-1 7 -8 8v0zM256 384q-7 -1 -8 -8v-368q1 -7 8 -8q7 1 8 8v368q-1 7 -8 8v0z" />
    <glyph glyph-name="pause" unicode="&#x23f8;" horiz-adv-x="320" 
d="M64 384q-7 -1 -8 -8v-368q1 -7 8 -8q7 1 8 8v368q-1 7 -8 8v0zM256 384q-7 -1 -8 -8v-368q1 -7 8 -8q7 1 8 8v368q-1 7 -8 8v0z" />
    <glyph glyph-name="stop" unicode="&#xf04d;" horiz-adv-x="384" 
d="M320 384h-256q-27 -1 -45 -19t-19 -45v-255q1 -27 19 -45t45 -19h256q27 1 45 19t19 45v255q-1 27 -19 45t-45 19v0zM368 64q-1 -20 -14 -34v0q-14 -13 -34 -14h-256q-20 1 -34 14q-13 14 -14 34v256q1 20 14 34q14 13 34 14h256q20 -1 34 -14q13 -14 14 -34v-256v0z" />
    <glyph glyph-name="stop" unicode="&#x23f9;" horiz-adv-x="384" 
d="M320 384h-256q-27 -1 -45 -19t-19 -45v-255q1 -27 19 -45t45 -19h256q27 1 45 19t19 45v255q-1 27 -19 45t-45 19v0zM368 64q-1 -20 -14 -34v0q-14 -13 -34 -14h-256q-20 1 -34 14q-13 14 -14 34v256q1 20 14 34q14 13 34 14h256q20 -1 34 -14q13 -14 14 -34v-256v0z" />
    <glyph glyph-name="power-off" unicode="&#xf011;" 
d="M380 380q-7 4 -11 -2q-4 -7 2 -11q48 -31 74 -79q27 -47 27 -104q-1 -60 -30 -109q-28 -49 -77 -77q-49 -29 -109 -30q-60 1 -109 30q-49 28 -77 77q-29 49 -30 109q0 57 27 104q26 48 74 79q6 4 2 11q-4 6 -11 2q-51 -33 -79 -84q-29 -51 -29 -112q1 -65 32 -117t83 -83
t117 -32q65 1 117 32t83 83t32 117q0 61 -29 112q-28 51 -79 84v0zM255 184q7 1 8 8v240q-1 7 -8 8q-7 -1 -8 -8v-240q1 -7 8 -8v0z" />
    <glyph glyph-name="power-off" unicode="&#x23fb;" 
d="M380 380q-7 4 -11 -2q-4 -7 2 -11q48 -31 74 -79q27 -47 27 -104q-1 -60 -30 -109q-28 -49 -77 -77q-49 -29 -109 -30q-60 1 -109 30q-49 28 -77 77q-29 49 -30 109q0 57 27 104q26 48 74 79q6 4 2 11q-4 6 -11 2q-51 -33 -79 -84q-29 -51 -29 -112q1 -65 32 -117t83 -83
t117 -32q65 1 117 32t83 83t32 117q0 61 -29 112q-28 51 -79 84v0zM255 184q7 1 8 8v240q-1 7 -8 8q-7 -1 -8 -8v-240q1 -7 8 -8v0z" />
    <glyph glyph-name="moon" unicode="&#x1f319;" 
d="M430 72q-7 10 -19 8q-74 -13 -133 34q-28 24 -43 56q-16 32 -16 68q0 45 22 82t60 59q10 6 9 18q-3 13 -15 15q-8 2 -20 3q-11 1 -20 1q-63 -1 -113 -31t-80 -80q-30 -51 -31 -113q1 -62 31 -113q30 -50 80 -80q51 -30 113 -31q51 0 96 22q45 21 78 61q7 10 1 21v0z
M416 62q-30 -38 -72 -58v0q-41 -20 -89 -20q-88 2 -147 61t-61 147q2 88 61 147t147 61q8 0 19 -1t19 -2l2 -2q0 -2 -1 -2q-42 -25 -66 -65q-24 -41 -24 -90q0 -40 17 -75q16 -35 47 -61t69 -35q38 -10 77 -3q2 0 3 -1q0 -1 -1 -1v0v0z" />
    <glyph glyph-name="moon" unicode="&#xf186;" 
d="M430 72q-7 10 -19 8q-74 -13 -133 34q-28 24 -43 56q-16 32 -16 68q0 45 22 82t60 59q10 6 9 18q-3 13 -15 15q-8 2 -20 3q-11 1 -20 1q-63 -1 -113 -31t-80 -80q-30 -51 -31 -113q1 -62 31 -113q30 -50 80 -80q51 -30 113 -31q51 0 96 22q45 21 78 61q7 10 1 21v0z
M416 62q-30 -38 -72 -58v0q-41 -20 -89 -20q-88 2 -147 61t-61 147q2 88 61 147t147 61q8 0 19 -1t19 -2l2 -2q0 -2 -1 -2q-42 -25 -66 -65q-24 -41 -24 -90q0 -40 17 -75q16 -35 47 -61t69 -35q38 -10 77 -3q2 0 3 -1q0 -1 -1 -1v0v0z" />
    <glyph glyph-name="moon" unicode="&#x23fe;" 
d="M430 72q-7 10 -19 8q-74 -13 -133 34q-28 24 -43 56q-16 32 -16 68q0 45 22 82t60 59q10 6 9 18q-3 13 -15 15q-8 2 -20 3q-11 1 -20 1q-63 -1 -113 -31t-80 -80q-30 -51 -31 -113q1 -62 31 -113q30 -50 80 -80q51 -30 113 -31q51 0 96 22q45 21 78 61q7 10 1 21v0z
M416 62q-30 -38 -72 -58v0q-41 -20 -89 -20q-88 2 -147 61t-61 147q2 88 61 147t147 61q8 0 19 -1t19 -2l2 -2q0 -2 -1 -2q-42 -25 -66 -65q-24 -41 -24 -90q0 -40 17 -75q16 -35 47 -61t69 -35q38 -10 77 -3q2 0 3 -1q0 -1 -1 -1v0v0z" />
    <glyph glyph-name="circle-h" unicode="&#xf47e;" 
d="M344 320q-7 -1 -8 -8v-112h-160v112q-1 7 -8 8q-7 -1 -8 -8v-240q1 -7 8 -8q7 1 8 8v112h160v-112q1 -7 8 -8q7 1 8 8v240q-1 7 -8 8v0zM256 448q-72 -1 -129 -35v0q-58 -34 -92 -92v0q-34 -57 -35 -129q1 -72 35 -129q34 -58 92 -92q57 -34 129 -35q72 1 129 35
q58 34 92 92q34 57 35 129q-1 72 -35 129q-34 58 -92 92q-57 34 -129 35v0zM256 -48q-67 1 -121 33v0q-54 32 -86 86v0q-32 54 -33 121q1 67 33 121t86 86t121 33q67 -1 121 -33t86 -86t33 -121q-1 -67 -33 -121t-86 -86t-121 -33v0z" />
    <glyph glyph-name="circle-h" unicode="&#x24bd;" 
d="M344 320q-7 -1 -8 -8v-112h-160v112q-1 7 -8 8q-7 -1 -8 -8v-240q1 -7 8 -8q7 1 8 8v112h160v-112q1 -7 8 -8q7 1 8 8v240q-1 7 -8 8v0zM256 448q-72 -1 -129 -35v0q-58 -34 -92 -92v0q-34 -57 -35 -129q1 -72 35 -129q34 -58 92 -92q57 -34 129 -35q72 1 129 35
q58 34 92 92q34 57 35 129q-1 72 -35 129q-34 58 -92 92q-57 34 -129 35v0zM256 -48q-67 1 -121 33v0q-54 32 -86 86v0q-32 54 -33 121q1 67 33 121t86 86t121 33q67 -1 121 -33t86 -86t33 -121q-1 -67 -33 -121t-86 -86t-121 -33v0z" />
    <glyph glyph-name="square" unicode="&#xf0c8;" horiz-adv-x="448" 
d="M384 417h-320q-27 -1 -45 -19t-19 -44v-320q1 -27 19 -45q18 -19 45 -19h320q27 0 45 19q18 18 19 45v320q-1 26 -19 44t-45 19v0zM432 32q-1 -20 -14 -34v0q-14 -13 -34 -14h-320q-20 1 -34 14q-13 14 -14 34v320q1 20 14 34q14 13 34 14h320q20 -1 34 -14
q13 -14 14 -34v-320v0z" />
    <glyph glyph-name="square" unicode="&#xf096;" horiz-adv-x="448" 
d="M384 417h-320q-27 -1 -45 -19t-19 -44v-320q1 -27 19 -45q18 -19 45 -19h320q27 0 45 19q18 18 19 45v320q-1 26 -19 44t-45 19v0zM432 32q-1 -20 -14 -34v0q-14 -13 -34 -14h-320q-20 1 -34 14q-13 14 -14 34v320q1 20 14 34q14 13 34 14h320q20 -1 34 -14
q13 -14 14 -34v-320v0z" />
    <glyph glyph-name="square" unicode="&#x25fc;" horiz-adv-x="448" 
d="M384 417h-320q-27 -1 -45 -19t-19 -44v-320q1 -27 19 -45q18 -19 45 -19h320q27 0 45 19q18 18 19 45v320q-1 26 -19 44t-45 19v0zM432 32q-1 -20 -14 -34v0q-14 -13 -34 -14h-320q-20 1 -34 14q-13 14 -14 34v320q1 20 14 34q14 13 34 14h320q20 -1 34 -14
q13 -14 14 -34v-320v0z" />
    <glyph glyph-name="square" unicode="&#x25fb;" horiz-adv-x="448" 
d="M384 417h-320q-27 -1 -45 -19t-19 -44v-320q1 -27 19 -45q18 -19 45 -19h320q27 0 45 19q18 18 19 45v320q-1 26 -19 44t-45 19v0zM432 32q-1 -20 -14 -34v0q-14 -13 -34 -14h-320q-20 1 -34 14q-13 14 -14 34v320q1 20 14 34q14 13 34 14h320q20 -1 34 -14
q13 -14 14 -34v-320v0z" />
    <glyph glyph-name="square" unicode="&#x25a0;" horiz-adv-x="448" 
d="M384 417h-320q-27 -1 -45 -19t-19 -44v-320q1 -27 19 -45q18 -19 45 -19h320q27 0 45 19q18 18 19 45v320q-1 26 -19 44t-45 19v0zM432 32q-1 -20 -14 -34v0q-14 -13 -34 -14h-320q-20 1 -34 14q-13 14 -14 34v320q1 20 14 34q14 13 34 14h320q20 -1 34 -14
q13 -14 14 -34v-320v0z" />
    <glyph glyph-name="rectangle" unicode="&#xf2fa;" 
d="M448 368q20 -1 34 -14v0q13 -14 14 -34v-256q-1 -20 -14 -34q-14 -13 -34 -14h-384q-20 1 -34 14q-13 14 -14 34v256q1 20 14 34q14 13 34 14h384v0zM448 385h-384q-27 -1 -45 -19t-19 -44v-256q1 -27 19 -45q18 -19 45 -19h384q27 0 45 19q18 18 19 45v256q-1 26 -19 44
t-45 19v0z" />
    <glyph glyph-name="rectangle" unicode="&#x25ac;" 
d="M448 368q20 -1 34 -14v0q13 -14 14 -34v-256q-1 -20 -14 -34q-14 -13 -34 -14h-384q-20 1 -34 14q-13 14 -14 34v256q1 20 14 34q14 13 34 14h384v0zM448 385h-384q-27 -1 -45 -19t-19 -44v-256q1 -27 19 -45q18 -19 45 -19h384q27 0 45 19q18 18 19 45v256q-1 26 -19 44
t-45 19v0z" />
    <glyph glyph-name="triangle" unicode="&#xf2ec;" 
d="M506 31l-213 364q-14 21 -38 21q-23 0 -37 -21l-213 -364q-12 -22 0 -42q11 -20 36 -21h428q26 1 37 21q12 20 0 42v0zM493 -3q-8 -13 -24 -13h-426q-16 0 -24 13q-7 13 1 26l213 364q8 13 22 13q15 0 23 -13l214 -363q8 -14 1 -27v0z" />
    <glyph glyph-name="triangle" unicode="&#x25b2;" 
d="M506 31l-213 364q-14 21 -38 21q-23 0 -37 -21l-213 -364q-12 -22 0 -42q11 -20 36 -21h428q26 1 37 21q12 20 0 42v0zM493 -3q-8 -13 -24 -13h-426q-16 0 -24 13q-7 13 1 26l213 364q8 13 22 13q15 0 23 -13l214 -363q8 -14 1 -27v0z" />
    <glyph glyph-name="play" unicode="&#xf04b;" 
d="M489 233l-288 176q-12 7 -25 7q-21 -1 -34 -14q-14 -14 -14 -34v-352q0 -20 14 -34q13 -13 34 -14q13 0 25 7l288 176q22 15 23 41q-1 26 -23 41v0zM481 165l-287 -175q-9 -6 -18 -6q-14 0 -23 9t-9 23v352q0 12 9 22q8 9 23 10q9 0 17 -5l288 -176q14 -9 15 -27
q-1 -18 -15 -27v0z" />
    <glyph glyph-name="play" unicode="&#x25b6;" 
d="M489 233l-288 176q-12 7 -25 7q-21 -1 -34 -14q-14 -14 -14 -34v-352q0 -20 14 -34q13 -13 34 -14q13 0 25 7l288 176q22 15 23 41q-1 26 -23 41v0zM481 165l-287 -175q-9 -6 -18 -6q-14 0 -23 9t-9 23v352q0 12 9 22q8 9 23 10q9 0 17 -5l288 -176q14 -9 15 -27
q-1 -18 -15 -27v0z" />
    <glyph glyph-name="circle" unicode="&#x1f7e4;" 
d="M256 448q-72 -1 -129 -35v0q-58 -34 -92 -92v0q-34 -57 -35 -129q1 -72 35 -129q34 -58 92 -92q57 -34 129 -35q72 1 129 35q58 34 92 92q34 57 35 129q-1 72 -35 129q-34 58 -92 92q-57 34 -129 35v0zM256 -48q-67 1 -121 33v0q-54 32 -86 86v0q-32 54 -33 121
q1 67 33 121t86 86t121 33q67 -1 121 -33t86 -86t33 -121q-1 -67 -33 -121t-86 -86t-121 -33v0z" />
    <glyph glyph-name="circle" unicode="&#x1f7e3;" 
d="M256 448q-72 -1 -129 -35v0q-58 -34 -92 -92v0q-34 -57 -35 -129q1 -72 35 -129q34 -58 92 -92q57 -34 129 -35q72 1 129 35q58 34 92 92q34 57 35 129q-1 72 -35 129q-34 58 -92 92q-57 34 -129 35v0zM256 -48q-67 1 -121 33v0q-54 32 -86 86v0q-32 54 -33 121
q1 67 33 121t86 86t121 33q67 -1 121 -33t86 -86t33 -121q-1 -67 -33 -121t-86 -86t-121 -33v0z" />
    <glyph glyph-name="circle" unicode="&#x1f7e2;" 
d="M256 448q-72 -1 -129 -35v0q-58 -34 -92 -92v0q-34 -57 -35 -129q1 -72 35 -129q34 -58 92 -92q57 -34 129 -35q72 1 129 35q58 34 92 92q34 57 35 129q-1 72 -35 129q-34 58 -92 92q-57 34 -129 35v0zM256 -48q-67 1 -121 33v0q-54 32 -86 86v0q-32 54 -33 121
q1 67 33 121t86 86t121 33q67 -1 121 -33t86 -86t33 -121q-1 -67 -33 -121t-86 -86t-121 -33v0z" />
    <glyph glyph-name="circle" unicode="&#x1f7e1;" 
d="M256 448q-72 -1 -129 -35v0q-58 -34 -92 -92v0q-34 -57 -35 -129q1 -72 35 -129q34 -58 92 -92q57 -34 129 -35q72 1 129 35q58 34 92 92q34 57 35 129q-1 72 -35 129q-34 58 -92 92q-57 34 -129 35v0zM256 -48q-67 1 -121 33v0q-54 32 -86 86v0q-32 54 -33 121
q1 67 33 121t86 86t121 33q67 -1 121 -33t86 -86t33 -121q-1 -67 -33 -121t-86 -86t-121 -33v0z" />
    <glyph glyph-name="circle" unicode="&#x1f7e0;" 
d="M256 448q-72 -1 -129 -35v0q-58 -34 -92 -92v0q-34 -57 -35 -129q1 -72 35 -129q34 -58 92 -92q57 -34 129 -35q72 1 129 35q58 34 92 92q34 57 35 129q-1 72 -35 129q-34 58 -92 92q-57 34 -129 35v0zM256 -48q-67 1 -121 33v0q-54 32 -86 86v0q-32 54 -33 121
q1 67 33 121t86 86t121 33q67 -1 121 -33t86 -86t33 -121q-1 -67 -33 -121t-86 -86t-121 -33v0z" />
    <glyph glyph-name="circle" unicode="&#x1f535;" 
d="M256 448q-72 -1 -129 -35v0q-58 -34 -92 -92v0q-34 -57 -35 -129q1 -72 35 -129q34 -58 92 -92q57 -34 129 -35q72 1 129 35q58 34 92 92q34 57 35 129q-1 72 -35 129q-34 58 -92 92q-57 34 -129 35v0zM256 -48q-67 1 -121 33v0q-54 32 -86 86v0q-32 54 -33 121
q1 67 33 121t86 86t121 33q67 -1 121 -33t86 -86t33 -121q-1 -67 -33 -121t-86 -86t-121 -33v0z" />
    <glyph glyph-name="circle" unicode="&#x1f534;" 
d="M256 448q-72 -1 -129 -35v0q-58 -34 -92 -92v0q-34 -57 -35 -129q1 -72 35 -129q34 -58 92 -92q57 -34 129 -35q72 1 129 35q58 34 92 92q34 57 35 129q-1 72 -35 129q-34 58 -92 92q-57 34 -129 35v0zM256 -48q-67 1 -121 33v0q-54 32 -86 86v0q-32 54 -33 121
q1 67 33 121t86 86t121 33q67 -1 121 -33t86 -86t33 -121q-1 -67 -33 -121t-86 -86t-121 -33v0z" />
    <glyph glyph-name="circle" unicode="&#xf1db;" 
d="M256 448q-72 -1 -129 -35v0q-58 -34 -92 -92v0q-34 -57 -35 -129q1 -72 35 -129q34 -58 92 -92q57 -34 129 -35q72 1 129 35q58 34 92 92q34 57 35 129q-1 72 -35 129q-34 58 -92 92q-57 34 -129 35v0zM256 -48q-67 1 -121 33v0q-54 32 -86 86v0q-32 54 -33 121
q1 67 33 121t86 86t121 33q67 -1 121 -33t86 -86t33 -121q-1 -67 -33 -121t-86 -86t-121 -33v0z" />
    <glyph glyph-name="circle" unicode="&#xf111;" 
d="M256 448q-72 -1 -129 -35v0q-58 -34 -92 -92v0q-34 -57 -35 -129q1 -72 35 -129q34 -58 92 -92q57 -34 129 -35q72 1 129 35q58 34 92 92q34 57 35 129q-1 72 -35 129q-34 58 -92 92q-57 34 -129 35v0zM256 -48q-67 1 -121 33v0q-54 32 -86 86v0q-32 54 -33 121
q1 67 33 121t86 86t121 33q67 -1 121 -33t86 -86t33 -121q-1 -67 -33 -121t-86 -86t-121 -33v0z" />
    <glyph glyph-name="circle" unicode="&#xf10c;" 
d="M256 448q-72 -1 -129 -35v0q-58 -34 -92 -92v0q-34 -57 -35 -129q1 -72 35 -129q34 -58 92 -92q57 -34 129 -35q72 1 129 35q58 34 92 92q34 57 35 129q-1 72 -35 129q-34 58 -92 92q-57 34 -129 35v0zM256 -48q-67 1 -121 33v0q-54 32 -86 86v0q-32 54 -33 121
q1 67 33 121t86 86t121 33q67 -1 121 -33t86 -86t33 -121q-1 -67 -33 -121t-86 -86t-121 -33v0z" />
    <glyph glyph-name="circle" unicode="&#x2b24;" 
d="M256 448q-72 -1 -129 -35v0q-58 -34 -92 -92v0q-34 -57 -35 -129q1 -72 35 -129q34 -58 92 -92q57 -34 129 -35q72 1 129 35q58 34 92 92q34 57 35 129q-1 72 -35 129q-34 58 -92 92q-57 34 -129 35v0zM256 -48q-67 1 -121 33v0q-54 32 -86 86v0q-32 54 -33 121
q1 67 33 121t86 86t121 33q67 -1 121 -33t86 -86t33 -121q-1 -67 -33 -121t-86 -86t-121 -33v0z" />
    <glyph glyph-name="circle" unicode="&#x26ab;" 
d="M256 448q-72 -1 -129 -35v0q-58 -34 -92 -92v0q-34 -57 -35 -129q1 -72 35 -129q34 -58 92 -92q57 -34 129 -35q72 1 129 35q58 34 92 92q34 57 35 129q-1 72 -35 129q-34 58 -92 92q-57 34 -129 35v0zM256 -48q-67 1 -121 33v0q-54 32 -86 86v0q-32 54 -33 121
q1 67 33 121t86 86t121 33q67 -1 121 -33t86 -86t33 -121q-1 -67 -33 -121t-86 -86t-121 -33v0z" />
    <glyph glyph-name="circle" unicode="&#x26aa;" 
d="M256 448q-72 -1 -129 -35v0q-58 -34 -92 -92v0q-34 -57 -35 -129q1 -72 35 -129q34 -58 92 -92q57 -34 129 -35q72 1 129 35q58 34 92 92q34 57 35 129q-1 72 -35 129q-34 58 -92 92q-57 34 -129 35v0zM256 -48q-67 1 -121 33v0q-54 32 -86 86v0q-32 54 -33 121
q1 67 33 121t86 86t121 33q67 -1 121 -33t86 -86t33 -121q-1 -67 -33 -121t-86 -86t-121 -33v0z" />
    <glyph glyph-name="circle" unicode="&#x25cf;" 
d="M256 448q-72 -1 -129 -35v0q-58 -34 -92 -92v0q-34 -57 -35 -129q1 -72 35 -129q34 -58 92 -92q57 -34 129 -35q72 1 129 35q58 34 92 92q34 57 35 129q-1 72 -35 129q-34 58 -92 92q-57 34 -129 35v0zM256 -48q-67 1 -121 33v0q-54 32 -86 86v0q-32 54 -33 121
q1 67 33 121t86 86t121 33q67 -1 121 -33t86 -86t33 -121q-1 -67 -33 -121t-86 -86t-121 -33v0z" />
    <glyph glyph-name="circle-half-stroke" unicode="&#xf042;" 
d="M256 448q-72 -1 -129 -35v0q-58 -34 -92 -92v0q-34 -57 -35 -129q1 -72 35 -129q34 -58 92 -92q57 -34 129 -35q72 1 129 35q58 34 92 92q34 57 35 129q-1 72 -35 129q-34 58 -92 92q-57 34 -129 35v0zM248 -48q-65 3 -117 36v0q-53 32 -83 85v0q-31 53 -32 119
q1 66 32 119q30 53 83 85q52 33 117 36v-480v0zM264 -48v480q65 -3 117 -36q53 -32 83 -85q31 -53 32 -119q-1 -66 -32 -119q-30 -53 -83 -85q-52 -33 -117 -36v0z" />
    <glyph glyph-name="circle-half-stroke" unicode="&#x25d0;" 
d="M256 448q-72 -1 -129 -35v0q-58 -34 -92 -92v0q-34 -57 -35 -129q1 -72 35 -129q34 -58 92 -92q57 -34 129 -35q72 1 129 35q58 34 92 92q34 57 35 129q-1 72 -35 129q-34 58 -92 92q-57 34 -129 35v0zM248 -48q-65 3 -117 36v0q-53 32 -83 85v0q-31 53 -32 119
q1 66 32 119q30 53 83 85q52 33 117 36v-480v0zM264 -48v480q65 -3 117 -36q53 -32 83 -85q31 -53 32 -119q-1 -66 -32 -119q-30 -53 -83 -85q-52 -33 -117 -36v0z" />
    <glyph glyph-name="sun" unicode="&#xf185;" 
d="M450 193l58 84q7 10 2 21t-17 14l-100 18l-18 99q-2 12 -14 16q-11 5 -21 -2l-84 -57l-84 58q-10 7 -21 2t-15 -17l-17 -100l-100 -17q-12 -4 -17 -15q-5 -10 2 -21l58 -84l-58 -84q-7 -10 -2 -21q5 -12 17 -14l100 -18l18 -100q2 -12 14 -16q4 -2 8 -2q7 0 13 4l84 57
l84 -57q10 -7 21 -2q12 5 14 16l18 100l100 18q12 2 17 14q5 11 -2 21l-58 85v0zM496 93q-1 -3 -6 -4l-105 -19q-5 -2 -7 -7l-19 -105q-1 -5 -4 -5q-2 -2 -6 0l-88 61q-5 3 -10 0l-88 -61q-4 -2 -6 0q-3 0 -4 5l-19 105q-2 5 -7 7l-105 19q-5 1 -5 4q-2 2 0 6l61 88
q3 5 0 10l-61 88q-2 4 0 6q0 3 5 4l105 19q5 2 7 7l19 105q1 5 4 5q1 1 2 1q2 0 4 -1l88 -61q5 -3 10 0l88 61q4 2 6 0q3 0 4 -5l19 -105q2 -5 7 -7l105 -19q5 -1 5 -4q2 -2 0 -6l-61 -88q-3 -5 0 -10l61 -88q2 -4 1 -6v0zM256 305q-47 -1 -79 -33v0q-31 -31 -32 -78
q1 -47 32 -79q32 -33 79 -34q48 1 79 33q31 31 32 78q-1 47 -32 79q-31 33 -79 34v0zM256 97q-41 1 -67 28v0q-27 27 -28 67q1 40 28 68q26 28 67 29q41 -1 67 -28q27 -27 28 -67q-1 -40 -28 -68q-26 -28 -67 -29v0z" />
    <glyph glyph-name="sun" unicode="&#x2600;" 
d="M450 193l58 84q7 10 2 21t-17 14l-100 18l-18 99q-2 12 -14 16q-11 5 -21 -2l-84 -57l-84 58q-10 7 -21 2t-15 -17l-17 -100l-100 -17q-12 -4 -17 -15q-5 -10 2 -21l58 -84l-58 -84q-7 -10 -2 -21q5 -12 17 -14l100 -18l18 -100q2 -12 14 -16q4 -2 8 -2q7 0 13 4l84 57
l84 -57q10 -7 21 -2q12 5 14 16l18 100l100 18q12 2 17 14q5 11 -2 21l-58 85v0zM496 93q-1 -3 -6 -4l-105 -19q-5 -2 -7 -7l-19 -105q-1 -5 -4 -5q-2 -2 -6 0l-88 61q-5 3 -10 0l-88 -61q-4 -2 -6 0q-3 0 -4 5l-19 105q-2 5 -7 7l-105 19q-5 1 -5 4q-2 2 0 6l61 88
q3 5 0 10l-61 88q-2 4 0 6q0 3 5 4l105 19q5 2 7 7l19 105q1 5 4 5q1 1 2 1q2 0 4 -1l88 -61q5 -3 10 0l88 61q4 2 6 0q3 0 4 -5l19 -105q2 -5 7 -7l105 -19q5 -1 5 -4q2 -2 0 -6l-61 -88q-3 -5 0 -10l61 -88q2 -4 1 -6v0zM256 305q-47 -1 -79 -33v0q-31 -31 -32 -78
q1 -47 32 -79q32 -33 79 -34q48 1 79 33q31 31 32 78q-1 47 -32 79q-31 33 -79 34v0zM256 97q-41 1 -67 28v0q-27 27 -28 67q1 40 28 68q26 28 67 29q41 -1 67 -28q27 -27 28 -67q-1 -40 -28 -68q-26 -28 -67 -29v0z" />
    <glyph glyph-name="cloud" unicode="&#xf0c2;" horiz-adv-x="640" 
d="M538 221q6 17 6 35q-1 41 -28 68t-68 28q-30 0 -53 -16q-22 36 -58 58q-36 21 -81 22q-68 -2 -113 -47t-47 -113v-7v-1q-43 -16 -69 -52t-27 -84q2 -61 42 -102q41 -40 102 -42h368q54 1 91 37q36 37 37 91q-1 47 -29 81q-29 35 -73 44v0zM512 -16h-368q-54 1 -90 38
q-37 36 -38 90q1 41 24 74t62 47l11 4l-1 2v17q2 61 42 102q41 40 102 42q39 0 72 -19t53 -53l8 -15l15 10q20 13 44 13q34 -1 57 -23q22 -23 23 -57q0 -15 -5 -29l-7 -18l18 -3q40 -9 65 -39q24 -30 25 -71q-1 -48 -33 -79q-31 -32 -79 -33v0z" />
    <glyph glyph-name="cloud" unicode="&#x2601;" horiz-adv-x="640" 
d="M538 221q6 17 6 35q-1 41 -28 68t-68 28q-30 0 -53 -16q-22 36 -58 58q-36 21 -81 22q-68 -2 -113 -47t-47 -113v-7v-1q-43 -16 -69 -52t-27 -84q2 -61 42 -102q41 -40 102 -42h368q54 1 91 37q36 37 37 91q-1 47 -29 81q-29 35 -73 44v0zM512 -16h-368q-54 1 -90 38
q-37 36 -38 90q1 41 24 74t62 47l11 4l-1 2v17q2 61 42 102q41 40 102 42q39 0 72 -19t53 -53l8 -15l15 10q20 13 44 13q34 -1 57 -23q22 -23 23 -57q0 -15 -5 -29l-7 -18l18 -3q40 -9 65 -39q24 -30 25 -71q-1 -48 -33 -79q-31 -32 -79 -33v0z" />
    <glyph glyph-name="snowman" unicode="&#xf7d0;" 
d="M511 307q-3 7 -10 4l-45 -20v53q-1 7 -7 7q-6 -1 -7 -7v-60l-76 -33q-7 28 -27 50q15 24 15 51q-3 41 -30 68q-28 27 -69 28q-41 -1 -68 -28q-26 -27 -27 -67q0 -28 15 -51q-21 -23 -27 -51l-76 33v61q-1 7 -7 7q-7 -1 -7 -7v-53l-45 20q-7 3 -11 -4q-4 -8 3 -11l140 -63
v-3q-1 -4 -1 -7q0 -20 8 -40q-55 -48 -56 -120q0 -38 16 -70q17 -33 47 -56q6 -4 11 1q4 6 -1 11q-56 45 -57 114q1 67 54 112q4 4 2 9q-8 19 -8 40q1 41 31 70q4 5 1 11q-16 21 -16 47q1 34 23 56q23 22 56 23q33 -1 56 -23q22 -23 23 -56q0 -26 -16 -47q-3 -6 1 -11
q31 -29 31 -70q0 -20 -8 -39q-2 -6 2 -9q53 -45 54 -112q-1 -70 -56 -114q-6 -5 -2 -11q3 -3 7 -3q2 0 4 2q31 23 47 56q16 32 16 70q-1 72 -55 120q7 20 7 40v7q-1 2 -1 3l140 63q9 2 6 9v0zM256 113q-14 -2 -15 -15q1 -15 15 -17q14 1 15 15q-1 14 -15 17v0zM256 177
q-14 -2 -15 -15q1 -15 15 -17q14 1 15 15q-1 14 -15 17v0zM256 241q-14 -2 -15 -15q1 -15 15 -17q14 1 15 15q-1 14 -15 17v0zM240 369q-2 14 -15 15q-14 -2 -15 -15q1 -14 15 -15q13 -1 15 15v0zM287 385q-14 -2 -15 -15q2 -14 15 -15q14 1 15 15q0 13 -15 15v0zM266 334
l-10 -11l-10 11q-6 4 -12 0q-4 -6 0 -12l16 -16q2 -1 6 -1v0q4 0 6 2l15 15q4 6 0 12q-5 4 -11 0v0z" />
    <glyph glyph-name="snowman" unicode="&#x26c4;" 
d="M511 307q-3 7 -10 4l-45 -20v53q-1 7 -7 7q-6 -1 -7 -7v-60l-76 -33q-7 28 -27 50q15 24 15 51q-3 41 -30 68q-28 27 -69 28q-41 -1 -68 -28q-26 -27 -27 -67q0 -28 15 -51q-21 -23 -27 -51l-76 33v61q-1 7 -7 7q-7 -1 -7 -7v-53l-45 20q-7 3 -11 -4q-4 -8 3 -11l140 -63
v-3q-1 -4 -1 -7q0 -20 8 -40q-55 -48 -56 -120q0 -38 16 -70q17 -33 47 -56q6 -4 11 1q4 6 -1 11q-56 45 -57 114q1 67 54 112q4 4 2 9q-8 19 -8 40q1 41 31 70q4 5 1 11q-16 21 -16 47q1 34 23 56q23 22 56 23q33 -1 56 -23q22 -23 23 -56q0 -26 -16 -47q-3 -6 1 -11
q31 -29 31 -70q0 -20 -8 -39q-2 -6 2 -9q53 -45 54 -112q-1 -70 -56 -114q-6 -5 -2 -11q3 -3 7 -3q2 0 4 2q31 23 47 56q16 32 16 70q-1 72 -55 120q7 20 7 40v7q-1 2 -1 3l140 63q9 2 6 9v0zM256 113q-14 -2 -15 -15q1 -15 15 -17q14 1 15 15q-1 14 -15 17v0zM256 177
q-14 -2 -15 -15q1 -15 15 -17q14 1 15 15q-1 14 -15 17v0zM256 241q-14 -2 -15 -15q1 -15 15 -17q14 1 15 15q-1 14 -15 17v0zM240 369q-2 14 -15 15q-14 -2 -15 -15q1 -14 15 -15q13 -1 15 15v0zM287 385q-14 -2 -15 -15q2 -14 15 -15q14 1 15 15q0 13 -15 15v0zM266 334
l-10 -11l-10 11q-6 4 -12 0q-4 -6 0 -12l16 -16q2 -1 6 -1v0q4 0 6 2l15 15q4 6 0 12q-5 4 -11 0v0z" />
    <glyph glyph-name="snowman" unicode="&#x2603;" 
d="M511 307q-3 7 -10 4l-45 -20v53q-1 7 -7 7q-6 -1 -7 -7v-60l-76 -33q-7 28 -27 50q15 24 15 51q-3 41 -30 68q-28 27 -69 28q-41 -1 -68 -28q-26 -27 -27 -67q0 -28 15 -51q-21 -23 -27 -51l-76 33v61q-1 7 -7 7q-7 -1 -7 -7v-53l-45 20q-7 3 -11 -4q-4 -8 3 -11l140 -63
v-3q-1 -4 -1 -7q0 -20 8 -40q-55 -48 -56 -120q0 -38 16 -70q17 -33 47 -56q6 -4 11 1q4 6 -1 11q-56 45 -57 114q1 67 54 112q4 4 2 9q-8 19 -8 40q1 41 31 70q4 5 1 11q-16 21 -16 47q1 34 23 56q23 22 56 23q33 -1 56 -23q22 -23 23 -56q0 -26 -16 -47q-3 -6 1 -11
q31 -29 31 -70q0 -20 -8 -39q-2 -6 2 -9q53 -45 54 -112q-1 -70 -56 -114q-6 -5 -2 -11q3 -3 7 -3q2 0 4 2q31 23 47 56q16 32 16 70q-1 72 -55 120q7 20 7 40v7q-1 2 -1 3l140 63q9 2 6 9v0zM256 113q-14 -2 -15 -15q1 -15 15 -17q14 1 15 15q-1 14 -15 17v0zM256 177
q-14 -2 -15 -15q1 -15 15 -17q14 1 15 15q-1 14 -15 17v0zM256 241q-14 -2 -15 -15q1 -15 15 -17q14 1 15 15q-1 14 -15 17v0zM240 369q-2 14 -15 15q-14 -2 -15 -15q1 -14 15 -15q13 -1 15 15v0zM287 385q-14 -2 -15 -15q2 -14 15 -15q14 1 15 15q0 13 -15 15v0zM266 334
l-10 -11l-10 11q-6 4 -12 0q-4 -6 0 -12l16 -16q2 -1 6 -1v0q4 0 6 2l15 15q4 6 0 12q-5 4 -11 0v0z" />
    <glyph glyph-name="meteor" unicode="&#xf753;" 
d="M507 443q-5 5 -11 5q-2 0 -5 -1q-30 -9 -80 -25q-50 -15 -107 -36q-2 4 -3 8q-2 6 -3 11q-2 7 -9 10q-3 1 -6 1q-4 0 -8 -2q-22 -11 -61 -33q-38 -22 -80 -51q-42 -28 -73 -58l-2 -2t-2 -1q-57 -60 -57 -138t57 -138q59 -56 138 -57q78 0 138 57q1 1 1 2l2 2q30 32 58 73
q29 42 51 80q22 39 33 61q4 7 1 14t-10 9q-5 1 -11 3q-4 1 -8 3q20 58 36 107q16 50 25 80q2 9 -4 16v0zM435 245l-6 -16l35 -11q-54 -100 -90 -149q-36 -48 -49 -60q-2 -3 -4 -5q-52 -51 -126 -52q-74 1 -127 52q-52 55 -52 127q0 71 53 127q1 0 2 1q7 9 57 47
q51 39 155 94q1 -4 5 -19q4 -14 5 -16l16 6q60 21 108 36q47 16 70 23q5 1 8 2v0q-6 -23 -22 -73q-16 -51 -38 -114v0zM191 257q-54 -1 -90 -38v0q-37 -36 -38 -90q1 -55 38 -91q36 -36 90 -37q54 1 91 37q36 36 37 91q-1 54 -37 90t-91 38v0zM191 16q-47 1 -79 33v0
q-32 31 -33 79q1 48 33 79q32 32 79 33q48 -1 79 -33q32 -31 33 -79q-1 -48 -32 -79q-32 -32 -80 -33v0zM183 183q-10 9 -23 9q-14 0 -23 -9t-9 -23t9 -23t23 -9t23 9t9 23q-1 13 -9 23v0zM159 145q-15 1 -16 16q1 15 16 16q7 0 11 -5q5 -5 5 -11q-1 -15 -16 -16v0zM207 97
q-15 -1 -16 -16q1 -15 16 -16q15 1 16 16q-1 15 -16 16v0z" />
    <glyph glyph-name="meteor" unicode="&#x2604;" 
d="M507 443q-5 5 -11 5q-2 0 -5 -1q-30 -9 -80 -25q-50 -15 -107 -36q-2 4 -3 8q-2 6 -3 11q-2 7 -9 10q-3 1 -6 1q-4 0 -8 -2q-22 -11 -61 -33q-38 -22 -80 -51q-42 -28 -73 -58l-2 -2t-2 -1q-57 -60 -57 -138t57 -138q59 -56 138 -57q78 0 138 57q1 1 1 2l2 2q30 32 58 73
q29 42 51 80q22 39 33 61q4 7 1 14t-10 9q-5 1 -11 3q-4 1 -8 3q20 58 36 107q16 50 25 80q2 9 -4 16v0zM435 245l-6 -16l35 -11q-54 -100 -90 -149q-36 -48 -49 -60q-2 -3 -4 -5q-52 -51 -126 -52q-74 1 -127 52q-52 55 -52 127q0 71 53 127q1 0 2 1q7 9 57 47
q51 39 155 94q1 -4 5 -19q4 -14 5 -16l16 6q60 21 108 36q47 16 70 23q5 1 8 2v0q-6 -23 -22 -73q-16 -51 -38 -114v0zM191 257q-54 -1 -90 -38v0q-37 -36 -38 -90q1 -55 38 -91q36 -36 90 -37q54 1 91 37q36 36 37 91q-1 54 -37 90t-91 38v0zM191 16q-47 1 -79 33v0
q-32 31 -33 79q1 48 33 79q32 32 79 33q48 -1 79 -33q32 -31 33 -79q-1 -48 -32 -79q-32 -32 -80 -33v0zM183 183q-10 9 -23 9q-14 0 -23 -9t-9 -23t9 -23t23 -9t23 9t9 23q-1 13 -9 23v0zM159 145q-15 1 -16 16q1 15 16 16q7 0 11 -5q5 -5 5 -11q-1 -15 -16 -16v0zM207 97
q-15 -1 -16 -16q1 -15 16 -16q15 1 16 16q-1 15 -16 16v0z" />
    <glyph glyph-name="phone-rotary" unicode="&#xf8d3;" 
d="M354 256q-19 31 -55 32h-86q-36 -1 -55 -32l-106 -185q-4 -7 -4 -16v-55q0 -14 9 -23t23 -9h352q14 0 23 9t9 23v55q0 9 -4 16l-106 185v0zM448 0q-1 -15 -16 -16h-352q-15 1 -16 16v55q0 5 2 8l106 185q14 23 41 24h86q27 -1 41 -24l106 -184q2 -4 2 -9v-55v0zM256 208
q-31 -1 -51 -21v0q-20 -20 -21 -51q1 -31 21 -51t51 -21q31 1 51 21t21 51q-1 31 -21 51t-51 21v0zM256 80q-24 1 -40 16v0q-15 16 -16 40q1 24 16 40q16 15 40 16q24 -1 40 -16q15 -16 16 -40q-1 -24 -16 -40q-16 -15 -40 -16v0zM504 323q-53 45 -116 69v0q-64 24 -132 24
t-132 -24q-63 -24 -116 -69q-8 -7 -8 -19v-56q2 -22 24 -24h67q15 0 22 14l25 68q51 22 118 22t118 -22l26 -68q6 -13 21 -14h68q21 2 23 24v56q0 12 -8 19v0zM496 248q-1 -7 -7 -8h-68q-5 0 -7 4l-28 74l-3 1q-55 25 -127 25q-73 0 -127 -25l-3 -1l-28 -74q-2 -4 -7 -4h-67
q-7 1 -8 8v56q0 4 3 7q50 43 111 66t126 23t126 -23t111 -66q3 -3 3 -7v-56v0z" />
    <glyph glyph-name="phone-rotary" unicode="&#x260e;" 
d="M354 256q-19 31 -55 32h-86q-36 -1 -55 -32l-106 -185q-4 -7 -4 -16v-55q0 -14 9 -23t23 -9h352q14 0 23 9t9 23v55q0 9 -4 16l-106 185v0zM448 0q-1 -15 -16 -16h-352q-15 1 -16 16v55q0 5 2 8l106 185q14 23 41 24h86q27 -1 41 -24l106 -184q2 -4 2 -9v-55v0zM256 208
q-31 -1 -51 -21v0q-20 -20 -21 -51q1 -31 21 -51t51 -21q31 1 51 21t21 51q-1 31 -21 51t-51 21v0zM256 80q-24 1 -40 16v0q-15 16 -16 40q1 24 16 40q16 15 40 16q24 -1 40 -16q15 -16 16 -40q-1 -24 -16 -40q-16 -15 -40 -16v0zM504 323q-53 45 -116 69v0q-64 24 -132 24
t-132 -24q-63 -24 -116 -69q-8 -7 -8 -19v-56q2 -22 24 -24h67q15 0 22 14l25 68q51 22 118 22t118 -22l26 -68q6 -13 21 -14h68q21 2 23 24v56q0 12 -8 19v0zM496 248q-1 -7 -7 -8h-68q-5 0 -7 4l-28 74l-3 1q-55 25 -127 25q-73 0 -127 -25l-3 -1l-28 -74q-2 -4 -7 -4h-67
q-7 1 -8 8v56q0 4 3 7q50 43 111 66t126 23t126 -23t111 -66q3 -3 3 -7v-56v0z" />
    <glyph glyph-name="square-check" unicode="&#xf14a;" horiz-adv-x="448" 
d="M330 278l-138 -139l-74 75q-6 4 -12 0q-4 -6 0 -12l80 -80q2 -2 6 -2t6 2l144 144q4 6 0 12q-6 4 -12 0v0zM384 416h-320q-27 -1 -45 -19t-19 -45v-320q1 -27 19 -45t45 -19h320q27 1 45 19t19 45v320q-1 27 -19 45t-45 19v0zM432 32q-1 -20 -14 -34v0q-14 -13 -34 -14
h-320q-20 1 -34 14q-13 14 -14 34v320q1 20 14 34q14 13 34 14h320q20 -1 34 -14q13 -14 14 -34v-320v0z" />
    <glyph glyph-name="square-check" unicode="&#xf046;" horiz-adv-x="448" 
d="M330 278l-138 -139l-74 75q-6 4 -12 0q-4 -6 0 -12l80 -80q2 -2 6 -2t6 2l144 144q4 6 0 12q-6 4 -12 0v0zM384 416h-320q-27 -1 -45 -19t-19 -45v-320q1 -27 19 -45t45 -19h320q27 1 45 19t19 45v320q-1 27 -19 45t-45 19v0zM432 32q-1 -20 -14 -34v0q-14 -13 -34 -14
h-320q-20 1 -34 14q-13 14 -14 34v320q1 20 14 34q14 13 34 14h320q20 -1 34 -14q13 -14 14 -34v-320v0z" />
    <glyph glyph-name="square-check" unicode="&#x2705;" horiz-adv-x="448" 
d="M330 278l-138 -139l-74 75q-6 4 -12 0q-4 -6 0 -12l80 -80q2 -2 6 -2t6 2l144 144q4 6 0 12q-6 4 -12 0v0zM384 416h-320q-27 -1 -45 -19t-19 -45v-320q1 -27 19 -45t45 -19h320q27 1 45 19t19 45v320q-1 27 -19 45t-45 19v0zM432 32q-1 -20 -14 -34v0q-14 -13 -34 -14
h-320q-20 1 -34 14q-13 14 -14 34v320q1 20 14 34q14 13 34 14h320q20 -1 34 -14q13 -14 14 -34v-320v0z" />
    <glyph glyph-name="square-check" unicode="&#x2611;" horiz-adv-x="448" 
d="M330 278l-138 -139l-74 75q-6 4 -12 0q-4 -6 0 -12l80 -80q2 -2 6 -2t6 2l144 144q4 6 0 12q-6 4 -12 0v0zM384 416h-320q-27 -1 -45 -19t-19 -45v-320q1 -27 19 -45t45 -19h320q27 1 45 19t19 45v320q-1 27 -19 45t-45 19v0zM432 32q-1 -20 -14 -34v0q-14 -13 -34 -14
h-320q-20 1 -34 14q-13 14 -14 34v320q1 20 14 34q14 13 34 14h320q20 -1 34 -14q13 -14 14 -34v-320v0z" />
    <glyph glyph-name="mug-hot" unicode="&#xf7b6;" 
d="M416 256h-392q-10 0 -17 -7t-7 -17v-200q1 -41 28 -68t68 -28h192q41 1 68 28t28 68v32h32q41 1 68 28t28 68q-1 41 -28 68t-68 28v0zM368 32q-1 -34 -23 -57v0q-23 -22 -57 -23h-192q-34 1 -57 23q-22 23 -23 57v200q1 8 8 8h344v-208v0zM416 80h-32v160h32
q34 -1 57 -23q22 -23 23 -57q-1 -34 -23 -57q-23 -22 -57 -23v0zM104 356l9 -4q29 -16 31 -51v-5q1 -7 8 -8q7 1 8 8v5q-2 44 -40 65l-9 5q-30 16 -31 50v19q-1 7 -8 8q-7 -1 -8 -8v-19q2 -44 40 -65v0zM232 356l9 -4q29 -16 31 -51v-5q1 -7 8 -8q7 1 8 8v5q-2 44 -40 65
l-9 5q-30 16 -31 50v19q-1 7 -8 8q-7 -1 -8 -8v-19q1 -44 40 -65v0z" />
    <glyph glyph-name="mug-hot" unicode="&#x2615;" 
d="M416 256h-392q-10 0 -17 -7t-7 -17v-200q1 -41 28 -68t68 -28h192q41 1 68 28t28 68v32h32q41 1 68 28t28 68q-1 41 -28 68t-68 28v0zM368 32q-1 -34 -23 -57v0q-23 -22 -57 -23h-192q-34 1 -57 23q-22 23 -23 57v200q1 8 8 8h344v-208v0zM416 80h-32v160h32
q34 -1 57 -23q22 -23 23 -57q-1 -34 -23 -57q-23 -22 -57 -23v0zM104 356l9 -4q29 -16 31 -51v-5q1 -7 8 -8q7 1 8 8v5q-2 44 -40 65l-9 5q-30 16 -31 50v19q-1 7 -8 8q-7 -1 -8 -8v-19q2 -44 40 -65v0zM232 356l9 -4q29 -16 31 -51v-5q1 -7 8 -8q7 1 8 8v5q-2 44 -40 65
l-9 5q-30 16 -31 50v19q-1 7 -8 8q-7 -1 -8 -8v-19q1 -44 40 -65v0z" />
    <glyph glyph-name="hand-point-up" unicode="&#xf0a6;" horiz-adv-x="448" 
d="M243 152q12 -30 45 -32q20 1 33 14q4 -17 17 -27q12 -11 30 -11q20 1 34 14q13 14 14 34v72q-1 20 -14 34q-14 13 -34 14q-20 -1 -33 -14q-4 17 -17 27q-12 11 -30 11q-20 -1 -33 -14q-5 17 -17 27q-13 11 -30 11q-19 0 -32 -12v100q-1 20 -14 34q-14 13 -34 14
q-20 -1 -34 -14q-13 -14 -14 -34v-233q-21 -3 -34 -18q-14 -15 -14 -37v-79q1 -32 28 -48l64 -35q25 -14 55 -14h128q46 1 77 32t32 77v27q-1 7 -8 8q-7 -1 -8 -8v-27q-1 -40 -28 -66q-26 -26 -65 -27h-128q-25 0 -47 12l-64 35q-19 12 -20 34v79q0 17 12 28q11 12 28 12h88
q14 0 23 -9t9 -23t-9 -23t-23 -9h-48q-7 -1 -8 -8q1 -7 8 -8h48q20 1 34 14q13 14 14 34q0 10 -4 18q14 4 23 14v0zM368 248q14 -1 23 -10v0q9 -9 9 -22v-72q0 -14 -9 -23t-23 -9t-23 9t-9 23v72q0 13 9 22t23 10v0zM288 272q14 0 23 -9v0q9 -9 9 -23v-72q0 -13 -9 -22
t-23 -10q-14 1 -23 10t-9 22v72q0 14 9 23t23 9v0zM96 400q0 14 9 23v0q9 9 23 9t23 -9t9 -23v-216q0 -8 2 -15v-1h-66v232v0zM211 153q-12 12 -30 14q-5 8 -5 17v80q0 14 9 23t23 9t23 -9t9 -23v-80q-2 -27 -29 -31v0z" />
    <glyph glyph-name="hand-point-up" unicode="&#x261d;" horiz-adv-x="448" 
d="M243 152q12 -30 45 -32q20 1 33 14q4 -17 17 -27q12 -11 30 -11q20 1 34 14q13 14 14 34v72q-1 20 -14 34q-14 13 -34 14q-20 -1 -33 -14q-4 17 -17 27q-12 11 -30 11q-20 -1 -33 -14q-5 17 -17 27q-13 11 -30 11q-19 0 -32 -12v100q-1 20 -14 34q-14 13 -34 14
q-20 -1 -34 -14q-13 -14 -14 -34v-233q-21 -3 -34 -18q-14 -15 -14 -37v-79q1 -32 28 -48l64 -35q25 -14 55 -14h128q46 1 77 32t32 77v27q-1 7 -8 8q-7 -1 -8 -8v-27q-1 -40 -28 -66q-26 -26 -65 -27h-128q-25 0 -47 12l-64 35q-19 12 -20 34v79q0 17 12 28q11 12 28 12h88
q14 0 23 -9t9 -23t-9 -23t-23 -9h-48q-7 -1 -8 -8q1 -7 8 -8h48q20 1 34 14q13 14 14 34q0 10 -4 18q14 4 23 14v0zM368 248q14 -1 23 -10v0q9 -9 9 -22v-72q0 -14 -9 -23t-23 -9t-23 9t-9 23v72q0 13 9 22t23 10v0zM288 272q14 0 23 -9v0q9 -9 9 -23v-72q0 -13 -9 -22
t-23 -10q-14 1 -23 10t-9 22v72q0 14 9 23t23 9v0zM96 400q0 14 9 23v0q9 9 23 9t23 -9t9 -23v-216q0 -8 2 -15v-1h-66v232v0zM211 153q-12 12 -30 14q-5 8 -5 17v80q0 14 9 23t23 9t23 -9t9 -23v-80q-2 -27 -29 -31v0z" />
    <glyph glyph-name="skull-crossbones" unicode="&#x1f571;" horiz-adv-x="448" 
d="M149 211l-4 -26q-2 -10 2 -17q5 -8 13 -8h126q9 0 14 8q4 7 3 17l-6 26q32 17 50 45q19 29 19 64q0 54 -40 91q-41 36 -102 37q-61 -1 -102 -37q-40 -36 -42 -90q0 -36 19 -65q19 -28 50 -45v0zM224 432q54 -1 90 -33v0q37 -31 38 -79q0 -30 -16 -54q-16 -25 -46 -41
q-9 -6 -8 -18l6 -25q0 -5 -1 -6v0h-125q-2 1 -2 5l6 26q1 12 -8 18q-61 34 -62 95q1 48 38 79q36 32 90 33v0zM241 64l203 113q6 4 3 11q-4 6 -11 3l-212 -118l-212 118q-7 3 -11 -3q-3 -6 3 -11l204 -113l-204 -113q-6 -4 -3 -11q3 -4 7 -4q2 0 4 1l212 118l212 -118
q2 -1 3 -1q5 0 6 4q3 7 -3 11l-201 113v0zM271 272q14 0 22 9v0q9 9 9 22q0 14 -9 23t-22 9t-22 -9t-9 -23q0 -13 9 -22t22 -9v0zM271 320q14 -1 15 -16t-15 -16q-14 2 -15 15q1 16 15 17v0zM176 272q14 0 22 9v0q9 9 9 22q0 14 -9 23t-22 9t-22 -9t-9 -23q0 -13 9 -22
q8 -9 22 -9v0zM176 320q14 -1 15 -16q0 -15 -15 -16q-15 1 -16 16q1 15 16 16v0z" />
    <glyph glyph-name="skull-crossbones" unicode="&#xf714;" horiz-adv-x="448" 
d="M149 211l-4 -26q-2 -10 2 -17q5 -8 13 -8h126q9 0 14 8q4 7 3 17l-6 26q32 17 50 45q19 29 19 64q0 54 -40 91q-41 36 -102 37q-61 -1 -102 -37q-40 -36 -42 -90q0 -36 19 -65q19 -28 50 -45v0zM224 432q54 -1 90 -33v0q37 -31 38 -79q0 -30 -16 -54q-16 -25 -46 -41
q-9 -6 -8 -18l6 -25q0 -5 -1 -6v0h-125q-2 1 -2 5l6 26q1 12 -8 18q-61 34 -62 95q1 48 38 79q36 32 90 33v0zM241 64l203 113q6 4 3 11q-4 6 -11 3l-212 -118l-212 118q-7 3 -11 -3q-3 -6 3 -11l204 -113l-204 -113q-6 -4 -3 -11q3 -4 7 -4q2 0 4 1l212 118l212 -118
q2 -1 3 -1q5 0 6 4q3 7 -3 11l-201 113v0zM271 272q14 0 22 9v0q9 9 9 22q0 14 -9 23t-22 9t-22 -9t-9 -23q0 -13 9 -22t22 -9v0zM271 320q14 -1 15 -16t-15 -16q-14 2 -15 15q1 16 15 17v0zM176 272q14 0 22 9v0q9 9 9 22q0 14 -9 23t-22 9t-22 -9t-9 -23q0 -13 9 -22
q8 -9 22 -9v0zM176 320q14 -1 15 -16q0 -15 -15 -16q-15 1 -16 16q1 15 16 16v0z" />
    <glyph glyph-name="skull-crossbones" unicode="&#x2620;" horiz-adv-x="448" 
d="M149 211l-4 -26q-2 -10 2 -17q5 -8 13 -8h126q9 0 14 8q4 7 3 17l-6 26q32 17 50 45q19 29 19 64q0 54 -40 91q-41 36 -102 37q-61 -1 -102 -37q-40 -36 -42 -90q0 -36 19 -65q19 -28 50 -45v0zM224 432q54 -1 90 -33v0q37 -31 38 -79q0 -30 -16 -54q-16 -25 -46 -41
q-9 -6 -8 -18l6 -25q0 -5 -1 -6v0h-125q-2 1 -2 5l6 26q1 12 -8 18q-61 34 -62 95q1 48 38 79q36 32 90 33v0zM241 64l203 113q6 4 3 11q-4 6 -11 3l-212 -118l-212 118q-7 3 -11 -3q-3 -6 3 -11l204 -113l-204 -113q-6 -4 -3 -11q3 -4 7 -4q2 0 4 1l212 118l212 -118
q2 -1 3 -1q5 0 6 4q3 7 -3 11l-201 113v0zM271 272q14 0 22 9v0q9 9 9 22q0 14 -9 23t-22 9t-22 -9t-9 -23q0 -13 9 -22t22 -9v0zM271 320q14 -1 15 -16t-15 -16q-14 2 -15 15q1 16 15 17v0zM176 272q14 0 22 9v0q9 9 9 22q0 14 -9 23t-22 9t-22 -9t-9 -23q0 -13 9 -22
q8 -9 22 -9v0zM176 320q14 -1 15 -16q0 -15 -15 -16q-15 1 -16 16q1 15 16 16v0z" />
    <glyph glyph-name="circle-radiation" unicode="&#xf7ba;" 
d="M208 192q-1 7 -8 8h-79q-4 0 -6 3t-2 7q8 56 53 94q3 2 7 1q3 0 5 -3l42 -67q4 -6 11 -2q6 4 2 11l-41 66q-7 9 -17 11q-11 2 -19 -5q-50 -41 -59 -105q-1 -11 6 -19t18 -8h79q7 1 8 8v0zM224 192q0 -14 9 -23v0q9 -9 23 -9t23 9t9 23t-9 23t-23 9t-23 -9t-9 -23v0z
M256 208q15 -1 16 -16q-1 -15 -16 -16q-15 1 -16 16q1 15 16 16v0zM256 432q-67 -1 -121 -33v0q-54 -32 -86 -86v0q-32 -54 -33 -121q1 -67 33 -121t86 -86t121 -33q67 1 121 33t86 86t33 121q-1 67 -33 121t-86 86t-121 33v0zM256 -32q-62 1 -113 31v0q-50 30 -80 80v0
q-30 51 -31 113q1 62 31 113q30 50 80 80q51 30 113 31q62 -1 113 -31q50 -30 80 -80q30 -51 31 -113q-1 -62 -31 -113q-30 -50 -80 -80q-51 -30 -113 -31v0zM356 316q-8 7 -19 5t-16 -11l-42 -66q-3 -7 2 -11q7 -4 11 2l42 67q2 3 6 3q3 1 6 -1q45 -38 53 -94q0 -4 -2 -7
t-7 -3h-78q-7 -1 -8 -8q1 -7 8 -8h79q11 0 18 8t6 20q-9 63 -59 104v0zM292 149q-4 6 -11 2q-5 -4 -2 -11l42 -66q1 -3 0 -7q-1 -3 -4 -5q-61 -28 -122 0q-3 2 -4 5q-1 4 0 7l42 66q4 7 -2 11q-8 4 -11 -2l-42 -67q-6 -9 -3 -19q3 -11 13 -16q33 -15 68 -15t68 15
q10 5 13 16q3 10 -3 19l-42 67v0z" />
    <glyph glyph-name="circle-radiation" unicode="&#x2622;" 
d="M208 192q-1 7 -8 8h-79q-4 0 -6 3t-2 7q8 56 53 94q3 2 7 1q3 0 5 -3l42 -67q4 -6 11 -2q6 4 2 11l-41 66q-7 9 -17 11q-11 2 -19 -5q-50 -41 -59 -105q-1 -11 6 -19t18 -8h79q7 1 8 8v0zM224 192q0 -14 9 -23v0q9 -9 23 -9t23 9t9 23t-9 23t-23 9t-23 -9t-9 -23v0z
M256 208q15 -1 16 -16q-1 -15 -16 -16q-15 1 -16 16q1 15 16 16v0zM256 432q-67 -1 -121 -33v0q-54 -32 -86 -86v0q-32 -54 -33 -121q1 -67 33 -121t86 -86t121 -33q67 1 121 33t86 86t33 121q-1 67 -33 121t-86 86t-121 33v0zM256 -32q-62 1 -113 31v0q-50 30 -80 80v0
q-30 51 -31 113q1 62 31 113q30 50 80 80q51 30 113 31q62 -1 113 -31q50 -30 80 -80q30 -51 31 -113q-1 -62 -31 -113q-30 -50 -80 -80q-51 -30 -113 -31v0zM356 316q-8 7 -19 5t-16 -11l-42 -66q-3 -7 2 -11q7 -4 11 2l42 67q2 3 6 3q3 1 6 -1q45 -38 53 -94q0 -4 -2 -7
t-7 -3h-78q-7 -1 -8 -8q1 -7 8 -8h79q11 0 18 8t6 20q-9 63 -59 104v0zM292 149q-4 6 -11 2q-5 -4 -2 -11l42 -66q1 -3 0 -7q-1 -3 -4 -5q-61 -28 -122 0q-3 2 -4 5q-1 4 0 7l42 66q4 7 -2 11q-8 4 -11 -2l-42 -67q-6 -9 -3 -19q3 -11 13 -16q33 -15 68 -15t68 15
q10 5 13 16q3 10 -3 19l-42 67v0z" />
    <glyph glyph-name="biohazard" unicode="&#xf780;" horiz-adv-x="576" 
d="M576 164q-21 61 -75 93q-26 15 -55 20q10 26 10 56q-1 63 -41 112q-2 3 -6 3q-2 0 -4 -1q-5 -4 -4 -10q7 -20 7 -38q-1 -52 -35 -87t-85 -36q-51 1 -85 36t-35 87q0 18 7 38q1 6 -4 10q-2 1 -4 1q-3 0 -6 -3q-40 -49 -41 -112q1 -30 10 -56q-29 -5 -55 -20
q-53 -32 -75 -92q-1 -7 4 -10q2 -1 4 -1q4 0 6 2q14 17 29 25q29 17 60 17q32 0 59 -16q28 -16 45 -46q24 -45 12 -92q-12 -48 -56 -75q-15 -9 -36 -14q-6 -2 -6 -8t6 -8q4 0 9 -1q11 -2 23 -2q45 0 84 23q27 16 45 40q18 -24 45 -40q39 -23 84 -23q16 0 31 3q6 2 7 8
q0 6 -6 8q-21 4 -36 14q-44 27 -56 74q-12 48 12 93q17 30 45 46q27 16 59 16q31 0 60 -17q15 -9 29 -25q2 -2 6 -2q2 0 4 1q5 3 4 9v0zM540 195q-32 19 -68 19q-37 0 -68 -19q-31 -18 -50 -51q-27 -51 -13 -105q14 -53 63 -84q2 -2 4 -3q-36 2 -68 21q-22 13 -40 36l-13 15
l-12 -15q-19 -23 -41 -36q-32 -19 -68 -21q2 1 4 3q50 31 64 84q15 54 -13 105q-19 33 -50 51t-69 19q-36 0 -68 -19q-1 -1 -3 -2q20 31 51 50q22 13 50 18l18 3l-5 18q-9 26 -9 51q0 37 16 69v-3q2 -59 40 -98q38 -40 96 -41q57 1 96 41q39 39 40 98v3q16 -32 16 -69
q0 -24 -9 -51l-6 -18l18 -3q28 -5 50 -18q32 -19 51 -50v0q-1 1 -4 2v0zM287 224q-20 -1 -34 -14v0q-13 -14 -14 -34q1 -20 14 -34q14 -14 34 -14t34 14t14 34t-14 34q-13 13 -34 14v0zM287 144q-13 0 -23 9v0q-9 9 -9 23q0 13 9 22q10 10 23 10q14 0 23 -10q9 -9 9 -22
q0 -14 -9 -23t-23 -9v0zM227 358q61 20 123 0q1 -1 2 -1q6 0 8 6q1 7 -5 10q-67 22 -134 0q-7 -3 -5 -10q3 -7 11 -5v0zM478 149q-11 -70 -64 -118q-5 -5 -1 -11q3 -3 6 -3t6 2q57 52 69 128q0 7 -7 9q-7 0 -9 -7v0zM157 17q3 0 6 3q4 6 -1 11q-53 48 -64 118q-2 7 -9 7
q-7 -2 -7 -9q12 -76 69 -128h2l4 -2v0z" />
    <glyph glyph-name="biohazard" unicode="&#x2623;" horiz-adv-x="576" 
d="M576 164q-21 61 -75 93q-26 15 -55 20q10 26 10 56q-1 63 -41 112q-2 3 -6 3q-2 0 -4 -1q-5 -4 -4 -10q7 -20 7 -38q-1 -52 -35 -87t-85 -36q-51 1 -85 36t-35 87q0 18 7 38q1 6 -4 10q-2 1 -4 1q-3 0 -6 -3q-40 -49 -41 -112q1 -30 10 -56q-29 -5 -55 -20
q-53 -32 -75 -92q-1 -7 4 -10q2 -1 4 -1q4 0 6 2q14 17 29 25q29 17 60 17q32 0 59 -16q28 -16 45 -46q24 -45 12 -92q-12 -48 -56 -75q-15 -9 -36 -14q-6 -2 -6 -8t6 -8q4 0 9 -1q11 -2 23 -2q45 0 84 23q27 16 45 40q18 -24 45 -40q39 -23 84 -23q16 0 31 3q6 2 7 8
q0 6 -6 8q-21 4 -36 14q-44 27 -56 74q-12 48 12 93q17 30 45 46q27 16 59 16q31 0 60 -17q15 -9 29 -25q2 -2 6 -2q2 0 4 1q5 3 4 9v0zM540 195q-32 19 -68 19q-37 0 -68 -19q-31 -18 -50 -51q-27 -51 -13 -105q14 -53 63 -84q2 -2 4 -3q-36 2 -68 21q-22 13 -40 36l-13 15
l-12 -15q-19 -23 -41 -36q-32 -19 -68 -21q2 1 4 3q50 31 64 84q15 54 -13 105q-19 33 -50 51t-69 19q-36 0 -68 -19q-1 -1 -3 -2q20 31 51 50q22 13 50 18l18 3l-5 18q-9 26 -9 51q0 37 16 69v-3q2 -59 40 -98q38 -40 96 -41q57 1 96 41q39 39 40 98v3q16 -32 16 -69
q0 -24 -9 -51l-6 -18l18 -3q28 -5 50 -18q32 -19 51 -50v0q-1 1 -4 2v0zM287 224q-20 -1 -34 -14v0q-13 -14 -14 -34q1 -20 14 -34q14 -14 34 -14t34 14t14 34t-14 34q-13 13 -34 14v0zM287 144q-13 0 -23 9v0q-9 9 -9 23q0 13 9 22q10 10 23 10q14 0 23 -10q9 -9 9 -22
q0 -14 -9 -23t-23 -9v0zM227 358q61 20 123 0q1 -1 2 -1q6 0 8 6q1 7 -5 10q-67 22 -134 0q-7 -3 -5 -10q3 -7 11 -5v0zM478 149q-11 -70 -64 -118q-5 -5 -1 -11q3 -3 6 -3t6 2q57 52 69 128q0 7 -7 9q-7 0 -9 -7v0zM157 17q3 0 6 3q4 6 -1 11q-53 48 -64 118q-2 7 -9 7
q-7 -2 -7 -9q12 -76 69 -128h2l4 -2v0z" />
    <glyph glyph-name="ankh" unicode="&#xf644;" horiz-adv-x="320" 
d="M280 168h-101q34 34 58 78q25 44 27 85q-1 55 -28 86q-28 30 -76 31q-48 -1 -76 -31q-27 -31 -27 -86q1 -41 26 -85q24 -44 58 -78h-101q-7 -1 -8 -8q1 -7 8 -8h112v-208q1 -7 8 -8q7 1 8 8v208h112q7 1 8 8q-1 7 -8 8v0zM160 432q41 0 64 -27v0q23 -26 23 -74
q-2 -42 -29 -87q-28 -44 -58 -73q-30 29 -58 73q-27 45 -29 87q0 48 23 74q23 27 64 27v0z" />
    <glyph glyph-name="ankh" unicode="&#x2625;" horiz-adv-x="320" 
d="M280 168h-101q34 34 58 78q25 44 27 85q-1 55 -28 86q-28 30 -76 31q-48 -1 -76 -31q-27 -31 -27 -86q1 -41 26 -85q24 -44 58 -78h-101q-7 -1 -8 -8q1 -7 8 -8h112v-208q1 -7 8 -8q7 1 8 8v208h112q7 1 8 8q-1 7 -8 8v0zM160 432q41 0 64 -27v0q23 -26 23 -74
q-2 -42 -29 -87q-28 -44 -58 -73q-30 29 -58 73q-27 45 -29 87q0 48 23 74q23 27 64 27v0z" />
    <glyph glyph-name="star-and-crescent" unicode="&#xf699;" 
d="M504 234l-77 11l-34 69q-3 6 -9 6t-9 -6l-34 -69l-77 -11q-6 -1 -8 -7q-1 -5 3 -10l55 -54l-13 -76q0 -11 10 -12q2 0 5 2l68 36l68 -36q3 -2 5 -2q10 1 10 12l-13 76l55 54q4 5 2 10q-1 6 -7 7v0zM437 169l12 -72l-65 34l-65 -34l12 72l-52 51l73 11l32 66l33 -66
l72 -11l-52 -51v0zM341 -18q-2 0 -4 -1v0h-6q-89 2 -149 62q-59 60 -62 149q3 89 62 149q60 60 149 62h6q2 -1 4 -1q11 1 14 12q2 12 -9 18q-44 16 -90 16q-71 -1 -129 -35t-92 -92t-35 -129q1 -71 35 -129t92 -92t129 -35q46 0 89 16q10 4 11 15q-1 13 -15 15v0zM256 -48
q-67 1 -121 33v0q-54 32 -86 86v0q-32 54 -33 121q1 67 33 121t86 86t121 33q40 0 78 -13h-3q-63 -1 -114 -31t-82 -82q-30 -51 -30 -114t30 -114q31 -52 82 -82t114 -31h3q-39 -13 -78 -13v0z" />
    <glyph glyph-name="star-and-crescent" unicode="&#x262a;" 
d="M504 234l-77 11l-34 69q-3 6 -9 6t-9 -6l-34 -69l-77 -11q-6 -1 -8 -7q-1 -5 3 -10l55 -54l-13 -76q0 -11 10 -12q2 0 5 2l68 36l68 -36q3 -2 5 -2q10 1 10 12l-13 76l55 54q4 5 2 10q-1 6 -7 7v0zM437 169l12 -72l-65 34l-65 -34l12 72l-52 51l73 11l32 66l33 -66
l72 -11l-52 -51v0zM341 -18q-2 0 -4 -1v0h-6q-89 2 -149 62q-59 60 -62 149q3 89 62 149q60 60 149 62h6q2 -1 4 -1q11 1 14 12q2 12 -9 18q-44 16 -90 16q-71 -1 -129 -35t-92 -92t-35 -129q1 -71 35 -129t92 -92t129 -35q46 0 89 16q10 4 11 15q-1 13 -15 15v0zM256 -48
q-67 1 -121 33v0q-54 32 -86 86v0q-32 54 -33 121q1 67 33 121t86 86t121 33q40 0 78 -13h-3q-63 -1 -114 -31t-82 -82q-30 -51 -30 -114t30 -114q31 -52 82 -82t114 -31h3q-39 -13 -78 -13v0z" />
    <glyph glyph-name="khanda" unicode="&#xf66d;" horiz-adv-x="576" 
d="M211 200q7 -4 11 1q4 7 -1 12q-28 23 -29 59q1 36 29 60q5 5 1 11q-5 5 -11 2q-34 -29 -35 -72q1 -44 35 -73v0zM355 212q-5 -5 -1 -11q4 -5 11 -1q34 28 35 72q-1 44 -35 72q-6 4 -11 -1q-4 -7 1 -12q28 -23 29 -59q-1 -36 -29 -60v0zM448 383q-10 4 -20 -4
q-7 -9 -2 -20q25 -40 26 -87q-1 -40 -19 -75q-19 -35 -53 -58l-84 -57v18q1 1 13 11t24 19q12 10 13 11q9 7 4 21q-8 15 -33 69q-13 38 1 77q2 3 8 17q10 21 24 52q5 11 -3 19l-48 48q-5 4 -11 4v0v0v0v0q-6 0 -11 -4l-48 -48q-8 -8 -3 -19q11 -24 19 -42q11 -22 13 -27
q14 -39 0 -77q0 -1 -1 -2q-23 -53 -32 -66q-5 -14 4 -22q1 0 13 -10t24 -19q12 -10 13 -11v-19l-83 57q-34 23 -53 58q-18 35 -19 75q0 47 25 88q6 10 -1 19q-10 8 -20 3q-57 -32 -81 -88t-9 -119q10 -40 41 -76l53 -61q5 -6 12 -6q4 0 7 2l88 47q4 2 6 5l29 -19l-70 -47
q-5 4 -12 4q-22 -2 -24 -24q2 -22 24 -24q22 2 24 24q0 4 -2 8l66 44v-54q-22 -6 -24 -30q0 -13 9 -22t22 -9t22 9t9 22q-2 24 -24 30v54l66 -44q-2 -4 -2 -8q2 -22 24 -24q22 2 24 24q-2 22 -24 24q-7 0 -12 -4l-69 47l28 19q2 -3 6 -5l88 -47q3 -2 7 -2q7 0 12 6l53 61
q31 36 41 76q17 63 -7 119t-81 89v0zM144 48l-53 61q-28 34 -37 69q-15 58 8 110q22 51 73 80q-26 -44 -27 -95q1 -45 21 -83q21 -38 58 -63l45 -31l-88 -48v0zM192 -7q-7 1 -8 8q1 7 8 8q7 -1 8 -8q-1 -7 -8 -8v0zM303 -31q-2 -15 -15 -16q-13 1 -15 16q2 15 15 16
q13 -2 15 -16v0zM288 114l-48 40q8 15 33 72q15 42 0 87q-1 2 -10 22q-10 20 -24 49l48 48l48 -48q-11 -23 -19 -41q-9 -19 -12 -26q-2 -3 -2 -4q-15 -45 0 -87q25 -57 33 -72l-47 -40v0zM383 9q7 -1 8 -8q-1 -7 -8 -8q-7 1 -8 8q1 7 8 8v0zM522 178q-9 -35 -37 -69l-53 -61
l-88 47l45 31q37 25 58 63q20 38 21 83q-1 52 -28 96q52 -29 74 -80q22 -52 8 -110v0z" />
    <glyph glyph-name="khanda" unicode="&#x262c;" horiz-adv-x="576" 
d="M211 200q7 -4 11 1q4 7 -1 12q-28 23 -29 59q1 36 29 60q5 5 1 11q-5 5 -11 2q-34 -29 -35 -72q1 -44 35 -73v0zM355 212q-5 -5 -1 -11q4 -5 11 -1q34 28 35 72q-1 44 -35 72q-6 4 -11 -1q-4 -7 1 -12q28 -23 29 -59q-1 -36 -29 -60v0zM448 383q-10 4 -20 -4
q-7 -9 -2 -20q25 -40 26 -87q-1 -40 -19 -75q-19 -35 -53 -58l-84 -57v18q1 1 13 11t24 19q12 10 13 11q9 7 4 21q-8 15 -33 69q-13 38 1 77q2 3 8 17q10 21 24 52q5 11 -3 19l-48 48q-5 4 -11 4v0v0v0v0q-6 0 -11 -4l-48 -48q-8 -8 -3 -19q11 -24 19 -42q11 -22 13 -27
q14 -39 0 -77q0 -1 -1 -2q-23 -53 -32 -66q-5 -14 4 -22q1 0 13 -10t24 -19q12 -10 13 -11v-19l-83 57q-34 23 -53 58q-18 35 -19 75q0 47 25 88q6 10 -1 19q-10 8 -20 3q-57 -32 -81 -88t-9 -119q10 -40 41 -76l53 -61q5 -6 12 -6q4 0 7 2l88 47q4 2 6 5l29 -19l-70 -47
q-5 4 -12 4q-22 -2 -24 -24q2 -22 24 -24q22 2 24 24q0 4 -2 8l66 44v-54q-22 -6 -24 -30q0 -13 9 -22t22 -9t22 9t9 22q-2 24 -24 30v54l66 -44q-2 -4 -2 -8q2 -22 24 -24q22 2 24 24q-2 22 -24 24q-7 0 -12 -4l-69 47l28 19q2 -3 6 -5l88 -47q3 -2 7 -2q7 0 12 6l53 61
q31 36 41 76q17 63 -7 119t-81 89v0zM144 48l-53 61q-28 34 -37 69q-15 58 8 110q22 51 73 80q-26 -44 -27 -95q1 -45 21 -83q21 -38 58 -63l45 -31l-88 -48v0zM192 -7q-7 1 -8 8q1 7 8 8q7 -1 8 -8q-1 -7 -8 -8v0zM303 -31q-2 -15 -15 -16q-13 1 -15 16q2 15 15 16
q13 -2 15 -16v0zM288 114l-48 40q8 15 33 72q15 42 0 87q-1 2 -10 22q-10 20 -24 49l48 48l48 -48q-11 -23 -19 -41q-9 -19 -12 -26q-2 -3 -2 -4q-15 -45 0 -87q25 -57 33 -72l-47 -40v0zM383 9q7 -1 8 -8q-1 -7 -8 -8q-7 1 -8 8q1 7 8 8v0zM522 178q-9 -35 -37 -69l-53 -61
l-88 47l45 31q37 25 58 63q20 38 21 83q-1 52 -28 96q52 -29 74 -80q22 -52 8 -110v0z" />
    <glyph glyph-name="peace" unicode="&#xf67c;" 
d="M256 448q-72 -1 -129 -35v0q-58 -34 -92 -92v0q-34 -57 -35 -129q1 -72 35 -129q34 -58 92 -92q57 -34 129 -35q72 1 129 35q58 34 92 92q34 57 35 129q-1 72 -35 129q-34 58 -92 92q-57 34 -129 35v0zM496 192q-1 -82 -48 -143l-184 147v236q65 -3 117 -36
q53 -32 83 -85q31 -53 32 -119v0zM248 432v-236l-184 -147q-47 61 -48 143q1 66 32 119q30 53 83 85q52 33 117 36v0zM74 36l174 139v-223q-53 3 -97 25q-45 22 -77 59v0zM264 -48v223l174 -139q-32 -37 -77 -59q-44 -22 -97 -25v0z" />
    <glyph glyph-name="peace" unicode="&#x262e;" 
d="M256 448q-72 -1 -129 -35v0q-58 -34 -92 -92v0q-34 -57 -35 -129q1 -72 35 -129q34 -58 92 -92q57 -34 129 -35q72 1 129 35q58 34 92 92q34 57 35 129q-1 72 -35 129q-34 58 -92 92q-57 34 -129 35v0zM496 192q-1 -82 -48 -143l-184 147v236q65 -3 117 -36
q53 -32 83 -85q31 -53 32 -119v0zM248 432v-236l-184 -147q-47 61 -48 143q1 66 32 119q30 53 83 85q52 33 117 36v0zM74 36l174 139v-223q-53 3 -97 25q-45 22 -77 59v0zM264 -48v223l174 -139q-32 -37 -77 -59q-44 -22 -97 -25v0z" />
    <glyph glyph-name="yin-yang" unicode="&#xf6ad;" 
d="M256 448q-72 -1 -129 -35v0q-58 -34 -92 -92v0q-34 -57 -35 -129q1 -72 35 -129q34 -58 92 -92q57 -34 129 -35q72 1 129 35q58 34 92 92q34 57 35 129q-1 72 -35 129q-34 58 -92 92q-57 34 -129 35v0zM16 192q1 67 33 121v0q32 54 86 86v0q54 32 121 33q49 -1 82 -34
t34 -82q-1 -49 -34 -82t-82 -34q-56 -1 -93 -39q-38 -37 -39 -93q2 -62 47 -100q-69 27 -111 86q-43 60 -44 138v0zM256 -48q-49 1 -82 34v0q-33 33 -34 82q1 49 34 82t82 34q56 1 93 39q38 37 39 93q-2 62 -47 100q69 -27 111 -86q43 -60 44 -138q-1 -67 -33 -121t-86 -86
t-121 -33v0zM256 280q17 0 28 12v0q12 11 12 28t-12 28q-11 12 -28 12t-28 -12q-12 -11 -12 -28t12 -28q11 -12 28 -12v0zM256 344q22 -2 24 -24q-2 -22 -24 -24q-22 2 -24 24q2 22 24 24v0zM256 104q-17 0 -28 -12v0q-12 -11 -12 -28t12 -28q11 -12 28 -12t28 12
q12 11 12 28t-12 28q-11 12 -28 12v0zM256 40q-22 2 -24 24q2 22 24 24q22 -2 24 -24q-2 -22 -24 -24v0z" />
    <glyph glyph-name="yin-yang" unicode="&#x262f;" 
d="M256 448q-72 -1 -129 -35v0q-58 -34 -92 -92v0q-34 -57 -35 -129q1 -72 35 -129q34 -58 92 -92q57 -34 129 -35q72 1 129 35q58 34 92 92q34 57 35 129q-1 72 -35 129q-34 58 -92 92q-57 34 -129 35v0zM16 192q1 67 33 121v0q32 54 86 86v0q54 32 121 33q49 -1 82 -34
t34 -82q-1 -49 -34 -82t-82 -34q-56 -1 -93 -39q-38 -37 -39 -93q2 -62 47 -100q-69 27 -111 86q-43 60 -44 138v0zM256 -48q-49 1 -82 34v0q-33 33 -34 82q1 49 34 82t82 34q56 1 93 39q38 37 39 93q-2 62 -47 100q69 -27 111 -86q43 -60 44 -138q-1 -67 -33 -121t-86 -86
t-121 -33v0zM256 280q17 0 28 12v0q12 11 12 28t-12 28q-11 12 -28 12t-28 -12q-12 -11 -12 -28t12 -28q11 -12 28 -12v0zM256 344q22 -2 24 -24q-2 -22 -24 -24q-22 2 -24 24q2 22 24 24v0zM256 104q-17 0 -28 -12v0q-12 -11 -12 -28t12 -28q11 -12 28 -12t28 12
q12 11 12 28t-12 28q-11 12 -28 12v0zM256 40q-22 2 -24 24q2 22 24 24q22 -2 24 -24q-2 -22 -24 -24v0z" />
    <glyph glyph-name="dharmachakra" unicode="&#xf655;" 
d="M504 200h-40q-5 79 -56 133l29 29q5 5 0 11q-6 5 -11 0l-29 -28q-54 50 -133 55v40q-1 7 -8 8q-7 -1 -8 -8v-40q-79 -5 -133 -56l-29 29q-5 5 -11 0q-5 -6 0 -11l29 -29q-51 -54 -56 -133h-40q-7 -1 -8 -8q1 -7 8 -8h40q5 -79 56 -133l-29 -29q-5 -5 0 -11q2 -2 6 -2
q3 0 5 2l29 28q54 -50 133 -55v-40q1 -7 8 -8q7 1 8 8v40q79 5 133 56l29 -29q2 -2 5 -2q4 0 6 2q5 6 0 11l-29 29q51 54 56 133h40q7 1 8 8q-1 7 -8 8v0zM264 384q72 -5 122 -51l-80 -79q-18 14 -42 17v113v0zM248 384v-113q-25 -3 -42 -17l-80 79q50 46 122 51v0zM115 322
l79 -80q-14 -17 -17 -42h-113q5 72 51 122v0zM64 184h113q3 -24 17 -42l-79 -80q-46 50 -51 122v0zM248 0q-72 5 -122 51l80 79q17 -14 42 -17v-113v0zM256 128q-27 1 -45 19v0q-18 18 -19 45q1 27 19 45t45 19q27 -1 45 -19t19 -45q-1 -27 -19 -45t-45 -19v0zM264 0v113
q24 3 42 17l80 -79q-50 -46 -122 -51v0zM397 62l-79 80q14 18 17 42h113q-5 -72 -51 -122v0zM335 200q-3 24 -17 42l79 80q46 -50 51 -122h-113v0z" />
    <glyph glyph-name="dharmachakra" unicode="&#x2638;" 
d="M504 200h-40q-5 79 -56 133l29 29q5 5 0 11q-6 5 -11 0l-29 -28q-54 50 -133 55v40q-1 7 -8 8q-7 -1 -8 -8v-40q-79 -5 -133 -56l-29 29q-5 5 -11 0q-5 -6 0 -11l29 -29q-51 -54 -56 -133h-40q-7 -1 -8 -8q1 -7 8 -8h40q5 -79 56 -133l-29 -29q-5 -5 0 -11q2 -2 6 -2
q3 0 5 2l29 28q54 -50 133 -55v-40q1 -7 8 -8q7 1 8 8v40q79 5 133 56l29 -29q2 -2 5 -2q4 0 6 2q5 6 0 11l-29 29q51 54 56 133h40q7 1 8 8q-1 7 -8 8v0zM264 384q72 -5 122 -51l-80 -79q-18 14 -42 17v113v0zM248 384v-113q-25 -3 -42 -17l-80 79q50 46 122 51v0zM115 322
l79 -80q-14 -17 -17 -42h-113q5 72 51 122v0zM64 184h113q3 -24 17 -42l-79 -80q-46 50 -51 122v0zM248 0q-72 5 -122 51l80 79q17 -14 42 -17v-113v0zM256 128q-27 1 -45 19v0q-18 18 -19 45q1 27 19 45t45 19q27 -1 45 -19t19 -45q-1 -27 -19 -45t-45 -19v0zM264 0v113
q24 3 42 17l80 -79q-50 -46 -122 -51v0zM397 62l-79 80q14 18 17 42h113q-5 -72 -51 -122v0zM335 200q-3 24 -17 42l79 80q46 -50 51 -122h-113v0z" />
    <glyph glyph-name="face-frown" unicode="&#xf119;" 
d="M256 448q-72 -1 -129 -35v0q-58 -34 -92 -92v0q-34 -57 -35 -129q1 -72 35 -129q34 -58 92 -92q57 -34 129 -35q72 1 129 35q58 34 92 92q34 57 35 129q-1 72 -35 129q-34 58 -92 92q-57 34 -129 35v0zM256 -48q-67 1 -121 33v0q-54 32 -86 86v0q-32 54 -33 121
q1 67 33 121t86 86t121 33q67 -1 121 -33t86 -86t33 -121q-1 -67 -33 -121t-86 -86t-121 -33v0zM256 160q-50 -2 -76 -22v0q-26 -21 -35 -42v0q-9 -20 -9 -22q-1 -8 6 -10q8 -1 10 6q0 3 8 21q8 17 30 35q23 17 66 18q43 -1 66 -18q22 -17 30 -35q8 -17 8 -20v-1q2 -6 8 -6
h2q7 2 6 10q0 2 -9 22q-9 21 -35 42q-26 20 -76 22v0zM336 224q15 1 16 16q-1 15 -16 16q-15 -1 -16 -16q1 -15 16 -16v0zM175 224q16 1 17 16q-1 15 -17 16q-13 -1 -15 -16q2 -15 15 -16v0z" />
    <glyph glyph-name="face-frown" unicode="&#x2639;" 
d="M256 448q-72 -1 -129 -35v0q-58 -34 -92 -92v0q-34 -57 -35 -129q1 -72 35 -129q34 -58 92 -92q57 -34 129 -35q72 1 129 35q58 34 92 92q34 57 35 129q-1 72 -35 129q-34 58 -92 92q-57 34 -129 35v0zM256 -48q-67 1 -121 33v0q-54 32 -86 86v0q-32 54 -33 121
q1 67 33 121t86 86t121 33q67 -1 121 -33t86 -86t33 -121q-1 -67 -33 -121t-86 -86t-121 -33v0zM256 160q-50 -2 -76 -22v0q-26 -21 -35 -42v0q-9 -20 -9 -22q-1 -8 6 -10q8 -1 10 6q0 3 8 21q8 17 30 35q23 17 66 18q43 -1 66 -18q22 -17 30 -35q8 -17 8 -20v-1q2 -6 8 -6
h2q7 2 6 10q0 2 -9 22q-9 21 -35 42q-26 20 -76 22v0zM336 224q15 1 16 16q-1 15 -16 16q-15 -1 -16 -16q1 -15 16 -16v0zM175 224q16 1 17 16q-1 15 -17 16q-13 -1 -15 -16q2 -15 15 -16v0z" />
    <glyph glyph-name="mercury" unicode="&#xf223;" horiz-adv-x="384" 
d="M368 225q-1 61 -36 106v0q-35 46 -91 62q37 12 64 42q5 6 0 11q-6 4 -12 -1q-41 -43 -101 -44q-60 1 -101 44q-6 5 -12 1q-5 -5 0 -11q26 -30 64 -42q-56 -17 -91 -62q-35 -46 -36 -106q2 -73 49 -122t119 -54v-41h-56q-7 -1 -8 -7q1 -7 8 -7h56v-47q1 -11 8 -11q7 1 8 7
v47h56q7 1 8 7q-1 7 -8 7h-56v41q72 7 119 57t49 123v0zM32 224q2 68 47 113v0q45 44 113 46q68 -2 113 -47t47 -112q-2 -67 -47 -112t-113 -47q-68 2 -113 46q-45 45 -47 113v0z" />
    <glyph glyph-name="mercury" unicode="&#x263f;" horiz-adv-x="384" 
d="M368 225q-1 61 -36 106v0q-35 46 -91 62q37 12 64 42q5 6 0 11q-6 4 -12 -1q-41 -43 -101 -44q-60 1 -101 44q-6 5 -12 1q-5 -5 0 -11q26 -30 64 -42q-56 -17 -91 -62q-35 -46 -36 -106q2 -73 49 -122t119 -54v-41h-56q-7 -1 -8 -7q1 -7 8 -7h56v-47q1 -11 8 -11q7 1 8 7
v47h56q7 1 8 7q-1 7 -8 7h-56v41q72 7 119 57t49 123v0zM32 224q2 68 47 113v0q45 44 113 46q68 -2 113 -47t47 -112q-2 -67 -47 -112t-113 -47q-68 2 -113 46q-45 45 -47 113v0z" />
    <glyph glyph-name="venus" unicode="&#xf221;" horiz-adv-x="384" 
d="M368 272q-2 75 -52 124v0q-49 50 -124 52q-75 -2 -124 -52q-50 -49 -52 -124q2 -73 49 -122t119 -54v-56h-80q-7 -1 -8 -8q1 -7 8 -8h80v-80q1 -7 8 -8q7 1 8 8v80h80q7 1 8 8q-1 7 -8 8h-80v56q72 5 119 54t49 122v0zM32 272q2 68 47 113v0q45 45 113 47q68 -2 113 -47
t47 -113q-2 -68 -47 -113t-113 -47q-68 2 -113 47t-47 113v0z" />
    <glyph glyph-name="venus" unicode="&#x2640;" horiz-adv-x="384" 
d="M368 272q-2 75 -52 124v0q-49 50 -124 52q-75 -2 -124 -52q-50 -49 -52 -124q2 -73 49 -122t119 -54v-56h-80q-7 -1 -8 -8q1 -7 8 -8h80v-80q1 -7 8 -8q7 1 8 8v80h80q7 1 8 8q-1 7 -8 8h-80v56q72 5 119 54t49 122v0zM32 272q2 68 47 113v0q45 45 113 47q68 -2 113 -47
t47 -113q-2 -68 -47 -113t-113 -47q-68 2 -113 47t-47 113v0z" />
    <glyph glyph-name="mars" unicode="&#xf222;" horiz-adv-x="448" 
d="M440 416h-144q-7 -1 -8 -8q1 -7 8 -8h125l-126 -126q-49 44 -119 46q-75 -2 -124 -52q-50 -49 -52 -124q2 -75 52 -124q49 -50 124 -52q75 2 124 52q50 49 52 124q-2 70 -46 118l126 127v-125q1 -7 8 -8q7 1 8 8v144q-1 7 -8 8v0zM176 -16q-68 2 -113 47v0
q-45 45 -47 113q2 68 47 113t113 47q68 -2 113 -47t47 -113q-2 -68 -47 -113t-113 -47v0z" />
    <glyph glyph-name="mars" unicode="&#x2642;" horiz-adv-x="448" 
d="M440 416h-144q-7 -1 -8 -8q1 -7 8 -8h125l-126 -126q-49 44 -119 46q-75 -2 -124 -52q-50 -49 -52 -124q2 -75 52 -124q49 -50 124 -52q75 2 124 52q50 49 52 124q-2 70 -46 118l126 127v-125q1 -7 8 -8q7 1 8 8v144q-1 7 -8 8v0zM176 -16q-68 2 -113 47v0
q-45 45 -47 113q2 68 47 113t113 47q68 -2 113 -47t47 -113q-2 -68 -47 -113t-113 -47v0z" />
    <glyph glyph-name="chess-king" unicode="&#xf43f;" horiz-adv-x="448" 
d="M448 248q-1 19 -13 30v0q-12 10 -27 10h-176v88h56q7 1 8 8q-1 7 -8 8h-56v48q-1 7 -8 8q-8 -1 -9 -8v-48h-56q-7 -1 -8 -8q1 -7 8 -8h56v-88h-175q-15 0 -27 -10t-13 -29q0 -6 2 -12l73 -199q2 -5 7 -5q8 1 8 8v3l-73 198q-1 3 -1 7q0 11 8 17q7 6 16 6h368q9 0 16 -6
q8 -6 8 -18q0 -4 -1 -7l-73 -198v-3q0 -7 8 -8q5 0 7 5l73 199q2 6 2 12v0zM360 0h-272q-24 -1 -40 -16q-15 -16 -16 -40q1 -7 8 -8q7 1 8 8q0 17 12 28q11 12 28 12h272q17 0 28 -12q12 -11 12 -28q1 -7 8 -8q7 1 8 8q-1 24 -16 40q-16 15 -40 16v0z" />
    <glyph glyph-name="chess-king" unicode="&#x265a;" horiz-adv-x="448" 
d="M448 248q-1 19 -13 30v0q-12 10 -27 10h-176v88h56q7 1 8 8q-1 7 -8 8h-56v48q-1 7 -8 8q-8 -1 -9 -8v-48h-56q-7 -1 -8 -8q1 -7 8 -8h56v-88h-175q-15 0 -27 -10t-13 -29q0 -6 2 -12l73 -199q2 -5 7 -5q8 1 8 8v3l-73 198q-1 3 -1 7q0 11 8 17q7 6 16 6h368q9 0 16 -6
q8 -6 8 -18q0 -4 -1 -7l-73 -198v-3q0 -7 8 -8q5 0 7 5l73 199q2 6 2 12v0zM360 0h-272q-24 -1 -40 -16q-15 -16 -16 -40q1 -7 8 -8q7 1 8 8q0 17 12 28q11 12 28 12h272q17 0 28 -12q12 -11 12 -28q1 -7 8 -8q7 1 8 8q-1 24 -16 40q-16 15 -40 16v0z" />
    <glyph glyph-name="chess-queen" unicode="&#xf445;" 
d="M392 0h-272q-24 -1 -39 -16q-15 -16 -16 -40q1 -7 7 -8q6 1 7 8q1 17 12 28q11 12 27 12h271q17 0 28 -12q11 -11 12 -28q0 -7 7 -8q6 1 7 8q3 24 -12 40q-15 15 -39 16v0zM256 336q24 1 40 16v0q15 16 16 40q-1 24 -16 40q-16 15 -40 16q-24 -1 -40 -16q-16 -16 -17 -40
q1 -24 17 -40q16 -15 40 -16v0zM256 432q17 0 28 -12v0q11 -11 11 -28t-11 -28q-11 -12 -28 -12t-28 12q-12 11 -12 28t11 28q11 12 29 12v0zM512 245q0 12 -11 20l-27 15q-6 3 -13 3q-13 -1 -20 -11q-8 -12 -30 -14q-24 2 -32 18q-7 16 -6 23q-2 19 -21 21h-38
q-16 -1 -20 -16q-8 -29 -38 -31q-30 2 -38 31q-4 15 -20 16h-37q-20 -2 -21 -20q-1 -17 -11 -29q-11 -12 -28 -12q-19 0 -31 15q-8 9 -19 10q-7 0 -12 -4l-28 -16q-11 -7 -11 -19q0 -6 3 -11l99 -198q2 -4 7 -4q8 1 8 8q0 2 -1 4l-99 197q-1 2 -1 4q0 4 3 6l28 15q2 2 4 2
q4 -1 10 -7q5 -6 14 -12q9 -7 27 -7q22 1 38 17q15 16 16 40q0 5 5 5h37q4 0 5 -3q4 -20 19 -31q14 -12 34 -13q20 1 34 13q15 11 19 31q1 3 5 3h38q4 0 5 -5q-1 -10 9 -32q11 -22 45 -25q17 0 26 6t14 12q6 7 10 7q2 0 5 -1l27 -15q3 -2 3 -6q0 -2 -1 -4l-99 -197
q-1 -2 -1 -4q1 -7 8 -8q5 0 7 4l100 198q2 5 2 11v0z" />
    <glyph glyph-name="chess-queen" unicode="&#x265b;" 
d="M392 0h-272q-24 -1 -39 -16q-15 -16 -16 -40q1 -7 7 -8q6 1 7 8q1 17 12 28q11 12 27 12h271q17 0 28 -12q11 -11 12 -28q0 -7 7 -8q6 1 7 8q3 24 -12 40q-15 15 -39 16v0zM256 336q24 1 40 16v0q15 16 16 40q-1 24 -16 40q-16 15 -40 16q-24 -1 -40 -16q-16 -16 -17 -40
q1 -24 17 -40q16 -15 40 -16v0zM256 432q17 0 28 -12v0q11 -11 11 -28t-11 -28q-11 -12 -28 -12t-28 12q-12 11 -12 28t11 28q11 12 29 12v0zM512 245q0 12 -11 20l-27 15q-6 3 -13 3q-13 -1 -20 -11q-8 -12 -30 -14q-24 2 -32 18q-7 16 -6 23q-2 19 -21 21h-38
q-16 -1 -20 -16q-8 -29 -38 -31q-30 2 -38 31q-4 15 -20 16h-37q-20 -2 -21 -20q-1 -17 -11 -29q-11 -12 -28 -12q-19 0 -31 15q-8 9 -19 10q-7 0 -12 -4l-28 -16q-11 -7 -11 -19q0 -6 3 -11l99 -198q2 -4 7 -4q8 1 8 8q0 2 -1 4l-99 197q-1 2 -1 4q0 4 3 6l28 15q2 2 4 2
q4 -1 10 -7q5 -6 14 -12q9 -7 27 -7q22 1 38 17q15 16 16 40q0 5 5 5h37q4 0 5 -3q4 -20 19 -31q14 -12 34 -13q20 1 34 13q15 11 19 31q1 3 5 3h38q4 0 5 -5q-1 -10 9 -32q11 -22 45 -25q17 0 26 6t14 12q6 7 10 7q2 0 5 -1l27 -15q3 -2 3 -6q0 -2 -1 -4l-99 -197
q-1 -2 -1 -4q1 -7 8 -8q5 0 7 4l100 198q2 5 2 11v0z" />
    <glyph glyph-name="chess-rook" unicode="&#xf447;" horiz-adv-x="384" 
d="M328 0h-272q-24 -1 -40 -16q-15 -16 -16 -40q1 -7 8 -8q7 1 8 8q0 17 12 28q11 12 28 12h272q17 0 28 -12q12 -11 12 -28q1 -7 8 -8q7 1 8 8q-1 24 -16 40q-16 15 -40 16v0zM216 120q15 1 16 16v56q0 17 -12 28q-11 12 -28 12t-28 -12q-12 -11 -12 -28v-56q1 -15 16 -16
h48v0zM168 192q2 22 24 24q22 -2 24 -24v-56h-48v56v0zM368 416h-64q-15 -1 -16 -16v-32q-1 -15 -16 -16q-15 1 -16 16v32q-1 15 -16 16h-96q-15 -1 -16 -16v-32q-1 -15 -16 -16q-15 1 -16 16v32q-1 15 -16 16h-64q-15 -1 -16 -16v-155q1 -26 24 -37l47 -21l-15 -146v-1
q-1 -5 8 -8q7 1 8 7l17 158l-59 26q-13 7 -14 22v155h64v-32q0 -14 9 -23t23 -9t23 9t9 23v32h96v-32q0 -14 9 -23t23 -9t23 9t9 23v32h64v-155q-1 -15 -14 -22l-59 -26l17 -158q1 -6 7 -7q9 3 8 8v1l-15 146l47 21q24 12 25 37v155q-1 15 -16 16v0z" />
    <glyph glyph-name="chess-rook" unicode="&#x265c;" horiz-adv-x="384" 
d="M328 0h-272q-24 -1 -40 -16q-15 -16 -16 -40q1 -7 8 -8q7 1 8 8q0 17 12 28q11 12 28 12h272q17 0 28 -12q12 -11 12 -28q1 -7 8 -8q7 1 8 8q-1 24 -16 40q-16 15 -40 16v0zM216 120q15 1 16 16v56q0 17 -12 28q-11 12 -28 12t-28 -12q-12 -11 -12 -28v-56q1 -15 16 -16
h48v0zM168 192q2 22 24 24q22 -2 24 -24v-56h-48v56v0zM368 416h-64q-15 -1 -16 -16v-32q-1 -15 -16 -16q-15 1 -16 16v32q-1 15 -16 16h-96q-15 -1 -16 -16v-32q-1 -15 -16 -16q-15 1 -16 16v32q-1 15 -16 16h-64q-15 -1 -16 -16v-155q1 -26 24 -37l47 -21l-15 -146v-1
q-1 -5 8 -8q7 1 8 7l17 158l-59 26q-13 7 -14 22v155h64v-32q0 -14 9 -23t23 -9t23 9t9 23v32h96v-32q0 -14 9 -23t23 -9t23 9t9 23v32h64v-155q-1 -15 -14 -22l-59 -26l17 -158q1 -6 7 -7q9 3 8 8v1l-15 146l47 21q24 12 25 37v155q-1 15 -16 16v0z" />
    <glyph glyph-name="chess-bishop" unicode="&#xf43a;" horiz-adv-x="320" 
d="M264 0h-208q-24 -1 -40 -16q-15 -16 -16 -40q1 -7 8 -8q7 1 8 8q0 17 12 28q11 12 28 12h208q17 0 28 -12q12 -11 12 -28q1 -7 8 -8q7 1 8 8q-1 24 -16 40q-16 15 -40 16v0zM56 62v-22q1 -7 8 -8q7 1 8 8v27q-1 7 -12 10q-14 5 -28 20q-15 15 -16 55q1 50 22 94t45 77
q25 32 39 46q6 8 7 9q0 5 -7 7q-17 6 -18 23q2 22 24 24h64q22 -2 24 -24q-1 -17 -18 -23q-7 -2 -7 -7q1 -4 10 -13q10 -9 27 -29q16 -20 38 -59l-104 -103q-2 -3 -2 -6q0 -6 8 -8q3 0 6 2l99 100q29 -59 31 -110q-1 -40 -16 -55q-14 -15 -28 -19q-11 -4 -12 -11v-27
q1 -7 8 -8q7 1 8 8v22q57 20 56 90q-2 57 -34 120q-31 63 -72 103q17 12 18 33q0 17 -12 28q-11 12 -28 12h-64q-17 0 -28 -12q-12 -11 -12 -28q1 -21 18 -33q-41 -39 -72 -103q-32 -63 -34 -120q-1 -70 56 -90v0z" />
    <glyph glyph-name="chess-bishop" unicode="&#x265d;" horiz-adv-x="320" 
d="M264 0h-208q-24 -1 -40 -16q-15 -16 -16 -40q1 -7 8 -8q7 1 8 8q0 17 12 28q11 12 28 12h208q17 0 28 -12q12 -11 12 -28q1 -7 8 -8q7 1 8 8q-1 24 -16 40q-16 15 -40 16v0zM56 62v-22q1 -7 8 -8q7 1 8 8v27q-1 7 -12 10q-14 5 -28 20q-15 15 -16 55q1 50 22 94t45 77
q25 32 39 46q6 8 7 9q0 5 -7 7q-17 6 -18 23q2 22 24 24h64q22 -2 24 -24q-1 -17 -18 -23q-7 -2 -7 -7q1 -4 10 -13q10 -9 27 -29q16 -20 38 -59l-104 -103q-2 -3 -2 -6q0 -6 8 -8q3 0 6 2l99 100q29 -59 31 -110q-1 -40 -16 -55q-14 -15 -28 -19q-11 -4 -12 -11v-27
q1 -7 8 -8q7 1 8 8v22q57 20 56 90q-2 57 -34 120q-31 63 -72 103q17 12 18 33q0 17 -12 28q-11 12 -28 12h-64q-17 0 -28 -12q-12 -11 -12 -28q1 -21 18 -33q-41 -39 -72 -103q-32 -63 -34 -120q-1 -70 56 -90v0z" />
    <glyph glyph-name="chess-knight" unicode="&#xf441;" horiz-adv-x="384" 
d="M24 173l41 -18q7 -3 16 -3q7 0 15 3l12 5q18 7 24 26l9 31q2 7 9 10l10 5v-50q-1 -24 -22 -36l-57 -29q-47 -25 -49 -77q1 -7 8 -8q7 1 8 8q1 42 40 63l57 29q30 16 31 50v63q0 7 -8 8q-2 0 -3 -1l-22 -11q-13 -6 -17 -20l-9 -31q-4 -11 -15 -15l-12 -5q-5 -2 -9 -2
q-5 0 -10 2l-41 18q-13 7 -14 23v123q0 7 5 11l9 9q2 3 2 6q0 2 -1 4l-14 28q-1 2 -1 4q0 4 4 4h140q76 -2 125 -53q49 -52 51 -131v-176q1 -7 8 -8q7 1 8 8v176q-2 86 -56 142q-53 56 -136 58h-140q-18 -2 -20 -20q0 -6 3 -11l11 -23l-5 -5q-9 -10 -9 -23v-123
q1 -27 24 -38v0zM64 304q1 -15 16 -16q15 1 16 16q-1 15 -16 16q-15 -1 -16 -16v0zM328 0h-272q-24 -1 -40 -16q-15 -16 -16 -40q1 -7 8 -8q7 1 8 8q0 17 12 28q11 12 28 12h272q17 0 28 -12q12 -11 12 -28q1 -7 8 -8q7 1 8 8q-1 24 -16 40q-16 15 -40 16v0z" />
    <glyph glyph-name="chess-knight" unicode="&#x265e;" horiz-adv-x="384" 
d="M24 173l41 -18q7 -3 16 -3q7 0 15 3l12 5q18 7 24 26l9 31q2 7 9 10l10 5v-50q-1 -24 -22 -36l-57 -29q-47 -25 -49 -77q1 -7 8 -8q7 1 8 8q1 42 40 63l57 29q30 16 31 50v63q0 7 -8 8q-2 0 -3 -1l-22 -11q-13 -6 -17 -20l-9 -31q-4 -11 -15 -15l-12 -5q-5 -2 -9 -2
q-5 0 -10 2l-41 18q-13 7 -14 23v123q0 7 5 11l9 9q2 3 2 6q0 2 -1 4l-14 28q-1 2 -1 4q0 4 4 4h140q76 -2 125 -53q49 -52 51 -131v-176q1 -7 8 -8q7 1 8 8v176q-2 86 -56 142q-53 56 -136 58h-140q-18 -2 -20 -20q0 -6 3 -11l11 -23l-5 -5q-9 -10 -9 -23v-123
q1 -27 24 -38v0zM64 304q1 -15 16 -16q15 1 16 16q-1 15 -16 16q-15 -1 -16 -16v0zM328 0h-272q-24 -1 -40 -16q-15 -16 -16 -40q1 -7 8 -8q7 1 8 8q0 17 12 28q11 12 28 12h272q17 0 28 -12q12 -11 12 -28q1 -7 8 -8q7 1 8 8q-1 24 -16 40q-16 15 -40 16v0z" />
    <glyph glyph-name="chess-pawn" unicode="&#xf443;" horiz-adv-x="320" 
d="M264 0h-208q-24 -1 -40 -16q-15 -16 -16 -40q1 -7 8 -8q7 1 8 8q0 17 12 28q11 12 28 12h208q17 0 28 -12q12 -11 12 -28q1 -7 8 -8q7 1 8 8q-1 24 -16 40q-16 15 -40 16v0zM56 216q1 -7 8 -8h38l-38 -166v-2q0 -7 8 -8q6 0 8 6l38 170h84l38 -170q2 -6 8 -6q8 1 8 8v2
l-38 166h38q7 1 8 8q-1 7 -8 8h-41q22 14 35 37q14 23 14 51q-1 44 -31 74q-29 29 -74 30q-45 -1 -73 -30q-29 -30 -30 -74q0 -28 14 -51q13 -23 35 -37h-41q-7 -1 -8 -8v0zM72 312q1 37 26 62v0q25 25 62 26q37 -1 62 -26t26 -62q-1 -37 -26 -62q-25 -24 -62 -25
q-37 1 -62 25q-25 25 -26 62v0z" />
    <glyph glyph-name="chess-pawn" unicode="&#x265f;" horiz-adv-x="320" 
d="M264 0h-208q-24 -1 -40 -16q-15 -16 -16 -40q1 -7 8 -8q7 1 8 8q0 17 12 28q11 12 28 12h208q17 0 28 -12q12 -11 12 -28q1 -7 8 -8q7 1 8 8q-1 24 -16 40q-16 15 -40 16v0zM56 216q1 -7 8 -8h38l-38 -166v-2q0 -7 8 -8q6 0 8 6l38 170h84l38 -170q2 -6 8 -6q8 1 8 8v2
l-38 166h38q7 1 8 8q-1 7 -8 8h-41q22 14 35 37q14 23 14 51q-1 44 -31 74q-29 29 -74 30q-45 -1 -73 -30q-29 -30 -30 -74q0 -28 14 -51q13 -23 35 -37h-41q-7 -1 -8 -8v0zM72 312q1 37 26 62v0q25 25 62 26q37 -1 62 -26t26 -62q-1 -37 -26 -62q-25 -24 -62 -25
q-37 1 -62 25q-25 25 -26 62v0z" />
    <glyph glyph-name="spade" unicode="&#xf2f4;" 
d="M480 213l-199 224q-10 11 -25 11t-25 -11l-199 -224q-35 -41 -32 -92t43 -89q38 -32 85 -32q55 0 96 43l24 27v-118h-80q-7 -1 -8 -8q1 -7 8 -8h176q7 1 8 8q-1 7 -8 8h-80v118l24 -27q17 -19 42 -31q26 -12 56 -12q43 -1 83 32q40 38 43 89q3 50 -32 92v0zM458 44
q-32 -28 -72 -28q-25 0 -47 10q-23 10 -39 28l-44 49l-44 -49q-34 -37 -84 -38q-42 1 -74 28q-35 31 -38 77q-2 47 28 81l199 224q5 6 13 6t13 -6l199 -224q30 -34 28 -81q-3 -46 -38 -77v0z" />
    <glyph glyph-name="spade" unicode="&#x2660;" 
d="M480 213l-199 224q-10 11 -25 11t-25 -11l-199 -224q-35 -41 -32 -92t43 -89q38 -32 85 -32q55 0 96 43l24 27v-118h-80q-7 -1 -8 -8q1 -7 8 -8h176q7 1 8 8q-1 7 -8 8h-80v118l24 -27q17 -19 42 -31q26 -12 56 -12q43 -1 83 32q40 38 43 89q3 50 -32 92v0zM458 44
q-32 -28 -72 -28q-25 0 -47 10q-23 10 -39 28l-44 49l-44 -49q-34 -37 -84 -38q-42 1 -74 28q-35 31 -38 77q-2 47 28 81l199 224q5 6 13 6t13 -6l199 -224q30 -34 28 -81q-3 -46 -38 -77v0z" />
    <glyph glyph-name="club" unicode="&#xf327;" 
d="M376 272h-1v0h-1q10 22 10 48q-1 54 -37 91q-37 36 -91 37q-54 -1 -91 -37q-36 -37 -37 -91q0 -26 10 -48h-1h-1q-58 -1 -96 -40q-39 -38 -40 -96q1 -58 40 -96q38 -39 96 -40q35 0 64 17q29 16 48 43v-108h-80q-7 -1 -8 -8q1 -7 8 -8h176q7 1 8 8q-1 7 -8 8h-80v108
q19 -27 48 -43q29 -17 64 -17q58 1 96 40q39 38 40 96q-1 58 -40 96q-38 39 -96 40v0zM405 19q-42 -9 -79 8v0q-36 17 -56 54q-5 8 -14 8t-14 -8q-20 -37 -56 -54q-37 -17 -79 -7q-38 9 -63 39q-24 29 -28 68q-2 54 32 91q34 36 87 38h26l-9 22q-8 20 -8 42q1 48 33 79
q31 32 79 33q48 -1 79 -33q32 -31 33 -79q0 -22 -8 -42l-9 -22h26q53 -2 87 -38q34 -37 32 -91q-4 -39 -28 -68q-25 -30 -63 -40v0z" />
    <glyph glyph-name="club" unicode="&#x2663;" 
d="M376 272h-1v0h-1q10 22 10 48q-1 54 -37 91q-37 36 -91 37q-54 -1 -91 -37q-36 -37 -37 -91q0 -26 10 -48h-1h-1q-58 -1 -96 -40q-39 -38 -40 -96q1 -58 40 -96q38 -39 96 -40q35 0 64 17q29 16 48 43v-108h-80q-7 -1 -8 -8q1 -7 8 -8h176q7 1 8 8q-1 7 -8 8h-80v108
q19 -27 48 -43q29 -17 64 -17q58 1 96 40q39 38 40 96q-1 58 -40 96q-38 39 -96 40v0zM405 19q-42 -9 -79 8v0q-36 17 -56 54q-5 8 -14 8t-14 -8q-20 -37 -56 -54q-37 -17 -79 -7q-38 9 -63 39q-24 29 -28 68q-2 54 32 91q34 36 87 38h26l-9 22q-8 20 -8 42q1 48 33 79
q31 32 79 33q48 -1 79 -33q32 -31 33 -79q0 -22 -8 -42l-9 -22h26q53 -2 87 -38q34 -37 32 -91q-4 -39 -28 -68q-25 -30 -63 -40v0z" />
    <glyph glyph-name="heart" unicode="&#x1f9e1;" 
d="M462 385q-36 31 -83 31q-59 -1 -103 -44l-20 -20l-20 20q-44 43 -103 44q-46 0 -84 -31q-47 -43 -49 -102q-2 -60 40 -106l193 -199q10 -10 23 -10t23 10l193 200q42 46 40 105q-3 59 -50 102v0zM461 189l-193 -200q-5 -5 -13 -5q-7 0 -11 5l-193 200q-37 39 -36 94
q3 54 44 90q32 27 74 27q54 -1 92 -39l31 -32l31 32q38 38 92 39q42 0 73 -27q41 -36 44 -90q1 -55 -35 -94v0z" />
    <glyph glyph-name="heart" unicode="&#x1f90e;" 
d="M462 385q-36 31 -83 31q-59 -1 -103 -44l-20 -20l-20 20q-44 43 -103 44q-46 0 -84 -31q-47 -43 -49 -102q-2 -60 40 -106l193 -199q10 -10 23 -10t23 10l193 200q42 46 40 105q-3 59 -50 102v0zM461 189l-193 -200q-5 -5 -13 -5q-7 0 -11 5l-193 200q-37 39 -36 94
q3 54 44 90q32 27 74 27q54 -1 92 -39l31 -32l31 32q38 38 92 39q42 0 73 -27q41 -36 44 -90q1 -55 -35 -94v0z" />
    <glyph glyph-name="heart" unicode="&#x1f90d;" 
d="M462 385q-36 31 -83 31q-59 -1 -103 -44l-20 -20l-20 20q-44 43 -103 44q-46 0 -84 -31q-47 -43 -49 -102q-2 -60 40 -106l193 -199q10 -10 23 -10t23 10l193 200q42 46 40 105q-3 59 -50 102v0zM461 189l-193 -200q-5 -5 -13 -5q-7 0 -11 5l-193 200q-37 39 -36 94
q3 54 44 90q32 27 74 27q54 -1 92 -39l31 -32l31 32q38 38 92 39q42 0 73 -27q41 -36 44 -90q1 -55 -35 -94v0z" />
    <glyph glyph-name="heart" unicode="&#x1f5a4;" 
d="M462 385q-36 31 -83 31q-59 -1 -103 -44l-20 -20l-20 20q-44 43 -103 44q-46 0 -84 -31q-47 -43 -49 -102q-2 -60 40 -106l193 -199q10 -10 23 -10t23 10l193 200q42 46 40 105q-3 59 -50 102v0zM461 189l-193 -200q-5 -5 -13 -5q-7 0 -11 5l-193 200q-37 39 -36 94
q3 54 44 90q32 27 74 27q54 -1 92 -39l31 -32l31 32q38 38 92 39q42 0 73 -27q41 -36 44 -90q1 -55 -35 -94v0z" />
    <glyph glyph-name="heart" unicode="&#x1f49c;" 
d="M462 385q-36 31 -83 31q-59 -1 -103 -44l-20 -20l-20 20q-44 43 -103 44q-46 0 -84 -31q-47 -43 -49 -102q-2 -60 40 -106l193 -199q10 -10 23 -10t23 10l193 200q42 46 40 105q-3 59 -50 102v0zM461 189l-193 -200q-5 -5 -13 -5q-7 0 -11 5l-193 200q-37 39 -36 94
q3 54 44 90q32 27 74 27q54 -1 92 -39l31 -32l31 32q38 38 92 39q42 0 73 -27q41 -36 44 -90q1 -55 -35 -94v0z" />
    <glyph glyph-name="heart" unicode="&#x1f49b;" 
d="M462 385q-36 31 -83 31q-59 -1 -103 -44l-20 -20l-20 20q-44 43 -103 44q-46 0 -84 -31q-47 -43 -49 -102q-2 -60 40 -106l193 -199q10 -10 23 -10t23 10l193 200q42 46 40 105q-3 59 -50 102v0zM461 189l-193 -200q-5 -5 -13 -5q-7 0 -11 5l-193 200q-37 39 -36 94
q3 54 44 90q32 27 74 27q54 -1 92 -39l31 -32l31 32q38 38 92 39q42 0 73 -27q41 -36 44 -90q1 -55 -35 -94v0z" />
    <glyph glyph-name="heart" unicode="&#x1f49a;" 
d="M462 385q-36 31 -83 31q-59 -1 -103 -44l-20 -20l-20 20q-44 43 -103 44q-46 0 -84 -31q-47 -43 -49 -102q-2 -60 40 -106l193 -199q10 -10 23 -10t23 10l193 200q42 46 40 105q-3 59 -50 102v0zM461 189l-193 -200q-5 -5 -13 -5q-7 0 -11 5l-193 200q-37 39 -36 94
q3 54 44 90q32 27 74 27q54 -1 92 -39l31 -32l31 32q38 38 92 39q42 0 73 -27q41 -36 44 -90q1 -55 -35 -94v0z" />
    <glyph glyph-name="heart" unicode="&#x1f499;" 
d="M462 385q-36 31 -83 31q-59 -1 -103 -44l-20 -20l-20 20q-44 43 -103 44q-46 0 -84 -31q-47 -43 -49 -102q-2 -60 40 -106l193 -199q10 -10 23 -10t23 10l193 200q42 46 40 105q-3 59 -50 102v0zM461 189l-193 -200q-5 -5 -13 -5q-7 0 -11 5l-193 200q-37 39 -36 94
q3 54 44 90q32 27 74 27q54 -1 92 -39l31 -32l31 32q38 38 92 39q42 0 73 -27q41 -36 44 -90q1 -55 -35 -94v0z" />
    <glyph glyph-name="heart" unicode="&#xf08a;" 
d="M462 385q-36 31 -83 31q-59 -1 -103 -44l-20 -20l-20 20q-44 43 -103 44q-46 0 -84 -31q-47 -43 -49 -102q-2 -60 40 -106l193 -199q10 -10 23 -10t23 10l193 200q42 46 40 105q-3 59 -50 102v0zM461 189l-193 -200q-5 -5 -13 -5q-7 0 -11 5l-193 200q-37 39 -36 94
q3 54 44 90q32 27 74 27q54 -1 92 -39l31 -32l31 32q38 38 92 39q42 0 73 -27q41 -36 44 -90q1 -55 -35 -94v0z" />
    <glyph glyph-name="heart" unicode="&#xf004;" 
d="M462 385q-36 31 -83 31q-59 -1 -103 -44l-20 -20l-20 20q-44 43 -103 44q-46 0 -84 -31q-47 -43 -49 -102q-2 -60 40 -106l193 -199q10 -10 23 -10t23 10l193 200q42 46 40 105q-3 59 -50 102v0zM461 189l-193 -200q-5 -5 -13 -5q-7 0 -11 5l-193 200q-37 39 -36 94
q3 54 44 90q32 27 74 27q54 -1 92 -39l31 -32l31 32q38 38 92 39q42 0 73 -27q41 -36 44 -90q1 -55 -35 -94v0z" />
    <glyph glyph-name="heart" unicode="&#x2764;" 
d="M462 385q-36 31 -83 31q-59 -1 -103 -44l-20 -20l-20 20q-44 43 -103 44q-46 0 -84 -31q-47 -43 -49 -102q-2 -60 40 -106l193 -199q10 -10 23 -10t23 10l193 200q42 46 40 105q-3 59 -50 102v0zM461 189l-193 -200q-5 -5 -13 -5q-7 0 -11 5l-193 200q-37 39 -36 94
q3 54 44 90q32 27 74 27q54 -1 92 -39l31 -32l31 32q38 38 92 39q42 0 73 -27q41 -36 44 -90q1 -55 -35 -94v0z" />
    <glyph glyph-name="heart" unicode="&#x2665;" 
d="M462 385q-36 31 -83 31q-59 -1 -103 -44l-20 -20l-20 20q-44 43 -103 44q-46 0 -84 -31q-47 -43 -49 -102q-2 -60 40 -106l193 -199q10 -10 23 -10t23 10l193 200q42 46 40 105q-3 59 -50 102v0zM461 189l-193 -200q-5 -5 -13 -5q-7 0 -11 5l-193 200q-37 39 -36 94
q3 54 44 90q32 27 74 27q54 -1 92 -39l31 -32l31 32q38 38 92 39q42 0 73 -27q41 -36 44 -90q1 -55 -35 -94v0z" />
    <glyph glyph-name="diamond" unicode="&#xf219;" 
d="M497 226l-208 208q-14 14 -33 14t-34 -14l-208 -208q-14 -15 -14 -34t14 -34l208 -208q15 -14 34 -14t34 14l208 208q14 15 14 34t-15 34v0zM487 169l-208 -208q-10 -9 -23 -9t-23 9l-208 208q-9 10 -9 23t9 23l208 208q10 9 23 9t23 -9l208 -208q9 -10 9 -23t-9 -23v0z
" />
    <glyph glyph-name="diamond" unicode="&#x2666;" 
d="M497 226l-208 208q-14 14 -33 14t-34 -14l-208 -208q-14 -15 -14 -34t14 -34l208 -208q15 -14 34 -14t34 14l208 208q14 15 14 34t-15 34v0zM487 169l-208 -208q-10 -9 -23 -9t-23 9l-208 208q-9 10 -9 23t9 23l208 208q10 9 23 9t23 -9l208 -208q9 -10 9 -23t-9 -23v0z
" />
    <glyph glyph-name="recycle" unicode="&#xf1b8;" 
d="M276 396l96 -161l-75 12q-8 1 -10 -7q0 -7 7 -9l93 -15q1 1 1 0h1q2 0 4 1v0v1q2 1 3 3v0v1v0l1 1l15 89q1 7 -6 9q-8 1 -9 -6l-12 -68l-94 157q-12 19 -35 20q-23 -1 -35 -20l-29 -48q-3 -7 3 -11q7 -3 11 3l29 48q8 11 21 11q12 0 20 -11v0zM481 88l-53 88q-4 6 -11 3
q-6 -5 -3 -11l53 -89q8 -12 1 -25q-8 -12 -22 -13h-202l51 49q4 6 0 12q-6 4 -11 0l-64 -62q-5 -2 -5 -7v0v0v-1v0q0 -3 2 -6l67 -64q2 -2 5 -2t6 2q5 6 0 12l-54 51h205q24 1 36 21q12 21 -1 42v0zM162 294h-1v0q0 1 -1 1v0v0h-2h-1q-1 0 -1 1q-1 0 -3 -1q1 1 1 0l-88 -32
q-7 -3 -5 -10q3 -7 10 -5l67 25l-108 -185q-12 -21 -1 -42q13 -20 36 -21h92q7 1 7 8q0 8 -7 8h-92q-14 1 -22 13q-6 13 1 26l111 190l27 -70q2 -4 8 -5q1 0 3 1q6 3 4 10l-33 85l-1 1q-1 1 -1 2v0z" />
    <glyph glyph-name="recycle" unicode="&#x267b;" 
d="M276 396l96 -161l-75 12q-8 1 -10 -7q0 -7 7 -9l93 -15q1 1 1 0h1q2 0 4 1v0v1q2 1 3 3v0v1v0l1 1l15 89q1 7 -6 9q-8 1 -9 -6l-12 -68l-94 157q-12 19 -35 20q-23 -1 -35 -20l-29 -48q-3 -7 3 -11q7 -3 11 3l29 48q8 11 21 11q12 0 20 -11v0zM481 88l-53 88q-4 6 -11 3
q-6 -5 -3 -11l53 -89q8 -12 1 -25q-8 -12 -22 -13h-202l51 49q4 6 0 12q-6 4 -11 0l-64 -62q-5 -2 -5 -7v0v0v-1v0q0 -3 2 -6l67 -64q2 -2 5 -2t6 2q5 6 0 12l-54 51h205q24 1 36 21q12 21 -1 42v0zM162 294h-1v0q0 1 -1 1v0v0h-2h-1q-1 0 -1 1q-1 0 -3 -1q1 1 1 0l-88 -32
q-7 -3 -5 -10q3 -7 10 -5l67 25l-108 -185q-12 -21 -1 -42q13 -20 36 -21h92q7 1 7 8q0 8 -7 8h-92q-14 1 -22 13q-6 13 1 26l111 190l27 -70q2 -4 8 -5q1 0 3 1q6 3 4 10l-33 85l-1 1q-1 1 -1 2v0z" />
    <glyph glyph-name="recycle" unicode="&#x267a;" 
d="M276 396l96 -161l-75 12q-8 1 -10 -7q0 -7 7 -9l93 -15q1 1 1 0h1q2 0 4 1v0v1q2 1 3 3v0v1v0l1 1l15 89q1 7 -6 9q-8 1 -9 -6l-12 -68l-94 157q-12 19 -35 20q-23 -1 -35 -20l-29 -48q-3 -7 3 -11q7 -3 11 3l29 48q8 11 21 11q12 0 20 -11v0zM481 88l-53 88q-4 6 -11 3
q-6 -5 -3 -11l53 -89q8 -12 1 -25q-8 -12 -22 -13h-202l51 49q4 6 0 12q-6 4 -11 0l-64 -62q-5 -2 -5 -7v0v0v-1v0q0 -3 2 -6l67 -64q2 -2 5 -2t6 2q5 6 0 12l-54 51h205q24 1 36 21q12 21 -1 42v0zM162 294h-1v0q0 1 -1 1v0v0h-2h-1q-1 0 -1 1q-1 0 -3 -1q1 1 1 0l-88 -32
q-7 -3 -5 -10q3 -7 10 -5l67 25l-108 -185q-12 -21 -1 -42q13 -20 36 -21h92q7 1 7 8q0 8 -7 8h-92q-14 1 -22 13q-6 13 1 26l111 190l27 -70q2 -4 8 -5q1 0 3 1q6 3 4 10l-33 85l-1 1q-1 1 -1 2v0z" />
    <glyph glyph-name="recycle" unicode="&#x2672;" 
d="M276 396l96 -161l-75 12q-8 1 -10 -7q0 -7 7 -9l93 -15q1 1 1 0h1q2 0 4 1v0v1q2 1 3 3v0v1v0l1 1l15 89q1 7 -6 9q-8 1 -9 -6l-12 -68l-94 157q-12 19 -35 20q-23 -1 -35 -20l-29 -48q-3 -7 3 -11q7 -3 11 3l29 48q8 11 21 11q12 0 20 -11v0zM481 88l-53 88q-4 6 -11 3
q-6 -5 -3 -11l53 -89q8 -12 1 -25q-8 -12 -22 -13h-202l51 49q4 6 0 12q-6 4 -11 0l-64 -62q-5 -2 -5 -7v0v0v-1v0q0 -3 2 -6l67 -64q2 -2 5 -2t6 2q5 6 0 12l-54 51h205q24 1 36 21q12 21 -1 42v0zM162 294h-1v0q0 1 -1 1v0v0h-2h-1q-1 0 -1 1q-1 0 -3 -1q1 1 1 0l-88 -32
q-7 -3 -5 -10q3 -7 10 -5l67 25l-108 -185q-12 -21 -1 -42q13 -20 36 -21h92q7 1 7 8q0 8 -7 8h-92q-14 1 -22 13q-6 13 1 26l111 190l27 -70q2 -4 8 -5q1 0 3 1q6 3 4 10l-33 85l-1 1q-1 1 -1 2v0z" />
    <glyph glyph-name="dice-one" unicode="&#xf525;" horiz-adv-x="448" 
d="M384 416h-320q-27 -1 -45 -19t-19 -45v-320q1 -27 19 -45t45 -19h320q27 1 45 19t19 45v320q-1 27 -19 45t-45 19v0zM432 32q-1 -20 -14 -34v0q-14 -13 -34 -14h-320q-20 1 -34 14q-13 14 -14 34v320q1 20 14 34q14 13 34 14h320q20 -1 34 -14q13 -14 14 -34v-320v0z
M224 224q-14 0 -23 -9v0q-9 -9 -9 -23t9 -23t23 -9t23 9t9 23t-9 23t-23 9v0zM224 176q-15 1 -16 16q1 15 16 16q15 -1 16 -16q-1 -15 -16 -16v0z" />
    <glyph glyph-name="dice-one" unicode="&#x2680;" horiz-adv-x="448" 
d="M384 416h-320q-27 -1 -45 -19t-19 -45v-320q1 -27 19 -45t45 -19h320q27 1 45 19t19 45v320q-1 27 -19 45t-45 19v0zM432 32q-1 -20 -14 -34v0q-14 -13 -34 -14h-320q-20 1 -34 14q-13 14 -14 34v320q1 20 14 34q14 13 34 14h320q20 -1 34 -14q13 -14 14 -34v-320v0z
M224 224q-14 0 -23 -9v0q-9 -9 -9 -23t9 -23t23 -9t23 9t9 23t-9 23t-23 9v0zM224 176q-15 1 -16 16q1 15 16 16q15 -1 16 -16q-1 -15 -16 -16v0z" />
    <glyph glyph-name="dice-two" unicode="&#xf528;" horiz-adv-x="448" 
d="M384 416h-320q-27 -1 -45 -19t-19 -45v-320q1 -27 19 -45t45 -19h320q27 1 45 19t19 45v320q-1 27 -19 45t-45 19v0zM432 32q-1 -20 -14 -34v0q-14 -13 -34 -14h-320q-20 1 -34 14q-13 14 -14 34v320q1 20 14 34q14 13 34 14h320q20 -1 34 -14q13 -14 14 -34v-320v0z
M128 320q-14 0 -23 -9v0q-9 -9 -9 -23t9 -23t23 -9t23 9t9 23t-9 23t-23 9v0zM128 272q-15 1 -16 16q1 15 16 16q15 -1 16 -16q-1 -15 -16 -16v0zM320 128q-14 0 -23 -9v0q-9 -9 -9 -23t9 -23t23 -9t23 9t9 23t-9 23t-23 9v0zM320 80q-15 1 -16 16q1 15 16 16q15 -1 16 -16
q-1 -15 -16 -16v0z" />
    <glyph glyph-name="dice-two" unicode="&#x2681;" horiz-adv-x="448" 
d="M384 416h-320q-27 -1 -45 -19t-19 -45v-320q1 -27 19 -45t45 -19h320q27 1 45 19t19 45v320q-1 27 -19 45t-45 19v0zM432 32q-1 -20 -14 -34v0q-14 -13 -34 -14h-320q-20 1 -34 14q-13 14 -14 34v320q1 20 14 34q14 13 34 14h320q20 -1 34 -14q13 -14 14 -34v-320v0z
M128 320q-14 0 -23 -9v0q-9 -9 -9 -23t9 -23t23 -9t23 9t9 23t-9 23t-23 9v0zM128 272q-15 1 -16 16q1 15 16 16q15 -1 16 -16q-1 -15 -16 -16v0zM320 128q-14 0 -23 -9v0q-9 -9 -9 -23t9 -23t23 -9t23 9t9 23t-9 23t-23 9v0zM320 80q-15 1 -16 16q1 15 16 16q15 -1 16 -16
q-1 -15 -16 -16v0z" />
    <glyph glyph-name="dice-three" unicode="&#xf527;" horiz-adv-x="448" 
d="M384 416h-320q-27 -1 -45 -19t-19 -45v-320q1 -27 19 -45t45 -19h320q27 1 45 19t19 45v320q-1 27 -19 45t-45 19v0zM432 32q-1 -20 -14 -34v0q-14 -13 -34 -14h-320q-20 1 -34 14q-13 14 -14 34v320q1 20 14 34q14 13 34 14h320q20 -1 34 -14q13 -14 14 -34v-320v0z
M128 320q-14 0 -23 -9v0q-9 -9 -9 -23t9 -23t23 -9t23 9t9 23t-9 23t-23 9v0zM128 272q-15 1 -16 16q1 15 16 16q15 -1 16 -16q-1 -15 -16 -16v0zM224 224q-14 0 -23 -9v0q-9 -9 -9 -23t9 -23t23 -9t23 9t9 23t-9 23t-23 9v0zM224 176q-15 1 -16 16q1 15 16 16q15 -1 16 -16
q-1 -15 -16 -16v0zM320 128q-14 0 -23 -9v0q-9 -9 -9 -23t9 -23t23 -9t23 9t9 23t-9 23t-23 9v0zM320 80q-15 1 -16 16q1 15 16 16q15 -1 16 -16q-1 -15 -16 -16v0z" />
    <glyph glyph-name="dice-three" unicode="&#x2682;" horiz-adv-x="448" 
d="M384 416h-320q-27 -1 -45 -19t-19 -45v-320q1 -27 19 -45t45 -19h320q27 1 45 19t19 45v320q-1 27 -19 45t-45 19v0zM432 32q-1 -20 -14 -34v0q-14 -13 -34 -14h-320q-20 1 -34 14q-13 14 -14 34v320q1 20 14 34q14 13 34 14h320q20 -1 34 -14q13 -14 14 -34v-320v0z
M128 320q-14 0 -23 -9v0q-9 -9 -9 -23t9 -23t23 -9t23 9t9 23t-9 23t-23 9v0zM128 272q-15 1 -16 16q1 15 16 16q15 -1 16 -16q-1 -15 -16 -16v0zM224 224q-14 0 -23 -9v0q-9 -9 -9 -23t9 -23t23 -9t23 9t9 23t-9 23t-23 9v0zM224 176q-15 1 -16 16q1 15 16 16q15 -1 16 -16
q-1 -15 -16 -16v0zM320 128q-14 0 -23 -9v0q-9 -9 -9 -23t9 -23t23 -9t23 9t9 23t-9 23t-23 9v0zM320 80q-15 1 -16 16q1 15 16 16q15 -1 16 -16q-1 -15 -16 -16v0z" />
    <glyph glyph-name="dice-four" unicode="&#xf524;" horiz-adv-x="448" 
d="M384 416h-320q-27 -1 -45 -19t-19 -45v-320q1 -27 19 -45t45 -19h320q27 1 45 19t19 45v320q-1 27 -19 45t-45 19v0zM432 32q-1 -20 -14 -34v0q-14 -13 -34 -14h-320q-20 1 -34 14q-13 14 -14 34v320q1 20 14 34q14 13 34 14h320q20 -1 34 -14q13 -14 14 -34v-320v0z
M128 128q-14 0 -23 -9v0q-9 -9 -9 -23t9 -23t23 -9t23 9t9 23t-9 23t-23 9v0zM128 80q-15 1 -16 16q1 15 16 16q15 -1 16 -16q-1 -15 -16 -16v0zM128 320q-14 0 -23 -9v0q-9 -9 -9 -23t9 -23t23 -9t23 9t9 23t-9 23t-23 9v0zM128 272q-15 1 -16 16q1 15 16 16q15 -1 16 -16
q-1 -15 -16 -16v0zM320 128q-14 0 -23 -9v0q-9 -9 -9 -23t9 -23t23 -9t23 9t9 23t-9 23t-23 9v0zM320 80q-15 1 -16 16q1 15 16 16q15 -1 16 -16q-1 -15 -16 -16v0zM320 320q-14 0 -23 -9v0q-9 -9 -9 -23t9 -23t23 -9t23 9t9 23t-9 23t-23 9v0zM320 272q-15 1 -16 16
q1 15 16 16q15 -1 16 -16q-1 -15 -16 -16v0z" />
    <glyph glyph-name="dice-four" unicode="&#x2683;" horiz-adv-x="448" 
d="M384 416h-320q-27 -1 -45 -19t-19 -45v-320q1 -27 19 -45t45 -19h320q27 1 45 19t19 45v320q-1 27 -19 45t-45 19v0zM432 32q-1 -20 -14 -34v0q-14 -13 -34 -14h-320q-20 1 -34 14q-13 14 -14 34v320q1 20 14 34q14 13 34 14h320q20 -1 34 -14q13 -14 14 -34v-320v0z
M128 128q-14 0 -23 -9v0q-9 -9 -9 -23t9 -23t23 -9t23 9t9 23t-9 23t-23 9v0zM128 80q-15 1 -16 16q1 15 16 16q15 -1 16 -16q-1 -15 -16 -16v0zM128 320q-14 0 -23 -9v0q-9 -9 -9 -23t9 -23t23 -9t23 9t9 23t-9 23t-23 9v0zM128 272q-15 1 -16 16q1 15 16 16q15 -1 16 -16
q-1 -15 -16 -16v0zM320 128q-14 0 -23 -9v0q-9 -9 -9 -23t9 -23t23 -9t23 9t9 23t-9 23t-23 9v0zM320 80q-15 1 -16 16q1 15 16 16q15 -1 16 -16q-1 -15 -16 -16v0zM320 320q-14 0 -23 -9v0q-9 -9 -9 -23t9 -23t23 -9t23 9t9 23t-9 23t-23 9v0zM320 272q-15 1 -16 16
q1 15 16 16q15 -1 16 -16q-1 -15 -16 -16v0z" />
    <glyph glyph-name="dice-five" unicode="&#xf523;" horiz-adv-x="448" 
d="M384 416h-320q-27 -1 -45 -19t-19 -45v-320q1 -27 19 -45t45 -19h320q27 1 45 19t19 45v320q-1 27 -19 45t-45 19v0zM432 32q-1 -20 -14 -34v0q-14 -13 -34 -14h-320q-20 1 -34 14q-13 14 -14 34v320q1 20 14 34q14 13 34 14h320q20 -1 34 -14q13 -14 14 -34v-320v0z
M128 128q-14 0 -23 -9v0q-9 -9 -9 -23t9 -23t23 -9t23 9t9 23t-9 23t-23 9v0zM128 80q-15 1 -16 16q1 15 16 16q15 -1 16 -16q-1 -15 -16 -16v0zM128 320q-14 0 -23 -9v0q-9 -9 -9 -23t9 -23t23 -9t23 9t9 23t-9 23t-23 9v0zM128 272q-15 1 -16 16q1 15 16 16q15 -1 16 -16
q-1 -15 -16 -16v0zM224 224q-14 0 -23 -9v0q-9 -9 -9 -23t9 -23t23 -9t23 9t9 23t-9 23t-23 9v0zM224 176q-15 1 -16 16q1 15 16 16q15 -1 16 -16q-1 -15 -16 -16v0zM320 128q-14 0 -23 -9v0q-9 -9 -9 -23t9 -23t23 -9t23 9t9 23t-9 23t-23 9v0zM320 80q-15 1 -16 16
q1 15 16 16q15 -1 16 -16q-1 -15 -16 -16v0zM320 320q-14 0 -23 -9v0q-9 -9 -9 -23t9 -23t23 -9t23 9t9 23t-9 23t-23 9v0zM320 272q-15 1 -16 16q1 15 16 16q15 -1 16 -16q-1 -15 -16 -16v0z" />
    <glyph glyph-name="dice-five" unicode="&#x2684;" horiz-adv-x="448" 
d="M384 416h-320q-27 -1 -45 -19t-19 -45v-320q1 -27 19 -45t45 -19h320q27 1 45 19t19 45v320q-1 27 -19 45t-45 19v0zM432 32q-1 -20 -14 -34v0q-14 -13 -34 -14h-320q-20 1 -34 14q-13 14 -14 34v320q1 20 14 34q14 13 34 14h320q20 -1 34 -14q13 -14 14 -34v-320v0z
M128 128q-14 0 -23 -9v0q-9 -9 -9 -23t9 -23t23 -9t23 9t9 23t-9 23t-23 9v0zM128 80q-15 1 -16 16q1 15 16 16q15 -1 16 -16q-1 -15 -16 -16v0zM128 320q-14 0 -23 -9v0q-9 -9 -9 -23t9 -23t23 -9t23 9t9 23t-9 23t-23 9v0zM128 272q-15 1 -16 16q1 15 16 16q15 -1 16 -16
q-1 -15 -16 -16v0zM224 224q-14 0 -23 -9v0q-9 -9 -9 -23t9 -23t23 -9t23 9t9 23t-9 23t-23 9v0zM224 176q-15 1 -16 16q1 15 16 16q15 -1 16 -16q-1 -15 -16 -16v0zM320 128q-14 0 -23 -9v0q-9 -9 -9 -23t9 -23t23 -9t23 9t9 23t-9 23t-23 9v0zM320 80q-15 1 -16 16
q1 15 16 16q15 -1 16 -16q-1 -15 -16 -16v0zM320 320q-14 0 -23 -9v0q-9 -9 -9 -23t9 -23t23 -9t23 9t9 23t-9 23t-23 9v0zM320 272q-15 1 -16 16q1 15 16 16q15 -1 16 -16q-1 -15 -16 -16v0z" />
    <glyph glyph-name="dice-six" unicode="&#xf526;" horiz-adv-x="448" 
d="M384 416h-320q-27 -1 -45 -19t-19 -45v-320q1 -27 19 -45t45 -19h320q27 1 45 19t19 45v320q-1 27 -19 45t-45 19v0zM432 32q-1 -20 -14 -34v0q-14 -13 -34 -14h-320q-20 1 -34 14q-13 14 -14 34v320q1 20 14 34q14 13 34 14h320q20 -1 34 -14q13 -14 14 -34v-320v0z
M128 128q-14 0 -23 -9v0q-9 -9 -9 -23t9 -23t23 -9t23 9t9 23t-9 23t-23 9v0zM128 80q-15 1 -16 16q1 15 16 16q15 -1 16 -16q-1 -15 -16 -16v0zM128 224q-14 0 -23 -9v0q-9 -9 -9 -23t9 -23t23 -9t23 9t9 23t-9 23t-23 9v0zM128 176q-15 1 -16 16q1 15 16 16q15 -1 16 -16
q-1 -15 -16 -16v0zM128 320q-14 0 -23 -9v0q-9 -9 -9 -23t9 -23t23 -9t23 9t9 23t-9 23t-23 9v0zM128 272q-15 1 -16 16q1 15 16 16q15 -1 16 -16q-1 -15 -16 -16v0zM320 128q-14 0 -23 -9v0q-9 -9 -9 -23t9 -23t23 -9t23 9t9 23t-9 23t-23 9v0zM320 80q-15 1 -16 16
q1 15 16 16q15 -1 16 -16q-1 -15 -16 -16v0zM320 224q-14 0 -23 -9v0q-9 -9 -9 -23t9 -23t23 -9t23 9t9 23t-9 23t-23 9v0zM320 176q-15 1 -16 16q1 15 16 16q15 -1 16 -16q-1 -15 -16 -16v0zM320 320q-14 0 -23 -9v0q-9 -9 -9 -23t9 -23t23 -9t23 9t9 23t-9 23t-23 9v0z
M320 272q-15 1 -16 16q1 15 16 16q15 -1 16 -16q-1 -15 -16 -16v0z" />
    <glyph glyph-name="dice-six" unicode="&#x2685;" horiz-adv-x="448" 
d="M384 416h-320q-27 -1 -45 -19t-19 -45v-320q1 -27 19 -45t45 -19h320q27 1 45 19t19 45v320q-1 27 -19 45t-45 19v0zM432 32q-1 -20 -14 -34v0q-14 -13 -34 -14h-320q-20 1 -34 14q-13 14 -14 34v320q1 20 14 34q14 13 34 14h320q20 -1 34 -14q13 -14 14 -34v-320v0z
M128 128q-14 0 -23 -9v0q-9 -9 -9 -23t9 -23t23 -9t23 9t9 23t-9 23t-23 9v0zM128 80q-15 1 -16 16q1 15 16 16q15 -1 16 -16q-1 -15 -16 -16v0zM128 224q-14 0 -23 -9v0q-9 -9 -9 -23t9 -23t23 -9t23 9t9 23t-9 23t-23 9v0zM128 176q-15 1 -16 16q1 15 16 16q15 -1 16 -16
q-1 -15 -16 -16v0zM128 320q-14 0 -23 -9v0q-9 -9 -9 -23t9 -23t23 -9t23 9t9 23t-9 23t-23 9v0zM128 272q-15 1 -16 16q1 15 16 16q15 -1 16 -16q-1 -15 -16 -16v0zM320 128q-14 0 -23 -9v0q-9 -9 -9 -23t9 -23t23 -9t23 9t9 23t-9 23t-23 9v0zM320 80q-15 1 -16 16
q1 15 16 16q15 -1 16 -16q-1 -15 -16 -16v0zM320 224q-14 0 -23 -9v0q-9 -9 -9 -23t9 -23t23 -9t23 9t9 23t-9 23t-23 9v0zM320 176q-15 1 -16 16q1 15 16 16q15 -1 16 -16q-1 -15 -16 -16v0zM320 320q-14 0 -23 -9v0q-9 -9 -9 -23t9 -23t23 -9t23 9t9 23t-9 23t-23 9v0z
M320 272q-15 1 -16 16q1 15 16 16q15 -1 16 -16q-1 -15 -16 -16v0z" />
    <glyph glyph-name="anchor" unicode="&#xf13d;" horiz-adv-x="576" 
d="M573 109l-72 80q-6 5 -12 0l-72 -80q-4 -6 1 -11q6 -4 11 1l59 64v-11q-2 -83 -56 -139q-54 -55 -136 -61v280h80q7 1 8 8q-1 7 -8 8h-80v41q31 4 51 25q20 22 21 54q-1 34 -23 57q-23 22 -56 23q-34 -1 -57 -23q-23 -23 -24 -57q1 -32 21 -54q20 -21 51 -25v-41h-80
q-7 -1 -8 -8q1 -7 8 -8h80v-280q-82 6 -136 61q-54 56 -56 139v11l58 -64q3 -3 6 -3t5 2q5 5 1 11l-72 80q-6 5 -12 0l-72 -80q-4 -6 1 -11q6 -4 11 1l58 64v-11q2 -89 61 -150q58 -60 147 -66v0h16v0q89 6 147 66q59 61 61 150v11l58 -64q3 -3 6 -3t5 2q6 6 0 11v0z
M224 368q1 27 19 45v0q18 18 45 19q27 -1 45 -19t19 -45q-1 -27 -19 -45t-45 -19q-27 1 -45 19t-19 45v0z" />
    <glyph glyph-name="anchor" unicode="&#x2693;" horiz-adv-x="576" 
d="M573 109l-72 80q-6 5 -12 0l-72 -80q-4 -6 1 -11q6 -4 11 1l59 64v-11q-2 -83 -56 -139q-54 -55 -136 -61v280h80q7 1 8 8q-1 7 -8 8h-80v41q31 4 51 25q20 22 21 54q-1 34 -23 57q-23 22 -56 23q-34 -1 -57 -23q-23 -23 -24 -57q1 -32 21 -54q20 -21 51 -25v-41h-80
q-7 -1 -8 -8q1 -7 8 -8h80v-280q-82 6 -136 61q-54 56 -56 139v11l58 -64q3 -3 6 -3t5 2q5 5 1 11l-72 80q-6 5 -12 0l-72 -80q-4 -6 1 -11q6 -4 11 1l58 64v-11q2 -89 61 -150q58 -60 147 -66v0h16v0q89 6 147 66q59 61 61 150v11l58 -64q3 -3 6 -3t5 2q6 6 0 11v0z
M224 368q1 27 19 45v0q18 18 45 19q27 -1 45 -19t19 -45q-1 -27 -19 -45t-45 -19q-27 1 -45 19t-19 45v0z" />
    <glyph glyph-name="swords" unicode="&#xf71d;" 
d="M296 74q5 6 0 12l-268 268l-12 72q0 4 1 5t4 1l73 -12l268 -268q6 -5 12 0q4 5 0 11l-270 270q-2 2 -4 2l-76 13q-10 1 -18 -6q-7 -7 -6 -18l13 -76q0 -2 2 -4l152 -152l-29 -29q-4 -6 0 -11q1 -1 2 -1q1 -2 4 -2q4 0 6 3l29 29l66 -66l-29 -29q-5 -6 0 -12q2 -2 5 -2
t6 2l29 29l29 -29q3 -2 6 -2t5 2v0zM294 296l124 124l72 12q4 0 5 -1t1 -4l-12 -73l-124 -124q-5 -6 0 -12q2 -2 5 -2t6 2l126 126l2 4l13 76q1 10 -6 18q-7 7 -18 6l-75 -13q-3 0 -5 -2l-126 -126q-4 -6 0 -11q6 -5 12 0v0zM88 153q-6 7 -17 7q-9 0 -16 -7l-18 -18
q-11 -12 -4 -28l29 -53l-55 -55q-14 -17 0 -34l22 -22q8 -7 17 -7q10 0 17 7l55 55l53 -29q16 -7 29 4l17 18q14 17 0 33l-129 129v0zM206 2l-18 -18q-4 -3 -9 -1l-64 34l-63 -63q-6 -4 -11 0l-23 23q-4 5 0 11l63 63l-34 64q-2 5 2 9l17 18q2 2 6 2h-1h1q3 0 5 -2l129 -129
q4 -5 0 -11v0zM505 -1l-55 55l29 53q7 16 -4 29l-18 17q-17 14 -33 0l-129 -129q-8 -7 -7 -17q0 -9 7 -16l18 -18q12 -11 28 -4l53 29l55 -55q7 -7 17 -7q9 0 17 7l22 22q14 17 0 34v0zM494 -23l-23 -23q-5 -4 -11 0l-63 63l-64 -34q-5 -2 -9 2l-18 17q-2 2 -2 5q0 4 2 6
l129 129q5 4 11 0l17 -18q4 -4 2 -9l-34 -64l63 -63q4 -6 0 -11v0z" />
    <glyph glyph-name="swords" unicode="&#x2694;" 
d="M296 74q5 6 0 12l-268 268l-12 72q0 4 1 5t4 1l73 -12l268 -268q6 -5 12 0q4 5 0 11l-270 270q-2 2 -4 2l-76 13q-10 1 -18 -6q-7 -7 -6 -18l13 -76q0 -2 2 -4l152 -152l-29 -29q-4 -6 0 -11q1 -1 2 -1q1 -2 4 -2q4 0 6 3l29 29l66 -66l-29 -29q-5 -6 0 -12q2 -2 5 -2
t6 2l29 29l29 -29q3 -2 6 -2t5 2v0zM294 296l124 124l72 12q4 0 5 -1t1 -4l-12 -73l-124 -124q-5 -6 0 -12q2 -2 5 -2t6 2l126 126l2 4l13 76q1 10 -6 18q-7 7 -18 6l-75 -13q-3 0 -5 -2l-126 -126q-4 -6 0 -11q6 -5 12 0v0zM88 153q-6 7 -17 7q-9 0 -16 -7l-18 -18
q-11 -12 -4 -28l29 -53l-55 -55q-14 -17 0 -34l22 -22q8 -7 17 -7q10 0 17 7l55 55l53 -29q16 -7 29 4l17 18q14 17 0 33l-129 129v0zM206 2l-18 -18q-4 -3 -9 -1l-64 34l-63 -63q-6 -4 -11 0l-23 23q-4 5 0 11l63 63l-34 64q-2 5 2 9l17 18q2 2 6 2h-1h1q3 0 5 -2l129 -129
q4 -5 0 -11v0zM505 -1l-55 55l29 53q7 16 -4 29l-18 17q-17 14 -33 0l-129 -129q-8 -7 -7 -17q0 -9 7 -16l18 -18q12 -11 28 -4l53 29l55 -55q7 -7 17 -7q9 0 17 7l22 22q14 17 0 34v0zM494 -23l-23 -23q-5 -4 -11 0l-63 63l-64 -34q-5 -2 -9 2l-18 17q-2 2 -2 5q0 4 2 6
l129 129q5 4 11 0l17 -18q4 -4 2 -9l-34 -64l63 -63q4 -6 0 -11v0z" />
    <glyph glyph-name="scale-balanced" unicode="&#xf24e;" horiz-adv-x="640" 
d="M634 169l-109 175q-5 8 -13 8t-13 -7l-109 -175q-6 -9 -6 -20q5 -51 41 -84q35 -33 87 -34q52 1 87 34q36 33 41 83q1 11 -6 20v0zM403 160l109 176v0v0l109 -176h-218v0v0v0zM511 48q-43 1 -73 28v0q-31 26 -38 68h222q-6 -42 -37 -68q-30 -27 -74 -28v0zM256 149
q1 11 -6 20l-109 175q-5 8 -14 8q-8 0 -13 -7l-108 -176q-7 -9 -6 -20q5 -50 41 -83q35 -33 86 -34q51 1 87 34t42 83v0zM19 160l109 176v0v0l109 -176h-218v0v0v0zM17 144h222q-7 -42 -38 -68q-30 -27 -73 -28q-43 1 -73 28q-31 26 -38 68v0zM535 -48h-208v368v0v1
q25 3 41 21q15 17 16 42h151q7 1 7 8q1 7 -7 8h-151h-1l-1 -1q-6 22 -22 35q-17 14 -40 14t-40 -14q-16 -13 -22 -35l-1 1h-1h-152q-7 -1 -7 -8t7 -8h151q1 -25 16 -42q16 -18 40 -21l1 -1v0v-368h-208q-7 -1 -7 -8t7 -8h431q7 1 7 8q1 7 -7 8v0zM272 384q1 20 14 34v0
q13 13 33 14q20 -1 33 -14q14 -14 14 -34t-13 -34q-13 -13 -33 -14q-20 1 -34 14q-13 14 -14 34v0z" />
    <glyph glyph-name="scale-balanced" unicode="&#x2696;" horiz-adv-x="640" 
d="M634 169l-109 175q-5 8 -13 8t-13 -7l-109 -175q-6 -9 -6 -20q5 -51 41 -84q35 -33 87 -34q52 1 87 34q36 33 41 83q1 11 -6 20v0zM403 160l109 176v0v0l109 -176h-218v0v0v0zM511 48q-43 1 -73 28v0q-31 26 -38 68h222q-6 -42 -37 -68q-30 -27 -74 -28v0zM256 149
q1 11 -6 20l-109 175q-5 8 -14 8q-8 0 -13 -7l-108 -176q-7 -9 -6 -20q5 -50 41 -83q35 -33 86 -34q51 1 87 34t42 83v0zM19 160l109 176v0v0l109 -176h-218v0v0v0zM17 144h222q-7 -42 -38 -68q-30 -27 -73 -28q-43 1 -73 28q-31 26 -38 68v0zM535 -48h-208v368v0v1
q25 3 41 21q15 17 16 42h151q7 1 7 8q1 7 -7 8h-151h-1l-1 -1q-6 22 -22 35q-17 14 -40 14t-40 -14q-16 -13 -22 -35l-1 1h-1h-152q-7 -1 -7 -8t7 -8h151q1 -25 16 -42q16 -18 40 -21l1 -1v0v-368h-208q-7 -1 -7 -8t7 -8h431q7 1 7 8q1 7 -7 8v0zM272 384q1 20 14 34v0
q13 13 33 14q20 -1 33 -14q14 -14 14 -34t-13 -34q-13 -13 -33 -14q-20 1 -34 14q-13 14 -14 34v0z" />
    <glyph glyph-name="flower-daffodil" unicode="&#xf800;" 
d="M304 305q-1 20 -14 34v0q-14 13 -34 14q-20 -1 -34 -15q-14 -13 -15 -33q1 -20 15 -34t34 -14t34 14q13 13 14 34v0zM223 304q0 14 9 23v0q10 9 23 9q14 0 23 -9t9 -23t-9 -23t-22 -9q-14 0 -23 9t-10 23v0zM504 128h-62q-61 -1 -108 -31q-46 -30 -69 -80v167
q21 -23 55 -24q34 1 57 23q22 23 23 57q-2 41 -32 64q30 23 32 64q-1 34 -23 57q-23 22 -57 23q-41 -2 -64 -32q-23 30 -64 32q-34 -1 -57 -23q-22 -23 -23 -57q2 -41 32 -63q-30 -24 -32 -65q1 -34 23 -57q23 -22 57 -23q34 1 56 24v-167q-23 50 -70 80q-48 30 -109 31h-61
q-7 -1 -8 -8q2 -78 57 -130q54 -52 136 -54h124q83 2 138 54t57 130q-1 7 -8 8v0zM193 -48q-73 2 -123 47v0q-50 45 -55 113h54q73 -2 123 -47t55 -113h-54v0zM243 202q-19 -25 -51 -26q-27 1 -45 19t-19 45q1 32 26 51l17 13l-18 13q-24 19 -25 51q1 27 19 45t45 19
q32 -1 51 -26l13 -17l13 17q19 25 51 26q27 -1 45 -19t19 -45q-1 -32 -26 -51l-17 -13l17 -13q25 -19 26 -51q-1 -27 -19 -45t-45 -19q-32 1 -51 26l-13 17l-13 -17v0zM256 192v0v0v0v0v0v0v0zM317 -48h-54q5 68 55 113t123 47h54q-4 -68 -54 -113t-124 -47v0z" />
    <glyph glyph-name="flower-daffodil" unicode="&#x2698;" 
d="M304 305q-1 20 -14 34v0q-14 13 -34 14q-20 -1 -34 -15q-14 -13 -15 -33q1 -20 15 -34t34 -14t34 14q13 13 14 34v0zM223 304q0 14 9 23v0q10 9 23 9q14 0 23 -9t9 -23t-9 -23t-22 -9q-14 0 -23 9t-10 23v0zM504 128h-62q-61 -1 -108 -31q-46 -30 -69 -80v167
q21 -23 55 -24q34 1 57 23q22 23 23 57q-2 41 -32 64q30 23 32 64q-1 34 -23 57q-23 22 -57 23q-41 -2 -64 -32q-23 30 -64 32q-34 -1 -57 -23q-22 -23 -23 -57q2 -41 32 -63q-30 -24 -32 -65q1 -34 23 -57q23 -22 57 -23q34 1 56 24v-167q-23 50 -70 80q-48 30 -109 31h-61
q-7 -1 -8 -8q2 -78 57 -130q54 -52 136 -54h124q83 2 138 54t57 130q-1 7 -8 8v0zM193 -48q-73 2 -123 47v0q-50 45 -55 113h54q73 -2 123 -47t55 -113h-54v0zM243 202q-19 -25 -51 -26q-27 1 -45 19t-19 45q1 32 26 51l17 13l-18 13q-24 19 -25 51q1 27 19 45t45 19
q32 -1 51 -26l13 -17l13 17q19 25 51 26q27 -1 45 -19t19 -45q-1 -32 -26 -51l-17 -13l17 -13q25 -19 26 -51q-1 -27 -19 -45t-45 -19q-32 1 -51 26l-13 17l-13 -17v0zM256 192v0v0v0v0v0v0v0zM317 -48h-54q5 68 55 113t123 47h54q-4 -68 -54 -113t-124 -47v0z" />
    <glyph glyph-name="gear" unicode="&#xf013;" 
d="M500 116q-1 9 -9 14l-46 27q3 18 3 35t-3 35l46 27q8 5 8 14q0 8 -11 32q-11 23 -26 44q-15 22 -26 23q-5 0 -9 -2l-46 -27q-27 23 -61 35v54q-1 12 -13 16q-24 5 -51 5t-51 -5q-12 -4 -13 -16v-54q-34 -12 -61 -35l-46 27q-4 2 -9 2q-10 -1 -25 -22q-15 -20 -26 -44
q-12 -23 -12 -33q0 -9 8 -14l46 -27q-3 -17 -3 -35t3 -35l-46 -27q-8 -5 -8 -14q0 -8 11 -32q11 -23 26 -44q15 -22 26 -23q5 0 9 2l46 27q27 -23 61 -35v-54q1 -12 13 -16q25 -5 50 -5q26 0 52 5q12 5 13 16v54q34 12 61 35l46 -27q4 -2 9 -2q10 1 25 22q15 20 26 44
q12 23 13 33v0zM435 34l-56 33l-9 -8q-24 -21 -55 -32l-11 -5v-65q-25 -5 -48 -5q-24 0 -48 5v65l-11 4q-31 11 -55 32l-9 8l-56 -33q-33 37 -48 83l56 33l-2 11q-3 17 -3 32t3 32l2 11l-57 33q16 47 49 83l56 -33l9 8q24 21 55 32l11 4v65q24 5 48 5t48 -5v-65l11 -4
q31 -11 55 -32l9 -8l56 33q33 -37 48 -83l-56 -33l2 -11q0 -5 1 -10q2 -11 2 -22q0 -15 -3 -32l-2 -11l57 -33q-16 -47 -49 -82v0zM256 272q-34 -1 -57 -23v0q-22 -23 -23 -57q1 -34 23 -57q23 -22 57 -23q34 1 57 23q22 23 23 57q-1 34 -23 57q-23 22 -57 23v0zM256 129
q-27 1 -45 19v0q-18 18 -19 45q1 27 19 45t45 19q27 -1 45 -19t19 -45q-1 -27 -19 -45t-45 -19v0z" />
    <glyph glyph-name="gear" unicode="&#x2699;" 
d="M500 116q-1 9 -9 14l-46 27q3 18 3 35t-3 35l46 27q8 5 8 14q0 8 -11 32q-11 23 -26 44q-15 22 -26 23q-5 0 -9 -2l-46 -27q-27 23 -61 35v54q-1 12 -13 16q-24 5 -51 5t-51 -5q-12 -4 -13 -16v-54q-34 -12 -61 -35l-46 27q-4 2 -9 2q-10 -1 -25 -22q-15 -20 -26 -44
q-12 -23 -12 -33q0 -9 8 -14l46 -27q-3 -17 -3 -35t3 -35l-46 -27q-8 -5 -8 -14q0 -8 11 -32q11 -23 26 -44q15 -22 26 -23q5 0 9 2l46 27q27 -23 61 -35v-54q1 -12 13 -16q25 -5 50 -5q26 0 52 5q12 5 13 16v54q34 12 61 35l46 -27q4 -2 9 -2q10 1 25 22q15 20 26 44
q12 23 13 33v0zM435 34l-56 33l-9 -8q-24 -21 -55 -32l-11 -5v-65q-25 -5 -48 -5q-24 0 -48 5v65l-11 4q-31 11 -55 32l-9 8l-56 -33q-33 37 -48 83l56 33l-2 11q-3 17 -3 32t3 32l2 11l-57 33q16 47 49 83l56 -33l9 8q24 21 55 32l11 4v65q24 5 48 5t48 -5v-65l11 -4
q31 -11 55 -32l9 -8l56 33q33 -37 48 -83l-56 -33l2 -11q0 -5 1 -10q2 -11 2 -22q0 -15 -3 -32l-2 -11l57 -33q-16 -47 -49 -82v0zM256 272q-34 -1 -57 -23v0q-22 -23 -23 -57q1 -34 23 -57q23 -22 57 -23q34 1 57 23q22 23 23 57q-1 34 -23 57q-23 22 -57 23v0zM256 129
q-27 1 -45 19v0q-18 18 -19 45q1 27 19 45t45 19q27 -1 45 -19t19 -45q-1 -27 -19 -45t-45 -19v0z" />
    <glyph glyph-name="atom" unicode="&#xf5d2;" 
d="M479 320q-27 41 -97 41q-14 0 -29 -2q-18 41 -43 65t-54 24t-54 -24t-43 -65q-15 2 -29 2q-70 0 -97 -41q-14 -26 -6 -59t35 -68q-27 -37 -35 -70t6 -59q27 -41 97 -41q14 0 29 2q18 -42 43 -65q25 -24 54 -24t54 24t43 65q15 -2 29 -2q70 0 97 41q14 26 6 59t-35 69
q27 36 35 69t-6 59v0zM383 345q62 0 82 -33q12 -21 5 -48q-7 -28 -30 -59q-25 30 -60 58q-7 45 -21 81q12 1 24 1v0zM382 240q28 -24 48 -48q-20 -24 -48 -48q3 23 3 48t-3 48v0zM369 192q-1 -32 -5 -62q-24 -19 -52 -35t-56 -28q-28 12 -56 28t-52 35q-5 30 -5 62
q1 32 5 62q24 19 52 35t56 28q28 -12 56 -28t52 -35q5 -30 5 -62v0zM361 277q-19 14 -41 26q-21 12 -43 22q34 12 66 17q11 -29 18 -65v0zM256 432q24 0 44 -20v0q21 -20 37 -55q-39 -6 -81 -23q-42 17 -81 23q16 35 37 55q20 20 44 20v0zM169 342q32 -5 66 -17
q-22 -10 -43 -22q-22 -12 -41 -26q7 36 18 65v0zM47 312q20 33 83 33q11 0 23 -1q-14 -36 -21 -81q-35 -28 -60 -58q-23 31 -29 59q-7 27 4 48v0zM130 144q-28 23 -48 49q20 24 48 48q-3 -25 -3 -49q0 -25 3 -48v0zM130 39q-63 0 -83 33q-11 21 -4 48q7 28 29 59
q25 -30 60 -58q7 -45 21 -81q-12 -1 -23 -1v0zM151 107q19 -14 41 -26q21 -12 43 -22q-34 -12 -66 -17q-11 29 -18 65v0zM256 -48q-24 0 -44 20v0q-21 20 -37 55q39 7 81 23q42 -17 81 -23q-16 -35 -37 -55q-20 -20 -44 -20v0zM343 43q-32 5 -66 17q22 10 43 22q22 12 41 26
q-7 -37 -18 -65v0zM464 72q-20 -33 -82 -33q-12 0 -23 1q13 36 20 81q35 28 60 58q23 -31 30 -59q7 -27 -5 -48v0zM256 240q-20 -1 -34 -14v0q-13 -14 -14 -34q1 -20 14 -34q14 -13 34 -14q20 1 34 14q13 14 14 34q-1 20 -14 34q-14 13 -34 14v0zM256 160q-14 0 -23 9v0
q-10 9 -10 23t10 23q9 9 23 9t23 -9t9 -23t-9 -23t-23 -9v0z" />
    <glyph glyph-name="atom" unicode="&#x269b;" 
d="M479 320q-27 41 -97 41q-14 0 -29 -2q-18 41 -43 65t-54 24t-54 -24t-43 -65q-15 2 -29 2q-70 0 -97 -41q-14 -26 -6 -59t35 -68q-27 -37 -35 -70t6 -59q27 -41 97 -41q14 0 29 2q18 -42 43 -65q25 -24 54 -24t54 24t43 65q15 -2 29 -2q70 0 97 41q14 26 6 59t-35 69
q27 36 35 69t-6 59v0zM383 345q62 0 82 -33q12 -21 5 -48q-7 -28 -30 -59q-25 30 -60 58q-7 45 -21 81q12 1 24 1v0zM382 240q28 -24 48 -48q-20 -24 -48 -48q3 23 3 48t-3 48v0zM369 192q-1 -32 -5 -62q-24 -19 -52 -35t-56 -28q-28 12 -56 28t-52 35q-5 30 -5 62
q1 32 5 62q24 19 52 35t56 28q28 -12 56 -28t52 -35q5 -30 5 -62v0zM361 277q-19 14 -41 26q-21 12 -43 22q34 12 66 17q11 -29 18 -65v0zM256 432q24 0 44 -20v0q21 -20 37 -55q-39 -6 -81 -23q-42 17 -81 23q16 35 37 55q20 20 44 20v0zM169 342q32 -5 66 -17
q-22 -10 -43 -22q-22 -12 -41 -26q7 36 18 65v0zM47 312q20 33 83 33q11 0 23 -1q-14 -36 -21 -81q-35 -28 -60 -58q-23 31 -29 59q-7 27 4 48v0zM130 144q-28 23 -48 49q20 24 48 48q-3 -25 -3 -49q0 -25 3 -48v0zM130 39q-63 0 -83 33q-11 21 -4 48q7 28 29 59
q25 -30 60 -58q7 -45 21 -81q-12 -1 -23 -1v0zM151 107q19 -14 41 -26q21 -12 43 -22q-34 -12 -66 -17q-11 29 -18 65v0zM256 -48q-24 0 -44 20v0q-21 20 -37 55q39 7 81 23q42 -17 81 -23q-16 -35 -37 -55q-20 -20 -44 -20v0zM343 43q-32 5 -66 17q22 10 43 22q22 12 41 26
q-7 -37 -18 -65v0zM464 72q-20 -33 -82 -33q-12 0 -23 1q13 36 20 81q35 28 60 58q23 -31 30 -59q7 -27 -5 -48v0zM256 240q-20 -1 -34 -14v0q-13 -14 -14 -34q1 -20 14 -34q14 -13 34 -14q20 1 34 14q13 14 14 34q-1 20 -14 34q-14 13 -34 14v0zM256 160q-14 0 -23 9v0
q-10 9 -10 23t10 23q9 9 23 9t23 -9t9 -23t-9 -23t-23 -9v0z" />
    <glyph glyph-name="triangle-exclamation" unicode="&#xf071;" 
d="M256 128q7 1 8 8v160q-1 7 -8 8q-7 -1 -8 -8v-160q1 -7 8 -8v0zM506 31l-213 364q-14 21 -37 21t-38 -21l-213 -364q-11 -22 1 -42q11 -20 37 -21h426q26 1 37 21q12 20 0 42v0zM493 -3q-8 -13 -24 -13h-426q-16 0 -24 13q-7 13 1 26l213 364q8 13 23 13t23 -13l213 -364
q8 -13 1 -26v0zM256 80q-15 -1 -16 -16q1 -15 16 -16q15 1 16 16q-1 15 -16 16v0z" />
    <glyph glyph-name="triangle-exclamation" unicode="&#x26a0;" 
d="M256 128q7 1 8 8v160q-1 7 -8 8q-7 -1 -8 -8v-160q1 -7 8 -8v0zM506 31l-213 364q-14 21 -37 21t-38 -21l-213 -364q-11 -22 1 -42q11 -20 37 -21h426q26 1 37 21q12 20 0 42v0zM493 -3q-8 -13 -24 -13h-426q-16 0 -24 13q-7 13 1 26l213 364q8 13 23 13t23 -13l213 -364
q8 -13 1 -26v0zM256 80q-15 -1 -16 -16q1 -15 16 -16q15 1 16 16q-1 15 -16 16v0z" />
    <glyph glyph-name="bolt" unicode="&#xf0e7;" horiz-adv-x="384" 
d="M381 203q-8 20 -30 21h-124l89 178q9 23 -9 39q-8 7 -20 7t-21 -8l-255 -224q-16 -15 -9 -35q9 -20 30 -21h124l-89 -178q-9 -23 9 -39q9 -7 20 -7q12 0 21 8l255 223q17 16 9 36v0zM363 180l-256 -224q-5 -4 -11 -4q-5 0 -10 3q-9 9 -4 20l89 178q3 8 -1 15q-5 8 -14 8
h-124q-11 1 -15 10q-3 10 4 19l256 224q5 4 11 4q5 0 10 -3q9 -9 4 -20l-88 -179q-4 -8 0 -15q5 -8 14 -8h124q11 0 15 -10q3 -11 -4 -18v0z" />
    <glyph glyph-name="bolt" unicode="&#x26a1;" horiz-adv-x="384" 
d="M381 203q-8 20 -30 21h-124l89 178q9 23 -9 39q-8 7 -20 7t-21 -8l-255 -224q-16 -15 -9 -35q9 -20 30 -21h124l-89 -178q-9 -23 9 -39q9 -7 20 -7q12 0 21 8l255 223q17 16 9 36v0zM363 180l-256 -224q-5 -4 -11 -4q-5 0 -10 3q-9 9 -4 20l89 178q3 8 -1 15q-5 8 -14 8
h-124q-11 1 -15 10q-3 10 4 19l256 224q5 4 11 4q5 0 10 -3q9 -9 4 -20l-88 -179q-4 -8 0 -15q5 -8 14 -8h124q11 0 15 -10q3 -11 -4 -18v0z" />
    <glyph glyph-name="venus-double" unicode="&#xf226;" horiz-adv-x="640" 
d="M368 272q-2 75 -52 124v0q-49 50 -124 52q-75 -2 -124 -52q-50 -49 -52 -124q2 -73 49 -122t119 -54v-56h-80q-7 -1 -8 -8q1 -7 8 -8h80v-80q1 -7 8 -8q7 1 8 8v80h80q7 1 8 8q-1 7 -8 8h-80v56q72 5 119 54t49 122v0zM192 112q-68 2 -113 47v0q-45 45 -47 113
q2 68 47 113t113 47q68 -2 113 -47t47 -113q-2 -68 -47 -113t-113 -47v0zM624 272q-2 75 -52 124v0q-49 50 -124 52q-55 0 -101 -32q-5 -4 -2 -11q5 -5 12 -2q41 29 91 29q68 -2 113 -47t47 -113q-2 -68 -47 -113t-113 -47q-50 0 -91 29q-7 3 -12 -2q-3 -7 2 -11
q42 -29 93 -31v-57h-80q-7 -1 -8 -8q1 -7 8 -8h80v-80q1 -7 8 -8q7 1 8 8v80h80q7 1 8 8q-1 7 -8 8h-80v56q72 5 119 54q47 50 49 122v0z" />
    <glyph glyph-name="venus-double" unicode="&#x26a2;" horiz-adv-x="640" 
d="M368 272q-2 75 -52 124v0q-49 50 -124 52q-75 -2 -124 -52q-50 -49 -52 -124q2 -73 49 -122t119 -54v-56h-80q-7 -1 -8 -8q1 -7 8 -8h80v-80q1 -7 8 -8q7 1 8 8v80h80q7 1 8 8q-1 7 -8 8h-80v56q72 5 119 54t49 122v0zM192 112q-68 2 -113 47v0q-45 45 -47 113
q2 68 47 113t113 47q68 -2 113 -47t47 -113q-2 -68 -47 -113t-113 -47v0zM624 272q-2 75 -52 124v0q-49 50 -124 52q-55 0 -101 -32q-5 -4 -2 -11q5 -5 12 -2q41 29 91 29q68 -2 113 -47t47 -113q-2 -68 -47 -113t-113 -47q-50 0 -91 29q-7 3 -12 -2q-3 -7 2 -11
q42 -29 93 -31v-57h-80q-7 -1 -8 -8q1 -7 8 -8h80v-80q1 -7 8 -8q7 1 8 8v80h80q7 1 8 8q-1 7 -8 8h-80v56q72 5 119 54q47 50 49 122v0z" />
    <glyph glyph-name="mars-double" unicode="&#xf227;" horiz-adv-x="640" 
d="M632 416h-144q-7 -1 -8 -8q1 -7 8 -8h125l-132 -132q-5 -5 0 -11q46 -47 47 -113q-2 -68 -47 -113t-113 -47q-23 0 -46 7q-7 1 -10 -6q-1 -7 6 -10q24 -7 50 -7q75 2 124 52q50 49 52 124q-1 68 -46 118l126 127v-125q1 -7 8 -8q7 1 8 8v144q-1 7 -8 8v0zM306 262
l126 127v-125q1 -7 8 -8q7 1 8 8v144q-1 7 -8 8h-144q-7 -1 -8 -8q1 -7 8 -8h125l-126 -126q-49 45 -119 47q-75 -2 -124 -52q-50 -50 -52 -125q2 -75 52 -124q49 -50 124 -52q75 2 124 52q50 49 52 124q-2 70 -46 118v0zM176 -16q-68 2 -113 47v0q-45 45 -47 113
q2 68 47 113t113 47q68 -2 113 -47t47 -113q-2 -68 -47 -113t-113 -47v0z" />
    <glyph glyph-name="mars-double" unicode="&#x26a3;" horiz-adv-x="640" 
d="M632 416h-144q-7 -1 -8 -8q1 -7 8 -8h125l-132 -132q-5 -5 0 -11q46 -47 47 -113q-2 -68 -47 -113t-113 -47q-23 0 -46 7q-7 1 -10 -6q-1 -7 6 -10q24 -7 50 -7q75 2 124 52q50 49 52 124q-1 68 -46 118l126 127v-125q1 -7 8 -8q7 1 8 8v144q-1 7 -8 8v0zM306 262
l126 127v-125q1 -7 8 -8q7 1 8 8v144q-1 7 -8 8h-144q-7 -1 -8 -8q1 -7 8 -8h125l-126 -126q-49 45 -119 47q-75 -2 -124 -52q-50 -50 -52 -125q2 -75 52 -124q49 -50 124 -52q75 2 124 52q50 49 52 124q-2 70 -46 118v0zM176 -16q-68 2 -113 47v0q-45 45 -47 113
q2 68 47 113t113 47q68 -2 113 -47t47 -113q-2 -68 -47 -113t-113 -47v0z" />
    <glyph glyph-name="venus-mars" unicode="&#xf228;" horiz-adv-x="640" 
d="M264 40h-80v56q72 5 119 54t49 122q-2 75 -52 124q-49 50 -124 52q-75 -2 -124 -52q-50 -49 -52 -124q2 -73 49 -122t119 -54v-56h-80q-7 -1 -8 -8q1 -7 8 -8h80v-80q1 -7 8 -8q7 1 8 8v80h80q7 1 8 8q-1 7 -8 8v0zM176 112q-68 2 -113 47v0q-45 45 -47 113q2 68 47 113
t113 47q68 -2 113 -47t47 -113q-2 -68 -47 -113t-113 -47v0zM632 448h-144q-7 -1 -8 -8q1 -7 8 -8h125l-95 -94q-48 44 -118 46q-8 0 -17 -1q-7 -1 -7 -8q1 -8 9 -8q7 1 15 1q68 -2 113 -47t47 -113q-2 -68 -47 -113t-113 -47q-61 1 -107 41q-6 4 -11 -1q-4 -6 1 -11
q49 -44 117 -45q75 2 124 52q50 49 52 124q-2 70 -46 118l94 95v-125q1 -7 8 -8q7 1 8 8v144q-1 7 -8 8v0z" />
    <glyph glyph-name="venus-mars" unicode="&#x26a4;" horiz-adv-x="640" 
d="M264 40h-80v56q72 5 119 54t49 122q-2 75 -52 124q-49 50 -124 52q-75 -2 -124 -52q-50 -49 -52 -124q2 -73 49 -122t119 -54v-56h-80q-7 -1 -8 -8q1 -7 8 -8h80v-80q1 -7 8 -8q7 1 8 8v80h80q7 1 8 8q-1 7 -8 8v0zM176 112q-68 2 -113 47v0q-45 45 -47 113q2 68 47 113
t113 47q68 -2 113 -47t47 -113q-2 -68 -47 -113t-113 -47v0zM632 448h-144q-7 -1 -8 -8q1 -7 8 -8h125l-95 -94q-48 44 -118 46q-8 0 -17 -1q-7 -1 -7 -8q1 -8 9 -8q7 1 15 1q68 -2 113 -47t47 -113q-2 -68 -47 -113t-113 -47q-61 1 -107 41q-6 4 -11 -1q-4 -6 1 -11
q49 -44 117 -45q75 2 124 52q50 49 52 124q-2 70 -46 118l94 95v-125q1 -7 8 -8q7 1 8 8v144q-1 7 -8 8v0z" />
    <glyph glyph-name="mars-and-venus" unicode="&#x26a5;" 
d="M488 448h-120q-7 -1 -8 -8q1 -7 8 -8h101l-98 -97q-45 47 -115 49q-68 -2 -113 -47t-47 -113q2 -66 44 -110q43 -45 108 -49v-1v0v-48h-64q-7 -1 -8 -8q1 -7 8 -8h64v-56q1 -7 8 -8q7 1 8 8v56h64q7 1 8 8q-1 7 -8 8h-64v48v0v1q65 4 108 49q42 44 44 110q-1 56 -35 98
l99 99v-101q1 -7 8 -8q7 1 8 8v120q-1 7 -8 8v0zM256 80q-61 2 -102 42v0q-40 41 -42 102q2 61 42 102q41 40 102 42q61 -2 102 -42q40 -41 42 -102q-2 -61 -42 -102q-41 -40 -102 -42v0z" />
    <glyph glyph-name="mars-stroke" unicode="&#xf229;" 
d="M504 448h-144q-7 -1 -8 -8q1 -7 8 -8h125l-101 -101l-42 43q-6 4 -12 0q-4 -6 0 -12l43 -42l-46 -46q-49 44 -119 46q-75 -2 -124 -52q-50 -49 -52 -124q2 -75 52 -124q49 -50 124 -52q75 2 124 52q50 49 52 124q-2 70 -46 118l46 47l42 -43q2 -2 6 -2t6 2q4 6 0 12
l-43 42l101 101v-125q1 -7 8 -8q7 1 8 8v144q-1 7 -8 8v0zM368 144q-2 -68 -47 -113v0q-45 -45 -113 -47q-68 2 -113 47t-47 113q2 68 47 113t113 47q68 -2 113 -47t47 -113v0z" />
    <glyph glyph-name="mars-stroke" unicode="&#x26a6;" 
d="M504 448h-144q-7 -1 -8 -8q1 -7 8 -8h125l-101 -101l-42 43q-6 4 -12 0q-4 -6 0 -12l43 -42l-46 -46q-49 44 -119 46q-75 -2 -124 -52q-50 -49 -52 -124q2 -75 52 -124q49 -50 124 -52q75 2 124 52q50 49 52 124q-2 70 -46 118l46 47l42 -43q2 -2 6 -2t6 2q4 6 0 12
l-43 42l101 101v-125q1 -7 8 -8q7 1 8 8v144q-1 7 -8 8v0zM368 144q-2 -68 -47 -113v0q-45 -45 -113 -47q-68 2 -113 47t-47 113q2 68 47 113t113 47q68 -2 113 -47t47 -113v0z" />
    </font>
</defs>
</svg>
